<svg xmlns="http://www.w3.org/2000/svg" version="1.1" xmlns:xlink="http://www.w3.org/1999/xlink" xmlns:svgjs="http://svgjs.dev/svgjs" viewBox="0 0 800 800" opacity="0.45"><defs><linearGradient x1="50%" y1="0%" x2="50%" y2="100%" id="ssscribble-grad"><stop stop-color="#3c4bff" stop-opacity="1" offset="0%"></stop><stop stop-color="#4B1E6A" stop-opacity="1" offset="100%"></stop></linearGradient></defs><g fill="none" stroke-width="1.5" stroke="url(#ssscribble-grad)" stroke-linecap="round"><path d="M1010.34 469.71C1042.27 493.01 1086.45 516.36 1123.77 539.52 1139.88 562.44 1126.54 584.7 1088.9 605.75 1040.72 625.92 998.12 644.09 974.18 659.59 1024.75 688.62 1014.17 704.88 944.68 712.65 900.43 724.69 867.89 742.81 850.43 768.23 848.64 800.78 857.88 839.25 872.04 881.22 887.18 922.59 895.84 959.75 894.75 988.15 883.69 1005 861.71 1008.37 831.23 998.7 794.35 981.27 754.38 960.04 714.27 942.06 674.81 935.57 638.64 943.67 606.35 967.88 577.41 1005.52 552.17 1049.25 529.72 1089.6 509.77 1117.62 491.11 1126.31 472.74 1113.65 455.42 1085.52 437.25 1049.77 417.68 1018.35 398.33 1003.51 377.1 1009.73 353.8 1036.13 330.5 1075.27 305.68 1112.66 279.65 1136.08 253.84 1139.2 227.29 1119.58 200.67 1083.1 175.1 1040.12 150.59 1001.41 128.27 975.97 108.45 969.2 92.31 979.59 80.87 1001.42 71.18 1039.05 74.05 1042.73 76.43 997.49 71 955.57 58.3 912.22 36.03 873.06 3.78 842.03 -36.86 821.33 -82.54 810.64 -172.21 820.96 -140.8 817.56 -123.85 791.94 -137.28 768.16 -170.11 740.35 -216.34 710.08 -264.39 677.65 -300.98 644.72 -315.11 612.28 -304.31 579.54 -272.84 548.11 -233.65 518.31 -205 488.73 -198.52 460.78 -219.24 434.45 -261.17 408.24 -307.71 383.46 -339.64 360.16 -343.96 336.86 -318.08 315.59 -273.28 296.42 -212.94 268.99 -232.98 226.23 -284.52 210.84 -304.25 201 -299.76 192.55 -271.54 184.6 -227.27 174.5 -178.5 162.93 -137.36 148.45 -112.57 129.25 -106.98 105.25 -117.37 75.76 -138.66 41.4 -160.25 2.82 -173.99 -38.1 -175.91 -78.04 -162.03 -114.53 -134.05 -143.94 -95.45 -163.78 -51.33 -172.16 -7.14 -168.65 33.65 -157 67.32 -139.59 92.88 -121.93 110.07 -111.81 120.49 -112.67 126.49 -127.97 128.27 -158.03 129.7 -198.5 132.64 -242.47 139.18 -294.16 172.38 -287.23 198.08 -239.46 217.2 -211.96 238.15 -199.2 260.27 -206.93 282.69 -234.96 305.7 -274.71 329 -313.85 352.3 -340.25 375.34 -344.11 398.3 -324.66 421.56 -288.63 445.33 -246.03 470.15 -208.9 496.05 -187.25 523.91 -184.82 554.25 -199.69 586.23 -226.89 620.96 -255.45 658.12 -276.01 695.56 -283.15 733.51 -272.25 769.98 -244.98 802.24 -206.22 828.96 -162.42 847.68 -120.72 846.6 -67 830.69 -88.03 867.72 -90.48 908.98 -82.56 956.51 -66.01 1002.06 -42.14 1036.71 -12.38 1053.69 21.52 1049.69 57.41 1029.33 94.68 999.55 131.12 972.36 165.72 961.21 199.01 971.89 229.77 1004.77 258.14 1051.75 284.91 1098.28 309.91 1128.7 333.68 1133.42 356.57 1110.65 379.02 1069.73 401.49 1029.53 423.72 1006.02 446.41 1010.34 469.71Q1010.34 469.71 1010.34 469.71" opacity="0.33"></path><path d="M983.54 462.17C1014.02 484.54 1056.24 505.65 1093.3 525.35 1112.11 544.87 1103.98 562.64 1071.84 578.36 1026.66 593.52 982.42 606.23 952.04 616.29 986.59 637.49 1010.61 668.89 952.21 691.88 905.97 714.69 864.48 743.32 833.49 777.54 816.18 815.51 811.93 855.52 817.36 894.45 843.76 956.63 795.41 924.53 746.96 905.63 710.21 908.76 673.09 926.17 637.19 957.1 602.12 997.24 569.7 1039.1 540.02 1074.05 512.04 1095.1 486.34 1097.32 462.33 1080.48 439.35 1051.23 417.17 1017.06 395.25 988.58 373.62 976.33 351.7 983.64 329.33 1009.36 306.96 1046.85 284.67 1083.15 262.74 1107.3 241.09 1113.32 220.35 1098.07 201.14 1065.82 182.97 1025.16 167.23 985.46 154.62 955.56 134.8 969.36 123.1 1023.6 108.48 994.76 89.15 960.43 61.95 919.98 26.84 878.71 -13.74 840.81 -57.23 809.94 -99.04 787.67 -149.65 774.59 -98.17 782.44 -99.77 772.24 -125.07 759.82 -165.25 742.6 -212.19 721.59 -254.61 697.68 -281.6 671.52 -285.68 644.19 -267.93 615.58 -234.36 586.97 -197.82 559.04 -174.31 530.78 -172.76 503.67 -196 478.03 -237.48 452.36 -281.97 428.25 -312.45 405.88 -317.49 383.52 -294.36 363.42 -252.48 345.52 -191.37 319.68 -194.38 277.17 -243.9 258.79 -269.9 245.54 -276.13 231.98 -259.7 217.13 -224.55 199.37 -178.8 178.79 -133.39 154.49 -97.77 126.27 -77.97 94 -74.82 58.11 -86.51 20.5 -105.52 -17.89 -124.27 -54.63 -138.03 -86.79 -140.11 -112.32 -128.9 -128.73 -105.47 -135.77 -71.77 -132.83 -32.05 -121.34 10.45 -106.48 51.3 -90.94 87.73 -79.9 118.67 -79.36 142.99 -90.98 161.43 -115.81 174.19 -151.81 183.39 -193.69 190.86 -234.33 198.89 -274.95 222.02 -250.38 240.03 -203.84 253.39 -180.22 269.33 -171.55 287.62 -181.98 306.08 -210.55 326.56 -249.12 348.93 -286.61 371.3 -312.33 395.02 -317.38 420.13 -300.71 445.41 -267.82 472.4 -227.06 501.22 -189.18 530.48 -163.7 561.75 -155.23 594.8 -163.66 627.79 -185.99 661.67 -213.29 695.32 -237.03 726.62 -251.57 755.22 -250.75 779.18 -233.93 797.47 -203.83 808.81 -164.68 812.34 -122.67 810.39 -83.35 802.83 -51.47 792.32 -29.5 783.11 -17.9 820.61 -36.21 875.78 -46.82 920.94 -49.04 964.85 -44.38 999.84 -32.72 1019.97 -15.13 1021.85 8.31 1006.18 36.03 980.72 67.15 953.2 100.02 934.45 133.25 934.41 167.07 955.21 199.79 993.82 230.9 1040.62 261.42 1082 290.14 1104.96 317.17 1103.21 343.64 1077.21 368.79 1036.82 392.84 999.36 416.71 978.5 439.81 983.54 462.17Q983.54 462.17 983.54 462.17" opacity="0.30"></path><path d="M956.54 427.13C985.37 448.56 1025.55 467.95 1062.21 485.28 1083.53 502.55 1080.56 517.65 1054.33 530.59 1013.19 543.47 968.82 554.28 933.46 563.28 917.33 577 978.57 605.4 1007.13 625.27 1007.45 643.38 989.84 665.54 957.49 692.36 915.84 723.42 871.87 758.34 832.2 795.81 801.4 833.19 782.16 868.71 774.06 899.35 793.36 928.62 792.04 881.7 763.25 875.56 737.03 888.17 707.21 913.43 675.6 948.84 642.29 989.2 609.33 1027.42 577.63 1056.06 546.14 1070.11 516.53 1066.44 488.87 1046.23 461.71 1016.56 436.25 984.32 412.3 958.85 388.54 949.07 365.95 957.36 344.52 982.36 323.08 1018.19 303.3 1053.33 285.31 1077.98 267.51 1086.61 251.83 1075.56 238.56 1047.75 225.8 1010.1 215.7 970.57 208.3 937.46 198.55 914.63 183.42 951.36 171.25 982.64 157.29 995.5 138.21 996.16 112.85 983.7 81.43 959.69 44.56 926.38 4.05 888.01 -36.33 848.36 -73.82 811.51 -104.15 780.22 -114.83 737.27 -63.93 732 -84.95 730.62 -119.51 726.71 -163.22 718.72 -207.16 706.89 -241.48 692.56 -258.01 675.05 -252.68 655.19 -229.42 633.71 -195.29 610.92 -162.43 587.54 -144.47 563.5 -147.8 539.59 -173.36 516.27 -214.26 492.81 -256.62 470.24 -285.45 448.8 -290.85 427.37 -270.14 407.57 -231.16 389.28 -187.56 370.85 -152.97 353.62 -137.38 337.24 -144.81 320.19 -169.87 303.27 -202.35 285.86 -232.03 266.83 -246.98 246.27 -241.91 223.46 -217.67 198.14 -178.77 169.91 -134 138.62 -92.21 105.37 -60.97 70.08 -44.08 33.98 -42.68 -0.65 -52.9 -32.8 -69.11 -60.15 -93.5 -87.52 -86.74 -89.75 -49.68 -70.37 -14.79 -57.31 23.81 -47.86 62.87 -46.16 100.91 -56.03 135.2 -77.45 164.9 -109.43 190.08 -148.38 210.69 -188.75 227.74 -223.88 247.25 -252.44 279.92 -213.03 297.8 -169.01 309.93 -149.46 324.19 -144.72 340.79 -157.58 357.36 -186.47 376.34 -223.77 397.78 -259.61 419.21 -284.62 442.6 -290.74 467.77 -276.73 492.93 -247.02 519.81 -208.48 548.1 -170.53 576.08 -142.05 604.93 -128.13 633.9 -130.08 661.41 -146.62 687.61 -170.88 711.18 -195.53 739.08 -219.13 762.34 -180.88 757.28 -126.92 751.26 -86.67 744.55 -49.32 740.33 -18.48 743.17 3.53 754.15 16.33 775.27 21.14 806.53 18.59 845.83 12.51 889.26 5.8 947.82 -2.5 985.98 10.18 958.08 33.27 932.43 54.37 911 79.04 902.47 105.98 913.12 134.93 942.02 164.55 983.8 193.95 1028.37 223.83 1063.67 252.73 1079.38 280.28 1072.05 307.77 1043.77 333.8 1004.42 358.29 969.68 382.72 951.14 405.69 956.54 427.13Q956.54 427.13 956.54 427.13" opacity="0.18"></path><path d="M929.55 380.19C956.76 400.69 994.86 419.19 1030.87 435.75 1054.22 452.39 1055.98 467.24 1035.69 480.53 999.41 494.21 956.48 506.81 918 518.86 893.12 532.12 886 545.8 895.64 560.72 918.32 578.13 944.68 597.98 966.31 620.97 977.95 647.19 974.15 676.83 954.96 709.59 923.26 743.94 883.61 779.32 841.98 813.86 803.17 845.13 771.72 871.52 749.64 890.79 750.85 867.97 728.1 889.23 697.58 942.19 672.93 980.63 646.29 1013.76 618.88 1035.55 590.32 1042.85 562.19 1034.01 535.14 1011.29 507.89 981.84 482.11 951.86 458.03 929.41 433.95 921.98 411.6 931.12 391.1 955.37 370.59 989.55 352.43 1023.45 336.56 1048.39 320.71 1059.32 307.14 1052.25 295.72 1028.96 284.1 994.89 274.24 956.6 265.61 921.6 250.93 890.1 212.82 907.51 183.51 937.79 158.09 955.6 127.98 964.79 93.48 962.98 56.61 950.33 18.41 926.98 -18.4 895.71 -50.42 859.47 -75.35 821.82 -90.39 785.95 -95.18 753.88 -89.32 727.51 -74.73 707.28 -48.89 689.12 -40.33 678.33 -78.29 677.17 -118.2 676.53 -161.28 673.55 -198.98 667.79 -223.65 660.74 -229.89 650.67 -216.58 637.89 -189.67 623.82 -156.53 607.6 -128.16 589.75 -115.78 571.22 -123.58 551.69 -150.99 531.6 -191.05 511.32 -231.23 490.83 -258.44 470.32 -264.17 449.82 -245.78 429.79 -209.77 410.13 -167.78 390.29 -131.88 370.47 -111.77 350.33 -112.52 329.51 -131.24 307.75 -160.3 284.62 -191.29 260.2 -212.71 233.86 -217.89 205.37 -205.27 175.6 -176 143.93 -136.23 110.91 -93.3 78.2 -54.81 45.92 -26.33 15.6 -43.7 -39.61 -13.15 -13.68 34.01 -22.11 70.11 -41.65 106.51 -70.7 141.38 -106.79 174.59 -145.6 204.48 -181.84 230.97 -209.86 254.6 -225.74 275.41 -226.71 294.19 -212.98 311.04 -189.55 327.08 -161.05 343.07 -134.9 358.27 -119.52 374.29 -118.47 391.56 -133.44 408.66 -162.44 427.39 -198.41 447.89 -232.6 468.4 -256.86 490.19 -263.93 513.03 -252.44 535.69 -225.94 559.03 -189.93 582.5 -152.57 605.17 -121.93 627.11 -103.3 647.46 -99.02 665.88 -109.24 681.49 -129.01 693.39 -152.42 704.81 -182 704.58 -171.54 698.22 -129.47 696.85 -92.62 698.99 -54.3 707.16 -18.48 723.69 12.03 748.58 35.23 781.58 50.75 820.17 58.36 861.33 60.12 900.36 58.2 942.35 48.15 880.61 72.78 876.74 98.3 896.95 118.91 931.72 141.64 974.27 165.59 1014.9 190.74 1043.41 216.12 1052.08 241.11 1039.88 266.48 1010.01 290.98 972.09 314.29 940.13 337.66 923.82 359.68 929.55 380.19Q929.55 380.19 929.55 380.19" opacity="0.69"></path><path d="M902.55 341.92C928.17 361.5 964.15 379.84 999.26 397.06 1024.18 414.43 1030.22 430.96 1015.77 446.98 984.94 463.6 944.85 480.31 905.13 497.62 874.56 516.29 858.64 536.38 858.68 558.42 873.39 582.46 896.1 608.93 919.6 637.92 938.74 668.43 946.67 700.67 941.01 733.68 922.39 765.62 892.49 795.78 855.63 822.35 815.91 843.81 778.1 858.89 745.64 866.4 703.86 831.25 701.35 881.67 687.44 935.88 674.01 970.54 657.3 997.53 638.23 1012.29 617.43 1013.33 595.43 1000.18 573.03 975.8 549.94 947.17 527.2 919.7 505.28 900.25 483.22 895.02 462.29 904.9 442.72 928.37 423.15 960.9 405.4 993.49 389.34 1018.52 373.13 1031.42 358.31 1028.06 344.49 1009.28 329.98 979.26 315.73 943.15 301.02 907.56 284.58 878.55 266.53 859.94 246.03 853.31 222.75 858.91 196.23 873.03 166.27 891.35 134.04 910.81 99.5 925.54 63.98 932.34 30.06 930.4 -1.08 918.08 -26.92 896.62 -45.61 867.99 -55.67 834.56 -56.21 799.28 -49.4 764.16 -36.02 731.74 -19.41 703.4 -1.6 670.54 -27.47 634.26 -77.52 625.75 -118.48 622.71 -157.13 619.4 -186.19 614.98 -200.58 610.73 -197.39 604.47 -177.88 595.99 -133.83 581.37 -94.18 540.91 -128.88 516.14 -167.85 498.98 -205.82 480.56 -231.44 460.99 -237.43 441.42 -221.27 421.16 -188.24 400.19 -148.22 379.1 -111.7 357.04 -87.85 333.88 -82.37 310.29 -94.38 285.29 -118.63 258.78 -148.64 231.75 -174.03 203.25 -187.54 173.58 -186.07 144.09 -167.95 114.33 -136.58 85.23 -97.35 58.24 -56.7 33.77 -20.71 13.17 -2.1 0.01 -9.52 15.19 18.55 -7.98 44.91 -35.15 75.05 -68.84 107.02 -105.76 140.39 -141.53 173.06 -171.61 204.08 -191.56 234.06 -199.28 261.69 -193.42 287.06 -175.45 311.04 -150.91 333.25 -124.15 354.14 -101.67 374.24 -90.45 393.73 -92.84 412.99 -109.6 432.04 -138.5 451.29 -173.07 470.86 -205.61 490.43 -229.08 509.86 -236.98 528.94 -227.89 547.79 -204.58 565.87 -171.35 582.68 -135.16 635.22 -113.82 648.25 -154.55 652.58 -126.84 661.81 -96.92 676.66 -62.01 698.3 -25.73 726.67 9.11 760.9 39.71 799.03 64.53 837.41 82.68 872.97 94.48 901.54 101.03 876.84 101.48 904.24 136.22 964.36 160.4 999.66 178.59 1021.02 198.14 1023.1 218.43 1006.81 239.33 976.05 260.35 939.91 281.11 910.75 302.01 896.56 322.34 902.54 341.91Q902.55 341.92 902.55 341.92" opacity="0.87"></path><path d="M875.39 328.94C899.28 347.58 933.06 366.12 967.08 384.63 993.24 403.29 1003.22 422.2 994.55 441.61 969.7 461.56 933.69 482.48 894.52 504.68 860.21 527.84 836.81 552.66 827.35 579.24 832.58 606.72 848.5 635.71 869.69 665.74 891.85 695.4 907.88 724.72 913.94 752.49 909.01 777.29 892.05 798.35 865.29 814.29 831.56 824.9 794.57 829.24 758.05 827.18 724.39 820.91 696.21 810.53 674.41 798.08 654.83 784.05 645.76 794.65 647.26 827.45 648.77 858.98 648.09 894.04 644.63 928.46 635.92 967.98 602.03 973.22 578.86 939.75 562.11 912.46 544.35 887.71 526.04 871.21 507.53 868.03 488.86 878.53 470.22 901.18 451.58 932.07 433.41 963.29 415.62 988.2 397.62 1002.75 379.6 1002.78 361.2 988.43 342.05 962.75 321.85 929.64 300.11 894.7 277 863.43 251.78 839.86 224.25 826.41 195.4 824.37 164.59 831.71 132.47 845.45 100.91 863.41 70.11 880.32 41.76 892.75 8.39 898.41 -16.14 855.42 -5.62 812.79 6.47 779.95 20.19 746.57 31.91 714.52 36.67 684.64 32.87 658.26 18.39 635.69 -7.07 616.99 -41.16 601.8 -79.94 589.37 -149.82 565.09 -94.71 530.49 -63.5 514.59 -62.02 503.35 -77.49 490.22 -107.33 475.23 -145.04 460.19 -180.71 443.35 -204.6 424.71 -210.6 406.07 -196.37 386.07 -166.21 364.81 -128.43 343.5 -92.01 320.85 -65.4 296.94 -54.49 272.99 -59.93 247.84 -78.49 221.76 -105.58 195.98 -132.31 169.77 -151.62 143.74 -159.63 119.04 -152.63 95.67 -131.62 74.58 -99.93 56.41 -62.14 41.88 -23.78 31.85 39.42 43.29 19.86 32.65 28.49 -2.78 41.64 -34.61 60.23 -69.59 82.91 -104.17 108.93 -134.54 136.9 -157.08 165.53 -168.7 195.08 -168.92 223.9 -157.49 251.42 -136.74 278.66 -112.32 304.3 -88.11 328.28 -69.62 351.86 -62.45 374.03 -67.96 394.9 -86.19 415.63 -114.79 435.32 -147.9 453.96 -178.79 472.6 -201.44 489.75 -210.06 505.33 -203.2 520.76 -183.02 534.37 -152.78 545.93 -118.3 581.32 -78.68 611.19 -129.32 632.33 -116.4 653.22 -95.7 679.38 -67.72 710.55 -35.29 744.96 -0.84 781.24 32.8 816.71 63.5 847.97 89.99 872.55 111.25 887.63 127.32 842.01 149.19 895.9 168.73 952.94 183.53 982.02 195.14 996.36 208.75 992.65 223.95 973.23 239.7 942.29 256.56 908.2 274.21 881.73 292.01 869.39 310.3 875.39 328.94Q875.39 328.94 875.39 328.94" opacity="0.82"></path><path d="M848.54 347.41C871.04 365.12 902.74 383.7 935.4 403.13 962.09 422.66 975.09 443.22 971.45 464.86 952.43 486.79 921.26 510 884.33 534.47 848.56 559.23 819.92 585.16 802.43 611.96 806.87 664.3 843.4 714.94 875 756.19 877.93 782.96 839.83 790.42 776.75 778.16 707.73 760.85 652.02 747.32 615.83 754.79 598.89 793.86 592.05 856.05 585.63 919.27 581.32 949.07 562.06 938.59 546.63 903.86 528.58 867.43 483.78 847.06 457.86 874.36 440.15 903.6 421.58 933.4 402.13 958.01 382.54 973.88 361.83 976.96 339.85 966.84 317.46 945.68 293.52 916.21 268 883.05 242.06 850.97 214.68 823.91 186.27 804.75 131.31 796.45 79.83 818.13 42.19 847.18 23.79 866.47 28.65 856.82 51.26 819.71 67.93 763.95 64.04 701.83 24.23 644.72 -44.24 596.39 -112.53 559.58 -142.93 530.81 -138.42 519.17 -121.31 508.17 -95.53 497.22 -57.23 481.76 -45.99 446.73 -85.3 425.91 -121.45 411.58 -154.95 395.59 -177.45 377.88 -183.8 360.17 -171.75 341.17 -144.69 321.01 -109.46 300.91 -73.62 279.77 -44.8 257.86 -28.88 236.23 -27.65 214.16 -39.67 192.12 -62.09 170.95 -87.79 150.49 -110.4 131.45 -130.07 98.83 -98.16 77.32 -31.9 71.06 38.12 73.6 84.17 84.87 99.33 94.21 88.18 84.91 71.86 52.58 66.06 -3.57 73.03 -69.49 99.27 -122.95 138.2 -140.61 160.95 -134.43 184.84 -118.9 209.01 -96.82 233.95 -73.65 258.35 -52.64 281.74 -38.3 305.28 -35.01 327.54 -43.29 348.34 -62.67 369.13 -90.77 388.45 -122.36 406.15 -151.61 431.7 -178.02 472.8 -147.15 488.52 -101.29 502.72 -55.5 525.85 -15.03 537.57 -26.08 560.01 -63.33 592.09 -93.76 639.71 -95.97 700.09 -66.57 767.25 -11.05 824.82 52.67 856.08 111.34 852.02 154.72 818.86 182.54 789.47 195.88 789.33 203.57 834.96 212.6 870.55 216.49 907.78 222.01 940.19 229.38 965.81 241.83 923.04 276.56 876 298.23 852.44 313.29 842.18 329.7 848.54 347.41Q848.54 347.41 848.54 347.41" opacity="0.52"></path><path d="M821.55 388.76C873.34 422.32 931.34 461.06 946.83 504.18 908.38 547.13 839.46 593.42 783.72 639.9 781.39 699.1 841.72 745.01 791.73 725.52 729.86 714.31 666.53 715.44 613.9 740.2 575.38 790.29 550.62 853.2 533.13 906.71 522.48 930.46 509.58 913.92 490.81 867.78 472.29 826.6 446.37 815.87 412.81 847.37 379.26 904.49 339.67 945.3 294.92 943.89 250.41 902.25 202.28 840.08 154.78 787.58 98.88 769.8 78.94 827.94 104.42 813.72 103.96 775.42 77.13 722.71 20.86 666.41 -47.85 611.11 -101.29 563.17 -111.87 523.12 -80.73 489.26 -30.91 459.61 -5.4 430.82 -33.84 403.79 -98.64 374.12 -150.43 340.57 -147.4 307.01 -90.32 271.17 -25.44 234.93 0.77 200.44 -21.72 169.06 -66.02 144.77 -98.46 126.68 -88.1 119.37 -38.47 122.96 29.64 127.54 90.13 132.09 127.29 126.41 137.36 100.09 130.94 53.44 122.19 -7.62 114.93 -66.82 121.45 -105.5 141.31 -108.02 169.65 -80.11 205.56 -37.04 243.62 -8.35 283.67 -19.89 321.55 -67.49 355.11 -124.62 388.66 -156.12 416.29 -138.59 439.51 -84.46 464.73 -25.38 489.86 10.25 519.65 11.1 557.94 -17.82 606.67 -50.63 665.64 -65.79 726.09 -55.61 780.69 -16.96 814.59 38.21 821.41 98.73 800.71 152.78 767.52 195.07 752.82 224.82 772.54 245.13 829.56 261.55 898.46 273.21 940.07 287.96 926.8 308.28 874.87 328.44 824.59 355.2 821.54 388.75Q821.55 388.76 821.55 388.76" opacity="0.54"></path><path d="M794.55 435.04C842.64 466.72 898.83 502.5 920.52 540.86 893.63 578.09 831.65 615.34 770.76 648.83 743.6 685.6 808.8 693.68 792.76 676.91 749.32 677.84 692.31 695.36 634.83 734.45 582.1 790.21 540.22 848.73 507.74 890.11 483 901.06 461.47 877.17 438.86 831.84 417.88 796.01 392.19 789.46 360.5 820.37 328.81 874.28 292.64 915.16 253.85 919.69 216.71 886.93 180.6 830.04 150.42 774.54 122.83 738.18 135.98 784.48 143.65 792.05 122.25 773.32 76.5 736.54 13.1 689.72 -47.35 637.35 -82.25 586.31 -75.08 540.16 -37.42 497.24 6.52 459.47 21.18 425.31 -12.73 392.72 -75.34 361.01 -123.43 329.32 -122.21 297.63 -70.89 267.47 -7.31 240.3 22.43 204.76 -63.62 173.5 -38.55 176.46 17.84 174.45 81.85 165.73 134.64 142.94 167.2 102.36 179.65 47.74 180.73 -11.01 172.5 -70.23 199.96 -19.6 237.31 20.35 266.39 3.59 297.77 -43.7 329.46 -97.61 361.15 -128.52 391.64 -115.55 422.31 -67.49 455.13 -9.93 491.97 31.98 535.41 44.26 583.57 26.1 638.08 -3.99 693.99 -26.76 741.75 -32.85 774.79 -12.8 783.76 27.79 772.5 80.96 746.05 136.73 722.66 187.21 726.34 230.34 763.24 264.21 825.82 291.5 886.7 312.93 914.34 333.32 892.02 355.85 840.67 377.25 795.77 403.35 794.55 435.04Q794.55 435.04 794.55 435.04" opacity="0.88"></path><path d="M767.55 465.94C811.98 495.76 865.85 526.68 892.49 557.15 876.76 586.17 824.01 611.95 762.46 631.48 713.81 649.26 762.83 641.81 774 638.96 753.87 654.61 714.01 686.86 664.38 735.18 610.33 790.91 560.07 840.84 516.71 868.89 478.32 868.39 445.67 839.34 416.12 796.23 388.47 765.93 360.37 763.2 330.55 793.37 300.72 844.03 270.59 884.51 241.99 894.18 215.31 870.2 193.7 820.22 180.4 764.82 172.66 713.32 183.5 735.36 163.07 755.31 123.29 753.66 66.97 734.83 6.5 702.92 -39.3 661.87 -54.78 616.46 -33.62 571.61 6.05 526.5 41.83 485.15 46.05 448.12 7.9 411.88 -52.01 378.89 -96.44 349.06 -96.85 319.24 -51.29 294 9.79 273.99 52.15 248.33 -25.79 226.62 -28.01 219.85 9.98 205.8 66.64 181.82 124.81 144.38 173.77 95.27 206.32 40.06 224.47 -10.12 230.69 -47.53 245.24 18.75 269.2 47.74 288.75 26.57 313.92 -19.94 343.74 -70.61 373.57 -100.78 406.63 -92.02 443.32 -50.21 481.19 4.39 524.28 50.42 572.09 72.79 619.52 66.6 666.94 43.42 707.53 18.75 735.35 1.47 745.63 4.59 735.75 28.02 716.67 67.02 695.38 115.69 688.42 165.95 710.49 215.1 759.63 258.31 821.77 295.16 871.56 327.32 885.63 355.79 856.25 383.02 806.67 408.79 767.15 436.11 767.54 465.93Q767.55 465.94 767.55 465.94" opacity="0.56"></path><path d="M740.54 467.91C781.37 495.87 832.45 521.54 862.79 543.88 857.4 565.09 815.42 581.07 757.36 590.4 692.98 598.05 709.63 598.62 735.34 615.87 736.16 645.2 717.74 687.75 684.9 739.16 642.1 789.62 595.52 828.04 550.6 842.8 506.28 832.78 466.76 800.79 432.01 761.12 398.44 736.37 367.88 737.09 339.92 766.36 311.96 813.75 287.92 853.39 268.77 867.36 250.79 851.76 239.45 809.83 235.32 757.37 232.05 695.43 210.91 685.69 162.58 707.41 112 716.91 55.32 713.44 6.35 697.39 -21.38 672.04 -19.26 638.64 11.02 601.76 48.59 562 74.65 523.17 69.25 487.34 28.12 451.4 -28.62 419.1 -69.45 391.13 -71.29 363.17 -31.42 340.88 26.13 324.09 78.44 301.18 18.41 268.58 -4.69 244.51 12.5 217.48 53.57 180.81 106.2 134.67 160.81 84.2 207.28 35.26 242.12 -1.93 265.26 -20.42 280.03 -15.32 291.59 11.02 298.96 42.99 309.32 69 324.9 73.83 340.34 49.08 361.92 3.78 389.88 -43.61 417.84 -72.89 450.85 -67.95 488.15 -32.42 525.29 18.04 565.79 65.94 606.88 96.46 679.75 68.02 659.01 82.59 666.97 142.43 704.16 188.72 759.29 233.86 815.63 275.12 852.42 314.23 854.05 349.12 819.67 380.64 772.9 411.02 738.7 439.95 740.54 467.91Q740.54 467.91 740.54 467.91" opacity="0.25"></path><path d="M713.54 440.1C750.85 466.19 798.73 487.71 831.49 504.36 835.24 520.56 804.75 531.37 753.64 537.05 700.38 543.31 661.25 546.91 643.68 551.07 648.51 562.12 665.24 580.19 682.47 608.55 696.15 647.48 696.14 694.31 682.28 742.68 657.87 783.82 624.66 809.32 587.87 811.94 548.06 794.75 509.69 761.95 474.89 726.67 440.12 707.39 409.38 711.14 383.29 739.38 347.08 802.67 303.56 814.76 293.6 751 285.17 703.01 275.4 664.94 259.6 642.44 233.23 637.51 195.78 644.08 147.9 654.85 72.63 670.8 15.05 650.32 57.05 615.39 89.03 586.22 104.66 554.94 90.85 524.14 48.02 492.58 -5.14 463.19 -42.45 437.09 -45.56 410.99 -11.27 389.43 41.88 371.78 89.24 353.36 113.12 337.17 109.09 321.12 81.93 301.19 50.72 277.49 31.23 247.53 29.51 210.84 51.12 167.48 89.72 120.27 138.38 75.31 188.18 37.79 232.66 15.55 270.58 10.88 300.1 25.55 323.54 54.41 341.74 82.43 358.63 100.8 377.05 98.62 394.38 71.15 415.64 27.49 441.73 -16.61 467.83 -44.85 497.52 -43.32 529.41 -13.97 560.2 31.38 590.79 79.03 617.81 115.35 645.63 108.73 624.56 89.51 658.11 128.38 704.77 164.44 759.38 203.81 805.67 242.77 828.83 282.32 819.82 318.98 782.53 351.99 739.45 384.56 710.43 413.99 713.53 440.09Q713.54 440.1 713.54 440.1" opacity="0.79"></path><path d="M686.54 394.7C720.39 418.93 764.74 438.25 798.73 452.97 810.15 467.92 791.1 478.98 749.48 487.49 698.77 498.4 653.03 510.01 622.14 525.24 610.4 547.46 613.95 576.96 625.19 614.34 641.08 656.98 651.07 701.77 651.62 742.06 645.06 771.44 628.61 784.15 605.44 776.71 577.86 754.91 547.92 723.22 518.5 693.03 488.23 678.97 460.38 685.31 436.15 712.36 411.92 753.16 392.45 789.9 377.02 809.86 360.75 808.85 346.6 784.49 332.19 744.46 313.37 698.76 289.91 656.7 259.12 625.14 221.22 607.69 176.44 602.46 128.8 605.02 63.68 619.78 129.13 575.29 110.99 540.73 67.65 516.02 18.39 491.01 -15.45 466.78 -19.62 442.55 9.32 420.24 57.37 399.25 104.91 377.31 136.11 354.83 143.76 330.21 127.95 302.31 101.4 269.95 77.29 232.57 61.98 192.35 65.13 149.67 85.74 108.63 119.71 74.31 161.97 50.81 205.81 43.03 249.38 49.35 288.11 69.68 321.27 97.62 350.72 119.88 376.42 130.46 400.21 122.12 422.73 92.82 445.72 51.17 469.95 10.37 494.18 -16.67 518.52 -18.11 541.69 5.28 563.6 44.82 581.98 90.3 594.52 129.87 596.01 148.23 606.07 114.97 659.4 132.74 708.74 154.86 757.03 183.16 790.6 214.23 800.71 247.72 783.3 280.74 745.11 311.49 706.41 342.47 682.37 370.47 686.54 394.7Q686.54 394.7 686.54 394.7" opacity="0.40"></path><path d="M659.54 351.61C690.02 373.98 730.58 392.95 764.63 409.05 782.05 425.8 773.65 441.04 742.97 456.31 699.01 474.5 652.41 495.49 613.21 521.07 587.19 551.69 575.45 587.7 574.58 627.7 583.14 667.88 592.87 705.31 599.05 734.28 601.61 751.94 566.6 699.48 536.08 660.32 513.78 651.14 490.88 659.64 468.52 685.36 446.15 722.85 425.37 757.61 405.48 779.25 384.53 784.08 362.42 768.25 337.42 736.47 308.95 695.95 275.44 653.89 236.75 617.13 196.09 589.79 154.24 572.94 116.38 564.86 92.8 570.38 158.01 551.53 129.8 527.8 87.11 509.97 42.02 489.54 11.54 467.17 6.5 444.81 30.36 421.56 72.82 397.21 118.71 372.13 154.7 344.68 172.42 314.26 168.93 282.15 151.31 246.65 129.15 208.82 107.49 171.83 97.19 136.41 100.91 106.65 116.73 85.42 144.13 75.74 178.13 79.79 216.6 93.25 255.11 115.26 290.95 139.38 325.86 154.77 357.07 157.88 384.74 144.42 411.65 114.15 436.2 74.86 458.57 37.37 480.94 11.65 500.06 7.68 515.34 25.48 529.86 58.79 539.33 100.47 543.19 140.74 545.27 181.29 543.27 185.82 559.12 169.49 584.72 158.81 621.54 154.91 666.48 158.76 711.94 167.66 749.62 183.5 769.5 204.08 768.18 227.57 744.92 253.02 707.65 278.45 673.83 304.54 654.5 329.24 659.54 351.61Q659.54 351.61 659.54 351.61" opacity="0.21"></path><path d="M632.55 329.75C659.76 350.26 696.33 369.83 729.41 388.85 751.06 408.56 751.9 429.03 732.48 451.28 698.22 475.79 655.99 503.66 614.44 535.23 579.26 568.99 554.37 605.2 539.8 641.38 537.31 681.72 491.53 629.02 462.1 658.37 441.59 692.55 419.42 725.02 395.41 747.5 370.7 757.03 342.98 749 311.9 725.89 279.55 692.64 244.1 654.14 207.3 616.38 172.97 583.22 142.3 557.33 119.78 539.05 130.89 522.83 183.29 505.61 147.48 488.52 106.49 475.46 65.76 458.61 38.55 438.1 32.82 417.6 51.92 394.42 88.48 368.81 131.15 342.93 169.34 314.23 194.73 283.19 202.88 252.19 196.49 219.84 181.43 188.12 147.14 129.41 207 150.29 252.35 178.57 284.35 186.65 314.66 183.01 342.01 165.57 369.34 135.18 393.51 98.55 414.01 64.37 434.52 40.12 450.38 34.08 461.72 46.75 473.03 73.68 480.03 110.29 483.56 148.92 488.56 183.16 492.68 208.95 498.66 224.71 510.86 229.53 529.44 227.17 556.43 221.36 591.22 212.05 632.01 205.29 673.98 203.13 722.78 206.1 718.43 241.77 670.41 269.14 641.76 288.79 626.82 309.25 632.55 329.75Q632.55 329.75 632.55 329.75" opacity="0.48"></path><path d="M605.55 338.69C629.6 357.33 662.06 377.29 693.26 398.58 717.36 420.32 725.62 444.16 716.73 470.33 693.63 497.51 659.71 527.26 621.49 558.8 583.67 589.89 550.91 620.51 525.39 648.04 494.92 679.02 477.49 621.7 464.07 598.18 453.66 597.3 439.16 608.72 420.52 631.37 401.88 662.26 379.99 692.17 355.25 714.7 330.4 727.7 302.71 726.39 273.04 711.71 244.2 686.9 215.16 654.7 188.38 619.82 166.23 585.47 150.37 554.69 143.55 529.11 144.64 509.24 155.31 494.48 173.72 483.33 201.12 472.99 204.96 452.76 164.23 437.15 125.83 425.83 89.6 410.95 65.55 392.31 59.35 373.68 74.08 352.16 104.65 328.33 142.84 304.64 180.73 279.02 210.91 252.57 228.61 227.35 233.61 202.96 228.6 181.41 196.43 175.27 263.71 210.52 298.26 185.68 321.51 155.96 342.87 122.27 361.51 91.38 380.15 68.73 395.19 61.08 407.08 69.15 419.48 89.81 429.82 120.51 439.47 155.53 451.61 189.86 465.65 219.67 483.54 242.47 506.58 256.81 535.25 264.02 569.29 266.21 605.93 263.1 643.24 259.24 676.38 256.89 706.65 254.54 678.32 271.31 633.69 289.75 610.3 303.61 599.35 320.05 605.55 338.69Q605.55 338.69 605.55 338.69" opacity="0.27"></path><path d="M578.54 374.53C630.33 408.08 683.74 451.62 694.89 502.42 659.8 552.47 593.68 603.77 529.99 641.93 482.27 659.44 454 647.18 433.93 609.66 421.28 579.33 400.87 572.87 367.32 604.38 333.77 661.51 290.25 698.23 244.76 693.2 206.68 653.15 182.59 591.72 186.34 532.97 206.05 485.66 236.59 452.65 247.08 426.97 211.34 407.62 144.33 383.45 92.54 349.9 95.57 316.35 154.45 276.6 221.75 237.8 259.75 195.66 221.85 217.02 237.98 245.4 263.51 225.83 297.25 175.51 330.8 118.38 364.35 86.87 394.54 106.93 427.15 161.85 468 223.96 522.68 271.81 588.4 298.27 665.16 304.62 604.22 330.78 578.53 374.52Q578.54 374.53 578.54 374.53" opacity="0.98"></path><path d="M551.55 421.52C595.98 451.34 645.6 489.69 666.71 531.54 652.57 569.87 604.68 603.16 546.74 620.15 490.62 621.36 446.81 600.91 414.02 567.21 388.01 546.34 362.45 547.2 332.63 577.37 287.17 646.37 225.6 622.84 241.27 545.53 260.12 493.67 276.38 450.73 268.66 416.5 225.69 387.28 163.98 359.27 119.55 329.44 119.14 299.62 166.37 270.81 228.52 248.34 286.57 229.09 278.24 262.46 279.35 271.9 288.26 244.79 309.45 196.04 339.27 145.37 369.09 115.2 404.73 126.42 447.49 169.16 493.8 224.71 548.88 276.8 602.73 314.67 641.39 336.78 652.51 350.03 626.58 363.38 586.29 373.21 551.15 391.68 551.54 421.51Q551.55 421.52 551.55 421.52" opacity="0.23"></path><path d="M524.49 459.01C561.72 485.1 605.77 514.64 632.39 542.83 635.53 567.09 608.56 582.7 565.35 583.23 514.72 574.83 467.16 553.06 428.14 526.87 392.48 515.37 362.23 522.07 336.13 550.3 300.3 611.85 278.22 617.45 298.06 559.62 307.07 512.79 306.36 468.6 284.09 431.27 238.35 396.34 183.72 365.96 146.49 339.87 143.48 313.77 179.42 294.43 232.94 284.13 283.61 276.24 318.16 279.7 335.21 292.33 336.15 300.27 334.12 303.98 338.27 293.47 341.55 261.89 355.87 216.42 381.96 172.31 408.06 144.07 443.47 147.94 485.41 178.57 526.48 223.89 569.23 273.33 602.5 315.95 619.65 349.62 612.77 374.73 581.24 395.7 546.84 412.73 521.48 432.91 524.49 459.01Q524.49 459.01 524.49 459.01" opacity="0.50"></path><path d="M497.54 470.72C528.02 493.09 565.25 513.24 593 528.29 607.68 540.61 599.46 543.63 574.55 535.35 539.27 524.3 499.93 506.68 464.1 489.9 428.22 486.78 398.09 497.64 375.72 523.36 347.11 576.69 337.26 603.83 345.44 568.02 341.03 533.08 325.53 495.84 294.46 461.99 250.32 428.18 204.02 399.13 173.54 376.76 168.5 354.4 193.84 340.82 236.49 335.87 283.39 330.95 324.15 333.29 353.24 338.91 370.61 337.44 381.28 329.66 391.66 310.52 399.05 277.61 412.68 236.86 435.05 199.37 457.42 173.64 486.41 171.85 517.78 191.36 546.17 224.53 570.4 265.87 582.34 306.24 582.57 343.84 565.54 375.73 535.03 402.17 508.77 425.89 492.5 448.35 497.54 470.72Q497.54 470.72 497.54 470.72" opacity="0.32"></path><path d="M470.5 451.3C494.52 469.94 524.18 482.85 549.54 489.2 572.22 493.28 537.39 469.35 499.72 456.9 472.38 460.43 447.82 473.67 429.18 496.32 405.07 540.85 385.45 580.28 375.52 564.36 359.45 543.87 334.52 518.47 300.76 492.99 261.73 466.34 224.52 442.38 200.5 423.74 194.36 405.1 210.51 393.55 241.5 387.9 279.63 381.07 318.4 377.38 351.62 373.44 379.17 363.12 400.67 346.97 418.43 323.35 433.5 292.05 449.51 257.21 468.15 226.32 496.54 200.83 541.86 244.12 542.54 291.78 533.74 325.58 514.75 357.09 490.29 384.11 472.96 410.05 464.36 432.66 470.5 451.3Q470.5 451.3 470.5 451.3" opacity="0.30"></path><path d="M443.5 409.39C508.41 442.03 511.83 435.15 466.05 469.31 436.23 519.98 414.14 548.97 384.94 545.32 337.12 525.52 271.87 490.14 227.5 460.32 227.19 430.5 277.84 411.88 336.32 392.59 390.95 357.15 432.91 303.98 462.74 253.31 492.56 223.14 504.6 239.34 489.06 280.19 469.66 331.2 443.19 379.57 443.5 409.39Q443.5 409.39 443.5 409.39" opacity="0.51"></path><path d="M416.54 363.4C462.3 389.52 493.44 408.87 465.54 442.36 443.17 479.85 413.74 505.35 376.66 510.92 333.71 509.36 285.02 492.84 254.54 470.47 249.5 448.1 277.83 424.12 317.23 396.37 361.04 361.48 399.34 317.85 421.71 280.36 445.18 255.93 416.6 324.54 416.54 363.4Q416.54 363.4 416.54 363.4" opacity="0.89"></path><path d="M389.51 333.37C433.9 363.19 457.72 385.16 427.9 415.33 398.07 466 325.9 479.44 281.51 449.62 281.18 419.79 338.66 358 368.49 307.33 398.31 277.16 389.18 303.54 389.51 333.37Q389.51 333.37 389.51 333.37" opacity="0.86"></path></g></svg>