<svg xmlns="http://www.w3.org/2000/svg" viewBox="0 0 750 500"><path d="M687.93 21.93c-11.94 2.09-26.53 7.93-33 9.34q-51.18 11.12-102.54 19.66C496.74 60.15 440.82 67.38 385 68.83 301.83 71 220.28 48.62 138.17 36.88c-19.52-2.79-78.21-19.77-88 18C37.4 103.8 37.94 162.6 36.52 213.77c-1.51 54.59-3 109.11-3.41 163.63-.15 18.67 1.06 37.85 7 54.17 7.38 20.43 21.1 29.21 36.44 32.07 27.74 5.16 56 3.54 84 2.25 37.87-1.75 75.74-5.87 113.56-10.25 65.46-7.58 132-20.41 197.57-17.61 46 2 91.26 12.62 136.39 23.3 18.29 4.33 36.23 11 54.75 13.52 15 2 37.93 4 50.26-12.52 10.36-13.85 10.78-46.24 12.1-64.34 2.84-39 3.19-78.27 3-117.3-.36-73.13-1.11-149.19-10.48-220.87-3.25-24.31-11.05-41.18-29.77-37.89Z" style="fill:#92e3a9"/><path d="M687.93 21.93c-11.94 2.09-26.53 7.93-33 9.34q-51.18 11.12-102.54 19.66C496.74 60.15 440.82 67.38 385 68.83 301.83 71 220.28 48.62 138.17 36.88c-19.52-2.79-78.21-19.77-88 18C37.4 103.8 37.94 162.6 36.52 213.77c-1.51 54.59-3 109.11-3.41 163.63-.15 18.67 1.06 37.85 7 54.17 7.38 20.43 21.1 29.21 36.44 32.07 27.74 5.16 56 3.54 84 2.25 37.87-1.75 75.74-5.87 113.56-10.25 65.46-7.58 132-20.41 197.57-17.61 46 2 91.26 12.62 136.39 23.3 18.29 4.33 36.23 11 54.75 13.52 15 2 37.93 4 50.26-12.52 10.36-13.85 10.78-46.24 12.1-64.34 2.84-39 3.19-78.27 3-117.3-.36-73.13-1.11-149.19-10.48-220.87-3.25-24.31-11.05-41.18-29.77-37.89Z" style="fill:#fff;opacity:.7000000000000001"/><g style="opacity:.30000000000000004"><path d="M396.25 223.21h316.97v231.55H396.25z" style="fill:#fff;stroke:#000;stroke-linecap:round;stroke-linejoin:round"/><path d="M410.09 225.54h14.48v228.73h-14.48zM442.96 225.54h14.48v228.73h-14.48zM475.84 225.54h14.48v228.73h-14.48zM621.05 225.54h14.48v228.73h-14.48zM653.93 225.54h14.48v228.73h-14.48zM686.8 225.54h14.48v228.73H686.8z" style="fill:#b2b2b2;stroke:#000;stroke-linecap:round;stroke-linejoin:round"/><path d="M515.27 223.21h78.93v231.55h-78.93z" style="fill:#3d3d3d;stroke:#000;stroke-linecap:round;stroke-linejoin:round"/><path d="m507.09 445.82.91-7.23s-.68-1.07-2.3 1 1.39 6.23 1.39 6.23ZM466.57 225.54l43.5 7.39 43.51-7.39s.64 22.62-9.41 63.09-34.1 72.37-34.1 72.37S486 329.1 476 288.63s-9.43-63.09-9.43-63.09Z" style="fill:#fff;stroke:#000;stroke-linecap:round;stroke-linejoin:round"/><path d="M515.62 317c5.53-18.79 12.38-40.73 12.38-40.73M510.07 361s-1.31-20.47 4.37-40M507 342s-4.8-4.76-16.17-48.56M497.17 257.54c.53 14.93 2.41 47.87 9 72.51M497 249.59s0 1.73.1 4.76" style="fill:none;stroke:#000;stroke-linecap:round;stroke-linejoin:round"/><path d="M513.57 356.23s4.37 37.61 6.12 50 3.5 30 3.5 30-17.49 1.43-17.49 3.33 3.1 6.7.47 8.13S493 442.4 493 442.4l13.11-84.26s3.09-5.24 7.46-1.91Z" style="fill:#fff;stroke:#000;stroke-linecap:round;stroke-linejoin:round"/><path d="m508.19 394.02.33-6.11M505.7 439.54l2.22-40.66" style="fill:none;stroke:#000;stroke-linecap:round;stroke-linejoin:round"/><path d="m495.16 428.66 11-70.52s1.49-2.54 3.87-3v82.7c-2.48.48-4.31 1.05-4.31 1.66 0 1.91 3.1 6.7.47 8.13-1.87 1-7.79-2.11-11-4ZM478.79 227.62v71c-1-3.26-2-6.59-2.81-10-10.05-40.47-9.41-63.09-9.41-63.09Z" style="fill:#b2b2b2;stroke:#000;stroke-linecap:round;stroke-linejoin:round"/><path d="M510 360.9a208.71 208.71 0 0 1-14.84-23.9V230.4l14.84 2.52ZM541.23 299a218.05 218.05 0 0 1-14.85 35.33V230.16l14.85-2.52Z" style="fill:#b2b2b2;stroke:#000;stroke-linecap:round;stroke-linejoin:round"/><path d="m599 445.82-.91-7.23s.68-1.07 2.29 1-1.38 6.23-1.38 6.23ZM639.53 225.54 596 232.93l-43.5-7.39s-.65 22.62 9.41 63.09S596 361 596 361s24-31.89 34.1-72.36 9.43-63.1 9.43-63.1Z" style="fill:#fff;stroke:#000;stroke-linecap:round;stroke-linejoin:round"/><path d="M590.47 317c-5.53-18.79-12.37-40.73-12.37-40.73M596 361s1.31-20.47-4.37-40M599.08 342s4.81-4.76 16.18-48.56M608.93 257.54c-.53 14.93-2.42 47.87-9 72.51M609.14 249.59s0 1.73-.11 4.76" style="fill:none;stroke:#000;stroke-linecap:round;stroke-linejoin:round"/><path d="M592.53 356.23s-4.38 37.61-6.12 50-3.5 30-3.5 30 17.48 1.43 17.48 3.33-3.09 6.7-.47 8.13 13.15-5.27 13.15-5.27L600 358.14s-3.1-5.24-7.47-1.91Z" style="fill:#fff;stroke:#000;stroke-linecap:round;stroke-linejoin:round"/><path d="m597.91 394.02-.33-6.11M600.39 439.54l-2.22-40.66" style="fill:none;stroke:#000;stroke-linecap:round;stroke-linejoin:round"/><path d="m610.93 428.66-11-70.52s-1.49-2.54-3.87-3v82.7c2.47.48 4.3 1.05 4.3 1.66 0 1.91-3.09 6.7-.47 8.13 1.88 1 7.79-2.11 11-4ZM627.3 227.62v71c1-3.26 2-6.59 2.82-10 10-40.47 9.41-63.09 9.41-63.09Z" style="fill:#b2b2b2;stroke:#000;stroke-linecap:round;stroke-linejoin:round"/><path d="M596.09 360.9a209.48 209.48 0 0 0 14.84-23.9V230.4l-14.84 2.52ZM564.87 299a218.05 218.05 0 0 0 14.85 35.33V230.16l-14.85-2.52ZM556.15 108.6 384.22 212.8h343.86L556.15 108.6z" style="fill:#b2b2b2;stroke:#000;stroke-linecap:round;stroke-linejoin:round"/><path d="M556.15 119.13 401.68 212.8h308.95l-154.48-93.67zM384.22 212.8h17.42v56.77a6.6 6.6 0 0 1-6.6 6.6h-4.22a6.6 6.6 0 0 1-6.6-6.6V212.8h0Z" style="fill:#fff;stroke:#000;stroke-linecap:round;stroke-linejoin:round"/><path d="M401.38 212.8h17.42v56.77a6.6 6.6 0 0 1-6.6 6.6H408a6.6 6.6 0 0 1-6.6-6.6V212.8h-.02Z" style="fill:#b2b2b2;stroke:#000;stroke-linecap:round;stroke-linejoin:round"/><path d="M418.53 212.8H436v56.77a6.6 6.6 0 0 1-6.6 6.6h-4.22a6.6 6.6 0 0 1-6.6-6.6V212.8h-.05Z" style="fill:#fff;stroke:#000;stroke-linecap:round;stroke-linejoin:round"/><path d="M435.69 212.8h17.42v56.77a6.6 6.6 0 0 1-6.6 6.6h-4.22a6.6 6.6 0 0 1-6.6-6.6V212.8h0Z" style="fill:#b2b2b2;stroke:#000;stroke-linecap:round;stroke-linejoin:round"/><path d="M452.85 212.8h17.42v56.77a6.6 6.6 0 0 1-6.6 6.6h-4.22a6.6 6.6 0 0 1-6.6-6.6V212.8h0Z" style="fill:#fff;stroke:#000;stroke-linecap:round;stroke-linejoin:round"/><path d="M470 212.8h17.42v56.77a6.6 6.6 0 0 1-6.6 6.6h-4.22a6.6 6.6 0 0 1-6.6-6.6V212.8h0Z" style="fill:#b2b2b2;stroke:#000;stroke-linecap:round;stroke-linejoin:round"/><path d="M487.16 212.8h17.42v56.77a6.6 6.6 0 0 1-6.6 6.6h-4.22a6.6 6.6 0 0 1-6.6-6.6V212.8h0Z" style="fill:#fff;stroke:#000;stroke-linecap:round;stroke-linejoin:round"/><path d="M504.32 212.8h17.42v56.77a6.6 6.6 0 0 1-6.6 6.6h-4.22a6.6 6.6 0 0 1-6.6-6.6V212.8h0Z" style="fill:#b2b2b2;stroke:#000;stroke-linecap:round;stroke-linejoin:round"/><path d="M521.48 212.8h17.42v56.77a6.6 6.6 0 0 1-6.6 6.6h-4.22a6.6 6.6 0 0 1-6.6-6.6V212.8h0Z" style="fill:#fff;stroke:#000;stroke-linecap:round;stroke-linejoin:round"/><path d="M538.64 212.8h17.42v56.77a6.6 6.6 0 0 1-6.6 6.6h-4.22a6.6 6.6 0 0 1-6.6-6.6V212.8h0Z" style="fill:#b2b2b2;stroke:#000;stroke-linecap:round;stroke-linejoin:round"/><path d="M555.79 212.8h17.42v56.77a6.6 6.6 0 0 1-6.6 6.6h-4.21a6.6 6.6 0 0 1-6.6-6.6V212.8h0Z" style="fill:#fff;stroke:#000;stroke-linecap:round;stroke-linejoin:round"/><path d="M573 212.8h17.42v56.77a6.6 6.6 0 0 1-6.6 6.6h-4.22a6.6 6.6 0 0 1-6.6-6.6V212.8h0Z" style="fill:#b2b2b2;stroke:#000;stroke-linecap:round;stroke-linejoin:round"/><path d="M590.11 212.8h17.42v56.77a6.6 6.6 0 0 1-6.6 6.6h-4.22a6.6 6.6 0 0 1-6.6-6.6V212.8h0Z" style="fill:#fff;stroke:#000;stroke-linecap:round;stroke-linejoin:round"/><path d="M607.26 212.8h17.42v56.77a6.6 6.6 0 0 1-6.6 6.6h-4.22a6.6 6.6 0 0 1-6.6-6.6V212.8h0Z" style="fill:#b2b2b2;stroke:#000;stroke-linecap:round;stroke-linejoin:round"/><path d="M624.42 212.8h17.42v56.77a6.6 6.6 0 0 1-6.6 6.6H631a6.6 6.6 0 0 1-6.6-6.6V212.8h.02Z" style="fill:#fff;stroke:#000;stroke-linecap:round;stroke-linejoin:round"/><path d="M641.58 212.8H659v56.77a6.6 6.6 0 0 1-6.6 6.6h-4.22a6.6 6.6 0 0 1-6.6-6.6V212.8h0Z" style="fill:#b2b2b2;stroke:#000;stroke-linecap:round;stroke-linejoin:round"/><path d="M658.74 212.8h17.42v56.77a6.6 6.6 0 0 1-6.6 6.6h-4.22a6.6 6.6 0 0 1-6.6-6.6V212.8h0Z" style="fill:#fff;stroke:#000;stroke-linecap:round;stroke-linejoin:round"/><path d="M675.89 212.8h17.42v56.77a6.6 6.6 0 0 1-6.6 6.6h-4.21a6.6 6.6 0 0 1-6.6-6.6V212.8h-.01Z" style="fill:#b2b2b2;stroke:#000;stroke-linecap:round;stroke-linejoin:round"/><path d="M693.05 212.8h17.42v56.77a6.6 6.6 0 0 1-6.6 6.6h-4.22a6.6 6.6 0 0 1-6.6-6.6V212.8h0Z" style="fill:#fff;stroke:#000;stroke-linecap:round;stroke-linejoin:round"/><path d="M710.21 212.8h17.42v56.77a6.6 6.6 0 0 1-6.6 6.6h-4.22a6.6 6.6 0 0 1-6.6-6.6V212.8h0Z" style="fill:#b2b2b2;stroke:#000;stroke-linecap:round;stroke-linejoin:round"/><path d="M577.41 177.61a2.48 2.48 0 0 1-.82 1.41 2.26 2.26 0 0 1-1.52.89 8.62 8.62 0 0 1-2.29-1.09 7.44 7.44 0 0 0-3.72-1.09 12.9 12.9 0 0 0-4.81 1c0 .08.24.8.7 2.18a11.6 11.6 0 0 1 .54 3.49c0 1.62-.36 2.42-1.07 2.42-.52 0-.89-.61-1.11-1.85a36.71 36.71 0 0 0-.91-4.52q-1.39-4.27-5.51-4.27a5.84 5.84 0 0 0-4.39 1.89 8.61 8.61 0 0 0-2.51 6.16 3 3 0 0 0 .14.87 4.35 4.35 0 0 1 .15.49c0 .3-.4.55-1.2.74a1.65 1.65 0 0 1-1.15-1.64 11.92 11.92 0 0 1 .21-2 10.94 10.94 0 0 0 .2-1.56.9.9 0 0 0-.37-.66c-.24-.22-.5-.43-.78-.65a7 7 0 0 0-4.68-1.85 6 6 0 0 0-2.8.74 6.55 6.55 0 0 1-1.77.74c-1 0-1.48-.63-1.48-1.9a4.65 4.65 0 0 1 .95-3.06 3.2 3.2 0 0 1 2.59-1.13 6.64 6.64 0 0 1 3.49 1 22.3 22.3 0 0 1 3 2.46 1.8 1.8 0 0 0 1.07.62 1.27 1.27 0 0 0 .41-.12 1.08 1.08 0 0 1 .09-.39 1.37 1.37 0 0 0 .08-.31 4.53 4.53 0 0 0-.91-1.19 16.53 16.53 0 0 0-3.53-3.37l-4.57-2.26q-1.89-1.2-1.89-2.55c0-.85.52-1.28 1.57-1.28q3 0 7.56 3.87c.69.57 1.08.91 1.19 1a8 8 0 0 1 1.26 1.65c.34.6.67 1.2 1 1.81a5.69 5.69 0 0 0 1.2 1.6 1.31 1.31 0 0 0 .37-.94c0-.55-.87-2.13-2.59-4.73a19.2 19.2 0 0 0-3.87-4.28c-1.4-1-2.78-2-4.15-3-1.18-.82-1.77-1.61-1.77-2.38a1.89 1.89 0 0 1 .52-1.26 1.39 1.39 0 0 1 1-.59c.88 0 2.18.66 3.91 2a30 30 0 0 1 5.71 6 24.41 24.41 0 0 1 1.54 3.15 22.59 22.59 0 0 0 2.37 4.25.78.78 0 0 0 .12-.41 2.83 2.83 0 0 1 0-.41c0-1.73-.91-4.18-2.71-7.36-.61-1.1-1.37-2.42-2.31-4a47.68 47.68 0 0 0-4-4.4q-2-2-2-2.79a1.86 1.86 0 0 1 .8-1.34 2.62 2.62 0 0 1 1.71-.68c1.07 0 2.37.94 3.9 2.8a22.59 22.59 0 0 1 3.91 7.32q.95 2.84 1.77 6a7.06 7.06 0 0 0 .7 2.26 4.11 4.11 0 0 0 .24-1.77 38.18 38.18 0 0 0-.9-8 28.3 28.3 0 0 0-1.93-6.09c-.39-.76-1.06-1.87-2-3.33a5.11 5.11 0 0 1-1-2.09c0-.33.14-.5.41-.5a3.58 3.58 0 0 1 1.73.95 10.86 10.86 0 0 0 2.47 1.48 2.1 2.1 0 0 0 .24-.91 6.29 6.29 0 0 0 0-.63v-.6c0-1 .62-1.48 1.85-1.48.88 0 1.32.47 1.32 1.4a6.07 6.07 0 0 1-.1.84 5.13 5.13 0 0 0-.11.8s0 .1 0 .21v.2c.06.09.11.13.17.13s.66-.42 1.4-1.26 1.27-1.25 1.6-1.25a.82.82 0 0 1 .49.16 53.14 53.14 0 0 0-3.82 20 7.29 7.29 0 0 0 .41 2.09q.4-1.19 2-8.84a44 44 0 0 1 2.88-8.26c.33-.71.64-1.42 1-2.14a2.69 2.69 0 0 1 2.34-1c.9 0 1.36.59 1.36 1.77a14.92 14.92 0 0 1-1.24 2.84q-1.77 3.54-3 6.49a98.54 98.54 0 0 0-3.62 10.36 8.24 8.24 0 0 0 2-3.12q1.51-3.5 2.14-4.56 5.17-9 7.56-9a1.55 1.55 0 0 1 1.25.79 2.73 2.73 0 0 1 .56 1.6c0 .33-.54 1-1.6 2.14q-1.93 1.84-3.83 3.74a41.23 41.23 0 0 0-6 8.47l.08.57a44.44 44.44 0 0 1 7.61-7q3.17-2.22 4.89-2.22a2.14 2.14 0 0 1 1.46.62 1.79 1.79 0 0 1 .68 1.32 2.61 2.61 0 0 1-.41 1.27 3.06 3.06 0 0 1-1.11 1.19 18 18 0 0 1-2.84 1.15l-3 1q-2.72 1.06-6.21 4.89l.12.66 4.28-1.89a15.86 15.86 0 0 1 6.12-1.32q3.52.1 3.52 4.63Zm-17.19 7.31c0 1.26-.65 1.89-2 1.89a14.28 14.28 0 0 1-4.32-.37q-1-.45-1-2.46c0-2.14.27-3.59.82-4.36s1.68-1.15 3.41-1.15a2.94 2.94 0 0 1 2 .92 2.8 2.8 0 0 1 1 2.08 4.82 4.82 0 0 1-.08.74 3.44 3.44 0 0 0-.08.58 7.17 7.17 0 0 0 .12 1 7.36 7.36 0 0 1 .13 1.13ZM530.56 186.25a9.64 9.64 0 0 1-.16 7.53 8.81 8.81 0 0 1-5.1 5 7.68 7.68 0 0 1-6-.07 7 7 0 0 1-3.9-4.09 6 6 0 0 1 .05-4.78 6.37 6.37 0 0 1 3.78-3.19 4.75 4.75 0 0 1 3.72.07 4.24 4.24 0 0 1 2.42 2.42 3.71 3.71 0 0 1-.32 3.06 4.36 4.36 0 0 1-2.37 2.25 2.73 2.73 0 0 1-2.24-.09 3.11 3.11 0 0 1-1.55-1.79 3.21 3.21 0 0 1-.14-1.36 3.8 3.8 0 0 0 0-.89c-.35-.93-.85-1.28-1.5-1s-.86.79-1 1.78a6.66 6.66 0 0 0 .45 3.26 5.65 5.65 0 0 0 3.24 3.34 6.63 6.63 0 0 0 5 0 6.92 6.92 0 0 0 4-4.11 8.26 8.26 0 0 0 .07-6.2q-1.51-4.05-8.77-7l-5.24-2.08c-1.35-.56-2.11-1.09-2.3-1.59a1.13 1.13 0 0 1 .71-1.65 1.6 1.6 0 0 1 .66 0 1.62 1.62 0 0 0 .7 0c.34-.13.42-.44.23-.94s-.78-.86-1.82-1.18c-1.27-.34-2.51-.69-3.74-1a5.77 5.77 0 0 1-3.89-3.28c-.15-.4.07-.72.66-.94l.32-.06a2.58 2.58 0 0 0 .42-.11c.62-.23.85-.55.7-.95 0-.06-.5-.58-1.42-1.54q-1.87-1.86-3.52-3.84a7.28 7.28 0 0 1-1.18-1.74c-.38-1-.26-1.65.36-1.89.4-.15 1 .44 1.94 1.77a37.31 37.31 0 0 0 4.37 5.52q2.19 2.23 3.24 3.17a66 66 0 0 0 6.86 5.41q9.99 6.72 12.26 12.78ZM502.33 183a9.66 9.66 0 0 1 7 2.76 8.84 8.84 0 0 1 2.89 6.51 7.66 7.66 0 0 1-2.14 5.61 7 7 0 0 1-5.2 2.24 6 6 0 0 1-4.46-1.7 6.44 6.44 0 0 1-1.69-4.65 4.83 4.83 0 0 1 1.36-3.47 4.23 4.23 0 0 1 3.1-1.43 3.75 3.75 0 0 1 2.77 1.36 4.37 4.37 0 0 1 1.29 3 2.73 2.73 0 0 1-.87 2.07 3.07 3.07 0 0 1-3.53.48 4.28 4.28 0 0 0-.82-.34c-1 0-1.49.35-1.49 1s.44 1.09 1.32 1.56a6.58 6.58 0 0 0 3.22.71 5.67 5.67 0 0 0 4.25-1.88 6.58 6.58 0 0 0 1.74-4.72 6.85 6.85 0 0 0-2.46-5.21 8.23 8.23 0 0 0-5.78-2.22q-4.33 0-9.59 5.82l-3.76 4.2c-1 1.06-1.75 1.6-2.29 1.6a1.13 1.13 0 0 1-1.3-1.24 1.76 1.76 0 0 1 .2-.62 1.81 1.81 0 0 0 .2-.68c0-.36-.27-.54-.8-.54s-1.08.43-1.74 1.3q-1.14 1.6-2.28 3.15a5.78 5.78 0 0 1-4.42 2.51c-.43 0-.64-.32-.65-.95a2.12 2.12 0 0 1 0-.32 2.18 2.18 0 0 0 .05-.43c0-.66-.22-1-.65-1-.07 0-.71.27-1.94.81-1.59.73-3.2 1.39-4.82 2a7.15 7.15 0 0 1-2 .51c-1.1 0-1.64-.33-1.65-1 0-.43.78-.84 2.34-1.21a38.21 38.21 0 0 0 6.68-2.19c1.91-.86 3.28-1.5 4.1-1.94a65.69 65.69 0 0 0 7.45-4.56q9.91-6.9 16.37-6.9ZM614.48 183a9.66 9.66 0 0 0-7 2.76 8.81 8.81 0 0 0-2.89 6.51 7.66 7.66 0 0 0 2.14 5.61 7 7 0 0 0 5.19 2.24 6 6 0 0 0 4.47-1.7 6.44 6.44 0 0 0 1.69-4.65 4.83 4.83 0 0 0-1.36-3.47 4.23 4.23 0 0 0-3.11-1.43 3.74 3.74 0 0 0-2.76 1.36 4.37 4.37 0 0 0-1.29 3 2.73 2.73 0 0 0 .87 2.07 3.07 3.07 0 0 0 3.53.48 4.28 4.28 0 0 1 .82-.34c1 0 1.49.35 1.49 1s-.44 1.09-1.32 1.56a6.58 6.58 0 0 1-3.22.71 5.67 5.67 0 0 1-4.25-1.88 6.63 6.63 0 0 1-1.75-4.72 6.86 6.86 0 0 1 2.47-5.21 8.23 8.23 0 0 1 5.78-2.22q4.34 0 9.59 5.82l3.76 4.2c1 1.06 1.75 1.6 2.28 1.6.87 0 1.3-.41 1.3-1.24a1.51 1.51 0 0 0-.19-.62 1.81 1.81 0 0 1-.2-.68c0-.36.27-.54.8-.54s1.08.43 1.74 1.3c.76 1.07 1.51 2.12 2.27 3.15a5.81 5.81 0 0 0 4.43 2.51c.43 0 .64-.32.65-.95a2.12 2.12 0 0 0 0-.32 2.18 2.18 0 0 1-.05-.43c0-.66.22-1 .65-1 .07 0 .71.27 1.94.81 1.59.73 3.2 1.39 4.82 2a7.15 7.15 0 0 0 2 .51q1.63 0 1.65-1c0-.43-.78-.84-2.34-1.21a38.21 38.21 0 0 1-6.68-2.19c-1.91-.86-3.28-1.5-4.1-1.94a65.69 65.69 0 0 1-7.45-4.56q-9.91-6.9-16.37-6.9ZM585.48 186.25a9.6 9.6 0 0 0 .16 7.53 8.81 8.81 0 0 0 5.1 5 7.68 7.68 0 0 0 6-.07 7 7 0 0 0 3.89-4.09 5.91 5.91 0 0 0 0-4.78 6.39 6.39 0 0 0-3.78-3.19 4.75 4.75 0 0 0-3.72.07 4.24 4.24 0 0 0-2.42 2.42 3.71 3.71 0 0 0 .32 3.06 4.33 4.33 0 0 0 2.37 2.25 2.73 2.73 0 0 0 2.24-.09 3.14 3.14 0 0 0 1.55-1.79 3.06 3.06 0 0 0 .13-1.36 4.13 4.13 0 0 1 0-.89c.34-.93.85-1.28 1.5-1s.86.79 1 1.78a6.66 6.66 0 0 1-.45 3.26 5.7 5.7 0 0 1-3.24 3.34 6.63 6.63 0 0 1-5 0 6.9 6.9 0 0 1-4-4.11 8.26 8.26 0 0 1-.08-6.2q1.53-4.05 8.78-7l5.24-2.08c1.35-.56 2.11-1.09 2.3-1.59a1.13 1.13 0 0 0-.71-1.65 1.6 1.6 0 0 0-.66 0 1.62 1.62 0 0 1-.7 0c-.34-.13-.42-.44-.23-.94s.78-.86 1.82-1.18c1.26-.34 2.51-.69 3.74-1a5.79 5.79 0 0 0 3.89-3.28c.15-.4-.07-.72-.66-.94l-.32-.06a2.58 2.58 0 0 1-.42-.11c-.62-.23-.85-.55-.7-.95 0-.06.5-.58 1.42-1.54q1.88-1.86 3.51-3.84a7.4 7.4 0 0 0 1.19-1.74c.38-1 .26-1.65-.36-1.89-.4-.15-1 .44-1.94 1.77a38 38 0 0 1-4.37 5.52c-1.47 1.49-2.54 2.55-3.24 3.17a67 67 0 0 1-6.86 5.41q-10.02 6.72-12.29 12.78Z" style="fill:#b2b2b2"/></g><g style="opacity:.30000000000000004"><path d="M40.18 223.21h316.97v231.55H40.18z" style="fill:#fff;stroke:#000;stroke-linecap:round;stroke-linejoin:round"/><path d="M54.02 225.54H68.5v228.73H54.02zM86.9 225.54h14.48v228.73H86.9zM119.77 225.54h14.48v228.73h-14.48zM264.98 225.54h14.48v228.73h-14.48zM297.86 225.54h14.48v228.73h-14.48zM330.74 225.54h14.48v228.73h-14.48z" style="fill:#b2b2b2;stroke:#000;stroke-linecap:round;stroke-linejoin:round"/><path d="M159.2 223.21h78.93v231.55H159.2z" style="fill:#3d3d3d;stroke:#000;stroke-linecap:round;stroke-linejoin:round"/><path d="m151 445.82.91-7.23s-.68-1.07-2.29 1 1.38 6.23 1.38 6.23ZM110.5 225.54l43.5 7.39 43.5-7.39s.64 22.62-9.41 63.09S154 361 154 361s-24-31.89-34.1-72.36-9.4-63.1-9.4-63.1Z" style="fill:#fff;stroke:#000;stroke-linecap:round;stroke-linejoin:round"/><path d="M159.56 317c5.53-18.79 12.37-40.73 12.37-40.73M154 361s-1.31-20.47 4.37-40M151 342s-4.81-4.76-16.18-48.56M141.1 257.54c.53 14.93 2.42 47.87 9 72.51M140.89 249.59s0 1.73.11 4.76" style="fill:none;stroke:#000;stroke-linecap:round;stroke-linejoin:round"/><path d="M157.5 356.23s4.37 37.61 6.12 50 3.5 30 3.5 30-17.48 1.43-17.48 3.33 3.09 6.7.47 8.13S137 442.4 137 442.4l13.11-84.26s3.02-5.24 7.39-1.91Z" style="fill:#fff;stroke:#000;stroke-linecap:round;stroke-linejoin:round"/><path d="m152.12 394.02.33-6.11M149.64 439.54l2.21-40.66" style="fill:none;stroke:#000;stroke-linecap:round;stroke-linejoin:round"/><path d="m139.1 428.66 11-70.52s1.49-2.54 3.87-3v82.7c-2.47.48-4.3 1.05-4.3 1.66 0 1.91 3.09 6.7.47 8.13-1.88 1-7.79-2.11-11-4ZM122.72 227.62v71c-1-3.26-2-6.59-2.81-10-10-40.47-9.41-63.09-9.41-63.09Z" style="fill:#b2b2b2;stroke:#000;stroke-linecap:round;stroke-linejoin:round"/><path d="M153.94 360.9A209.48 209.48 0 0 1 139.1 337V230.4l14.84 2.52ZM185.16 299a218.05 218.05 0 0 1-14.85 35.33V230.16l14.85-2.52Z" style="fill:#b2b2b2;stroke:#000;stroke-linecap:round;stroke-linejoin:round"/><path d="m242.94 445.82-.91-7.23s.68-1.07 2.3 1-1.39 6.23-1.39 6.23ZM283.46 225.54 240 232.93l-43.51-7.39s-.64 22.62 9.41 63.09S240 361 240 361s24-31.89 34.09-72.36 9.37-63.1 9.37-63.1Z" style="fill:#fff;stroke:#000;stroke-linecap:round;stroke-linejoin:round"/><path d="M234.41 317c-5.53-18.81-12.41-40.75-12.41-40.75M240 361s1.31-20.47-4.38-40M243 342s4.8-4.76 16.17-48.56M252.86 257.54c-.53 14.93-2.41 47.87-9 72.51M253.07 249.59s0 1.73-.1 4.76" style="fill:none;stroke:#000;stroke-linecap:round;stroke-linejoin:round"/><path d="M236.46 356.23s-4.37 37.61-6.12 50-3.5 30-3.5 30 17.49 1.43 17.49 3.33-3.1 6.7-.48 8.13S257 442.4 257 442.4l-13.11-84.26s-3.06-5.24-7.43-1.91Z" style="fill:#fff;stroke:#000;stroke-linecap:round;stroke-linejoin:round"/><path d="m241.84 394.02-.33-6.11M244.33 439.54l-2.22-40.66" style="fill:none;stroke:#000;stroke-linecap:round;stroke-linejoin:round"/><path d="m254.87 428.66-11-70.52s-1.49-2.54-3.87-3v82.7c2.47.48 4.31 1.05 4.31 1.66 0 1.91-3.1 6.7-.48 8.13 1.88 1 7.8-2.11 11-4ZM271.24 227.62v71c1-3.26 2-6.59 2.81-10 10.05-40.47 9.41-63.09 9.41-63.09Z" style="fill:#b2b2b2;stroke:#000;stroke-linecap:round;stroke-linejoin:round"/><path d="M240 360.9a208.71 208.71 0 0 0 14.87-23.9V230.4L240 232.92ZM208.8 299a218.05 218.05 0 0 0 14.85 35.33V230.16l-14.85-2.52ZM200.08 108.6 28.15 212.8h343.87L200.08 108.6z" style="fill:#b2b2b2;stroke:#000;stroke-linecap:round;stroke-linejoin:round"/><path d="M200.08 119.13 45.61 212.8h308.95l-154.48-93.67zM28.15 212.8h17.42v56.77a6.6 6.6 0 0 1-6.6 6.6h-4.22a6.6 6.6 0 0 1-6.6-6.6V212.8h0Z" style="fill:#fff;stroke:#000;stroke-linecap:round;stroke-linejoin:round"/><path d="M45.31 212.8h17.42v56.77a6.6 6.6 0 0 1-6.6 6.6h-4.22a6.6 6.6 0 0 1-6.6-6.6V212.8h0Z" style="fill:#b2b2b2;stroke:#000;stroke-linecap:round;stroke-linejoin:round"/><path d="M62.47 212.8h17.42v56.77a6.6 6.6 0 0 1-6.6 6.6h-4.22a6.6 6.6 0 0 1-6.6-6.6V212.8h0Z" style="fill:#fff;stroke:#000;stroke-linecap:round;stroke-linejoin:round"/><path d="M79.62 212.8H97v56.77a6.6 6.6 0 0 1-6.6 6.6h-4.17a6.6 6.6 0 0 1-6.6-6.6V212.8h-.01Z" style="fill:#b2b2b2;stroke:#000;stroke-linecap:round;stroke-linejoin:round"/><path d="M96.78 212.8h17.42v56.77a6.6 6.6 0 0 1-6.6 6.6h-4.22a6.6 6.6 0 0 1-6.6-6.6V212.8h0Z" style="fill:#fff;stroke:#000;stroke-linecap:round;stroke-linejoin:round"/><path d="M113.94 212.8h17.42v56.77a6.6 6.6 0 0 1-6.6 6.6h-4.22a6.6 6.6 0 0 1-6.6-6.6V212.8h0Z" style="fill:#b2b2b2;stroke:#000;stroke-linecap:round;stroke-linejoin:round"/><path d="M131.1 212.8h17.42v56.77a6.6 6.6 0 0 1-6.6 6.6h-4.22a6.6 6.6 0 0 1-6.6-6.6V212.8h0Z" style="fill:#fff;stroke:#000;stroke-linecap:round;stroke-linejoin:round"/><path d="M148.25 212.8h17.42v56.77a6.6 6.6 0 0 1-6.6 6.6h-4.22a6.6 6.6 0 0 1-6.6-6.6V212.8h0Z" style="fill:#b2b2b2;stroke:#000;stroke-linecap:round;stroke-linejoin:round"/><path d="M165.41 212.8h17.42v56.77a6.6 6.6 0 0 1-6.6 6.6H172a6.6 6.6 0 0 1-6.6-6.6V212.8h.01Z" style="fill:#fff;stroke:#000;stroke-linecap:round;stroke-linejoin:round"/><path d="M182.57 212.8H200v56.77a6.6 6.6 0 0 1-6.6 6.6h-4.22a6.6 6.6 0 0 1-6.6-6.6V212.8h-.01Z" style="fill:#b2b2b2;stroke:#000;stroke-linecap:round;stroke-linejoin:round"/><path d="M199.73 212.8h17.42v56.77a6.6 6.6 0 0 1-6.6 6.6h-4.22a6.6 6.6 0 0 1-6.6-6.6V212.8h0Z" style="fill:#fff;stroke:#000;stroke-linecap:round;stroke-linejoin:round"/><path d="M216.88 212.8h17.42v56.77a6.6 6.6 0 0 1-6.6 6.6h-4.22a6.6 6.6 0 0 1-6.6-6.6V212.8h0Z" style="fill:#b2b2b2;stroke:#000;stroke-linecap:round;stroke-linejoin:round"/><path d="M234 212.8h17.42v56.77a6.6 6.6 0 0 1-6.6 6.6h-4.22a6.6 6.6 0 0 1-6.6-6.6V212.8h0Z" style="fill:#fff;stroke:#000;stroke-linecap:round;stroke-linejoin:round"/><path d="M251.2 212.8h17.42v56.77a6.6 6.6 0 0 1-6.6 6.6h-4.22a6.6 6.6 0 0 1-6.6-6.6V212.8h0Z" style="fill:#b2b2b2;stroke:#000;stroke-linecap:round;stroke-linejoin:round"/><path d="M268.35 212.8h17.42v56.77a6.6 6.6 0 0 1-6.6 6.6H275a6.6 6.6 0 0 1-6.6-6.6V212.8h-.05Z" style="fill:#fff;stroke:#000;stroke-linecap:round;stroke-linejoin:round"/><path d="M285.51 212.8h17.42v56.77a6.6 6.6 0 0 1-6.6 6.6h-4.22a6.6 6.6 0 0 1-6.6-6.6V212.8h0Z" style="fill:#b2b2b2;stroke:#000;stroke-linecap:round;stroke-linejoin:round"/><path d="M302.67 212.8h17.42v56.77a6.6 6.6 0 0 1-6.6 6.6h-4.22a6.6 6.6 0 0 1-6.6-6.6V212.8h0Z" style="fill:#fff;stroke:#000;stroke-linecap:round;stroke-linejoin:round"/><path d="M319.83 212.8h17.42v56.77a6.6 6.6 0 0 1-6.6 6.6h-4.22a6.6 6.6 0 0 1-6.6-6.6V212.8h0Z" style="fill:#b2b2b2;stroke:#000;stroke-linecap:round;stroke-linejoin:round"/><path d="M337 212.8h17.42v56.77a6.6 6.6 0 0 1-6.6 6.6h-4.22a6.6 6.6 0 0 1-6.6-6.6V212.8h0Z" style="fill:#fff;stroke:#000;stroke-linecap:round;stroke-linejoin:round"/><path d="M354.14 212.8h17.42v56.77a6.6 6.6 0 0 1-6.6 6.6h-4.22a6.6 6.6 0 0 1-6.6-6.6V212.8h0Z" style="fill:#b2b2b2;stroke:#000;stroke-linecap:round;stroke-linejoin:round"/><path d="M221.34 177.61a2.42 2.42 0 0 1-.82 1.41 2.26 2.26 0 0 1-1.52.89 8.48 8.48 0 0 1-2.28-1.09 7.49 7.49 0 0 0-3.72-1.09 12.82 12.82 0 0 0-4.81 1c0 .08.23.8.69 2.18a11.6 11.6 0 0 1 .54 3.49c0 1.62-.36 2.42-1.07 2.42-.52 0-.89-.61-1.11-1.85a39.46 39.46 0 0 0-.9-4.52c-.94-2.85-2.77-4.27-5.51-4.27a5.85 5.85 0 0 0-4.4 1.89 8.65 8.65 0 0 0-2.51 6.16 3 3 0 0 0 .14.87 4.35 4.35 0 0 1 .15.49c0 .3-.4.55-1.19.74a1.64 1.64 0 0 1-1.15-1.64 11.75 11.75 0 0 1 .2-2 11.53 11.53 0 0 0 .21-1.56.94.94 0 0 0-.37-.66c-.25-.22-.51-.43-.79-.65a7 7 0 0 0-4.68-1.85 6 6 0 0 0-2.8.74 6.68 6.68 0 0 1-1.76.74c-1 0-1.48-.63-1.48-1.9a4.64 4.64 0 0 1 .94-3.06 3.2 3.2 0 0 1 2.59-1.13 6.7 6.7 0 0 1 3.5 1 23 23 0 0 1 3 2.46 1.75 1.75 0 0 0 1.07.62 1.34 1.34 0 0 0 .41-.12 1 1 0 0 1 .08-.39 1.37 1.37 0 0 0 .08-.31 4.62 4.62 0 0 0-.9-1.19 16.73 16.73 0 0 0-3.54-3.37c-2.85-1.4-4.37-2.16-4.56-2.26q-1.89-1.2-1.89-2.55c0-.85.52-1.28 1.56-1.28q3 0 7.56 3.87 1 .85 1.2 1a8 8 0 0 1 1.25 1.65c.34.6.68 1.2 1 1.81a5.68 5.68 0 0 0 1.19 1.6 1.27 1.27 0 0 0 .37-.94c0-.55-.87-2.13-2.59-4.73a19.2 19.2 0 0 0-3.87-4.28c-1.39-1-2.78-2-4.15-3-1.18-.82-1.77-1.61-1.77-2.38a1.94 1.94 0 0 1 .52-1.26 1.39 1.39 0 0 1 1-.59c.88 0 2.18.66 3.91 2a29.69 29.69 0 0 1 5.71 6 23.92 23.92 0 0 1 1.55 3.15 22.6 22.6 0 0 0 2.36 4.25.78.78 0 0 0 .12-.41 2.83 2.83 0 0 1 0-.41q0-2.59-2.71-7.36c-.6-1.1-1.37-2.42-2.3-4a49.2 49.2 0 0 0-4-4.4c-1.35-1.31-2-2.24-2-2.79a1.86 1.86 0 0 1 .8-1.34 2.64 2.64 0 0 1 1.71-.68c1.07 0 2.37.94 3.91 2.8a22.77 22.77 0 0 1 3.9 7.32q.94 2.84 1.77 6a7.06 7.06 0 0 0 .7 2.26 4.11 4.11 0 0 0 .24-1.77 38.18 38.18 0 0 0-.9-8 28.3 28.3 0 0 0-1.93-6.09c-.39-.76-1.06-1.87-2-3.33a5 5 0 0 1-1-2.09c0-.33.13-.5.41-.5a3.61 3.61 0 0 1 1.72.95 10.86 10.86 0 0 0 2.47 1.48 2 2 0 0 0 .25-.91v-1.23c0-1 .61-1.48 1.85-1.48.87 0 1.31.47 1.31 1.4a4.82 4.82 0 0 1-.1.84 4.8 4.8 0 0 0-.1.8 1 1 0 0 0 0 .21v.2c0 .09.1.13.16.13s.66-.42 1.4-1.26 1.27-1.25 1.6-1.25a.8.8 0 0 1 .49.16 53.34 53.34 0 0 0-3.82 20 7.29 7.29 0 0 0 .41 2.09c.28-.79.93-3.74 2-8.84a43.19 43.19 0 0 1 2.87-8.26c.33-.71.65-1.42.95-2.14a2.69 2.69 0 0 1 2.34-1c.91 0 1.36.59 1.36 1.77a15.25 15.25 0 0 1-1.23 2.84q-1.77 3.54-3 6.49a94.18 94.18 0 0 0-3.62 10.36 8.12 8.12 0 0 0 2-3.12c1-2.33 1.73-3.85 2.14-4.56q5.17-9 7.56-9a1.55 1.55 0 0 1 1.26.79 2.72 2.72 0 0 1 .55 1.6c0 .33-.53 1-1.6 2.14q-1.93 1.84-3.83 3.74a41.23 41.23 0 0 0-6 8.47l.08.57a44.81 44.81 0 0 1 7.61-7q3.16-2.22 4.89-2.22a2.14 2.14 0 0 1 1.46.62 1.79 1.79 0 0 1 .68 1.32 2.61 2.61 0 0 1-.41 1.27 2.92 2.92 0 0 1-1.11 1.19 17.58 17.58 0 0 1-2.84 1.15l-3 1q-2.72 1.06-6.21 4.89l.13.66 4.27-1.89a15.87 15.87 0 0 1 6.13-1.32q3.57.1 3.57 4.63Zm-17.18 7.31q0 1.89-2 1.89a14.15 14.15 0 0 1-4.31-.37c-.69-.3-1-1.12-1-2.46 0-2.14.27-3.59.82-4.36s1.69-1.15 3.41-1.15a3 3 0 0 1 2 .92 2.8 2.8 0 0 1 1 2.08 4 4 0 0 1-.09.74 5.07 5.07 0 0 0-.08.58 7.17 7.17 0 0 0 .12 1 6.47 6.47 0 0 1 .13 1.13ZM174.5 186.25a9.68 9.68 0 0 1-.16 7.53 8.85 8.85 0 0 1-5.11 5 7.65 7.65 0 0 1-6-.07 7 7 0 0 1-3.9-4.09 6 6 0 0 1 0-4.78 6.39 6.39 0 0 1 3.78-3.19 4.75 4.75 0 0 1 3.72.07 4.21 4.21 0 0 1 2.42 2.42 3.74 3.74 0 0 1-.31 3.06 4.34 4.34 0 0 1-2.38 2.25 2.73 2.73 0 0 1-2.24-.09 3.14 3.14 0 0 1-1.55-1.79 3.06 3.06 0 0 1-.13-1.36 4.57 4.57 0 0 0 0-.89c-.35-.93-.85-1.28-1.51-1s-.86.79-1 1.78a6.43 6.43 0 0 0 .45 3.26 5.65 5.65 0 0 0 3.24 3.34 6.61 6.61 0 0 0 5 0 6.9 6.9 0 0 0 4-4.11 8.26 8.26 0 0 0 .08-6.2q-1.51-4.05-8.78-7l-5.12-2.11c-1.35-.56-2.11-1.09-2.3-1.59a1.13 1.13 0 0 1 .72-1.65 1.54 1.54 0 0 1 .65 0 1.62 1.62 0 0 0 .7 0c.34-.13.42-.44.23-.94s-.78-.86-1.82-1.18c-1.26-.34-2.51-.69-3.74-1a5.79 5.79 0 0 1-3.89-3.28c-.15-.4.07-.72.66-.94l.32-.06a2.33 2.33 0 0 0 .42-.11c.62-.23.86-.55.7-.95a19.64 19.64 0 0 0-1.42-1.54q-1.86-1.86-3.51-3.84a7 7 0 0 1-1.18-1.74c-.39-1-.27-1.65.35-1.89.41-.15 1.05.44 1.94 1.77a38 38 0 0 0 4.38 5.52q2.19 2.23 3.23 3.17a68.14 68.14 0 0 0 6.86 5.41q9.94 6.75 12.2 12.81ZM146.26 183a9.65 9.65 0 0 1 7 2.76 8.81 8.81 0 0 1 2.89 6.51 7.66 7.66 0 0 1-2.14 5.61 7 7 0 0 1-5.19 2.24 6 6 0 0 1-4.47-1.7 6.39 6.39 0 0 1-1.68-4.65 4.78 4.78 0 0 1 1.35-3.47 4.25 4.25 0 0 1 3.11-1.43 3.76 3.76 0 0 1 2.77 1.36 4.36 4.36 0 0 1 1.28 3 2.76 2.76 0 0 1-.86 2.07 3.09 3.09 0 0 1-3.54.48 4 4 0 0 0-.82-.34c-1 0-1.49.35-1.49 1s.45 1.09 1.33 1.56a6.51 6.51 0 0 0 3.21.71 5.65 5.65 0 0 0 4.25-1.88 6.63 6.63 0 0 0 1.75-4.72 6.89 6.89 0 0 0-2.46-5.21 8.27 8.27 0 0 0-5.79-2.22q-4.34 0-9.58 5.82l-3.77 4.2c-1 1.06-1.75 1.6-2.28 1.6-.87 0-1.3-.41-1.3-1.24a1.68 1.68 0 0 1 .19-.62 1.64 1.64 0 0 0 .2-.68c0-.36-.27-.54-.8-.54s-1.08.43-1.74 1.3c-.75 1.07-1.51 2.12-2.27 3.15a5.81 5.81 0 0 1-4.42 2.51c-.43 0-.65-.32-.65-.95a1.78 1.78 0 0 1 0-.32 1.63 1.63 0 0 0 0-.43c0-.66-.22-1-.65-1-.07 0-.71.27-1.94.81-1.59.73-3.19 1.39-4.82 2a7.15 7.15 0 0 1-2 .51c-1.09 0-1.64-.33-1.64-1 0-.43.77-.84 2.33-1.21a38.62 38.62 0 0 0 6.69-2.19c1.9-.86 3.27-1.5 4.1-1.94a67.5 67.5 0 0 0 7.45-4.56q9.93-6.9 16.4-6.9ZM258.41 183a9.66 9.66 0 0 0-7 2.76 8.84 8.84 0 0 0-2.89 6.51 7.7 7.7 0 0 0 2.14 5.61 7 7 0 0 0 5.2 2.24 6 6 0 0 0 4.46-1.7 6.39 6.39 0 0 0 1.69-4.65 4.83 4.83 0 0 0-1.36-3.47 4.23 4.23 0 0 0-3.1-1.43 3.75 3.75 0 0 0-2.77 1.36 4.32 4.32 0 0 0-1.28 3 2.69 2.69 0 0 0 .86 2.07 3.07 3.07 0 0 0 3.53.48 4.28 4.28 0 0 1 .82-.34c1 0 1.5.35 1.49 1s-.44 1.09-1.32 1.56a6.52 6.52 0 0 1-3.22.71 5.67 5.67 0 0 1-4.25-1.88 6.58 6.58 0 0 1-1.74-4.72 6.89 6.89 0 0 1 2.46-5.21 8.23 8.23 0 0 1 5.78-2.22q4.34 0 9.59 5.82l3.76 4.2c1 1.06 1.76 1.6 2.29 1.6a1.13 1.13 0 0 0 1.3-1.24 1.76 1.76 0 0 0-.2-.62 1.81 1.81 0 0 1-.2-.68c0-.36.27-.54.8-.54s1.08.43 1.74 1.3q1.14 1.6 2.28 3.15a5.78 5.78 0 0 0 4.42 2.51c.43 0 .65-.32.65-.95a2.12 2.12 0 0 0-.05-.32 2.18 2.18 0 0 1 0-.43c0-.66.22-1 .65-1 .07 0 .72.27 1.94.81 1.59.73 3.2 1.39 4.82 2a7.15 7.15 0 0 0 2 .51q1.65 0 1.65-1c0-.43-.78-.84-2.34-1.21a38.21 38.21 0 0 1-6.68-2.19c-1.91-.86-3.27-1.5-4.1-1.94a65.69 65.69 0 0 1-7.45-4.56q-9.9-6.9-16.37-6.9ZM229.41 186.25a9.64 9.64 0 0 0 .16 7.53 8.81 8.81 0 0 0 5.1 5 7.68 7.68 0 0 0 6-.07 7 7 0 0 0 3.9-4.09 6 6 0 0 0-.05-4.78 6.37 6.37 0 0 0-3.78-3.19 4.75 4.75 0 0 0-3.72.07 4.24 4.24 0 0 0-2.42 2.42 3.75 3.75 0 0 0 .32 3.06 4.34 4.34 0 0 0 2.38 2.25 2.73 2.73 0 0 0 2.24-.09 3.13 3.13 0 0 0 1.54-1.79 3.05 3.05 0 0 0 .14-1.36 4.57 4.57 0 0 1 0-.89c.35-.93.85-1.28 1.5-1s.87.79 1 1.78a6.66 6.66 0 0 1-.45 3.26 5.65 5.65 0 0 1-3.24 3.34 6.63 6.63 0 0 1-5 0 6.92 6.92 0 0 1-4-4.11 8.26 8.26 0 0 1-.07-6.2q1.51-4.05 8.77-7l5.25-2.08c1.34-.56 2.1-1.09 2.29-1.59a1.12 1.12 0 0 0-.71-1.65 1.55 1.55 0 0 0-.65 0 1.58 1.58 0 0 1-.7 0c-.35-.13-.42-.44-.24-.94s.78-.86 1.83-1.18c1.26-.34 2.5-.69 3.74-1a5.77 5.77 0 0 0 3.88-3.28c.15-.4-.07-.72-.66-.94l-.32-.06a2.22 2.22 0 0 1-.41-.11c-.63-.23-.86-.55-.71-.95 0-.06.5-.58 1.43-1.54q1.86-1.86 3.51-3.84a7.28 7.28 0 0 0 1.18-1.74c.38-1 .26-1.65-.36-1.89-.4-.15-1.05.44-1.94 1.77a37.31 37.31 0 0 1-4.37 5.52q-2.19 2.23-3.24 3.17a66 66 0 0 1-6.86 5.41q-9.99 6.72-12.26 12.78Z" style="fill:#b2b2b2"/></g><circle cx="106.67" cy="63.54" r="16.61" style="fill:#fff;stroke:#263238;stroke-linecap:round;stroke-linejoin:round" transform="rotate(-78.25 106.667 63.537)"/><path d="M94.1 54.48s7.69 3.1 11.7 9.06M92.08 59.85s8.77.53 13.67 6.61M90.89 65.92s4.06-1.78 14.69 3.76M93.93 71.11s7.77.17 11.48 2.14M97.48 76.29a13.44 13.44 0 0 1 7.43-.54M119 54.48s-7.68 3.1-11.69 9.06M121 59.85s-8.78.53-13.68 6.61M122.17 65.92s-4-1.78-14.69 3.76M119.13 71.11s-7.76.17-11.48 2.14M115.59 76.29a13.46 13.46 0 0 0-7.43-.54M101.44 51.27a13.9 13.9 0 0 1 5 3.93M108.23 54.48A9.3 9.3 0 0 1 112 51.8" style="fill:none;stroke:#263238;stroke-linecap:round;stroke-linejoin:round"/><circle cx="148.31" cy="64.83" r="16.61" style="fill:#92e3a9;stroke:#263238;stroke-linecap:round;stroke-linejoin:round" transform="rotate(-68.86 148.314 64.827)"/><path d="M135.74 55.78s7.69 3.09 11.7 9M133.72 61.14s8.77.54 13.67 6.61M132.53 67.22s4.06-1.79 14.69 3.75M135.57 72.4s7.77.18 11.48 2.14M139.12 77.58a13.38 13.38 0 0 1 7.43-.53M160.6 55.78s-7.68 3.09-11.69 9M162.63 61.14s-8.78.54-13.68 6.61M163.81 67.22s-4.05-1.79-14.69 3.75M160.77 72.4s-7.76.18-11.48 2.14M157.23 77.58a13.4 13.4 0 0 0-7.43-.53M143.08 52.56a13.9 13.9 0 0 1 5 3.93M149.87 55.78a9.2 9.2 0 0 1 3.75-2.68" style="fill:none;stroke:#263238;stroke-linecap:round;stroke-linejoin:round"/><circle cx="68.01" cy="62.58" r="16.61" style="fill:#92e3a9;stroke:#263238;stroke-linecap:round;stroke-linejoin:round" transform="rotate(-45 68.011 62.579)"/><path d="M55.44 53.52s7.69 3.1 11.7 9.06M53.42 58.88s8.78.54 13.67 6.62M52.24 65s4-1.79 14.68 3.75M55.27 70.14s7.77.18 11.48 2.15M58.82 75.33a13.46 13.46 0 0 1 7.43-.54M80.3 53.52s-7.68 3.1-11.69 9.06M82.33 58.88s-8.78.54-13.67 6.62M83.51 65s-4.05-1.79-14.69 3.75M80.47 70.14s-7.76.18-11.48 2.15M76.93 75.33a13.46 13.46 0 0 0-7.43-.54M62.78 50.31a13.9 13.9 0 0 1 5 3.93M69.57 53.52a9.3 9.3 0 0 1 3.75-2.68" style="fill:none;stroke:#263238;stroke-linecap:round;stroke-linejoin:round"/><circle cx="189.95" cy="65.41" r="16.61" style="fill:#fff;stroke:#263238;stroke-linecap:round;stroke-linejoin:round" transform="rotate(-45 189.95 65.4)"/><path d="M177.38 56.35s7.69 3.1 11.69 9.06M175.36 61.71s8.77.54 13.67 6.62M174.17 67.79s4.06-1.79 14.69 3.75M177.21 73s7.77.18 11.48 2.15M180.76 78.16a13.44 13.44 0 0 1 7.43-.54M202.24 56.35s-7.68 3.1-11.69 9.06M204.27 61.71s-8.78.54-13.68 6.62M205.45 67.79s-4-1.79-14.69 3.75M202.41 73s-7.76.18-11.48 2.15M198.87 78.16a13.46 13.46 0 0 0-7.43-.54M184.72 53.14a13.9 13.9 0 0 1 5 3.93M191.51 56.35a9.3 9.3 0 0 1 3.75-2.68" style="fill:none;stroke:#263238;stroke-linecap:round;stroke-linejoin:round"/><circle cx="231.59" cy="66.68" r="16.61" style="fill:#92e3a9;stroke:#263238;stroke-linecap:round;stroke-linejoin:round" transform="rotate(-80.53 231.596 66.67)"/><path d="M219 57.62s7.69 3.1 11.69 9.06M217 63s8.78.53 13.68 6.61M215.81 69.06s4.05-1.79 14.69 3.76M218.85 74.25s7.77.17 11.48 2.14M222.4 79.43a13.41 13.41 0 0 1 7.42-.54M243.88 57.62s-7.69 3.1-11.69 9.06M245.91 63s-8.78.53-13.68 6.61M247.09 69.06s-4.09-1.79-14.69 3.76M244.05 74.25s-7.76.17-11.48 2.14M240.51 79.43a13.46 13.46 0 0 0-7.43-.54M226.36 54.41a14 14 0 0 1 5 3.93M233.15 57.62a9.3 9.3 0 0 1 3.75-2.68" style="fill:none;stroke:#263238;stroke-linecap:round;stroke-linejoin:round"/><circle cx="273.23" cy="67.06" r="16.61" style="fill:#fff;stroke:#263238;stroke-linecap:round;stroke-linejoin:round" transform="rotate(-45 273.22 67.068)"/><path d="M260.66 58s7.69 3.1 11.69 9.05M258.63 63.37s8.78.54 13.68 6.62M257.45 69.45s4.05-1.79 14.69 3.75M260.49 74.63s7.77.18 11.48 2.15M264 79.82a13.41 13.41 0 0 1 7.42-.54M285.52 58s-7.69 3.1-11.69 9.05M287.55 63.37s-8.78.54-13.68 6.62M288.73 69.45s-4.05-1.79-14.73 3.75M285.69 74.63s-7.77.18-11.48 2.15M282.15 79.82a13.46 13.46 0 0 0-7.43-.54M268 54.79a14 14 0 0 1 5 3.94M274.79 58a9.3 9.3 0 0 1 3.75-2.68" style="fill:none;stroke:#263238;stroke-linecap:round;stroke-linejoin:round"/><circle cx="314.87" cy="67.25" r="16.61" style="fill:#92e3a9;stroke:#263238;stroke-linecap:round;stroke-linejoin:round" transform="rotate(-76.81 314.884 67.248)"/><path d="M302.3 58.2s7.69 3.1 11.69 9M300.27 63.56s8.78.54 13.68 6.62M299.09 69.64s4.05-1.79 14.69 3.75M302.13 74.82s7.77.18 11.48 2.18M305.68 80a13.41 13.41 0 0 1 7.42-.54M327.16 58.2s-7.69 3.1-11.69 9M329.19 63.56s-8.78.54-13.68 6.62M330.37 69.64s-4.05-1.79-14.69 3.75M327.33 74.82s-7.77.18-11.48 2.18M323.78 80a13.41 13.41 0 0 0-7.42-.54M309.64 55a14 14 0 0 1 5 3.94M316.43 58.2a9.3 9.3 0 0 1 3.75-2.68" style="fill:none;stroke:#263238;stroke-linecap:round;stroke-linejoin:round"/><circle cx="356.51" cy="67.94" r="16.61" style="fill:#fff;stroke:#263238;stroke-linecap:round;stroke-linejoin:round" transform="rotate(-77.68 356.5 67.948)"/><path d="M343.94 58.89s7.69 3.09 11.69 9M341.91 64.25s8.78.54 13.68 6.61M340.73 70.33s4-1.79 14.69 3.75M343.77 75.51s7.77.18 11.48 2.15M347.32 80.69a13.36 13.36 0 0 1 7.42-.53M368.8 58.89s-7.69 3.09-11.69 9M370.83 64.25s-8.78.54-13.68 6.61M372 70.33s-4.05-1.79-14.69 3.75M369 75.51s-7.77.18-11.48 2.15M365.42 80.69a13.36 13.36 0 0 0-7.42-.53M351.28 55.67a14 14 0 0 1 5 3.93M358.07 58.89a9.2 9.2 0 0 1 3.75-2.68" style="fill:none;stroke:#263238;stroke-linecap:round;stroke-linejoin:round"/><circle cx="398.15" cy="67.74" r="16.61" style="fill:#92e3a9;stroke:#263238;stroke-linecap:round;stroke-linejoin:round" transform="rotate(-45 398.14 67.745)"/><path d="M385.58 58.69s7.69 3.1 11.69 9M383.55 64.05s8.78.54 13.68 6.62M382.37 70.13s4.05-1.79 14.69 3.75M385.41 75.31s7.77.18 11.48 2.15M389 80.5a13.41 13.41 0 0 1 7.42-.54M410.44 58.69s-7.69 3.1-11.69 9M412.47 64.05s-8.78.54-13.68 6.62M413.65 70.13s-4-1.79-14.69 3.75M410.61 75.31s-7.77.18-11.48 2.15M407.06 80.5a13.41 13.41 0 0 0-7.42-.54M392.92 55.47a14 14 0 0 1 5 3.94M399.71 58.69a9.21 9.21 0 0 1 3.75-2.69" style="fill:none;stroke:#263238;stroke-linecap:round;stroke-linejoin:round"/><circle cx="439.79" cy="67.53" r="16.61" style="fill:#fff;stroke:#263238;stroke-linecap:round;stroke-linejoin:round" transform="rotate(-45 439.793 67.532)"/><path d="M427.22 58.48s7.69 3.09 11.69 9.05M425.19 63.84s8.78.54 13.68 6.61M424 69.92s4.05-1.79 14.69 3.75M427.05 75.1s7.77.18 11.48 2.15M430.59 80.28a13.4 13.4 0 0 1 7.43-.53M452.08 58.48s-7.69 3.09-11.69 9.05M454.11 63.84s-8.78.54-13.68 6.61M455.29 69.92s-4.05-1.79-14.69 3.75M452.25 75.1s-7.77.18-11.48 2.15M448.7 80.28a13.36 13.36 0 0 0-7.42-.53M434.56 55.26a14 14 0 0 1 5 3.93M441.35 58.48a9.21 9.21 0 0 1 3.75-2.68" style="fill:none;stroke:#263238;stroke-linecap:round;stroke-linejoin:round"/><circle cx="481.43" cy="66.39" r="16.61" style="fill:#92e3a9;stroke:#263238;stroke-linecap:round;stroke-linejoin:round" transform="rotate(-76.81 481.447 66.381)"/><path d="M468.86 57.34s7.69 3.09 11.69 9M466.83 62.7s8.78.53 13.68 6.61M465.65 68.77s4.05-1.78 14.69 3.76M468.69 74s7.76.18 11.48 2.14M472.23 79.14a13.46 13.46 0 0 1 7.43-.54M493.72 57.34s-7.69 3.09-11.69 9M495.75 62.7s-8.78.53-13.68 6.61M496.93 68.77s-4.05-1.78-14.69 3.76M493.89 74s-7.77.18-11.48 2.14M490.34 79.14a13.41 13.41 0 0 0-7.42-.54M476.2 54.12a14 14 0 0 1 5 3.93M483 57.34a9.2 9.2 0 0 1 3.75-2.69" style="fill:none;stroke:#263238;stroke-linecap:round;stroke-linejoin:round"/><circle cx="523.07" cy="66.87" r="16.61" style="fill:#fff;stroke:#263238;stroke-linecap:round;stroke-linejoin:round" transform="rotate(-45 523.068 66.868)"/><path d="M510.5 57.81s7.69 3.1 11.69 9.06M508.47 63.17s8.78.54 13.68 6.62M507.29 69.25s4-1.79 14.69 3.75M510.33 74.43s7.76.18 11.48 2.15M513.87 79.62a13.46 13.46 0 0 1 7.43-.54M535.36 57.81s-7.69 3.1-11.69 9.06M537.38 63.17s-8.77.54-13.67 6.62M538.57 69.25s-4.06-1.79-14.69 3.75M535.53 74.43s-7.77.18-11.48 2.15M532 79.62a13.44 13.44 0 0 0-7.43-.54M517.83 54.6a14 14 0 0 1 5 3.93M524.63 57.81a9.21 9.21 0 0 1 3.75-2.68" style="fill:none;stroke:#263238;stroke-linecap:round;stroke-linejoin:round"/><circle cx="605.8" cy="64.12" r="16.61" style="fill:#fff;stroke:#263238;stroke-linecap:round;stroke-linejoin:round" transform="rotate(-76.07 605.77 64.135)"/><path d="M593.24 55.06s7.68 3.1 11.69 9.06M591.21 60.43S600 61 604.88 67M590 66.5s4.05-1.79 14.69 3.75M593.07 71.68s7.76.18 11.48 2.15M596.61 76.87a13.46 13.46 0 0 1 7.43-.54M618.1 55.06s-7.69 3.1-11.7 9.06M620.12 60.43s-8.78.57-13.67 6.57M621.3 66.5s-4-1.79-14.68 3.75M618.27 71.68s-7.77.18-11.48 2.15M614.72 76.87a13.46 13.46 0 0 0-7.43-.54M600.57 51.85a14 14 0 0 1 5 3.93M607.36 55.06a9.28 9.28 0 0 1 3.76-2.68" style="fill:none;stroke:#263238;stroke-linecap:round;stroke-linejoin:round"/><circle cx="682.68" cy="60.42" r="16.61" style="fill:#fff;stroke:#263238;stroke-linecap:round;stroke-linejoin:round" transform="rotate(-37.58 682.674 60.428)"/><path d="M670.12 51.37s7.68 3.09 11.69 9.05M668.09 56.73s8.78.54 13.68 6.62M666.91 62.81S671 61 681.6 66.56M670 68s7.76.18 11.48 2.15M673.49 73.17a13.51 13.51 0 0 1 7.43-.53M695 51.37s-7.69 3.09-11.7 9.05M697 56.73s-8.77.54-13.67 6.62M698.19 62.81s-4.06-1.81-14.69 3.75M695.15 68s-7.77.18-11.48 2.15M691.6 73.17a13.49 13.49 0 0 0-7.43-.53M677.45 48.15a13.94 13.94 0 0 1 5 3.94M684.25 51.37a9.21 9.21 0 0 1 3.75-2.68" style="fill:none;stroke:#263238;stroke-linecap:round;stroke-linejoin:round"/><circle cx="564.71" cy="66.16" r="16.61" style="fill:#92e3a9;stroke:#263238;stroke-linecap:round;stroke-linejoin:round" transform="rotate(-54.32 564.737 66.159)"/><path d="M552.14 57.11s7.68 3.09 11.69 9M550.11 62.47s8.78.54 13.68 6.61M548.93 68.55s4.05-1.79 14.69 3.75M552 73.73s7.76.18 11.48 2.15M555.51 78.91a13.4 13.4 0 0 1 7.43-.53M577 57.11s-7.69 3.09-11.69 9M579 62.47s-8.77.54-13.67 6.61M580.21 68.55s-4.06-1.79-14.69 3.75M577.17 73.73s-7.77.18-11.48 2.15M573.62 78.91a13.38 13.38 0 0 0-7.43-.53M559.47 53.89a13.94 13.94 0 0 1 5 3.94M566.27 57.11a9.21 9.21 0 0 1 3.73-2.68" style="fill:none;stroke:#263238;stroke-linecap:round;stroke-linejoin:round"/><circle cx="645.08" cy="62.36" r="16.61" style="fill:#92e3a9;stroke:#263238;stroke-linecap:round;stroke-linejoin:round" transform="rotate(-45 645.089 62.356)"/><path d="M632.52 53.31s7.68 3.09 11.69 9M630.49 58.67s8.78.53 13.68 6.61M629.31 64.74S633.36 63 644 68.5M632.35 69.93s7.76.18 11.48 2.14M635.89 75.11a13.46 13.46 0 0 1 7.43-.54M657.38 53.31s-7.69 3.09-11.7 9M659.4 58.67s-8.77.53-13.67 6.61M660.59 64.74S656.53 63 645.9 68.5M657.55 69.93s-7.77.18-11.48 2.14M654 75.11a13.44 13.44 0 0 0-7.43-.54M639.85 50.09a14 14 0 0 1 5 3.93M646.65 53.31a9.2 9.2 0 0 1 3.75-2.69M29.2 43.51s457.15 18.84 698.2-4.38" style="fill:none;stroke:#263238;stroke-linecap:round;stroke-linejoin:round"/><circle cx="584.87" cy="112.26" r="12.63" style="fill:#fff;stroke:#263238;stroke-linecap:round;stroke-linejoin:round"/><path d="M594.43 105.37s-5.85 2.36-8.89 6.89M596 109.45s-6.68.41-10.4 5M596.87 114.07s-3.08-1.36-11.17 2.86M594.56 118s-5.91.14-8.73 1.63M591.86 122a10.25 10.25 0 0 0-5.65-.4M575.52 105.37s5.85 2.36 8.89 6.89M574 109.45s6.68.41 10.4 5M573.08 114.07s3.08-1.36 11.17 2.86M575.39 118s5.91.14 8.73 1.63M578.09 122a10.25 10.25 0 0 1 5.65-.4M588.85 102.93a10.52 10.52 0 0 0-3.81 3M583.68 105.37a7 7 0 0 0-2.85-2" style="fill:none;stroke:#263238;stroke-linecap:round;stroke-linejoin:round"/><circle cx="644.41" cy="111.49" r="12.63" style="fill:#fff;stroke:#263238;stroke-linecap:round;stroke-linejoin:round"/><path d="M654 104.61s-5.84 2.35-8.89 6.88M655.51 108.69s-6.68.4-10.4 5M656.4 113.31s-3.08-1.36-11.17 2.85M654.09 117.25s-5.9.13-8.73 1.63M651.4 121.19a10.2 10.2 0 0 0-5.65-.41M635.06 104.61s5.84 2.35 8.89 6.88M633.52 108.69s6.67.4 10.4 5M632.62 113.31s3.08-1.36 11.17 2.85M634.93 117.25s5.91.13 8.73 1.63M637.63 121.19a10.16 10.16 0 0 1 5.64-.41M648.39 102.16a10.65 10.65 0 0 0-3.81 3M643.22 104.61a7.05 7.05 0 0 0-2.85-2" style="fill:none;stroke:#263238;stroke-linecap:round;stroke-linejoin:round"/><circle cx="704.84" cy="110.48" r="12.63" style="fill:#fff;stroke:#263238;stroke-linecap:round;stroke-linejoin:round"/><path d="M714.4 103.59s-5.85 2.36-8.9 6.89M715.94 107.67s-6.68.41-10.4 5M716.84 112.29s-3.09-1.36-11.17 2.86M714.53 116.23s-5.91.14-8.73 1.63M711.83 120.17a10.25 10.25 0 0 0-5.65-.4M695.49 103.59s5.85 2.36 8.89 6.89M694 107.67s6.68.41 10.4 5M693.05 112.29s3.08-1.36 11.17 2.86M695.36 116.23s5.91.14 8.73 1.63M698.06 120.17a10.25 10.25 0 0 1 5.65-.4M708.82 101.15a10.52 10.52 0 0 0-3.81 3M703.65 103.59a7.05 7.05 0 0 0-2.85-2" style="fill:none;stroke:#263238;stroke-linecap:round;stroke-linejoin:round"/><circle cx="553.2" cy="112.77" r="12.63" style="fill:#92e3a9;stroke:#263238;stroke-linecap:round;stroke-linejoin:round"/><path d="M562.76 105.88s-5.84 2.35-8.89 6.89M564.3 110s-6.67.41-10.4 5M565.2 114.58s-3.08-1.36-11.17 2.85M562.89 118.52s-5.91.14-8.73 1.63M560.19 122.46a10.21 10.21 0 0 0-5.64-.4M543.86 105.88s5.84 2.35 8.89 6.89M542.31 110s6.68.41 10.4 5M541.42 114.58s3.08-1.36 11.17 2.85M543.73 118.52s5.9.14 8.73 1.63M546.42 122.46a10.25 10.25 0 0 1 5.65-.4M557.18 103.44a10.53 10.53 0 0 0-3.8 3M552 105.88a7 7 0 0 0-2.86-2" style="fill:none;stroke:#263238;stroke-linecap:round;stroke-linejoin:round"/><circle cx="614.27" cy="112.48" r="12.63" style="fill:#92e3a9;stroke:#263238;stroke-linecap:round;stroke-linejoin:round"/><path d="M623.83 105.59s-5.85 2.35-8.89 6.89M625.37 109.67s-6.68.41-10.4 5M626.27 114.29s-3.08-1.36-11.17 2.85M624 118.23s-5.91.14-8.73 1.63M621.26 122.17a10.31 10.31 0 0 0-5.65-.41M604.92 105.59s5.85 2.35 8.9 6.89M603.38 109.67s6.68.41 10.4 5M602.48 114.29s3.08-1.36 11.17 2.85M604.79 118.23s5.91.14 8.73 1.63M607.49 122.17a10.31 10.31 0 0 1 5.65-.41M618.25 103.14a10.65 10.65 0 0 0-3.81 3M613.08 105.59a7 7 0 0 0-2.85-2" style="fill:none;stroke:#263238;stroke-linecap:round;stroke-linejoin:round"/><circle cx="671.94" cy="111.53" r="12.63" style="fill:#92e3a9;stroke:#263238;stroke-linecap:round;stroke-linejoin:round"/><path d="M681.5 104.64s-5.85 2.35-8.9 6.89M683 108.72s-6.68.41-10.4 5M683.94 113.34s-3.08-1.36-11.17 2.85M681.63 117.28s-5.91.14-8.73 1.63M678.93 121.22a10.25 10.25 0 0 0-5.65-.4M662.59 104.64s5.85 2.35 8.89 6.89M661.05 108.72s6.68.41 10.4 5M660.15 113.34s3.08-1.36 11.17 2.85M662.46 117.28s5.91.14 8.73 1.63M665.16 121.22a10.25 10.25 0 0 1 5.65-.4M675.92 102.19a10.61 10.61 0 0 0-3.81 3M670.75 104.64a7.05 7.05 0 0 0-2.85-2" style="fill:none;stroke:#263238;stroke-linecap:round;stroke-linejoin:round"/><circle cx="521.54" cy="113.42" r="12.63" style="fill:#fff;stroke:#263238;stroke-linecap:round;stroke-linejoin:round"/><path d="M531.1 106.53s-5.85 2.36-8.9 6.89M532.64 110.61s-6.68.41-10.4 5M533.53 115.23s-3.08-1.36-11.16 2.86M531.22 119.17s-5.9.14-8.73 1.63M528.53 123.11a10.25 10.25 0 0 0-5.65-.4M512.19 106.53s5.84 2.36 8.89 6.89M510.65 110.61s6.67.41 10.4 5M509.75 115.23s3.08-1.36 11.17 2.86M512.06 119.17s5.91.14 8.73 1.63M514.76 123.11a10.23 10.23 0 0 1 5.65-.4M525.52 104.09a10.52 10.52 0 0 0-3.81 3M520.35 106.53a7.05 7.05 0 0 0-2.85-2" style="fill:none;stroke:#263238;stroke-linecap:round;stroke-linejoin:round"/><circle cx="489.87" cy="112.92" r="12.63" style="fill:#92e3a9;stroke:#263238;stroke-linecap:round;stroke-linejoin:round"/><path d="M499.43 106s-5.85 2.36-8.89 6.89M501 110.11s-6.68.41-10.4 5M501.87 114.73s-3.08-1.36-11.17 2.86M499.56 118.67s-5.91.14-8.73 1.63M496.86 122.61a10.25 10.25 0 0 0-5.65-.4M480.52 106s5.85 2.36 8.9 6.89M479 110.11s6.68.41 10.4 5M478.08 114.73s3.08-1.36 11.17 2.86M480.39 118.67s5.91.14 8.73 1.63M483.09 122.61a10.25 10.25 0 0 1 5.65-.4M493.85 103.59a10.52 10.52 0 0 0-3.81 3M488.68 106a7 7 0 0 0-2.85-2" style="fill:none;stroke:#263238;stroke-linecap:round;stroke-linejoin:round"/><circle cx="458.2" cy="113.52" r="12.63" style="fill:#fff;stroke:#263238;stroke-linecap:round;stroke-linejoin:round"/><path d="M467.76 106.63s-5.84 2.35-8.89 6.89M469.3 110.71s-6.67.41-10.4 5M470.2 115.33s-3.08-1.33-11.2 2.85M467.89 119.27s-5.9.14-8.73 1.63M465.19 123.21a10.21 10.21 0 0 0-5.64-.4M448.86 106.63s5.84 2.35 8.89 6.89M447.31 110.71s6.68.41 10.4 5M446.42 115.33s3.08-1.36 11.17 2.85M448.73 119.27s5.9.14 8.73 1.63M451.42 123.21a10.25 10.25 0 0 1 5.65-.4M462.18 104.18a10.66 10.66 0 0 0-3.8 3M457 106.63a7 7 0 0 0-2.86-2" style="fill:none;stroke:#263238;stroke-linecap:round;stroke-linejoin:round"/><circle cx="426.54" cy="113.48" r="12.63" style="fill:#92e3a9;stroke:#263238;stroke-linecap:round;stroke-linejoin:round"/><path d="M436.1 106.6s-5.85 2.35-8.9 6.88M437.64 110.67s-6.68.41-10.4 5M438.53 115.29s-3.08-1.36-11.16 2.86M436.22 119.24s-5.9.13-8.73 1.63M433.53 123.18a10.2 10.2 0 0 0-5.65-.41M417.19 106.6s5.84 2.35 8.89 6.88M415.65 110.67s6.67.41 10.4 5M414.75 115.29s3.08-1.36 11.17 2.86M417.06 119.24s5.91.13 8.73 1.63M419.76 123.18a10.18 10.18 0 0 1 5.65-.41M430.52 104.15a10.65 10.65 0 0 0-3.81 3M425.35 106.6a7 7 0 0 0-2.85-2" style="fill:none;stroke:#263238;stroke-linecap:round;stroke-linejoin:round"/><circle cx="394.87" cy="113.87" r="12.63" style="fill:#fff;stroke:#263238;stroke-linecap:round;stroke-linejoin:round"/><path d="M404.43 107s-5.85 2.36-8.89 6.89M406 111.06s-6.68.41-10.4 5M406.87 115.68s-3.08-1.36-11.17 2.86M404.56 119.62s-5.91.14-8.73 1.64M401.86 123.57a10.2 10.2 0 0 0-5.65-.41M385.52 107s5.85 2.36 8.9 6.89M384 111.06s6.68.41 10.4 5M383.08 115.68s3.08-1.36 11.17 2.86M385.39 119.62s5.91.14 8.73 1.64M388.09 123.57a10.2 10.2 0 0 1 5.65-.41M398.85 104.54a10.65 10.65 0 0 0-3.81 3M393.68 107a6.89 6.89 0 0 0-2.85-2" style="fill:none;stroke:#263238;stroke-linecap:round;stroke-linejoin:round"/><circle cx="363.2" cy="113.52" r="12.63" style="fill:#92e3a9;stroke:#263238;stroke-linecap:round;stroke-linejoin:round"/><path d="M372.76 106.63s-5.84 2.36-8.89 6.89M374.3 110.71s-6.67.41-10.4 5M375.2 115.33s-3.08-1.33-11.2 2.86M372.89 119.27s-5.9.14-8.73 1.64M370.19 123.22a10.16 10.16 0 0 0-5.64-.41M353.86 106.63s5.84 2.36 8.89 6.89M352.31 110.71s6.68.41 10.4 5M351.42 115.33s3.08-1.36 11.17 2.86M353.73 119.27s5.9.14 8.73 1.64M356.42 123.22a10.2 10.2 0 0 1 5.65-.41M367.18 104.19a10.66 10.66 0 0 0-3.8 3M362 106.63a7 7 0 0 0-2.86-2" style="fill:none;stroke:#263238;stroke-linecap:round;stroke-linejoin:round"/><circle cx="331.54" cy="113.34" r="12.63" style="fill:#fff;stroke:#263238;stroke-linecap:round;stroke-linejoin:round"/><path d="M341.1 106.46s-5.85 2.35-8.9 6.88M342.64 110.53s-6.68.41-10.4 5M343.53 115.16s-3.08-1.36-11.16 2.85M341.22 119.1s-5.9.13-8.73 1.63M338.53 123a10.2 10.2 0 0 0-5.65-.41M322.19 106.46s5.84 2.35 8.89 6.88M320.65 110.53s6.67.41 10.4 5M319.75 115.16s3.08-1.36 11.17 2.85M322.06 119.1s5.91.13 8.73 1.63M324.76 123a10.18 10.18 0 0 1 5.65-.41M335.52 104a10.65 10.65 0 0 0-3.81 3M330.35 106.46a7.05 7.05 0 0 0-2.85-2" style="fill:none;stroke:#263238;stroke-linecap:round;stroke-linejoin:round"/><circle cx="299.87" cy="113.17" r="12.63" style="fill:#92e3a9;stroke:#263238;stroke-linecap:round;stroke-linejoin:round"/><path d="M309.43 106.29s-5.85 2.35-8.89 6.88M311 110.36s-6.68.41-10.4 5M311.87 115s-3.08-1.36-11.17 2.85M309.56 118.93s-5.91.13-8.73 1.63M306.86 122.87a10.2 10.2 0 0 0-5.65-.41M290.52 106.29s5.85 2.35 8.9 6.88M289 110.36s6.68.41 10.4 5M288.08 115s3.08-1.36 11.17 2.85M290.39 118.93s5.91.13 8.73 1.63M293.09 122.87a10.2 10.2 0 0 1 5.65-.41M303.85 103.84a10.65 10.65 0 0 0-3.81 3M298.68 106.29a7 7 0 0 0-2.85-2" style="fill:none;stroke:#263238;stroke-linecap:round;stroke-linejoin:round"/><circle cx="268.2" cy="112.83" r="12.63" style="fill:#fff;stroke:#263238;stroke-linecap:round;stroke-linejoin:round"/><path d="M277.76 106s-5.84 2.35-8.89 6.88M279.3 110s-6.67.4-10.4 5M280.2 114.65s-3.08-1.36-11.17 2.85M277.89 118.59s-5.9.14-8.73 1.63M275.19 122.53a10.16 10.16 0 0 0-5.64-.41M258.86 106s5.84 2.35 8.89 6.88M257.32 110s6.67.4 10.39 5M256.42 114.65s3.08-1.36 11.17 2.85M258.73 118.59s5.9.14 8.73 1.63M261.42 122.53a10.2 10.2 0 0 1 5.65-.41M272.18 103.5a10.66 10.66 0 0 0-3.8 3M267 106a7 7 0 0 0-2.86-2" style="fill:none;stroke:#263238;stroke-linecap:round;stroke-linejoin:round"/><circle cx="205.28" cy="111.89" r="12.63" style="fill:#fff;stroke:#263238;stroke-linecap:round;stroke-linejoin:round"/><path d="M214.84 105s-5.85 2.36-8.89 6.89M216.38 109.08s-6.67.41-10.4 5M217.28 113.7s-3.08-1.36-11.17 2.86M215 117.64s-5.91.14-8.73 1.63M212.27 121.58a10.23 10.23 0 0 0-5.65-.4M195.93 105s5.85 2.36 8.9 6.89M194.39 109.08s6.68.41 10.4 5M193.49 113.7s3.09-1.36 11.17 2.86M195.81 117.64s5.9.14 8.73 1.63M198.5 121.58a10.25 10.25 0 0 1 5.65-.4M209.26 102.56a10.44 10.44 0 0 0-3.8 3M204.1 105a7 7 0 0 0-2.86-2" style="fill:none;stroke:#263238;stroke-linecap:round;stroke-linejoin:round"/><circle cx="146.82" cy="110.6" r="12.63" style="fill:#fff;stroke:#263238;stroke-linecap:round;stroke-linejoin:round"/><path d="M156.37 103.72s-5.84 2.35-8.89 6.88M157.91 107.79s-6.67.41-10.4 5M158.81 112.41s-3.08-1.35-11.17 2.86M156.5 116.36s-5.9.13-8.73 1.63M153.81 120.3a10.2 10.2 0 0 0-5.65-.41M137.47 103.72s5.84 2.35 8.89 6.88M135.93 107.79s6.67.41 10.39 5M135 112.41s3.08-1.35 11.17 2.86M137.34 116.36s5.9.13 8.73 1.63M140 120.3a10.2 10.2 0 0 1 5.65-.41M150.79 101.27a10.66 10.66 0 0 0-3.8 3M145.63 103.72a7 7 0 0 0-2.86-2" style="fill:none;stroke:#263238;stroke-linecap:round;stroke-linejoin:round"/><circle cx="86.78" cy="108.36" r="12.63" style="fill:#fff;stroke:#263238;stroke-linecap:round;stroke-linejoin:round"/><path d="M96.34 101.47s-5.85 2.36-8.89 6.89M97.88 105.55s-6.67.41-10.4 5M98.78 110.17s-3.08-1.36-11.17 2.83M96.47 114.11s-5.91.14-8.73 1.63M93.77 118.05a10.23 10.23 0 0 0-5.65-.4M77.43 101.47s5.85 2.36 8.9 6.89M75.89 105.55s6.68.41 10.4 5M75 110.17s3.09-1.36 11.17 2.86M77.31 114.11s5.9.14 8.73 1.63M80 118.05a10.25 10.25 0 0 1 5.65-.4M90.76 99a10.52 10.52 0 0 0-3.76 3M85.6 101.47a7 7 0 0 0-2.86-2" style="fill:none;stroke:#263238;stroke-linecap:round;stroke-linejoin:round"/><circle cx="236.54" cy="112.82" r="12.63" style="fill:#92e3a9;stroke:#263238;stroke-linecap:round;stroke-linejoin:round"/><path d="M246.1 105.93s-5.85 2.36-8.9 6.89M247.64 110s-6.68.41-10.4 5M248.54 114.63s-3.09-1.36-11.17 2.86M246.22 118.57s-5.9.14-8.73 1.63M243.53 122.52a10.2 10.2 0 0 0-5.65-.41M227.19 105.93s5.85 2.36 8.89 6.89M225.65 110s6.67.41 10.4 5M224.75 114.63s3.08-1.36 11.17 2.86M227.06 118.57s5.91.14 8.73 1.63M229.76 122.52a10.18 10.18 0 0 1 5.65-.41M240.52 103.49a10.52 10.52 0 0 0-3.81 3M235.35 105.93a7 7 0 0 0-2.85-2" style="fill:none;stroke:#263238;stroke-linecap:round;stroke-linejoin:round"/><circle cx="175.41" cy="111.11" r="12.63" style="fill:#92e3a9;stroke:#263238;stroke-linecap:round;stroke-linejoin:round"/><path d="M185 104.23s-5.85 2.35-8.9 6.88M186.51 108.31s-6.68.4-10.4 5M187.41 112.93s-3.08-1.36-11.17 2.85M185.1 116.87s-5.91.13-8.73 1.63M182.4 120.81a10.2 10.2 0 0 0-5.65-.41M166.06 104.23s5.85 2.35 8.89 6.88M164.52 108.31s6.68.4 10.4 5M163.62 112.93s3.08-1.36 11.17 2.85M165.93 116.87s5.91.13 8.73 1.63M168.63 120.81a10.2 10.2 0 0 1 5.65-.41M179.39 101.78a10.65 10.65 0 0 0-3.81 3M174.22 104.23a7.05 7.05 0 0 0-2.85-2" style="fill:none;stroke:#263238;stroke-linecap:round;stroke-linejoin:round"/><circle cx="117.31" cy="109.76" r="12.63" style="fill:#92e3a9;stroke:#263238;stroke-linecap:round;stroke-linejoin:round"/><path d="M126.87 102.88s-5.85 2.35-8.89 6.88M128.41 107s-6.68.41-10.4 5M129.31 111.58s-3.08-1.36-11.17 2.85M127 115.52s-5.91.13-8.73 1.63M124.3 119.46a10.2 10.2 0 0 0-5.65-.41M108 102.88s5.85 2.35 8.9 6.88M106.42 107s6.68.41 10.4 5M105.52 111.58s3.08-1.36 11.17 2.85M107.83 115.52s5.91.13 8.73 1.63M110.53 119.46a10.2 10.2 0 0 1 5.65-.41M121.29 100.43a10.65 10.65 0 0 0-3.81 3M116.12 102.88a7 7 0 0 0-2.85-2" style="fill:none;stroke:#263238;stroke-linecap:round;stroke-linejoin:round"/><circle cx="55.84" cy="106.45" r="12.63" style="fill:#92e3a9;stroke:#263238;stroke-linecap:round;stroke-linejoin:round"/><path d="M65.39 99.57s-5.84 2.35-8.89 6.88M66.93 103.64s-6.67.41-10.4 5M67.83 108.27s-3.08-1.36-11.17 2.85M65.52 112.21s-5.9.13-8.73 1.63M62.83 116.15a10.2 10.2 0 0 0-5.65-.41M46.49 99.57s5.84 2.35 8.89 6.88M45 103.64s6.67.41 10.39 5M44.05 108.27s3.08-1.36 11.17 2.85M46.36 112.21s5.9.13 8.73 1.63M49.05 116.15a10.2 10.2 0 0 1 5.65-.41M59.81 97.12a10.66 10.66 0 0 0-3.8 3M54.65 99.57a7 7 0 0 0-2.86-2M732.12 96.9S213.28 108.47 30 90.81" style="fill:none;stroke:#263238;stroke-linecap:round;stroke-linejoin:round"/><path d="M660.6 106.93h35.53v7.11H660.6zM662.84 103.51h31.05v3.27h-31.05z" style="fill:#263238;stroke:#263238;stroke-linecap:round;stroke-linejoin:round"/><path d="M668.99 99.42h18.74v4.9h-18.74zM693.89 114.25h-31.05l5.59 26.15h19.87l5.59-26.15z" style="fill:#263238;stroke:#263238;stroke-linecap:round;stroke-linejoin:round"/><path d="M692.04 114.25h-27.36l4.93 26.15h17.51l4.92-26.15z" style="fill:#fff;stroke:#263238;stroke-linecap:round;stroke-linejoin:round"/><path d="M672.52 114.25h-2.62l3.05 26.15h1.67l-2.1-26.15zM686.29 114.25h-2.61l-1.92 26.15h1.68l2.85-26.15zM682 143.43h-7v7.71h7v-7.71z" style="fill:#263238;stroke:#263238;stroke-linecap:round;stroke-linejoin:round"/><path d="m681.92 151.14-3.52.1-3.51-.1-1.83 7.46 4.91 7.89h1.44l4.34-7.89-1.83-7.46zM674.8 105.49h7.01v-7.7h-7.01v7.7z" style="fill:#263238;stroke:#263238;stroke-linecap:round;stroke-linejoin:round"/><path d="m674.89 97.79 3.51-.1 3.52.1 1.83-7.46-4.91-7.89h-1.45l-4.33 7.89 1.83 7.46zM666.6 139.7h24.05v4.2H666.6zM667.79 162.22h21.92v6.26h-21.92z" style="fill:#263238;stroke:#263238;stroke-linecap:round;stroke-linejoin:round"/><path d="M674.05 165.87h9.91v278.11h-9.91z" style="fill:#263238;stroke:#263238;stroke-linecap:round;stroke-linejoin:round"/><path d="M662.57 435.64h33.39v19.31h-33.39z" style="fill:#263238;stroke:#263238;stroke-linecap:round;stroke-linejoin:round"/><path d="M609.53 315.15s-2.32 6.39-7.26 7.26-13.64-8.71-8.13-13.65 13.07 2.91 15.39 6.39ZM617.08 283.79s-7.26 17.72-4.35 26.43 20.9 15.09 26.13 3.77-6.39-27.29-10.74-30.78-9.59-2.32-11.04.58ZM659.47 291.34S647 302.67 645.54 314s7 15.39 15.68 13.94 13.06-23.52 10.45-33.68-12.2-2.92-12.2-2.92ZM661.8 354.06s-13.94.58-14.52 7.26 6.1 8.13 12.77 2.32 7.55-9.29 1.75-9.58Z" style="fill:#92e3a9"/><path d="M647.51 362.91s11-5 15.93-5.9" style="fill:none;stroke:#263238;stroke-miterlimit:10"/><path d="M664.9 397.76s-10.23-9.48-15.38-5.18-1.47 10.05 7.36 10.7 11.91-1.2 8.02-5.52Z" style="fill:#92e3a9"/><path d="M648.55 393.86s11.31 4.25 15.45 7.14" style="fill:none;stroke:#263238;stroke-miterlimit:10"/><path d="M610.9 395s14.11-13.06 21.21-7.14 2 13.86-10.15 14.75-16.42-1.68-11.06-7.61Z" style="fill:#92e3a9"/><path d="M633.44 389.6s-15.59 5.85-21.25 9.84" style="fill:none;stroke:#263238;stroke-miterlimit:10"/><path d="M627.24 368s-1.45 7-6.67 9.58-14.52-2.91-9.59-11.33 13.65-1.74 16.26 1.75ZM615.05 346.22s-2.61-5.81-12.78-2-14.22 9.58-7.84 11.61 20.62-9.61 20.62-9.61Z" style="fill:#92e3a9"/><path d="M613.1 346s-10.76 1.16-16.58 6.11" style="fill:none;stroke:#263238;stroke-miterlimit:10"/><path d="M644.08 276.54s1.75 4.06 5.23 3.19 4.36-6.1 9.87-4.65 10.17 7.84 10.17 4.94-7-10.45-14.81-10.45-10.16 3.19-10.46 6.97Z" style="fill:#92e3a9"/><path d="M615.05 346.22s12.5-2.4 17.71 11.48a38.81 38.81 0 0 1 1.3 4.25" style="fill:none;stroke:#263238;stroke-miterlimit:10"/><path d="M667.23 332.77s2.61-5.81 12.77-2 14.23 9.58 7.84 11.61-20.61-9.61-20.61-9.61Z" style="fill:#92e3a9"/><path d="M669.55 333.15s10.47-.58 15.42 5.53M667.23 332.77a16.06 16.06 0 0 0-8.66 1.18M621.71 322.35c-6.12-6.25-12.18-7.2-12.18-7.2s-8.94-2.36-12.43.84M622.96 290.19l-.55-2.43M637.1 418.55s1.3-50 0-65.19-7.38-33-7.38-33l-6.19-27.63M662.9 300.93l1.12-2.4M640.13 418.5s.44-45.61 2.17-58.63 8.68-33.4 8.68-33.4l10.65-22.83" style="fill:none;stroke:#263238;stroke-miterlimit:10"/><path d="M647.51 362.91s-3 26.15-4.77 55.65M632.76 418.5s.87-41.71-.87-47.35-4.65-3.15-4.65-3.15-8 .94-10.94 5.6M634.75 365.2c2.27 12.72.18 53.34.18 53.34" style="fill:none;stroke:#263238;stroke-miterlimit:10"/><path d="M656.11 335.31a18.16 18.16 0 0 0-6.59 8.94c-5.21 13.89-4.61 74.31-4.61 74.31M623.23 324a41 41 0 0 1 7.36 13.3c6.94 20 9.54 71.64 8.24 81.19M640.86 342.69c-.43 25.18-.73 75.81-.73 75.81M640.91 339.55c.28-16.65.62-32.95 1-41.72.87-22.56 2.21-21.29 2.21-21.29s1.61-5.07 10.63-4.49" style="fill:none;stroke:#263238;stroke-miterlimit:10"/><path d="M629.8 358.57s-7.26-6.47-4.36-9.65 20.91-5.52 26.13-1.38-6.38 10-10.74 11.25-9.58.84-11.03-.22Z" style="fill:#92e3a9"/><path d="M636.5 353.27a13 13 0 0 0-.16 1.94M639 345.72a33.5 33.5 0 0 0-1.87 4.8" style="fill:none;stroke:#263238;stroke-miterlimit:10"/><path d="M629.8 400.9s-7.26-6.48-4.36-9.66 20.91-5.52 26.13-1.38-6.38 10-10.74 11.25-9.58.89-11.03-.21Z" style="fill:#92e3a9"/><path d="M639 388s-2.66 5.31-2.66 9.49" style="fill:none;stroke:#263238;stroke-miterlimit:10"/><path d="M635.2 383s-4.93-4.4-3-6.56 14.2-3.75 17.75-.94-4.34 6.78-7.3 7.64-6.46.58-7.45-.14Z" style="fill:#92e3a9"/><path d="M641.45 374.27a17.84 17.84 0 0 0-1.81 6.44" style="fill:none;stroke:#263238;stroke-miterlimit:10"/><path d="M628.38 411.3h19.65v43.57h-19.65z" style="fill:#263238;stroke:#263238;stroke-miterlimit:10"/><path d="M13.82 454.87h722.39" style="fill:none;stroke:#263238;stroke-linecap:round;stroke-linejoin:round"/><path d="M529 364.73a9.77 9.77 0 0 0-3.06-2.16c-1.9-1.71-4.32-3.65-4.32-3.65.18-1-.66-3.21-2.52-3l-.07-.62c.19-.28.17-.91-.13-1.06l-.28-2.26a4.77 4.77 0 0 0 .73-1.14l.35-1s2.27-1.05 2.53-2.71-.26-2.89-.78-3.07l-.53-.17a5.37 5.37 0 0 0 1.58-2.1c.43-1.23.61-5.43-4.46-8.31s-10.68-.79-12.08.61a9.37 9.37 0 0 0-1.84 2.36s-1-1.75-1.4-.09-1.66 3.15 2.72 4.38a36.34 36.34 0 0 0-.14 9.27 12.87 12.87 0 0 1-1.87-2.17c-1.24-2.07-3.11-4.56-3.21-4.87L495 327s-.51-6.73-3.21-10.67-7-3.93-11.28-3.83l-2.18-1.14-1.33-9.83.15-.44a10.17 10.17 0 0 0 1.82 1.76 5.57 5.57 0 0 0 6.1-1.14 6.5 6.5 0 0 0 1-7.66c-1.24-2.17-4.45-1.55-4.45-1.55s.72-.83 1.24-1.35 1-5-2.9-8.7a16.24 16.24 0 0 0-13.56-3.83c-3.52.83-7 4.46-7 4.46s-3.11 2.69-1.87 4.86a6.4 6.4 0 0 0 3.52 2.8s-.2 9.52.83 11.39 4.48 5.91 5.76 6.4l-.27 3.85a8.67 8.67 0 0 0-2.9.72s-5.07.31-7.14 3.73-1.87 10.25-1.87 10.87-3 16.88-3 16.88-4.76 6-6 7.45a40.42 40.42 0 0 1-3.42 3.14l-.18.16c-.17.14-.34.28-.5.43l-.16.12-.39.34-.18.15-.45.37-.19.16-.32.27-.17.14-.34.29-.14.11-.32.26-.07.06-.18.14-.17.14-.08.07h-.31a10.73 10.73 0 0 0-3.2-2.32c-.07-.09-.23-.13-.47-.15a8.34 8.34 0 0 0 0-1.52s-1.17 1-2.22 1.71h-.12a17.58 17.58 0 0 0 3.32-2.68c0 1.33.11 2.44 1 2.51a8 8 0 0 0 5.29-1.53c1.65-1.29 2.35-3.41 1.77-4.35a34.27 34.27 0 0 1-1.7-4.12s-1.25-3.9-1.48-4.25c.78 1.17 0-4.32-2.18-6.69-1.3-1.41-10.17-2.34-12.87-1.4s-5.76 4.7-5.76 6.7a3.33 3.33 0 0 0 .94 2.7s.94 6.35 0 8.12-1.76 3.53-1.06 4.23a6.42 6.42 0 0 0 4 .94c.59-.23 1.88-.7 1.88-.7s-2.06-2.31-2.06-4c0 1.31 1.81 4 3.18 4.85a8.2 8.2 0 0 0 1.37.76 4.83 4.83 0 0 0-1.44 1.13v.05l-6.14 4.76c-1.1.86-4.91 16.7-4.91 16.7s-3.47-2.42-5.69-3.77a11.61 11.61 0 0 1-2.91-2.25 21.55 21.55 0 0 0-.24-3.31c-.25-1.11-1.6-1.85-2-2.58s-1.47-1.85-1.72-1a2.54 2.54 0 0 0 .5 1.85s-1.48-1-2.58-1.6-1.85-.61-1.85-.12 2.81 2.44 2.81 2.44-3.2-1.4-3.51-1.48-.93.08-.62.7 2.57 1.88 2.57 1.88-2.65-.39-2.65-.08.55.62.86.78 1.79.94 1.79.94-1.71-.32-1.71.07.7.63.93.63a36.42 36.42 0 0 1 3.05 2.1 16.87 16.87 0 0 0 2.49.94s6.48 8.82 9.76 10.69 3.74 1.8 3.74 1.8l1-6.43s-1.22 8.23-1.59 10.2-.37 13.87-.37 13.87l.72.06-.08 17.07s1.63.43 3.69.79c.46 3.55 1.63 12.62 1.85 15 .27 3 .46 12.64.46 12.64a58.61 58.61 0 0 1-5.17 3.5c-2.12 1.2-3.13 1.57-2.49 2.13s2.77.73 5 .55a26.62 26.62 0 0 0 4.18-.78c.46-.11.78-.21.9-.23s1 0 1.84-.11l.27-.05a3.29 3.29 0 0 0 .75-.19 1.06 1.06 0 0 0 .33-.19 1.54 1.54 0 0 0 .26-.24 1 1 0 0 0 .22-.53 14.1 14.1 0 0 0-.29-2c0-.35-.11-.69-.17-1a14.19 14.19 0 0 1-.48-3c0-1.48.46-10.33.19-18.08-.13-3.43-.18-5.61-.19-7h.19v.09a26.54 26.54 0 0 0 4.23.66c.43 2.13 1 5.39 1.58 7.55.21.78 1 16.89.18 20 0 0-.19.25-.48.6a2.57 2.57 0 0 0-.21.24l-.06.06-.2.24-.11.12-.27.31-.06.06-.22.24-.09.1-.23.24-.05.05-.27.27-.07.06-.19.18-.07.06c-.09.06-.16.13-.23.18a25.56 25.56 0 0 0-3.1 2.33c-.35.36-.52.66-.32.8a10.43 10.43 0 0 0 5 .56 10.66 10.66 0 0 0 2.53-1c.48-.24.93-.49 1.35-.69l.43-.19c1-.39 2.22-.55 2.7-1.84a1.15 1.15 0 0 0 .08-.29s0-.06 0-.09a1.37 1.37 0 0 0 0-.19V455a1 1 0 0 0 0-.17.69.69 0 0 0 0-.13.77.77 0 0 0 0-.15v-.14a.74.74 0 0 0 0-.14 1.54 1.54 0 0 0-.05-.17.36.36 0 0 0 0-.1l-.25-.74a5.84 5.84 0 0 1-.23-2.93c.63-3.49 1.47-13.55 1.66-15.5a52.25 52.25 0 0 0-.46-8.76v-2.56c1.1-.42 1.84-.76 1.84-.76l-1.43-16.9c1.37-.28 2.3-.49 2.3-.49s-.11-4.77-.09-10.18c.4-1.12.78-2.18 1.05-2.92.93-2.49 1.76-6.09 1.94-6.36a41.67 41.67 0 0 0 .26-4.75 5.35 5.35 0 0 0 1.59-.88s-5.35-16-5.91-17a5.1 5.1 0 0 0-1.59-1.31c3.9-2.27 11.92-7 13-8.09a42.35 42.35 0 0 0 3.1-3.63l2.28-7.56a30.62 30.62 0 0 1 .72 4.35c-.1.62-.72 3.52-.72 3.52s-4.66 10.24-5.2 17.72 4.12 31.08 4.12 31.08h2.76c.21 2.78.59 7.47.81 9.32.32 2.7.76 4.87.76 4.87l1.73 34.77s-2.75 2-5.11 3.67l-.73.49-.18.13-.49.32-.21.14-.42.27-.17.11-.49.28c-1.95 1.09-3.14 2.17-2.16 2.6a16.52 16.52 0 0 0 6.39.54c1.73-.32 4.22-1.19 6.06-1.51l.7-.12a10.8 10.8 0 0 0 2.58-.66 2.1 2.1 0 0 0 1.16-1.06 2 2 0 0 0 .09-.29.59.59 0 0 1 0-.13V450.16c-.17-1.79-.47-3.76-.47-4.78 0-1.84 1.73-20.9 2.17-25.34s-.55-10.4-.44-11.48c.08-.79.05-6.28 0-9.21h3.92c.47 4 1.45 12.34 1.69 14 .33 2.17 3.8 35.42 3.8 35.42a9.57 9.57 0 0 1-2.6 4c-.35.34-.66.68-1 1a19.84 19.84 0 0 0-1.45 1.83v.07c-.1.14-.19.28-.27.41s-.09.15-.13.22-.12.21-.17.32l-.13.26a2.56 2.56 0 0 0-.11.24c0 .1-.07.2-.1.29a1 1 0 0 0-.05.16 1.43 1.43 0 0 0-.06.39c0 .48.81.89 1.94 1a7.16 7.16 0 0 0 3.8-.6 21.82 21.82 0 0 0 4-2.48c.63-.49 1.16-.94 1.56-1.31a3.86 3.86 0 0 0 1.14-1.79 5.45 5.45 0 0 0 .21-1.76 5.16 5.16 0 0 0-.05-.67l-.06-.49c-.21-1.69-.48-3.37-.48-4.06s2.28-16.9 1.74-23.07-2.06-10.08-1.74-12.57c.24-1.81.47-7.72.59-10.83h1.25s5.09-22.74 4.55-31.3c-.46-7.26-4.82-15.84-6.13-18.27l-1.72-9.58.72-2.69s3.11 9.11 4.45 10.66a93.64 93.64 0 0 0 9.12 7.53l.62.45.2.14.56.38.18.12.46.31.15.09.48.27c.51.26 1.09.58 1.66.92s1.18.72 1.69 1.05c-.05.17-.12.38-.2.61a61.64 61.64 0 0 0-5.15 3.8c-1.48 1.38-6.28 16.6-6.28 16.6l2.86 1.16c0 .81-.28 12.41-.46 12.77a54.74 54.74 0 0 0 .56 9.78l.46 1.56s.73 3.14 1.56 3.42l.71.23-.06 13.88s1.62.42 3.69.79c.46 3.54 1.62 12.62 1.84 15 .28 2.95.46 12.63.46 12.64s-1 .73-2.18 1.58c-.95.66-2.05 1.4-3 1.92-1.59.9-2.56 1.33-2.67 1.73a.25.25 0 0 0 0 .19.6.6 0 0 0 .17.2c.65.56 2.77.74 5 .56.42 0 .84-.09 1.26-.16l.82-.14.78-.16c.63-.14 1.18-.28 1.58-.39l.63-.17a3.37 3.37 0 0 1 .55 0 12.36 12.36 0 0 0 1.39-.09 3.86 3.86 0 0 0 .49-.09 2.08 2.08 0 0 0 .8-.34c.83-.65.37-1.29.19-2.77-.05-.35-.11-.69-.18-1a14.29 14.29 0 0 1-.47-3.05c0-1.47.46-10.33.18-18.07-.12-3.44-.17-5.61-.19-7h.18v.09a26.54 26.54 0 0 0 4.24.66c.42 2.13 1 5.39 1.58 7.55.2.78 1 16.89.18 20l-.47.58-.23.27-.23.27-.28.32-.24.26-.08.09-.24.25v.05l-.27.26-.07.07-.2.17-.07.06-.23.18c-.92.65-4.06 2.68-3.41 3.14a1.8 1.8 0 0 0 .58.24c.17.06.37.1.58.15a11.65 11.65 0 0 0 3.82.16 13.89 13.89 0 0 0 3.45-1.44l.42-.22c1.11-.55 2.59-.55 3.14-2a1.47 1.47 0 0 0 .08-.28.38.38 0 0 0 0-.1v-.89a.5.5 0 0 1 0-.13 1.21 1.21 0 0 0 0-.18v-.09c-.07-.24-.16-.48-.24-.75a5.7 5.7 0 0 1-.23-2.93c.62-3.49 1.46-13.55 1.66-15.49a52.25 52.25 0 0 0-.46-8.76v-2.56c1.09-.43 1.84-.76 1.84-.76l-1.17-15.2a.67.67 0 0 0 .06-.12 35 35 0 0 0 1.11-5.25s2.12-6 3-8.49 1.76-6.09 1.94-6.36a41.67 41.67 0 0 0 .26-4.75 5.35 5.35 0 0 0 1.59-.88s-5.64-15.84-6.15-16.86Zm-93-13.91a9.88 9.88 0 0 1 .18 1.75c-.36-2.5-1.95-9.52-1.95-9.52s1.25 5.65 1.77 7.77ZM380.34 442.79c0-.06 0-.12-.07-.19a2.75 2.75 0 0 0-.15-.36 2 2 0 0 0-.11-.2c-.06-.11-.13-.22-.2-.33a2.43 2.43 0 0 0-.14-.2 4 4 0 0 0-.26-.32 1.15 1.15 0 0 0-.14-.17c-.11-.13-.23-.25-.35-.37l-.09-.09a10.45 10.45 0 0 0-1-.88l-.52-.38a17.49 17.49 0 0 0-1.78-1.1s-3.81-10.46-5.84-16.52c.14-1.4.22-2.68.28-3.77.21-3.63.31-5.65.31-5.65l2.38-11.54a18.05 18.05 0 0 0 2.26-.67s2.88-8.15 4.65-15.52l-.31-4.17-.79-11.12 3.72 1.43a26.54 26.54 0 0 0 1.61-3.13c.31-.91 1.45-4.57 1.45-4.57s1.17-6.85 1.47-10.08-.06-13.35-.06-13.35l-2.12-6.66s-3.56-14-5.18-16.32a12.9 12.9 0 0 0-2.19-2.4c-2.41-3-7.15-4.63-8.75-5.07l-.24-3.8a3.69 3.69 0 0 0 1.89-1.14 15.94 15.94 0 0 0 3.24-7 21.34 21.34 0 0 0 .08-2.93l.12-.2 1-4a7.49 7.49 0 0 0 2.32-2.42c.5-1.21-.2-5.35-2.93-7.57s-7.57-4.85-12.21-3.53a28.63 28.63 0 0 0-7.27 3s-2 .81-5.15 6.57-.81 10.7-.2 11.1a15 15 0 0 1 1.92 2.12s-2.23 3.53-1.32 4.85 3.64 1.71 3.64 1.71-9.09 2.53-8.78 7.77c.17 3.08 2.81 5.13 6 6-.1.21-.19.42-.28.63-2.22 5.35-3.64 10.8-2.52 13a17.34 17.34 0 0 0 3.33 4.24s-.2 1.66-.5 4.06c-2.88-2.54-5.39-5.12-5.39-5.12l-.5-1.25-.37.17 1-1s-5-22.36-5.66-23.16a9.07 9.07 0 0 0-.76-.79 2.16 2.16 0 0 0-.09-.79c-.57-.66-10.14-4.45-12-5-.57-.17-1.37-.39-2.22-.62.09-.4.18-.79.25-1.13 2.36-.1 4.36-1.08 4.47-2s.85-8.8.36-10.51a41.84 41.84 0 0 1-.73-5.87 12.34 12.34 0 0 0-.49-3.17s2.34-1.95 2.34-3.27-5.12-1.9-9.48-2-9.38.85-11.75 3.31 1.42 9.38 1.42 9.38l.09.17a2 2 0 0 0-.71.71c-1.59 2.44-.12 5 1 5.38a8.59 8.59 0 0 1 2.2 1.22 4.34 4.34 0 0 0 .93 2.62v4.57c-2.35 1.59-7.77 5.24-8.29 5.61-.67.48-2.85 1.8-3 2.94l-4.9 24.5 1.9.6H300l-.61 4.24a58.43 58.43 0 0 0-.7 7.28c0 2.91 1.47 17 1.47 17s-2.58 7.5-2.58 8 2.54 2.42 2.9 2.54c-.42 2.9-6.74 15.45-6.74 15.45s-.24 1.37-.59 3.44c-.07.38-.13.78-.2 1.2-.14.83-.3 1.75-.46 2.71s-.32 1.95-.48 3c0 .25-.08.51-.13.76-.4 2.55-.8 5.11-1.08 7.2-.14 1.05-.32 2.34-.5 3.79 0 .29-.08.59-.11.89-.12.94-.24 1.93-.36 2.95l-.21 1.76-.36 3.25-.18 1.8c-.13 1.38-.25 2.72-.34 4 0 .55-.08 1.09-.11 1.59v.85c-.11 2.3-.06 3.95.23 4.38a2.21 2.21 0 0 0 .25.3c1.34 1.48 5.49 3.9 11.13 4.1H302.13a51.18 51.18 0 0 0 9.43-1.83l.26 5.43a15.05 15.05 0 0 0-1.47 3.2 14 14 0 0 0-.13 1.73s-.4.66-2.66 1.73-5.59 2.13-4.93 3.32 5.19 1.87 7.32 1.74 8-1.07 8-1.07a6.15 6.15 0 0 0 2.93-1.2c.93-.93.93-1.6.53-3.46a30.64 30.64 0 0 1-.53-3.86 11 11 0 0 0 1.33-4.26c0-1.86-.4-5.72-.4-5.72v-1a7.15 7.15 0 0 0 1.34-.65 8.09 8.09 0 0 0 2.28-5.47c-.06-.57-1.4-7-3.05-14.75l.2-7.3-.13-28 6.26 46.46 2.93 21.84s-.94 1.06-.94 1.73a6.58 6.58 0 0 0 .4 1.73 3.89 3.89 0 0 1-1.59 1.86c-1.34.94-3.6 2.8-5.33 3.46s.13 2.27 3.33 2.27 7.72-.67 8.65-1.47 4-2 5.06-3.06q.27-.27.51-.54a18.5 18.5 0 0 0 8 4.08c5.76 1.51 9.39 2.11 10.6 1.21a1.94 1.94 0 0 0 .21-.2l.06-.08a1.09 1.09 0 0 0 .13-.17.57.57 0 0 0 .08-.13 1 1 0 0 0 .1-.17l.09-.17a1 1 0 0 0 .07-.15 6.91 6.91 0 0 0 .38-1c.05-.13.09-.27.13-.41a19.82 19.82 0 0 0 .77-4.9c0-1.62 2.52-8.72 4.3-14.13 1.93 3.95 3.78 7.67 3.78 7.67a34.48 34.48 0 0 1-2.43 5.45c-.38.59-.85 1.25-1.33 1.91a3.15 3.15 0 0 1-.22.29l-.45.51-.19.24-.29.37-.15.2-.4.5a.64.64 0 0 0-.1.13l-.29.35-.1.12-.31.35a.72.72 0 0 0 .2 1.2 2.73 2.73 0 0 0 .42.22l.26.09c.18.05.38.09.59.13a6.89 6.89 0 0 0 1 .08c2 0 5.05 0 6.06-.4a1 1 0 0 0 .19-.12 2.61 2.61 0 0 0 .42-.48c.14-.21.28-.45.43-.73s.23-.43.34-.66l.24-.5c.11-.24.23-.48.34-.73l.36-.77c.19-.41.38-.81.56-1.17a10.71 10.71 0 0 1 .65-1.1c.7-.95 2.22-2 3.21-3.28l.29-.39a3.67 3.67 0 0 0 .64-2.29 2.54 2.54 0 0 0-.03-.57Zm-4.75-109.28 1 2.12 1.65 7.53s1.51 6.88 2 10.82.48 11.43.48 11.43-.29.28-.69.69c-.19-.91-.37-1.68-.53-2.28.5-.47.91-.83.91-.83s-4.64-15.14-5.15-16.66a26.81 26.81 0 0 1-.8-5.25c.03-.33.69-4.66 1.13-7.57Zm-71.92 55a28.55 28.55 0 0 1-4 1.46l2.67-13.31a7.26 7.26 0 0 1 .12-.72l.49-.14c.19.49.43.91.81 1 1 .24 1.57-1.33 1.57-1.33a4.13 4.13 0 0 0 .62-.4c.51 5.29 1 10 1.31 11.45 0 .15.07.35.11.6a28.71 28.71 0 0 0-3.7 1.37Zm33.82-46.56v.14l.76-.74.16 1.37a30.19 30.19 0 0 0 4 3.06 33.72 33.72 0 0 0 3.52 1.87 55.73 55.73 0 0 0-3.34 4.66c-.84 1.37-2 3.26-3.17 5.12-.28-3.48-2-14.71-2-14.71s.04-.29.07-.79Zm1.1 16.81Zm19.41 75.9a83.62 83.62 0 0 1-2.52 13 3.9 3.9 0 0 1-.91 1.21s-4.45-.44-6.75-.5h-.42c-1.4 0-3.51-.83-5.1-.67-.27-1.28-.49-2.38-.49-2.38a6.81 6.81 0 0 0-.14-3.33 18.45 18.45 0 0 1-.66-3.59s-.67-18.11-.27-24.63-.93-17.31-.93-17.31l-1.06-31.76a.75.75 0 0 0 .07-.12c.18-.26 8-7.25 9.83-8.85a27.84 27.84 0 0 1-.74 3.81 32.86 32.86 0 0 0-1.32 5.65l1.13.34a109.84 109.84 0 0 0 .39 17.93c1.11 9.49 2 15.75 2 15.75s.6.21 1.61.5c.88 4 3.05 13.3 4.55 16 .6 1.12 1.3 2.39 2 3.71a129.52 129.52 0 0 1-.27 15.24Z" style="fill:#263238"/><path d="m288.36 229.7-6.3 13.85-12.65 10.58 8.97 2.53 20.01-10.58-1.61-22.08-8.42 5.7z" style="fill:#263238;stroke:#263238;stroke-linecap:round;stroke-linejoin:round"/><path d="M393 357.73a81.2 81.2 0 0 0 23.1 23.83c15.3 10.31 35.92 60 36.36 65.46s.3 5-.73 9-5.15 9.71-3.53 11.19 7.65 1 10.88-.15 5.74-4.71 6.48-7.65.73-4.71-.44-6-3.24-.14-3.53-4.85.58-6.92.88-9.71-1.47-5.6-3.39-9-12.67-24.54-16.64-35.87-5.3-20.16-7.06-21.78-4.57-4.71-4.57-4.71-12.36-15-14.86-24.58a67 67 0 0 1-2.35-16.62Z" style="fill:#fff;stroke:#263238;stroke-linecap:round;stroke-linejoin:round"/><path d="M393 357.73a70.83 70.83 0 0 0 8.29 10.91 33.23 33.23 0 0 1 18.9-16.39 40.43 40.43 0 0 1-4.24-9.39 67 67 0 0 1-2.35-16.62ZM451.59 456.51c-1.22 3.94-4.92 9.26-3.37 10.67s7.65 1 10.88-.15 5.74-4.71 6.48-7.65a12.94 12.94 0 0 0 .49-3.41c-5.15 1.63-11.07 1.08-14.48.54Z" style="fill:#263238;stroke:#263238;stroke-linecap:round;stroke-linejoin:round"/><path d="M121.36 207.75s-.69-5.64 1.37-5.09 4 7.56 3 11.27-1.65 3.3-1.65 3.3-1.93-.82-2.2-4-.52-5.48-.52-5.48ZM132.64 215.58s-1.76-2.48.44-2.78 1.9 1.17 2.49 1.61 1.75-1.9 3.66-1.31 1.46 2.05 2.34 2.05 2.49-2.64 4.39-1.62 2 1.47 3.22 1.47 4.83-1.9 6.44-.59 3.22 1.61 3.81.88 3.37-1.76 3.95-.14 1.47 2.19 3.81 1.75 4.83-.58 5.71.88a2.85 2.85 0 0 0 3.95 1.32c1.91-.73 4.39-.73 5.27.88s3.08 2.63 4.25 2.05 3.66-.3 4.54 1 4.1 2.49 4.83 2 3.95-1.17 5 .88.58 3.37 2.34 2.49 5.56-1.61 6 .29.15 3.51 1.46 2.78 3.81-.44 4.4 1 .87 2.92 2.63 2.92 4.39-.73 5 .88.15 3.22 2.63 2.93 3.52-1.76 4.4.88 1.75 3.81 2.78 3.66 3.51-1.46 4.39.15 1.76 2.19 3.22 2.19 2.93-1 3.66.73 1.61 2.35 2.64 2.05 2.48-1.46 3.36-.14.59 1.9 1.47 2.05 1.75-1.47 2.63 0a7.07 7.07 0 0 0 2 2.19l.3 1.91s-5.42-1.18-21.38-6.45-39.09-17.86-58.41-24.15-35-7.32-37.63-7.18l-5 .3ZM219.8 348.53s2.21 9.85 9.65 32.37 16.09 55.58 15.48 60.21-2 7.64-3.82 9-6.43 4.22-6.83 5.43-6.44 10.05-6 11.26 10.05 2.21 12.86 1.81 5.63-4 6.23-6.43-.2-6.44 1.21-7.44 8.44-7.24 8.44-12.67-3.21-12.66-3.21-12.66-3.62-26-7.44-42.52-3-37.79-3-37.79Z" style="fill:#fff;stroke:#263238;stroke-linecap:round;stroke-linejoin:round"/><path d="M219.8 348.53s1.72 7.65 7.22 24.87c4.44-2.32 11-5.68 16.53-8.26-.49-9-.23-16-.23-16ZM241.11 468.65c2.82-.4 5.63-4 6.23-6.43a4.89 4.89 0 0 0 .14-.78 36.18 36.18 0 0 1-13.2-5.86c-.4 1.21-6.44 10.05-6 11.26s10.02 2.21 12.83 1.81Z" style="fill:#263238;stroke:#263238;stroke-linecap:round;stroke-linejoin:round"/><path d="M111.18 220.22s-7.57 14.39-8 24.09-.91 20.14-.91 32.71 0 19.08-1.21 22.57 3.18 5.45 4.54 6.21 5.46 5.6 8.94 4.54a10.57 10.57 0 0 0 5.3-3.78s3.18.9 5.3-.16 3.64-4.69 3.64-7.11-3.64-4.7-2.12-10.46 2.72-8.17 8.63-11.05S148 263.39 148 263.39s19.09 16.21 25.75 26.66 7.42 10.9 7.72 17-.3 12.57 6.21 22.57 12 19.21 32.55 23.27 59.88 4.31 84.48-1.78 49-13.19 59.37-9.13c0 0 4.57 24.61 10.91 39.07s6.34 36.28 1.78 46.17-16.49 23.09-18.52 23.6-10.66 4.82-12.18 7.1a72.41 72.41 0 0 0-3.81 7.36s2.29 3.3 7.61 3.3 7.11-.76 8.88-2.54 3.3-4.82 5.59-7.1 5.07.25 8.11-3.3 9.9-20.3 15.23-32.47 12.68-9.65 10.65-25.12-6.09-23.09-2.54-34 14.47-14.71 21.06-36.78 9.7-31.8 5.15-44.27-20-25.73-26.06-27.76-8.61-5.3-23.07-5.56-32.9 9.26-59.29 11-67-6.35-92.85-20.55S172 217.63 152 216.36s-28.17-.26-28.17-.26-7.83-.58-12.65 4.12Z" style="fill:#fff;stroke:#263238;stroke-linecap:round;stroke-linejoin:round"/><path d="M403.34 260s22.1 7.47 32.83 13.32 13 21.78 12.67 24.38 6.54 9 8.81 11.88 3.4 5.51-2.59 7.94-8.42-.81-9.4-6a65.73 65.73 0 0 1-1-12.79c.16-.49-4.05-2.27-10.69-6s-18.95-19.43-22.84-23.32a87.7 87.7 0 0 1-7.79-9.41Z" style="fill:#263238;stroke:#263238;stroke-linecap:round;stroke-linejoin:round"/><path d="m444.68 297.92 3.89-2.6 1.46 4.38-5.35 2.1v-3.88z" style="fill:#fff;stroke:#263238;stroke-linecap:round;stroke-linejoin:round"/><path d="M349.85 468.54c5.33 0 7.11-.76 8.88-2.54a27.44 27.44 0 0 0 2.73-3.54 71.38 71.38 0 0 1-14.82-5.24 4.77 4.77 0 0 0-.59.66 72.41 72.41 0 0 0-3.81 7.36s2.29 3.3 7.61 3.3ZM111.75 250.16s-2.45-2.44-4.63-.25 1.49 3.72 3.16 4 1.21.52 2.24-1.92a14.67 14.67 0 0 0 1.16-4ZM104.07 299a2.44 2.44 0 0 0 0 3.22c1.4 1.69 3.79 1 2.94-1.54s-2.38-3.68-2.94-1.68Z" style="fill:#263238;stroke:#263238;stroke-linecap:round;stroke-linejoin:round"/><path d="M119.81 306.56a9.59 9.59 0 0 1-1.15-6.34 54.88 54.88 0 0 0 .28-9" style="fill:#fff;stroke:#263238;stroke-linecap:round;stroke-linejoin:round"/><path d="m104.93 235.63 13.12-.51-3.35 45.27-13.24.25.26 3.47s9.26-.51 15.17.91a35.38 35.38 0 0 1 9.74 3.81l1.45-4.07s-5.53-2.32-7.2-2.83a30.59 30.59 0 0 1-3.09-1.16l4.37-59.28-2.73.42-1.12 10.09-13.12.77Z" style="fill:#263238;stroke:#263238;stroke-linecap:round;stroke-linejoin:round"/><path d="M110.36 224.79a32.25 32.25 0 0 1 1.92-6.18c1.52-3.71 3.44-7.7 3.85-11s.42-5.09 3.85-3.44 4.54 9.76 4.13 13.06-1.65 5.78-4.68 6.46a13.28 13.28 0 0 0-4.53 1.79l-.14 1.1" style="fill:#fff;stroke:#263238;stroke-linecap:round;stroke-linejoin:round"/><path d="M117.37 204.72s1.51 6.19 0 11-.14 6.32 2.06 6.19 4.82-2.34 4-8.25-4.13-11.28-6.06-8.94Z" style="fill:#263238;stroke:#263238;stroke-linecap:round;stroke-linejoin:round"/><path d="M119.22 286.59a2.28 2.28 0 1 1-2.28-2.28 2.28 2.28 0 0 1 2.28 2.28Z" style="fill:#fff;stroke:#263238;stroke-linecap:round;stroke-linejoin:round"/><path d="m118.3 288.26 15.1 13.85a1.35 1.35 0 0 0 2.17-.5h0a1.35 1.35 0 0 0-.39-1.52l-16-13.5" style="fill:#263238;stroke:#263238;stroke-linecap:round;stroke-linejoin:round"/><path d="M148.39 261.43s.79-5.7-1.59-10a10.77 10.77 0 0 0-6-5.23M202.52 333.46s-.41 8.44-4.43 22.51-15.48 29.15-17.29 34.18-1.8 5.42-1.8 10.25.6 19.3.6 25.93-.2 10.66 1 11.86a7.2 7.2 0 0 1 1.61 3.22s1.81 6.43 3.82 13.06 4.42 10.06 5.83 9 7.64-7.84 7.84-11.86-3.82-9.45-3.82-9.45-3.82-1.41-4-3.42 1.21-4.82 1.21-6.43-.81-3.42-1.41-6.43-2.61-1.21-1.81-18.5 24.93-38.19 31.16-42.81 11.46-6.44 13.47-9.65 2.81-7.84 3.62-11.06 1.81-7.44 1.81-7.44" style="fill:#fff;stroke:#263238;stroke-linecap:round;stroke-linejoin:round"/><path d="M199.7 451.66c.11-2.14-1-4.68-2-6.59-3.34 3.94-8.63 7-11.86 8.68.07.24.15.48.22.72 2 6.64 4.42 10.06 5.83 9s7.61-7.79 7.81-11.81Z" style="fill:#263238;stroke:#263238;stroke-linecap:round;stroke-linejoin:round"/><path d="M255.76 253.06s-3.94 46.05-6 53.74-5.94 12.22-3.5 12.92 34.24 8 63.94 8 51.37-8.19 51.37-8.19l-7.7-64.13a217.87 217.87 0 0 1-36 2.79c-21 0-40.87-2.44-48.21-5.94s-14.15-3.66-13.9.81Z" style="fill:#92e3a9;stroke:#263238;stroke-linecap:round;stroke-linejoin:round"/><path d="M348.8 256.21a234.43 234.43 0 0 1-30.95 2c-21 0-40.87-2.44-48.21-5.94a25.53 25.53 0 0 0-8.67-2.57c-.18 2.27-3.55 45.26-5.37 52.6-1.86 7.53-5.29 12-3.11 12.67s30.5 7.88 56.95 7.88 45.75-8 45.75-8Z" style="fill:#fff;stroke:#263238;stroke-linecap:round;stroke-linejoin:round"/><path d="M266.33 297.32s-1.43 20.81-1.43 31.93 1.68 26.9 1.68 26.9l5.71-.63s-3.11-20.87-2-28.5.31-29.86.31-29.86Z" style="fill:#263238;stroke:#263238;stroke-linecap:round;stroke-linejoin:round"/><path d="m329.05 192-1.37 11.87-5.49 9.75 1.53 13.1 10.5-10.05s-.3-18.74-1.21-21.93-3.2-4.12-3.96-2.74Z" style="fill:#92e3a9;stroke:#263238;stroke-linecap:round;stroke-linejoin:round"/><path d="m255.82 242.55-120.64 57.54-1.78 2s126-57.88 126.87-58.79a2.67 2.67 0 0 0 .45-2.43Z" style="fill:#263238;stroke:#263238;stroke-linecap:round;stroke-linejoin:round"/><path d="m282 150.26-.78-12.48s6.46-2.9 26.3-2.79l1.9 11.48Z" style="fill:#92e3a9;stroke:#263238;stroke-linecap:round;stroke-linejoin:round"/><path d="m281.65 145 .33 5.22 27.42-3.79-.68-4.09a87.56 87.56 0 0 0-27.07 2.66Z" style="fill:#263238;stroke:#263238;stroke-linecap:round;stroke-linejoin:round"/><path d="M269.16 152.49s4.23-3 26.64-5.57 29.2-2.57 26.3-1.12-13.26 4.57-13.26 4.57-26.08 3.68-32.77 3.46-6.91-1.34-6.91-1.34Z" style="fill:#92e3a9;stroke:#263238;stroke-linecap:round;stroke-linejoin:round"/><path d="M283 151.47a16.38 16.38 0 0 0-.7 3.75 14.77 14.77 0 0 1 .7 2.64c0 1-3.2 3.62-2.51 4.73a9.89 9.89 0 0 0 2.37 2.23s2.22 6.67 2.78 7.64 5.42-.28 5.42-.28l3.48 4.18 14.21-9.36a57.19 57.19 0 0 1 .14-6.54c.28-2.08 1.95-6.81 1.81-9a16.83 16.83 0 0 0-.42-3.2Z" style="fill:#fff;stroke:#263238;stroke-linecap:round;stroke-linejoin:round"/><path d="M285 165.51s1.12 0 2.23-2.36" style="fill:none;stroke:#263238;stroke-linecap:round;stroke-linejoin:round"/><path d="M310.7 151.47a16.83 16.83 0 0 0-.42-3.2l-22.09 2.59.12.33s-.14 2.64.7 3.2a13.39 13.39 0 0 0 1.8 1s-.55 2.64.14 2.78 1.39.28 1.67-.14-.14-.83.84-2.64 4-2.22 5.56.42.55 4.45 1.11 6 5.28 4.72 6.81 3.89c.76-.41 1.31-.69 1.78-1a35.56 35.56 0 0 1 .17-4.17c.28-2.11 1.95-6.84 1.81-9.06Z" style="fill:#263238;stroke:#263238;stroke-linecap:round;stroke-linejoin:round"/><ellipse cx="285.11" cy="157.42" rx=".69" ry="1.41" style="fill:#263238"/><path d="M283.48 155.15a1.69 1.69 0 0 1 2.1-1M297.8 154.5s1 2.89.67 4.34-2.34 3.46-3.23 3.24a1.71 1.71 0 0 1-1.11-1.23" style="fill:none;stroke:#263238;stroke-linecap:round;stroke-linejoin:round"/><path d="m308.99 165.58-16.56 10.39 1.94 5.8 15.94-14.38-1.32-1.81z" style="fill:#fff;stroke:#263238;stroke-linecap:round;stroke-linejoin:round"/><path d="m273.16 313.61 1.27 13.39-3 6.47s-2.25 2.82-8.45 6.05-8.16 2.68-8.44 4.65.7 3 2.11 3.1a183.23 183.23 0 0 0 24.64-1.55c9.43-1.41 12.95-2.39 13.51-3.24s1.41-2.53.85-5.77-3.24-8.17-3.67-10-1.83-15.34-1.83-15.34Z" style="fill:#263238;stroke:#263238;stroke-linecap:round;stroke-linejoin:round"/><path d="m276.26 326.7-17.46 22.39 38.01-2.82-18.72-19.85-1.83.28z" style="fill:#bababa;stroke:#263238;stroke-linecap:round;stroke-linejoin:round"/><path d="m273.95 315.9 3.65 33.36 2.86-.32-4.45-33.04h-2.06z" style="fill:#9c9c9c;stroke:#263238;stroke-linecap:round;stroke-linejoin:round"/><path d="m288.36 229.7 1.41 14.36s-22.38 15.07-24.49 19.85-2.12 7.33-2.12 7.33l5.49 44.76 11.55-.7v-7.18l2.25 6.9 9.43-1.55-5.77-39.56 8.45-5.21s29-13.37 31.53-18 1.55-12 .57-13.8l-1-1.83-.84-13Z" style="fill:#92e3a9;stroke:#263238;stroke-linecap:round;stroke-linejoin:round"/><path d="M312.13 240.67a13.4 13.4 0 0 1 4.81 3.25M291.32 243.36s5.21-3.24 8-3.94a23.78 23.78 0 0 1 10.19.39M308.64 237.73s-6.06-1.55-11.12.14" style="fill:none;stroke:#263238;stroke-linecap:round;stroke-linejoin:round"/><path d="M310.32 167.39s-13.42 10-16.92 14.38-7 22.84-7 28.76 1 19.94 1 19.94l42.41-9.19s-3.38-24.89-9.06-38.3-10.43-15.59-10.43-15.59ZM253.04 240.01l-16.81 7.19 1.58.64 16.54-6.04-1.31-1.79z" style="fill:#263238;stroke:#263238;stroke-linecap:round;stroke-linejoin:round"/><path d="M265.49 230.47s-9.31 2.53-10.39 3-1.94 5.43-2.06 6.52 2.78 2.54 2.78 2.54l6.29-2.54a6.4 6.4 0 0 0 3-1.09 2.47 2.47 0 0 0 .84-1.57 9 9 0 0 1-.46-6.86Z" style="fill:#fff;stroke:#263238;stroke-linecap:round;stroke-linejoin:round"/><path d="M302.7 179.6s-7.85 9.3-7.85 13.29-.24 10-.24 10l-3.75 11.84-6.16 6.4s-17.4 7.25-18.12 7.61-1.94 4.11-1.33 7 5.8 5.56 5.8 5.56 27.18-8.58 29.6-10.27 12.08-16.07 14.14-20.18 4.23-15.71 4.35-16.07" style="fill:#263238;stroke:#263238;stroke-linecap:round;stroke-linejoin:round"/><path d="M305.89 224.6s5.43-6.37 7.86-11.42 3.75-10.87 4.69-13.49M287.91 218l4.69-9 1.68-7.49s-.37-8.62 1.31-11a81.09 81.09 0 0 0 4.5-8.62M296.78 199.9s5.44-4 12-3.39M299.2 195.79a6.12 6.12 0 0 0-3.38 3.26" style="fill:none;stroke:#fff;stroke-linecap:round;stroke-linejoin:round"/><path d="M268.27 234.7a.73.73 0 0 1-.73.72.73.73 0 0 1 0-1.45.73.73 0 0 1 .73.73Z" style="fill:none;stroke:#263238;stroke-linecap:round;stroke-linejoin:round"/><path d="M271.05 233.73a.73.73 0 0 1-.73.72.72.72 0 0 1-.72-.72.73.73 0 0 1 .72-.73.73.73 0 0 1 .73.73ZM273.83 232.76a.73.73 0 0 1-.73.73.73.73 0 0 1-.72-.73.72.72 0 0 1 .72-.72.73.73 0 0 1 .73.72Z" style="fill:#fff;stroke:#263238;stroke-linecap:round;stroke-linejoin:round"/><path d="M348.82 142.57s-2.08-3.08-3.4-3.41a4.76 4.76 0 0 0-4.84 2.53 5.1 5.1 0 0 0 .44 5.71c.88.88 4.07 2 5.94 1.1s2.85-2.2 2.85-3.63a3.3 3.3 0 0 0-.99-2.3Z" style="fill:#92e3a9;stroke:#263238;stroke-linecap:round;stroke-linejoin:round"/><path d="M348.82 142.57s-3.07-1.65-4.5-.88a3.62 3.62 0 0 0-2.2 2.74c0 .88 1.54 1.43 2.09 1.65s2.75-.33 2.53-1.32-.88-1.42-1.32-1.42-1 1-1 1" style="fill:#92e3a9;stroke:#263238;stroke-linecap:round;stroke-linejoin:round"/><path d="M346.19 138.83s.22-1.1 1.86-1.32 4.07.33 4.73 1.32-1 5.45-1.21 6.37C351 148.5 350 144 350 144l-3-3.85Z" style="fill:#92e3a9;stroke:#263238;stroke-linecap:round;stroke-linejoin:round"/><path d="M351.57 142.9a8.81 8.81 0 0 0 .55 3.18 6.56 6.56 0 0 0 3.08 2.86c1.54.66 4.18-.55 3.08-1a3 3 0 0 1-1.43-1s1.87-.77 1.65-1.87a5.36 5.36 0 0 0-1.32-2.19s.22-2.64-.88-3.08a1.48 1.48 0 0 0-1.76.55l-1.76-1.54s-1.1 3.54-1.21 4.09Z" style="fill:#92e3a9;stroke:#263238;stroke-linecap:round;stroke-linejoin:round"/><path d="M354.54 140.37a4.65 4.65 0 0 1 .11 2.31c-.33.77-.66 1.43-.66 1.43s1.65.21 2 1a2.54 2.54 0 0 1 .11 1.54M376.37 202.59c.53-5.07.6-9.46 0-12.07-1.2-5.69-6.24-7.07-9.92-7.15s-18.91 3.45-26.63 2.71c0 0-5.13-.56-8.74 2.37s-1.55 8.27-.86 11.54-.35 9.3 1.2 12.92 6.2 9.81 6.2 9.81l.35 18.43A168.25 168.25 0 0 1 357 235a27.41 27.41 0 0 1 14.3.35s-1.55-2.59 1.55-13.78a123.44 123.44 0 0 0 3.57-18.93" style="fill:#92e3a9;stroke:#263238;stroke-linecap:round;stroke-linejoin:round"/><path d="M345.52 217.56s7.48 3.25 13.82 3.09" style="fill:none;stroke:#263238;stroke-linecap:round;stroke-linejoin:round"/><path d="M345.38 174.27s.3 7 0 8.44-5.52 3.37-5.52 3.37 4.46 6.31 11 5.22 15.65-7.93 15.65-7.93-6.41-1.63-7.06-2.61-1.85-7.5-1.85-7.5Z" style="fill:#fff;stroke:#263238;stroke-linecap:round;stroke-linejoin:round"/><path d="m352.27 176.35-6.45 3.39-.44-5.47 6.89 2.08z" style="fill:#263238;stroke:#263238;stroke-linecap:round;stroke-linejoin:round"/><path d="M344.63 148.41s-4.95.77-5.28 7 2.86 16.38 3.74 17.7 4.73 5.28 7.37 5.39 7.8-4.29 8.57-5.94 2-10.55.66-15.5-2.2-6.93-4.18-8.58-7.91-2.48-10.88-.07Z" style="fill:#fff;stroke:#263238;stroke-linecap:round;stroke-linejoin:round"/><path d="M346.36 163.17c.08.83-.28 1.54-.79 1.59s-1-.59-1.07-1.42.28-1.54.79-1.59 1 .59 1.07 1.42ZM354.33 162.72c.07.83-.28 1.54-.8 1.59s-1-.59-1.07-1.42.28-1.54.8-1.59.99.59 1.07 1.42Z" style="fill:#263238"/><path d="M342.49 160.75s2.23-1.86 4.17-.52M351.27 160.08s1.64-1.94 4.25-.22M347.94 167.4a2.42 2.42 0 0 0 1.51.41 2.62 2.62 0 0 0 1.77-.89M346.1 170.67s4.5 1.57 7.44-.82M340.24 164a1 1 0 0 0-1.64.54 2.51 2.51 0 0 0 1.09 2.82c.64.54 1.55 1.18 1.55 1.18Z" style="fill:none;stroke:#263238;stroke-linecap:round;stroke-linejoin:round"/><path d="M360.32 161.49s1.18-1.27 1.72.27-2.18 5.46-2.18 5.46Z" style="fill:#fff;stroke:#263238;stroke-linecap:round;stroke-linejoin:round"/><path d="M358.77 160a1.91 1.91 0 0 0 1.45.78 18.29 18.29 0 0 0-.53-3.63c-1.32-4.95-2.2-6.93-4.18-8.58s-7.91-2.53-10.88-.11c0 0-4.95.77-5.28 7a33.69 33.69 0 0 0 .73 7.61c.07-.76.24-2.74.52-4.75a8.27 8.27 0 0 1 5.09-6.45c3.27-1.54 7.18-.91 9.09.91s3.45 6.22 3.99 7.22Z" style="fill:#263238;stroke:#263238;stroke-linecap:round;stroke-linejoin:round"/><path d="M284.31 273.29s-2.78 6.12 2.09 13.91 8.48 4 9.6 7.1 3.2 6.68 5.84 7.51 6.82.14 7.51 2.64.84 7.66 5.43 8.77 6.4-.7 7.23.42 1.81 3.47 4.18 4.73 5.56-1 8.49 1 6.4 4.17 9.73 4 4.46-3.76 7.52-4.18 8.76 2.64 10.57 1 1.67-4.74 3.9-5.57 8.35.42 10.29-1.39a9.65 9.65 0 0 0 2.65-5.15c0-.42-28.94-12.38-37.29-18.09s-11.55-11.41-16.42-11.54-8.21 2.22-11.41 2.5-14.33-7.37-17.81-6.82-3.89 1.12-5.14.56a54.47 54.47 0 0 0-6.96-1.4Z" style="fill:#92e3a9;stroke:#263238;stroke-linecap:round;stroke-linejoin:round"/><path d="M324.14 300.59a24.43 24.43 0 0 0 6.65-1.25s-.79 3.17.2 3.76 3.37.4 3.37.4M290.56 288.24s1.39-2.18 3.17-1 1.58 5.15 5.15 5.15a30.66 30.66 0 0 0 7.14-1s-2 3.76 1.78 4.56 9.31-2 9.31-2 2 4.37 4.5 6M317.26 306.55c3.09 1.36 7.58.12 7.58.12a3.26 3.26 0 0 0 2.38 3.57 6.14 6.14 0 0 0 5-.8M312.16 303.3A9.67 9.67 0 0 1 315 305" style="fill:none;stroke:#263238;stroke-linecap:round;stroke-linejoin:round"/><path d="M359 335s.86 3 1.83 3.65 2.68 1 3.29-.49-.37-4.5-.37-4.5Z" style="fill:#9c9c9c;stroke:#263238;stroke-linecap:round;stroke-linejoin:round"/><path d="M344.26 297.29s4.26 13.52 5.84 19.48 3.41 16.31 5.35 17.89 5.48.85 8.28-1 3.89-2.68 2.07-6.82-3-4.75-4.26-7.3-3.53-7.3-5.23-11.08-3.17-7.18-3.17-7.18-3-4.87-5.11-5.23-3.03-.7-3.77 1.24Z" style="fill:#fff;stroke:#263238;stroke-linecap:round;stroke-linejoin:round"/><path d="M365.8 326.87a23.78 23.78 0 0 0-1.74-3.3 15.35 15.35 0 0 0-5.69.26 8.77 8.77 0 0 0-5.23 4.14l-.21.5c.81 3 1.65 5.49 2.52 6.19 1.95 1.58 5.48.85 8.28-1s3.89-2.66 2.07-6.79Z" style="fill:#263238;stroke:#263238;stroke-linecap:round;stroke-linejoin:round"/><path d="M363.72 333.71c2-1.31 3.17-2.12 3-4-.31-.6-.61-1.12-.89-1.56a15.35 15.35 0 0 0-5.69.22 8.77 8.77 0 0 0-5.26 4.1l-.22.5c.09.35.19.68.28 1a2.47 2.47 0 0 0 .53.68c1.9 1.57 5.43.87 8.25-.94Z" style="fill:#9c9c9c;stroke:#263238;stroke-linecap:round;stroke-linejoin:round"/><path d="M350.1 316.77a5.89 5.89 0 0 1 7.91-3.65l1.22 2.19s-5.85-1.46-8.52 4.14Z" style="fill:#263238;stroke:#263238;stroke-linecap:round;stroke-linejoin:round"/><path d="M338.05 291.33s-4.14 18.5-5.11 20.69-4.14 3.65-4.39 5.36-1 4.62.13 5.23 11.92 2.07 13.14 1.46 1.1-3.77 1.71-5.72 2.06-9.86 2.55-12.54a99.92 99.92 0 0 0 .61-10.1s-5.84-5.35-8.64-4.38Z" style="fill:#fff;stroke:#263238;stroke-linecap:round;stroke-linejoin:round"/><path d="M341.82 324.07c1.22-.61 1.1-3.77 1.71-5.72.13-.43.31-1.17.51-2.06a48.35 48.35 0 0 0-9.89-2.2 6.94 6.94 0 0 0-3.28.49h-.07c-1.07 1-2.11 1.85-2.25 2.8-.24 1.7-1 4.62.13 5.23s11.92 2.07 13.14 1.46ZM335.74 301a9.61 9.61 0 0 1 10.46 3.28l.49-2.43s-2.31-5.36-10.35-3Z" style="fill:#263238;stroke:#263238;stroke-linecap:round;stroke-linejoin:round"/><path d="m338.71 239.48-4.84 3.91L333 246s-5.15.42-21.29 9.32-28 17.67-27.41 18 6.26 6.68 9.46 6.82 6.12-2.65 9.6-.84 7.93 7.37 9.88 7.51 3.48-1.8 6.68-2.64 4.45.56 6.4.56a10.48 10.48 0 0 0 4.31-1.39s5.15-20.32 9.18-28.94a157.88 157.88 0 0 1 9.74-17.26s-8.06-.58-10.84 2.34Z" style="fill:#92e3a9;stroke:#263238;stroke-linecap:round;stroke-linejoin:round"/><path d="m357.47 228.41-11.3 4.16s-9.6.7-10.46 1.56-2.87 5.64-3.22 7 .18 2.76 1.38 2.24 5.3-3.81 6.16-4.16 5.55-.15 8.48-1 13.95-2.92 13.95-2.92-2.41-6.19-4.99-6.88Z" style="fill:#fff;stroke:#263238;stroke-linecap:round;stroke-linejoin:round"/><path d="M368.15 184.66s5.16-2.41 7.23 0 5.51 18.43 6.89 23.42 1.89 21.19 1.89 21.19 7.41 12 10.16 16.36 5.86 6.72 4.48 7.75a5.87 5.87 0 0 1-5.85.34c-1.73-1-2.59-2.75-4.65-2.41s-.52 1.72-4 .52-2.75-2.24-5.16-4.13-2.76-1.21-4.65-1.55-2.59-2.76-2.76-4.65-4.13-2.76-6.37-3.79-3.1-1.55-4.13-4.31-4.31-4.65-3.79-5 14.81-5 14.81-5l-5.68-25.32" style="fill:#92e3a9;stroke:#263238;stroke-linecap:round;stroke-linejoin:round"/><path d="M357 235s-8.83 1.35-14.09 6.84-15.36 48.46-15.57 50 9.21-.87 14 2 5.7 9.21 11.62 11.18 10.75.88 11.41 2.41 1.75 5.27 7.89 6.36 18.42 1.1 18.42 1.1-.44 4.83 8.12 7.24 18 3.95 25.43.44 9.43-7.68 9.43-7.68l-2.85-6.36 3.51-2.63s-12.06-21.93-19.73-29.17-20.21-16-25.22-20.39S370.17 234.26 357 235Z" style="fill:#92e3a9;stroke:#263238;stroke-linecap:round;stroke-linejoin:round"/><path d="M423.74 311.62c-2.28 0-4 2.43-4.86 2.72s-5.43-3.15-7.71-6-2.72-.14-4.86-.14-3.57-4.28-4.86-7.43-9.71-2.14-13.28-1.71-6.57-.86-8-2.57-10-2.43-10-2.43-3.86-2.14-5.43-4.86-6.58-2-5.43-3-1-5.14-1-5.14a10.39 10.39 0 0 0-5.86-3.86c-4.14-1.14-8.29 2.57-8.29 2.57s-.42-1.86-3.28-3.71-10.15 2.57-10.15 2.57l-.27-.1c-1.83 7.21-3.1 12.73-3.17 13.26-.22 1.54 9.21-.87 14 2s5.7 9.21 11.62 11.18 10.75.88 11.41 2.41 1.75 5.27 7.89 6.36 18.42 1.1 18.42 1.1-.44 4.83 8.12 7.24 18 3.95 25.43.44 9.43-7.68 9.43-7.68l-2.85-6.36s-3.33 2.74-3.76 3-1 .14-3.26.14Z" style="fill:#92e3a9;stroke:#263238;stroke-linecap:round;stroke-linejoin:round"/><path d="M412.27 317.83a17.53 17.53 0 0 0 2.75-1.25s3.57 2.57 6.54.79 3.37-3 3.37-3a16.09 16.09 0 0 0 4.76.79c1.58-.2 1.58-1.19 1.58-1.19M370.51 304a22.13 22.13 0 0 0 7.45 3.7c8.12 2 10.9.79 10.9.79s3.57 5.55 8.52 6.74 7.33-1 7.33-1 2.13 3.19 4.32 4M335.15 285.86a4.74 4.74 0 0 1 4 1.39c1.79 1.78 9.12 2.77 9.71 2.77s-.79 3 4 5a19.19 19.19 0 0 0 9.51 1.18 47.31 47.31 0 0 0 6 6.08M379.55 226.54s5 10.74 5.88 12.76M374.73 224.89a48 48 0 0 0 1.68 11" style="fill:none;stroke:#263238;stroke-linecap:round;stroke-linejoin:round"/></svg>