<svg xmlns="http://www.w3.org/2000/svg" viewBox="0 0 500 500"><path d="m175.2 302.856-1.659-3.64a513.418 513.418 0 0 0 84.028-48.35l2.315 3.263a517.425 517.425 0 0 1-84.685 48.727Z" style="fill:#263238"/><path d="m208.27 286.31-2.612-1.476c7.013-12.401 10.63-35.616 10.666-35.85l2.966.455c-.15.974-3.74 23.997-11.02 36.872Z" style="fill:#263238"/><path d="M249.042 266.755s5.686 1.423 10.533.369c4.846-1.055 14.043-10.06 12.965-13.909s-2.616-3.763-2.616-3.763 1.13-3.775-.865-5.94c-1.996-2.164-3.401-2.993-10.861-1.39-7.46 1.604-10.553 2.701-11.927 5.615-1.374 2.915-4.226 17.934-4.226 17.934l6.997 1.085Z" style="fill:#92e3a9"/><path d="M249.042 266.755s5.686 1.423 10.533.369c4.846-1.055 14.043-10.06 12.965-13.909s-2.616-3.763-2.616-3.763 1.13-3.775-.865-5.94c-1.996-2.164-3.401-2.993-10.861-1.39-7.46 1.604-10.553 2.701-11.927 5.615-1.374 2.915-4.226 17.934-4.226 17.934l6.997 1.085Z" style="opacity:.3"/><path d="M252.163 250.597s5.137-12.638 3.667-14.75c-1.471-2.112-4.416-1.942-4.416-1.942s-.353-2.404-4.076-1.344c-3.723 1.059-8.857 5.403-10.32 9-1.463 3.596-1.08 14.76-1.08 14.76l16.225-5.724Z" style="fill:#92e3a9"/><path d="M252.163 250.597s5.137-12.638 3.667-14.75c-1.471-2.112-4.416-1.942-4.416-1.942s-.353-2.404-4.076-1.344c-3.723 1.059-8.857 5.403-10.32 9-1.463 3.596-1.08 14.76-1.08 14.76l16.225-5.724Z" style="opacity:.2"/><path d="M245.073 273.122s4.528 3.597 12.24 2.861c7.71-.736 11.847-3.39 10.03-6.106-1.818-2.716-2.785-5.471-7.873-4.639-5.089.833-14.397 7.884-14.397 7.884Z" style="fill:#92e3a9"/><path d="M245.073 273.122s4.528 3.597 12.24 2.861c7.71-.736 11.847-3.39 10.03-6.106-1.818-2.716-2.785-5.471-7.873-4.639-5.089.833-14.397 7.884-14.397 7.884Z" style="opacity:.2"/><path d="M236.111 268.959s5.99 4.736 12.233 4.192 14.182-9.46 13.429-12.739-3.985-1.888-3.985-1.888 3.12-2.921-.119-5.12c-3.238-2.2-4.284-.713-4.912-.539-.628.175-15.75 7.309-16.991 11.375-1.241 4.066.345 4.719.345 4.719Z" style="fill:#92e3a9"/><path d="M236.111 268.959s5.99 4.736 12.233 4.192 14.182-9.46 13.429-12.739-3.985-1.888-3.985-1.888 3.12-2.921-.119-5.12c-3.238-2.2-4.284-.713-4.912-.539-.628.175-15.75 7.309-16.991 11.375-1.241 4.066.345 4.719.345 4.719Z" style="opacity:.1"/><path d="M234.89 264.88c.321-.264 7.868-2.56 12.523-6.83 4.654-4.27 7.95-17.797-.756-15.93 0 0 .089-4.323-4.783-3.254-4.872 1.07-5.883 3.169-9.352 9.76s2.368 16.253 2.368 16.253Z" style="fill:#92e3a9"/><path d="M225.591 272.39c.584 1.57 2.504 2.185 4.013 1.456 2.338-1.129 6.084-2.894 6.602-2.873.762.031 6.76 3.15 6.92 2.118.111-.716-4.57-1.904-2.149-2.819 2.422-.914 3.311-3.315.64-2.784-2.671.531-4.221.609-4.221.609s5.48-8.174 2.144-7.687c-3.336.486-4.387 3.336-4.387 3.336s-1.082-6.343-2.513-5.88c-1.431.464 1.2 4.226-.798 6.646s-5.872 5.051-6.33 6.782c-.098.37-.053.742.08 1.096Z" style="fill:#263238"/><path d="M138.453 204.33s5.686 1.422 10.532.367c4.847-1.054 14.043-10.059 12.966-13.908s-2.617-3.764-2.617-3.764 1.13-3.774-.865-5.939-3.4-2.994-10.86-1.39c-7.46 1.604-10.553 2.7-11.927 5.615-1.374 2.914-4.226 17.934-4.226 17.934l6.997 1.084Z" style="fill:#92e3a9"/><path d="M138.453 204.33s5.686 1.422 10.532.367c4.847-1.054 14.043-10.059 12.966-13.908s-2.617-3.764-2.617-3.764 1.13-3.774-.865-5.939-3.4-2.994-10.86-1.39c-7.46 1.604-10.553 2.7-11.927 5.615-1.374 2.914-4.226 17.934-4.226 17.934l6.997 1.084Z" style="opacity:.3"/><path d="M141.573 188.171s5.138-12.638 3.667-14.75c-1.47-2.112-4.416-1.942-4.416-1.942s-.353-2.404-4.076-1.345-8.857 5.403-10.32 9c-1.463 3.597-1.08 14.761-1.08 14.761l16.225-5.724Z" style="fill:#92e3a9"/><path d="M141.573 188.171s5.138-12.638 3.667-14.75c-1.47-2.112-4.416-1.942-4.416-1.942s-.353-2.404-4.076-1.345-8.857 5.403-10.32 9c-1.463 3.597-1.08 14.761-1.08 14.761l16.225-5.724Z" style="opacity:.2"/><path d="M134.484 210.696s4.527 3.597 12.239 2.86c7.71-.735 11.847-3.39 10.03-6.105-1.817-2.716-2.784-5.471-7.873-4.639-5.088.833-14.396 7.884-14.396 7.884Z" style="fill:#92e3a9"/><path d="M134.484 210.696s4.527 3.597 12.239 2.86c7.71-.735 11.847-3.39 10.03-6.105-1.817-2.716-2.784-5.471-7.873-4.639-5.088.833-14.396 7.884-14.396 7.884Z" style="opacity:.2"/><path d="M125.522 206.533s5.989 4.736 12.232 4.192 14.183-9.46 13.43-12.74c-.753-3.278-3.986-1.888-3.986-1.888s3.12-2.92-.118-5.12-4.284-.712-4.912-.538c-.629.174-15.75 7.308-16.992 11.374-1.24 4.066.346 4.72.346 4.72Z" style="fill:#92e3a9"/><path d="M125.522 206.533s5.989 4.736 12.232 4.192 14.183-9.46 13.43-12.74c-.753-3.278-3.986-1.888-3.986-1.888s3.12-2.92-.118-5.12-4.284-.712-4.912-.538c-.629.174-15.75 7.308-16.992 11.374-1.24 4.066.346 4.72.346 4.72Z" style="opacity:.1"/><path d="M124.301 202.453c.32-.263 7.867-2.56 12.522-6.829 4.655-4.27 7.951-17.798-.755-15.93 0 0 .088-4.323-4.784-3.254-4.871 1.069-5.882 3.169-9.351 9.76-3.469 6.592 2.368 16.253 2.368 16.253Z" style="fill:#92e3a9"/><path d="M115.002 209.964c.584 1.57 2.504 2.184 4.013 1.456 2.338-1.13 6.083-2.894 6.601-2.873.762.031 6.76 3.15 6.92 2.118.112-.717-4.57-1.904-2.148-2.82 2.422-.914 3.311-3.314.64-2.783-2.672.53-4.222.608-4.222.608s5.48-8.173 2.145-7.687c-3.336.486-4.388 3.336-4.388 3.336s-1.081-6.343-2.512-5.88c-1.432.464 1.199 4.226-.798 6.647-1.998 2.42-5.873 5.05-6.33 6.781-.099.371-.053.742.079 1.097ZM327.163 317.474c-.509 0-.978-.015-1.41-.043-12.368-.831-31.985-8.381-37.367-10.534l-4.284 1.367c-12.923 3.252-68.026-2.276-92.53-6.248-7.405-1.2-10.374-1.08-12.147-1.007-3.84.15-4.768-.554-9.224-3.961-3.933-3.008-11.254-8.607-27.322-19.408l-1.598-1.069c-45.974-30.575-95.087-48.92-95.578-49.101l2.777-7.503c.5.185 50.452 18.832 97.231 49.942l1.63 1.091c16.272 10.939 23.719 16.634 27.72 19.693 1.456 1.114 2.727 2.085 3.209 2.345.18.01.538-.01.83-.023 1.938-.077 5.55-.225 13.752 1.104 29.691 4.813 79.029 8.843 89.184 6.414l6.684-2.145 1.356.561c.233.097 23.389 9.639 36.213 10.5 10.651.708 55.975-10.61 72.54-15.034l.357-.096 32.807-2.514.611 7.976-32.069 2.458c-7.478 1.993-57.788 15.233-73.372 15.235Z" style="fill:#263238"/><path d="M336.317 290.747c-.171-2.626-3.206-3.92-5.74-4.633 1.642-.523 2.445-2.596 1.922-4.237-.523-1.642-2.072-2.801-3.728-3.275s-3.42-.363-5.132-.16c-11.773 1.398-23.909 7.734-34.46 13.142l.495 1.889c9.728 8.2 23.96 9.53 36.14 5.851 3.322-1.003 6.662-2.425 8.97-5.018.882-.99 1.62-2.235 1.533-3.559Z" style="fill:#92e3a9"/><path d="M312.053 263.08c-.98-.542-2.088-.811-3.08-1.332-1.108-.583-2.039-1.464-3.148-2.046-2.689-1.41-6.12-.814-8.614.92-4.307 2.992-5.879 8.523-7.155 13.61-1.53 6.096-3.07 12.412-1.986 18.602 5.471-1.46 12.564-4.034 17.42-6.946 4.856-2.913 9.01-7.485 10.09-13.044.707-3.634-.287-7.972-3.527-9.764Z" style="fill:#92e3a9"/><path d="M307.815 267.364c-.591-.327-1.752.167-2.35-.147-.67-.352-.74-1.54-1.41-1.892-1.624-.852-3.695-.491-5.2.555-2.6 1.807-3.55 5.146-4.32 8.217l-.028.11c-1.349 5.38 4.472 9.811 9.244 6.987l.101-.06c2.932-1.759 5.44-4.52 6.092-7.875.426-2.194-.173-4.813-2.13-5.895Z" style="opacity:.1"/><path d="M288.548 291.445c-6.71-5.383-9.526-14.794-7.947-23.25.343-1.84.891-3.683 1.974-5.21 1.084-1.527 2.773-2.707 4.642-2.82s3.842 1.036 4.353 2.837c.357 1.26-.003 2.597-.335 3.863a92.424 92.424 0 0 0-3.021 23.747M289.479 290.941c1.304 5.908 4.785 11.31 9.627 14.938s11.005 5.45 17.042 5.04c4.47-.302 9.062-1.952 11.875-5.44 1.162-1.443 1.99-3.467 1.16-5.123-.999-1.996-3.692-2.282-5.923-2.199-6.179.232-12.633-.775-18.795-1.299-6.16-.523-12.28-.868-15.798-5.953" style="fill:#92e3a9"/><path d="M292.62 289.568a25.354 25.354 0 0 1 7.201-11.185 58.86 58.86 0 0 0-7.2 11.185ZM294.527 293.646a65.042 65.042 0 0 1 15.33-.518c-5.121.244-10.204.413-15.33.518ZM294.163 291.913a23.596 23.596 0 0 1 8.476-4.729 1504.651 1504.651 0 0 1-8.476 4.729Z" style="fill:#263238"/><path d="M301.55 278.442a1.247 1.247 0 1 1-2.435-.538 1.247 1.247 0 0 1 2.435.538ZM302.629 286.177a1.247 1.247 0 1 1 1.974 1.524 1.247 1.247 0 0 1-1.974-1.524Z" style="fill:#fff"/><path d="M293.288 290.447a15.883 15.883 0 0 1 4.99-5.583 108.663 108.663 0 0 1-4.99 5.583Z" style="fill:#263238"/><path d="M298.017 284.132a.962.962 0 1 1 1.824.615.962.962 0 0 1-1.824-.615Z" style="fill:#fff"/><path d="M293.642 292.738c2.469-.53 4.872-.965 7.37-1.325a15.882 15.882 0 0 1-7.37 1.325Z" style="fill:#263238"/><path d="M301.5 292.019a.962.962 0 1 0 .431-1.876.962.962 0 0 0-.431 1.876Z" style="fill:#fff"/><path d="m293.762 294.256 9.548 3.037a24.741 24.741 0 0 1-9.548-3.037Z" style="fill:#263238"/><path d="M303.507 298.314a1.287 1.287 0 1 0 1.683-1.949 1.287 1.287 0 0 0-1.683 1.949Z" style="fill:#fff"/><path d="M289.96 288.721a24.74 24.74 0 0 1 3.103-9.526l-3.103 9.527Z" style="fill:#263238"/><path d="M292.349 278.44a1.287 1.287 0 1 1 2.564-.23 1.287 1.287 0 0 1-2.564.23ZM309.367 292.476a1.247 1.247 0 1 1 1.974 1.524 1.247 1.247 0 0 1-1.974-1.524Z" style="fill:#fff"/><path d="M287.936 285.285a8.157 8.157 0 0 1-1.054-3.892c-.006-.45.114-1.013.552-1.115.523-.122.868.52 1.017 1.036l1.62 5.627a13.38 13.38 0 0 1 4.672-4.923c.614-.38 1.555-.645 1.948-.039.282.435.045 1.008-.2 1.465a49.924 49.924 0 0 1-2.404 4.005 18.956 18.956 0 0 1 5.332-.897c.396-.01.888.057 1.023.43.145.4-.25.776-.598 1.02l-3.08 2.163c1.93-.143 3.873-.12 5.799.066.346.034.705.077 1 .261s.508.55.403.882c-.117.372-.544.532-.918.642l-5.113 1.506c1.458.336 2.84 1 4.012 1.93.424.336.858.802.778 1.337-.111.734-1.049.97-1.791.97a12.325 12.325 0 0 1-5.524-1.319c.317.526.632 1.089.646 1.703s-.385 1.281-.995 1.35c-.798.091-1.327-.781-1.642-1.52l-5.008-11.738" style="opacity:.2"/><path d="M294.234 289.804c-1.44-2.33-4.179-3.795-6.917-3.702l-.623 1.326a71.327 71.327 0 0 1 7.764 10.218c1.306-2.408 1.217-5.512-.224-7.842Z" style="fill:#263238"/><path d="M295.985 297.185c-3.158-6.43-5.735-11.36-13.032-14.126l.442.26c-2.657-1.77-6.706-.866-8.407 1.476s-1.32 5.612.308 8.165c1.627 2.552 4.314 4.483 7.136 6.031a43.154 43.154 0 0 0 8.226 3.456c1.774.538 3.935.9 5.243-.18 1.453-1.2.917-3.387.084-5.082Z" style="fill:#92e3a9"/><path d="M325.643 289.318c-.556-.356-1.253-.381-1.912-.425-.659-.045-1.366-.14-1.85-.588.55-.576 1.39-.74 2.126-1.047.736-.307 1.483-.95 1.38-1.741-.074-.554-.566-.98-1.101-1.142-.535-.161-1.108-.11-1.663-.047a46.386 46.386 0 0 0-14.349 4.044c-.583.042-2.374 1.395-1.97 2.175 5.802 3.146 13.046 3.487 19.117.9.25-.106.508-.224.68-.435.415-.513.099-1.338-.458-1.694ZM301.643 301.954c6.828 4.158 15.54 5.09 23.076 2.421.678-.24 1.47-.682 1.438-1.401-.032-.768-.959-1.121-1.718-1.243-7.451-1.194-15.238 1.5-22.548-.374M284.604 279.772c-1.633-4.75-1.183-10.177 1.21-14.594.169-.31.359-.63.661-.813s.75-.177.962.106c.14.188.146.441.14.676a18.686 18.686 0 0 1-2.122 8.243c-.422.804-.636 2.016-.895 2.918-.25.873-.298 2.622.044 3.464" style="opacity:.1"/><path d="m72.416 224.251-.127-4.998 27.554-.702c8.41-5.738 21.536-14.795 22.753-15.905a1.96 1.96 0 0 0-.286.348l4.17 2.757c-.332.503-.835 1.264-24.43 17.346l-.608.415-29.026.74Z" style="fill:#263238"/><path d="M110.5 212.217h4v19.601h-4z" style="fill:#263238" transform="rotate(-77.544 112.5 222.018)"/><path d="M202.025 351.542a167.302 167.302 0 0 0-29.354-53.567l3.1-2.528a171.27 171.27 0 0 1 30.053 54.843l-3.799 1.252ZM101.633 290.563c-10.095-23.381-26.072-43.987-46.202-59.588l3.062-3.953c20.797 16.118 37.301 37.405 47.73 61.56l-4.59 1.981Z" style="fill:#263238"/><path d="M326.738 305.296h32.176v2.999h-32.176z" style="fill:#263238" transform="rotate(-31.227 342.827 306.795)"/><path d="M401.416 316.35a217.909 217.909 0 0 0-38.912-7.319l.283-2.986a220.867 220.867 0 0 1 39.45 7.42l-.821 2.886ZM380.585 305.203l-2.256-4.463a341.912 341.912 0 0 0 29.14-16.583l2.684 4.219a347.043 347.043 0 0 1-29.568 16.827Z" style="fill:#263238"/><path d="M181.031 291.478s-3.793-9.866-12.699-14.194c-8.905-4.328-20.668-.12-22.502 3.78-1.834 3.9 2.215 6.323 2.215 6.323s-3.896 1.917-3.893 4.418 3.601 8.85 8.737 10.124c5.135 1.273 26.926-6.83 27.382-7.008.455-.177.76-3.443.76-3.443Z" style="fill:#92e3a9"/><path d="M183.47 293.642s9.656-4.302 13.514-13.421c3.858-9.12-.958-20.647-4.948-22.275-3.991-1.628-6.2 2.541-6.2 2.541s-2.117-3.79-4.614-3.657c-2.497.134-8.255 4.15-9.655 9.253-5.103 18.589 8.225 26.533 8.426 26.98.2.445 3.478.58 3.478.58Z" style="fill:#92e3a9"/><path d="M177.13 293.367s-18.474 1.892-22.414 15.328c-3.94 13.436-1.114 14.477 1.946 14.458 3.06-.019 5.178.45 5.178.45s-.61 5.281 4.714 5.068c5.325-.212 8.822-3.468 13.977-9.83 5.156-6.361 2.053-22.492.837-24.538 0 0 .82-1.958-4.238-.936Z" style="fill:#92e3a9"/><path d="M172.643 303.514s-9.613.985-11.663 7.976c-2.05 6.991-.58 7.533 1.013 7.523s2.694.234 2.694.234-.318 2.748 2.453 2.637c2.77-.11 4.59-1.804 7.273-5.115 2.682-3.31 1.068-11.703.435-12.768 0 0 .427-1.019-2.205-.487Z" style="opacity:.1"/><path d="M184.454 294.104s4.175-9.71 13.242-13.689c9.067-3.978 20.657.684 22.338 4.653 1.68 3.97-2.46 6.232-2.46 6.232s3.82 2.067 3.719 4.566c-.1 2.499-3.943 8.704-9.124 9.777-5.181 1.072-26.64-7.874-27.089-8.068-.448-.195-.626-3.47-.626-3.47Z" style="fill:#92e3a9"/><path d="M187.544 296.717s18.386 2.61 21.8 16.188.55 14.51-2.506 14.371-5.192.248-5.192.248.405 5.302-4.908 4.882c-5.313-.42-8.68-3.81-13.584-10.366-4.904-6.558-1.176-22.555.119-24.553 0 0-.743-1.989 4.271-.77Z" style="fill:#92e3a9"/><path d="M191.4 294.655a7.748 7.748 0 1 1-15.13-3.342 7.748 7.748 0 0 1 15.13 3.342Z" style="fill:#92e3a9"/><path d="M185.925 285.445s8.176-6.721 5.812-14.343c-2.363-7.621-4.033-7.225-5.48-6.252-1.447.974-2.601 1.42-2.601 1.42s-1.375-2.702-3.836-.922c-2.461 1.78-3.096 4.427-3.539 9.073-.443 4.645 6.114 11.327 7.337 11.915 0 0 .228 1.189 2.307-.891ZM170.203 287.709s-6.087-7.32-12.93-5.155c-6.845 2.164-6.48 3.664-5.597 4.961.883 1.297 1.29 2.332 1.29 2.332s-2.423 1.25-.81 3.455 3.998 2.763 8.18 3.137c4.18.375 10.157-5.557 10.68-6.66 0 0 1.068-.21-.813-2.07Z" style="opacity:.1"/><path d="M188.884 297.451a30.48 30.48 0 0 0 9.144-1.06 19.008 19.008 0 0 0-9.713-1.507l6.98-4.777c.26-.178.555-.438.483-.745-.07-.3-.436-.407-.742-.45-3.838-.543-7.106.452-10.346 2.579.164-2.24.559-5.32-1.147-7.253-.527-.598-1.499-1.078-2.061-.513-.426.427-.28 1.13-.172 1.724a7.67 7.67 0 0 1-1.016 5.34 36.498 36.498 0 0 0-6.233-2.495c-.63-.187-1.494-.26-1.77.337-.294.64.425 1.259 1.04 1.6 2.04 1.127 3.658 3.035 5.698 4.163-2.057.2-4.128.4-6.111.983-.821.242-1.63.554-2.393.947-.997.515-.585 2.024.535 1.943l7.763-.563c-1.736.74-3.154 2.15-3.99 3.838-.606 1.223.743 2.491 1.905 1.776a28.553 28.553 0 0 0 5.25-4.153l1.927 5.31c.158.434.383.93.834 1.024.642.134 1.079-.626 1.268-1.254.504-1.672.837-3.395.992-5.134l3.709 4.658c.144.181.295.368.503.47.46.227 1.049-.067 1.29-.52.241-.452.21-1.002.097-1.502-.451-2.013-2.046-3.566-3.724-4.766Z" style="opacity:.2"/><path d="M183.458 295.891c-4.905.082-9.086 2.29-12.64 5.555 2.683-3.995 7.823-6.603 12.64-5.555ZM183.458 295.891c4.551-1.84 9.842-2.094 14.546-.686a58.955 58.955 0 0 0-14.546.686ZM183.458 295.891c2.459-4.799 6.82-8.52 11.586-10.928-4.198 3.284-8.277 6.723-11.586 10.928ZM183.458 295.891c-3.175-3.763-6.607-7.195-10.728-9.915 4.615 1.777 8.44 5.58 10.728 9.915ZM183.661 295.936c-3.498 3.54-5.732 7.935-7.053 12.706.24-4.933 2.862-10.003 7.053-12.706ZM189.32 309.987c-.484-5.121-2.82-9.833-5.659-14.05 3.675 3.553 6.236 8.867 5.658 14.05Z" style="fill:#263238"/><path d="M190.387 310.213a1.183 1.183 0 1 1-2.311-.511 1.183 1.183 0 0 1 2.311.51ZM195.985 285.104a1.183 1.183 0 1 1-2.31-.51 1.183 1.183 0 0 1 2.31.51ZM174.052 286.469a1.183 1.183 0 1 1-2.311-.51 1.183 1.183 0 0 1 2.31.51ZM174.115 290.922a.847.847 0 1 1-1.653-.365.847.847 0 0 1 1.653.365ZM184 282.801a.847.847 0 1 1-1.654-.365.847.847 0 0 1 1.654.365ZM177.49 308.176a.793.793 0 1 1-1.55-.342.793.793 0 0 1 1.55.342ZM185.67 308.173a.592.592 0 1 1-1.156-.255.592.592 0 0 1 1.155.255ZM198.582 295.332a.592.592 0 1 1-1.155-.254.592.592 0 0 1 1.155.255ZM171.395 301.574a.592.592 0 1 1-1.155-.256.592.592 0 0 1 1.155.256Z" style="fill:#fff"/><path d="M183.21 295.684c.716-4.21.71-8.494-.12-12.686 1.511 3.998 1.515 8.653.12 12.686Z" style="fill:#263238"/><path d="M196.369 299.287c5.974 2.345 10.719 8.043 11.93 14.348-2.615-5.866-6.637-10.711-11.93-14.348ZM194.01 262.47c3.49 5.387 4.026 12.781 1.336 18.611 1.293-6.29.848-12.571-1.335-18.611ZM161.324 276.603c6.417.16 12.823 3.892 16.118 9.403-4.463-4.618-9.9-7.796-16.118-9.403ZM155.02 309.865c1.855-6.144 7.15-11.334 13.336-13.051-5.634 3.08-10.138 7.481-13.335 13.051Z" style="fill:#fff;opacity:.2"/><path d="M189.117 305.691s-3.498 9.008 1.794 14.015c5.293 5.007 6.444 3.944 7.16 2.522.716-1.422 1.434-2.293 1.434-2.293s2.303 1.534 3.465-.984c1.163-2.518.482-4.909-1.245-8.804-1.726-3.895-9.935-6.277-11.171-6.198 0 0-.713-.843-1.437 1.742ZM195.423 292.704s4.478 8.563 11.73 7.876 7.212-2.254 6.612-3.73-.781-2.589-.781-2.589 2.67-.723 1.54-3.255c-1.13-2.533-3.378-3.595-7.446-4.859-4.07-1.264-11.266 3.346-12.02 4.329 0 0-1.105-.019.365 2.228Z" style="opacity:.1"/><path d="M58.502 218.734s-6.611-8.247-16.41-9.665c-9.8-1.418-19.729 6.165-20.29 10.438-.563 4.273 4.03 5.351 4.03 5.351s-3.129 3.01-2.366 5.392 6.12 7.339 11.4 6.991c5.279-.347 23.577-14.688 23.958-14.995.38-.308-.322-3.512-.322-3.512Z" style="fill:#92e3a9"/><path d="M61.484 220.055s7.892-7.033 8.797-16.893c.905-9.86-7.185-19.38-11.482-19.718s-5.133 4.305-5.133 4.305-3.17-2.969-5.508-2.083-6.604 6.462-6.388 11.749c.786 19.26 15.898 22.78 16.224 23.144.327.364 3.49-.504 3.49-.504Z" style="fill:#92e3a9"/><path d="M55.36 221.72s-17.026 7.415-16.698 21.412c.328 13.998 3.337 14.131 6.246 13.184 2.91-.947 5.07-1.145 5.07-1.145s1.023 5.217 6.032 3.397 7.35-5.985 10.33-13.612-4.878-22.052-6.659-23.632c0 0 .187-2.115-4.322.395Z" style="fill:#92e3a9"/><path d="M54.167 232.75s-8.859 3.859-8.688 11.142c.171 7.284 1.736 7.353 3.25 6.86 1.514-.493 2.639-.596 2.639-.596s.532 2.715 3.138 1.768c2.606-.948 3.825-3.114 5.375-7.083 1.55-3.969-2.538-11.475-3.465-12.297 0 0 .097-1.1-2.249.206Z" style="opacity:.1"/><path d="M62.562 220.197s1.027-10.52 8.456-17.066c7.43-6.545 19.89-5.624 22.696-2.353 2.807 3.27-.45 6.684-.45 6.684s4.267.81 4.93 3.22c.663 2.412-1.112 9.492-5.722 12.087-4.61 2.596-27.773.593-28.26.544-.486-.05-1.65-3.116-1.65-3.116Z" style="fill:#92e3a9"/><path d="M66.3 221.747s18.31-3.1 25.687 8.8c7.378 11.9 4.932 13.656 1.978 14.453s-4.871 1.814-4.871 1.814 1.996 4.927-3.193 6.142c-5.189 1.214-9.427-.992-16.091-5.75-6.664-4.757-7.973-21.131-7.346-23.428 0 0-1.312-1.669 3.835-2.031Z" style="fill:#92e3a9"/><path d="M69.346 218.61a7.747 7.747 0 1 1-15.43 1.414 7.747 7.747 0 0 1 15.43-1.413Z" style="fill:#92e3a9"/><path d="M61.332 211.5s5.748-8.888 1.18-15.431c-4.567-6.543-6.038-5.658-7.12-4.291-1.084 1.367-2.048 2.142-2.048 2.142s-2.13-2.156-3.934.287c-1.805 2.443-1.605 5.159-.615 9.72.99 4.56 9.266 8.934 10.61 9.123 0 0 .578 1.063 1.927-1.55ZM47.04 218.433s-8.022-5.125-13.885-.983c-5.862 4.142-5.059 5.46-3.824 6.427s1.937 1.83 1.937 1.83-1.928 1.927.279 3.538c2.206 1.61 4.648 1.417 8.745.504 4.097-.913 7.99-8.38 8.153-9.59 0 0 .953-.525-1.404-1.726Z" style="opacity:.1"/><path d="M67.799 222.04a30.478 30.478 0 0 0 8.39-3.788 19.008 19.008 0 0 0-9.713 1.514l5.2-6.671c.194-.25.396-.586.234-.857-.158-.265-.54-.256-.844-.204-3.822.65-6.633 2.59-9.074 5.601-.524-2.184-1.084-5.238-3.296-6.562-.684-.41-1.756-.571-2.12.137-.276.537.078 1.163.36 1.696a7.67 7.67 0 0 1 .654 5.396 36.495 36.495 0 0 0-6.695-.484c-.658.014-1.504.206-1.584.86-.086.697.787 1.07 1.477 1.207 2.286.455 4.407 1.781 6.693 2.236-1.9.814-3.812 1.636-5.524 2.793a13.567 13.567 0 0 0-1.991 1.63c-.795.793.057 2.105 1.1 1.688l7.225-2.895c-1.43 1.233-2.352 3.006-2.636 4.87-.205 1.348 1.465 2.146 2.355 1.112a28.568 28.568 0 0 0 3.739-5.551l3.45 4.473c.282.365.647.769 1.105.722.653-.067.838-.924.828-1.58a25.741 25.741 0 0 0-.615-5.193l4.949 3.312c.192.129.393.26.622.295.508.076.978-.383 1.07-.888s-.104-1.018-.363-1.46c-1.042-1.781-3.033-2.776-4.996-3.41Z" style="opacity:.2"/><path d="M62.155 222.202c-4.647 1.568-7.96 4.941-10.355 9.133 1.343-4.622 5.448-8.669 10.355-9.133ZM62.155 222.202c3.777-3.137 8.741-4.986 13.65-5.074a58.957 58.957 0 0 0-13.65 5.074ZM62.155 222.202c.885-5.32 3.91-10.19 7.719-13.932-3.002 4.404-5.844 8.92-7.719 13.932Z" style="fill:#263238"/><path d="M62.155 222.202c-4.168-2.622-8.48-4.848-13.233-6.187 4.937.29 9.735 2.75 13.233 6.187ZM62.363 222.183c-2.258 4.436-3.051 9.3-2.86 14.248-1.27-4.773-.312-10.4 2.86-14.248Z" style="fill:#263238"/><path d="M72.022 233.85c-2.016-4.732-5.673-8.511-9.66-11.667 4.581 2.269 8.636 6.554 9.66 11.667Z" style="fill:#263238"/><path d="M73.108 233.74a1.183 1.183 0 1 1-2.357.217 1.183 1.183 0 0 1 2.357-.216ZM70.813 208.118a1.183 1.183 0 1 1-2.356.216 1.183 1.183 0 0 1 2.356-.216ZM50.33 216.082a1.183 1.183 0 1 1-2.356.216 1.183 1.183 0 0 1 2.357-.216ZM51.745 220.306a.847.847 0 1 1-1.687.154.847.847 0 0 1 1.687-.154ZM58.695 209.565a.847.847 0 1 1-1.687.155.847.847 0 0 1 1.687-.155ZM60.201 235.72a.793.793 0 1 1-1.58.144.793.793 0 0 1 1.58-.145ZM67.993 233.232a.592.592 0 1 1-1.178.107.592.592 0 0 1 1.178-.107ZM76.395 217.075a.592.592 0 1 1-1.179.107.592.592 0 0 1 1.179-.107ZM52.389 231.28a.592.592 0 1 1-1.179.108.592.592 0 0 1 1.179-.108Z" style="fill:#fff"/><path d="M61.857 222.08c-.598-4.229-1.904-8.309-3.97-12.05 2.655 3.35 4.073 7.784 3.97 12.05Z" style="fill:#263238"/><path d="M75.487 221.515c6.405.419 12.656 4.405 15.726 10.044-4.273-4.793-9.577-8.188-15.726-10.044ZM62.055 187.154c4.961 4.072 7.718 10.954 6.927 17.326-.68-6.386-3.012-12.235-6.927-17.326ZM35.208 210.55c6.162-1.797 13.4-.188 18.212 4.061-5.655-3.043-11.8-4.42-18.212-4.061ZM39.308 244.155c-.1-6.418 3.367-12.97 8.74-16.486-4.432 4.647-7.387 10.208-8.74 16.486Z" style="fill:#fff;opacity:.2"/><path d="M70.524 229.819s-.596 9.645 5.968 12.807c6.563 3.162 7.337 1.8 7.587.228s.67-2.62.67-2.62 2.66.761 3.002-1.99c.343-2.753-1.032-4.824-3.86-8.01-2.83-3.186-11.373-2.962-12.527-2.511 0 0-.936-.587-.84 2.096ZM72.587 215.53s6.867 6.798 13.568 3.94c6.702-2.86 6.186-4.339 5.167-5.562s-1.532-2.23-1.532-2.23 2.324-1.5.479-3.57-4.31-2.398-8.57-2.366c-4.261.032-9.717 6.61-10.137 7.776 0 0-1.058.318 1.025 2.012Z" style="opacity:.1"/><path d="M325.82 326.892c1.116 4.824 4.131 9.04 7.769 12.398 3.638 3.358 7.9 5.953 12.131 8.524 2.933 1.783 6.029 3.616 9.457 3.773 2.57.118 5.099-.732 7.4-1.885 2.867-1.437 5.656-3.589 6.547-6.67.994-3.443-.715-7.226-3.393-9.606-2.677-2.381-6.164-3.617-9.603-4.623-10.041-2.94-20.656-4.393-31.012-2.903" style="fill:#92e3a9"/><path d="M325.756 321.316c7.876-6.646 17.985-10.595 28.28-11.049 3.81-.167 7.726.152 11.202 1.72 3.475 1.569 6.462 4.543 7.328 8.256.865 3.713-.809 8.068-4.27 9.664-2.439 1.125-5.267.804-7.93.46-11.826-1.53-23.935-3.144-34.506-8.663" style="fill:#92e3a9"/><path d="M347.26 323.679a18.749 18.749 0 0 0-5.952-.74 8.267 8.267 0 0 0 5.943-3.398 10.13 10.13 0 0 0-6.154-.34c1.515-.89 2.519-2.594 2.56-4.35-6.181 1.743-11.387 6.627-13.521 12.685l3.348 4.31a13.048 13.048 0 0 0 4.153 6.969c.752.652 1.726 1.247 2.688.992 1.595-.423 1.746-2.695 1.091-4.21-.654-1.514-1.785-2.976-1.574-4.613.935-.058 1.809.421 2.618.892.81.47 1.671.964 2.607.937.936-.028 1.913-.819 1.764-1.743-.107-.67-.722-1.12-1.286-1.497l-5.678-3.784c2.387.176 4.798.032 7.147-.428.548-.107 1.236-.427 1.145-.978-.067-.397-.512-.591-.898-.704Z" style="opacity:.2"/><path d="M333.234 315.497c2.142-6.183 8.568-10.605 15.108-10.397 4.33.138 8.375 2.068 12.272 3.96.954.463 1.926.938 2.684 1.68.757.742 1.277 1.81 1.095 2.854-.244 1.403-1.617 2.308-2.942 2.827-4.328 1.693-9.186 1.046-13.746.148-4.56-.898-9.223-2.027-13.8-1.22M346.939 353.16c.067-.528-.286-1.008-.622-1.422a169.932 169.932 0 0 0-15.835-16.996l-4.557-2.539c-1.412 2.636-.657 5.918.638 8.614 3.342 6.963 10.217 12.114 17.838 13.365 1.01.166 2.409-.006 2.538-1.021Z" style="fill:#92e3a9"/><path d="M333.506 324.427c4.22-1.488 8.962-1.663 13.278-.481a45.118 45.118 0 0 0-13.278.481ZM334.862 325.542c2.585 3.1 6.109 4.97 9.485 7.076-3.658-1.46-7.464-3.554-9.485-7.076ZM332.996 326.735c1.364 5.11 5.676 8.311 9.557 11.53-4.253-2.602-8.891-6.239-9.557-11.53ZM334.773 325.146a92.676 92.676 0 0 1 12.57 5.643 92.668 92.668 0 0 1-12.57-5.643ZM332.089 323.797c4.33-3.147 9.995-4.578 15.3-3.856a31.78 31.78 0 0 0-15.3 3.856Z" style="fill:#263238"/><path d="M346.72 322.947c-.71.21-1.011 1.237-.525 1.797s1.545.406 1.852-.269c.308-.674-.272-1.574-1.013-1.573M344.005 331.48c-.71.21-1.011 1.237-.525 1.796s1.545.407 1.852-.268c.308-.674-.272-1.574-1.013-1.574M347.137 329.754c-.506.149-.72.88-.374 1.277.346.398 1.099.29 1.317-.19.219-.48-.193-1.12-.72-1.12M340.36 332.879c-.505.149-.719.879-.373 1.277.346.398 1.099.289 1.317-.19.218-.48-.193-1.12-.72-1.12M341.75 337.387c-.506.149-.72.88-.374 1.277.346.398 1.099.29 1.317-.19.219-.48-.193-1.12-.72-1.12M347.15 319.188c-.506.15-.72.88-.374 1.277.345.398 1.098.29 1.317-.19.218-.48-.194-1.12-.72-1.12" style="fill:#fff"/><path d="M340.068 316.718c-1.375-1.865-4.116-1.852-6.425-1.656-3.598.977-5.61 1.426-8.102 4.2-2.49 2.776-3.72 6.89-2.352 10.359.815 2.066 2.431 3.704 4.09 5.181 1.006.895 2.203 1.807 3.542 1.677 1.678-.163 2.727-1.838 3.515-3.328 1.63-3.087 3.262-6.174 4.893-9.26.595-1.126 1.197-2.27 1.457-3.517.26-1.247.138-2.63-.618-3.656Z" style="opacity:.3"/><path d="M331.476 314.584c-3.598.977-5.61 1.426-8.102 4.2-2.49 2.775-3.72 6.89-2.352 10.358.815 2.066 2.431 3.705 4.09 5.181 1.006.895 2.203 1.808 3.542 1.677 1.678-.163 2.727-1.838 3.515-3.328l4.893-9.26c.595-1.126 1.197-2.27 1.457-3.517.26-1.246.138-2.63-.618-3.655-1.375-1.865-4.116-1.853-6.425-1.656" style="fill:#92e3a9"/><path d="M365.534 320.56c-.347-.797-.853-1.343-1.37-1.794-2.272-1.98-4.917-2.413-7.452-1.979-2.536.434-4.996 1.688-7.439 2.935l2.826 3.065c3.626 2.274 7.545 3.166 11.391 2.592.915-.137 1.985-.554 2.333-2.01.22-.92.058-2.013-.289-2.81ZM344.846 337.213c1.42 2.054 2.854 4.124 4.671 5.836 1.818 1.711 4.073 3.059 6.55 3.366 1.807.224 3.747-.157 5.134-1.335 1.387-1.179 2.079-3.231 1.388-4.915 1.16-.256 1.521-1.899.9-2.91-.623-1.012-1.829-1.49-2.978-1.792-3.103-.814-6.354-.812-9.562-.805-1.882.004-3.955.08-5.338 1.355M330.17 339.173a23.455 23.455 0 0 0 8.877 10.098c.367.228.764.453 1.196.455.432 0 .895-.309.905-.74.007-.3-.193-.56-.385-.79a45.555 45.555 0 0 0-10.8-9.407" style="opacity:.1"/><path d="M413.025 285.58c4.088.562 8.268-.535 11.963-2.372 3.696-1.837 6.983-4.388 10.241-6.92 2.26-1.756 4.607-3.623 5.747-6.247.854-1.968.942-4.19.727-6.324-.268-2.66-1.117-5.472-3.253-7.08-2.386-1.796-5.84-1.587-8.49-.208-2.65 1.379-4.647 3.728-6.451 6.108-5.27 6.95-9.553 14.788-11.466 23.297" style="fill:#92e3a9"/><path d="M408.662 283.975c-2.84-8.108-2.916-17.155-.213-25.31 1-3.017 2.411-5.973 4.664-8.215s5.458-3.686 8.607-3.258c3.15.428 6.044 3.024 6.26 6.195.153 2.233-.937 4.341-1.995 6.313-4.701 8.759-9.553 17.712-16.99 24.309" style="fill:#92e3a9"/><path d="M416.885 267.924a15.632 15.632 0 0 0-2.343 4.418 6.89 6.89 0 0 0-.883-5.638 8.444 8.444 0 0 0-2.092 4.693 4.408 4.408 0 0 0-2.628-3.286c-.477 5.332 1.782 10.838 5.868 14.298l4.35-1.329a10.877 10.877 0 0 0 6.663-1.166c.731-.392 1.483-.974 1.57-1.8.144-1.368-1.58-2.16-2.955-2.1-1.374.06-2.849.507-4.06-.143.231-.745.864-1.284 1.471-1.774.607-.49 1.247-1.016 1.503-1.753s-.07-1.733-.834-1.891c-.553-.115-1.087.23-1.547.558l-4.633 3.299a22.464 22.464 0 0 0 1.788-5.694c.079-.46.034-1.09-.423-1.182-.328-.066-.612.223-.815.49Z" style="opacity:.2"/><path d="M406.349 276.422c-4.181-3.503-5.719-9.822-3.616-14.855 1.393-3.332 4.097-5.91 6.728-8.384.644-.606 1.303-1.222 2.105-1.592.803-.37 1.79-.458 2.549-.006 1.02.607 1.318 1.944 1.328 3.13.035 3.874-1.911 7.467-3.964 10.753-2.053 3.285-4.317 6.583-5.047 10.387M439.756 276.925c-.392-.209-.87-.076-1.293.063a141.658 141.658 0 0 0-17.94 7.29l-3.33 2.796c1.634 1.883 4.415 2.269 6.9 2.06 6.415-.536 12.468-4.363 15.705-9.928.43-.738.71-1.879-.042-2.28Z" style="fill:#92e3a9"/><path d="M413.386 278.861c.035-3.734 1.315-7.506 3.566-10.487a41.917 41.917 0 0 0-3.566 10.487ZM414.656 278.136c3.167-1.15 5.644-3.325 8.328-5.289-2.181 2.457-4.968 4.816-8.328 5.289ZM415.032 279.943c4.387.39 8.122-2.005 11.818-4.022-3.249 2.59-7.508 5.14-11.818 4.022ZM414.322 278.087a64.45 64.45 0 0 1 8.126-8.116 64.44 64.44 0 0 1-8.126 8.116ZM412.474 279.778c-1.228-4.297-.657-9.17 1.537-13.063a27.968 27.968 0 0 0-1.537 13.063Z" style="fill:#263238"/><path d="M416.155 268.128c-.048.616.663 1.155 1.243.943s.776-1.084.341-1.523-1.307-.256-1.526.322M421.996 272.776c-.048.616.663 1.155 1.244.942.58-.212.775-1.083.34-1.523s-1.307-.255-1.526.323M421.581 269.824c-.034.438.471.82.884.67.413-.151.551-.77.242-1.083-.308-.312-.929-.181-1.085.23M422.004 276.03c-.034.438.471.821.884.67.412-.151.551-.77.242-1.083-.309-.312-.93-.181-1.085.23M425.928 276.286c-.034.438.472.82.884.67.413-.151.551-.77.243-1.083s-.93-.181-1.086.23M413.354 266.678c-.034.438.471.821.884.67.413-.151.551-.77.242-1.082-.308-.313-.929-.182-1.085.229" style="fill:#fff"/><path d="M409.328 271.461c-1.86.518-2.664 2.657-3.197 4.513-.307 3.094-.555 4.795.868 7.559s4.262 4.942 7.37 4.906c1.852-.021 3.607-.794 5.25-1.648.996-.518 2.062-1.18 2.358-2.261.37-1.356-.623-2.67-1.55-3.726l-5.76-6.56c-.701-.798-1.414-1.606-2.308-2.18-.893-.572-2.008-.887-3.03-.603Z" style="opacity:.3"/><path d="M405.115 277.52c-.307 3.094-.554 4.795.868 7.559 1.422 2.763 4.262 4.942 7.37 4.906 1.852-.022 3.607-.794 5.25-1.648.996-.518 2.062-1.18 2.358-2.262.37-1.355-.623-2.67-1.55-3.725l-5.76-6.56c-.701-.798-1.414-1.607-2.308-2.18-.893-.572-2.008-.887-3.03-.603-1.862.517-2.665 2.657-3.198 4.513" style="fill:#92e3a9"/><path d="M419.88 252.763c-.724.034-1.3.267-1.804.535-2.218 1.182-3.34 3.114-3.754 5.218s-.168 4.393.079 6.666l3.226-1.292c2.847-2.15 4.705-4.937 5.4-8.104.165-.753.157-1.71-.874-2.414-.651-.444-1.55-.642-2.274-.609ZM426.712 273.822c2.02-.496 4.06-.998 5.932-1.906 1.873-.908 3.592-2.265 4.567-4.104.71-1.34.99-2.965.483-4.395-.506-1.43-1.9-2.578-3.417-2.54.145-.98-1.027-1.749-2-1.564s-1.703.981-2.279 1.787c-1.555 2.176-2.518 4.709-3.465 7.21-.556 1.467-1.112 3.104-.529 4.56M423.882 285.836a19.553 19.553 0 0 0 10.501-3.918c.287-.217.58-.46.71-.796.129-.336.025-.789-.309-.925-.23-.094-.492-.015-.728.066a37.977 37.977 0 0 0-10.534 5.62" style="opacity:.1"/><path d="M412.583 323.43s1.707 3.59 4.348 5.672c2.642 2.083 11.32 3.015 12.871.791 1.55-2.224.842-2.992.842-2.992s2.463-1.035 2.736-3.013c.273-1.978.102-3.071-3.954-6.285s-5.963-4.36-8.081-3.823-11.21 5.52-11.21 5.52l2.448 4.13Z" style="fill:#92e3a9"/><path d="M412.583 323.43s1.707 3.59 4.348 5.672c2.642 2.083 11.32 3.015 12.871.791 1.55-2.224.842-2.992.842-2.992s2.463-1.035 2.736-3.013c.273-1.978.102-3.071-3.954-6.285s-5.963-4.36-8.081-3.823-11.21 5.52-11.21 5.52l2.448 4.13Z" style="opacity:.3"/><path d="M422.387 318.098s8.832-2.76 9.303-4.44c.472-1.681-.888-3.15-.888-3.15s1.107-1.22-1.053-2.712c-2.16-1.493-6.647-2.308-9.16-1.523s-8.193 5.798-8.193 5.798l9.991 6.027Z" style="fill:#92e3a9"/><path d="M422.387 318.098s8.832-2.76 9.303-4.44c.472-1.681-.888-3.15-.888-3.15s1.107-1.22-1.053-2.712c-2.16-1.493-6.647-2.308-9.16-1.523s-8.193 5.798-8.193 5.798l9.991 6.027Z" style="opacity:.2"/><path d="M407.54 324.097s.068 3.92 3.778 7.64c3.71 3.72 6.883 4.741 7.52 2.619.64-2.122 1.665-3.817-.965-6.122-2.63-2.304-10.334-4.137-10.334-4.137Z" style="fill:#92e3a9"/><path d="M407.54 324.097s.068 3.92 3.778 7.64c3.71 3.72 6.883 4.741 7.52 2.619.64-2.122 1.665-3.817-.965-6.122-2.63-2.304-10.334-4.137-10.334-4.137Z" style="opacity:.2"/><path d="M405.855 317.61s.103 5.178 3.08 8.212c2.976 3.033 11.066 3.345 12.458 1.537s-.73-2.9-.73-2.9 2.874.374 2.63-2.27c-.245-2.643-1.475-2.549-1.837-2.803-.362-.254-10.616-5.094-13.28-3.99-2.663 1.102-2.321 2.215-2.321 2.215Z" style="fill:#92e3a9"/><path d="M405.855 317.61s.103 5.178 3.08 8.212c2.976 3.033 11.066 3.345 12.458 1.537s-.73-2.9-.73-2.9 2.874.374 2.63-2.27c-.245-2.643-1.475-2.549-1.837-2.803-.362-.254-10.616-5.094-13.28-3.99-2.663 1.102-2.321 2.215-2.321 2.215Z" style="opacity:.1"/><path d="M407.464 315.213c.276.054 4.732 3.015 8.974 3.61s12.745-3.51 8.014-7.263c0 0 2.3-1.817-.36-3.906s-4.194-1.714-9.14-.688c-4.947 1.026-7.488 8.247-7.488 8.247Z" style="fill:#92e3a9"/><path d="M399.523 313.583c-.57.983-.064 2.252.968 2.728 1.6.738 4.138 1.937 4.35 2.218.312.412 1.265 4.897 1.875 4.535.423-.25-.974-3.213.55-2.34 1.522.874 3.162.304 1.733-.865-1.43-1.17-2.139-1.948-2.139-1.948s6.642-.654 4.949-2.191c-1.693-1.537-3.638-.859-3.638-.859s2.854-3.3 1.995-3.85c-.86-.55-1.696 2.45-3.824 2.447-2.128-.002-5.176-.896-6.279-.39a1.214 1.214 0 0 0-.54.515Z" style="fill:#263238"/><path d="M199.344 367.11s-3.337 4.818-4.06 9.725c-.724 4.907 4.456 16.69 8.438 17.04s4.445-1.12 4.445-1.12 3.133 2.389 5.862 1.285 4.002-2.125 5.133-9.671c1.132-7.547 1.197-10.827-1.045-13.141s-15.29-10.282-15.29-10.282l-3.483 6.164Z" style="fill:#92e3a9"/><path d="M199.344 367.11s-3.337 4.818-4.06 9.725c-.724 4.907 4.456 16.69 8.438 17.04s4.445-1.12 4.445-1.12 3.133 2.389 5.862 1.285 4.002-2.125 5.133-9.671c1.132-7.547 1.197-10.827-1.045-13.141s-15.29-10.282-15.29-10.282l-3.483 6.164Z" style="opacity:.3"/><path d="M213.362 375.732s10.013 9.266 12.508 8.635c2.495-.63 3.375-3.447 3.375-3.447s2.374.518 2.696-3.339c.322-3.857-1.93-10.194-4.78-12.832-2.848-2.638-13.43-6.22-13.43-6.22l-.369 17.203Z" style="fill:#92e3a9"/><path d="M213.362 375.732s10.013 9.266 12.508 8.635c2.495-.63 3.375-3.447 3.375-3.447s2.374.518 2.696-3.339c.322-3.857-1.93-10.194-4.78-12.832-2.848-2.638-13.43-6.22-13.43-6.22l-.369 17.203Z" style="opacity:.2"/><path d="M194.788 361.15s-4.963 2.967-6.996 10.442c-2.032 7.475-1.008 12.282 2.174 11.54 3.183-.742 6.102-.675 7.119-5.73 1.016-5.055-2.297-16.252-2.297-16.252Z" style="fill:#92e3a9"/><path d="M194.788 361.15s-4.963 2.967-6.996 10.442c-2.032 7.475-1.008 12.282 2.174 11.54 3.183-.742 6.102-.675 7.119-5.73 1.016-5.055-2.297-16.252-2.297-16.252Z" style="opacity:.2"/><path d="M201.845 354.233s-6.545 3.933-8.239 9.967 3.848 16.608 7.182 17.06 3.173-3.062 3.173-3.062 1.632 3.95 4.833 1.696c3.2-2.255 2.178-3.757 2.236-4.407.059-.65-1.28-17.316-4.647-19.912s-4.538-1.341-4.538-1.341Z" style="fill:#92e3a9"/><path d="M201.845 354.233s-6.545 3.933-8.239 9.967 3.848 16.608 7.182 17.06 3.173-3.062 3.173-3.062 1.632 3.95 4.833 1.696c3.2-2.255 2.178-3.757 2.236-4.407.059-.65-1.28-17.316-4.647-19.912s-4.538-1.341-4.538-1.341Z" style="opacity:.1"/><path d="M206.093 354.53c.133.394-.38 8.265 1.972 14.127s13.847 13.72 15.172 4.915c0 0 4.013 1.607 4.732-3.328.719-4.936-.889-6.623-5.833-12.194-4.944-5.572-16.043-3.52-16.043-3.52Z" style="fill:#92e3a9"/><path d="M202.347 343.18c-1.676-.008-2.928 1.572-2.779 3.24.232 2.587.562 6.714.359 7.191-.298.702-5.333 5.214-4.423 5.728.631.357 3.394-3.605 3.395-1.016.002 2.589 1.934 4.268 2.38 1.581s.92-4.165.92-4.165 5.714 8.013 6.436 4.72c.722-3.293-1.574-5.283-1.574-5.283s6.317 1.226 6.388-.276c.072-1.503-4.377-.37-5.936-3.092-1.56-2.723-2.654-7.277-4.112-8.316-.313-.222-.676-.31-1.054-.313Z" style="fill:#263238"/><path d="M371.247 286.98s4.127.84 4.514 2.603c.386 1.763-1.577 5.35-4.075 5.79-2.497.44-7.557-.027-7.557-.027l7.118-8.366Z" style="fill:#92e3a9"/><path d="M371.247 286.98s4.127.84 4.514 2.603c.386 1.763-1.577 5.35-4.075 5.79-2.497.44-7.557-.027-7.557-.027l7.118-8.366Z" style="opacity:.2"/><path d="M373.546 286.425c-.234-.222-3.11-2.878-5.545-2.28s-7.136 2.064-8.428 3.696c-1.292 1.632-1.96 4.216-2.113 5.82s1.594 3.27 1.594 3.27 12.285-6.295 12.663-6.658 2.35-3.352 1.829-3.848Z" style="fill:#92e3a9"/><path d="M373.546 286.425c-.234-.222-3.11-2.878-5.545-2.28s-7.136 2.064-8.428 3.696c-1.292 1.632-1.96 4.216-2.113 5.82s1.594 3.27 1.594 3.27 12.285-6.295 12.663-6.658 2.35-3.352 1.829-3.848Z" style="opacity:.1"/><path d="M372.533 292.884c-.111.375-.854 4.608-4.11 5.461-3.255.853-6.995 1.202-9.513-.304-2.519-1.507 1.073-7.052 5.424-8.329 4.352-1.277 6.819.327 7.383.56.564.234 1.284 1.033.816 2.612Z" style="fill:#92e3a9"/><path d="M357.59 292.59c.063.587-1.352 1.54-2.235 2.153-.76.527-3.022 3.125-2.54 4.67.483 1.546 2.126 3.151 3.975 1.667 2.093-1.68 4.595-2.16 4.595-2.16l-2.511-2.61-1.283-3.72Z" style="fill:#263238"/><path d="M462.71 297.805s5.146 6.257 3.588 9.359c-1.559 3.103-8.84 6.083-13.104 3.713-4.264-2.37-11.257-9.2-11.257-9.2l20.773-3.872Z" style="fill:#92e3a9"/><path d="M462.71 297.805s5.146 6.257 3.588 9.359c-1.559 3.103-8.84 6.083-13.104 3.713-4.264-2.37-11.257-9.2-11.257-9.2l20.773-3.872Z" style="opacity:.2"/><path d="M466.816 299.763c-.08-.615-1.16-8.07-5.52-10.128-4.36-2.06-13.162-5.563-17.07-4.69-3.909.872-8.036 3.923-10.21 6.133-2.175 2.21-1.58 6.817-1.58 6.817s25.98 5.485 26.985 5.4 7.572-2.16 7.395-3.532Z" style="fill:#92e3a9"/><path d="M466.816 299.763c-.08-.615-1.16-8.07-5.52-10.128-4.36-2.06-13.162-5.563-17.07-4.69-3.909.872-8.036 3.923-10.21 6.133-2.175 2.21-1.58 6.817-1.58 6.817s25.98 5.485 26.985 5.4 7.572-2.16 7.395-3.532Z" style="opacity:.1"/><path d="M457.475 308.185c-.62.425-6.86 5.848-12.757 3.177-5.897-2.67-11.908-6.682-13.844-11.984-1.936-5.303 10.15-9.233 18.198-5.868s9.789 8.752 10.35 9.784c.56 1.032.666 3.098-1.947 4.89Z" style="fill:#92e3a9"/><path d="M435.51 289.637c-.619.951-3.888.66-5.95.506-1.774-.133-8.302 1.006-9.453 3.9-1.152 2.893-.645 7.282 3.916 7.305 5.165.027 9.485 2.342 9.485 2.342l-.59-6.943 2.591-7.11Z" style="fill:#263238"/><path d="M106.782 311.085s-3.94 5.51-6.782 4.922c-2.843-.587-6.825-5.823-5.834-9.78.992-3.956 4.995-11.082 4.995-11.082l7.621 15.94Z" style="fill:#92e3a9"/><path d="M106.782 311.085s-3.94 5.51-6.782 4.922c-2.843-.587-6.825-5.823-5.834-9.78.992-3.956 4.995-11.082 4.995-11.082l7.621 15.94Z" style="opacity:.2"/><path d="M106.09 314.824c.479-.197 6.265-2.681 6.985-6.648.72-3.967 1.645-11.835.095-14.802s-4.908-5.642-7.163-6.92c-2.255-1.278-5.848.199-5.848.199s1.192 22.17 1.478 22.963c.287.794 3.383 5.649 4.452 5.208Z" style="fill:#92e3a9"/><path d="M106.09 314.824c.479-.197 6.265-2.681 6.985-6.648.72-3.967 1.645-11.835.095-14.802s-4.908-5.642-7.163-6.92c-2.255-1.278-5.848.199-5.848.199s1.192 22.17 1.478 22.963c.287.794 3.383 5.649 4.452 5.208Z" style="opacity:.1"/><path d="M97.266 309.102c-.477-.408-6.207-4.275-5.326-9.615s2.82-11.064 6.684-13.774c3.864-2.711 9.653 6.199 8.677 13.428-.977 7.228-4.951 9.8-5.664 10.475s-2.357 1.21-4.37-.514Z" style="fill:#92e3a9"/><path d="M107.494 287.349c-.902-.294-1.374-2.997-1.695-4.695-.277-1.462-2.609-6.488-5.195-6.792-2.587-.304-6.021 1.055-5.054 4.744 1.096 4.177.161 8.167.161 8.167l5.48-1.978 6.303.554Z" style="fill:#263238"/><path d="M244.256 293.328h3v32.176h-3z" style="fill:#263238" transform="rotate(-72.773 245.756 309.416)"/><path d="M278.127 321.764s3.801-1.815 3.75-3.619c-.052-1.804-2.825-4.81-5.355-4.632-2.53.178-7.326 1.856-7.326 1.856l8.931 6.395Z" style="fill:#92e3a9"/><path d="M278.127 321.764s3.801-1.815 3.75-3.619c-.052-1.804-2.825-4.81-5.355-4.632-2.53.178-7.326 1.856-7.326 1.856l8.931 6.395Z" style="opacity:.2"/><path d="M280.492 321.745c-.173.272-2.321 3.545-4.828 3.555s-7.423-.276-9.072-1.547-2.921-3.616-3.459-5.136c-.538-1.519.756-3.558.756-3.558s13.443 3.134 13.898 3.395c.454.262 3.09 2.684 2.705 3.29Z" style="fill:#92e3a9"/><path d="M280.492 321.745c-.173.272-2.321 3.545-4.828 3.555s-7.423-.276-9.072-1.547-2.921-3.616-3.459-5.136c-.538-1.519.756-3.558.756-3.558s13.443 3.134 13.898 3.395c.454.262 3.09 2.684 2.705 3.29Z" style="opacity:.1"/><path d="M277.946 315.723c-.199-.337-1.944-4.264-5.309-4.304s-7.079.527-9.157 2.598c-2.079 2.072 2.748 6.582 7.28 6.768 4.53.186 6.535-1.968 7.027-2.33.49-.363.995-1.313.159-2.732Z" style="fill:#92e3a9"/><path d="M263.52 319.625c-.082-.584-1.686-1.166-2.69-1.547-.866-.328-3.69-2.3-3.595-3.917.094-1.617 1.299-3.572 3.452-2.58 2.438 1.125 4.982.985 4.982.985l-1.805 3.14-.345 3.919Z" style="fill:#263238"/><path d="M217.734 243.29s-2.675-3.254-4.414-2.771c-1.739.483-3.99 3.897-3.21 6.31.781 2.413 3.562 6.666 3.562 6.666l4.062-10.206Z" style="fill:#92e3a9"/><path d="M217.734 243.29s-2.675-3.254-4.414-2.771c-1.739.483-3.99 3.897-3.21 6.31.781 2.413 3.562 6.666 3.562 6.666l4.062-10.206Z" style="opacity:.2"/><path d="M217.147 240.998c.306.103 4 1.402 4.612 3.832.612 2.431 1.515 7.273.677 9.178-.837 1.906-2.808 3.705-4.154 4.592-1.345.887-3.635.121-3.635.121s-.188-13.802-.043-14.306c.144-.504 1.862-3.645 2.543-3.417Z" style="fill:#92e3a9"/><path d="M217.147 240.998c.306.103 4 1.402 4.612 3.832.612 2.431 1.515 7.273.677 9.178-.837 1.906-2.808 3.705-4.154 4.592-1.345.887-3.635.121-3.635.121s-.188-13.802-.043-14.306c.144-.504 1.862-3.645 2.543-3.417Z" style="opacity:.1"/><path d="M211.914 244.916c-.28.274-3.672 2.912-2.902 6.188s2.211 6.745 4.722 8.265 5.728-4.25 4.82-8.693c-.908-4.443-3.48-5.872-3.95-6.261s-1.514-.652-2.69.501Z" style="fill:#92e3a9"/><path d="M219.167 257.983c-.547.22-.727 1.916-.855 2.983-.11.919-1.347 4.133-2.939 4.43-1.592.297-3.779-.403-3.333-2.731.505-2.637-.241-5.073-.241-5.073l3.482.998 3.886-.607Z" style="fill:#263238"/><path d="M134.614 228.416s3.585-2.209 3.342-3.997c-.244-1.789-3.322-4.481-5.818-4.035-2.497.447-7.087 2.627-7.087 2.627l9.563 5.405Z" style="fill:#92e3a9"/><path d="M134.614 228.416s3.585-2.209 3.342-3.997c-.244-1.789-3.322-4.481-5.818-4.035-2.497.447-7.087 2.627-7.087 2.627l9.563 5.405Z" style="opacity:.2"/><path d="M136.963 228.146c-.143.289-1.93 3.772-4.421 4.05-2.491.277-7.41.517-9.185-.571-1.775-1.088-3.29-3.284-3.988-4.737-.696-1.453.372-3.619.372-3.619s13.701 1.682 14.18 1.894c.48.211 3.36 2.338 3.042 2.983Z" style="fill:#92e3a9"/><path d="M136.963 228.146c-.143.289-1.93 3.772-4.421 4.05-2.491.277-7.41.517-9.185-.571-1.775-1.088-3.29-3.284-3.988-4.737-.696-1.453.372-3.619.372-3.619s13.701 1.682 14.18 1.894c.48.211 3.36 2.338 3.042 2.983Z" style="opacity:.1"/><path d="M133.789 222.43c-.233-.314-2.388-4.033-5.738-3.713-3.35.32-6.982 1.279-8.828 3.56s3.435 6.251 7.96 5.953c4.525-.299 6.29-2.654 6.739-3.067s.85-1.411-.133-2.733Z" style="fill:#92e3a9"/><path d="M119.861 227.849c-.144-.572-1.8-.98-2.84-1.252-.895-.234-3.913-1.894-3.992-3.511-.078-1.617.911-3.69 3.158-2.933 2.544.858 5.058.447 5.058.447l-1.46 3.315.076 3.934Z" style="fill:#263238"/><path d="M160.016 245.875c-1.56-1.842-4.503-1.139-6.76-.28.924-1.283.385-3.249-.897-4.173-1.282-.924-3.056-.933-4.536-.378-1.48.555-2.72 1.6-3.87 2.683-7.914 7.458-13.4 18.754-18.223 28.5l1.395 1.122c11.647.733 22.864-6.057 29.832-15.417 1.901-2.554 3.587-5.426 3.872-8.596.11-1.213-.026-2.532-.813-3.46Z" style="fill:#92e3a9"/><path d="M127.027 238.73c-1.017.136-1.982.543-2.996.7-1.136.176-2.303.034-3.439.211-2.752.428-4.955 2.742-5.847 5.38-1.54 4.558.321 9.492 2.157 13.939 2.201 5.328 4.514 10.823 8.693 14.795 3.235-4.063 7.057-9.833 9.047-14.63 1.989-4.799 2.554-10.437.316-15.124-1.464-3.064-4.565-5.719-7.93-5.27Z" style="fill:#92e3a9"/><path d="M126.242 244.202c-.614.082-1.2 1.079-1.812 1.174-.686.106-1.387-.73-2.073-.624-1.66.258-2.991 1.655-3.53 3.248-.93 2.751.194 5.73 1.303 8.415l.04.096c1.942 4.701 8.652 4.79 10.627.103l.042-.1c1.2-2.897 1.542-6.3.19-9.13-.883-1.85-2.755-3.452-4.787-3.182Z" style="opacity:.1"/><path d="M125.189 272.47c-7.885-.304-15.098-5.704-18.551-12.798-.752-1.544-1.354-3.201-1.39-4.918-.035-1.717.566-3.509 1.882-4.612 1.316-1.103 3.398-1.335 4.757-.286.951.733 1.416 1.915 1.863 3.03a84.774 84.774 0 0 0 10.738 19.153M125.6 271.59c4.186 3.643 9.701 5.723 15.25 5.754 5.55.03 11.088-1.991 15.313-5.589 3.13-2.664 5.613-6.387 5.782-10.494.07-1.697-.426-3.641-1.941-4.409-1.826-.925-3.968.334-5.566 1.614-4.428 3.544-9.735 6.325-14.562 9.303s-9.525 6.064-14.895 4.237" style="fill:#92e3a9"/><path d="M127.166 268.863a22.688 22.688 0 0 1-.8-12.175 57.478 57.478 0 0 0 .8 12.175ZM130.796 270.828a56.406 56.406 0 0 1 11.017-8.752 342.486 342.486 0 0 1-11.017 8.752ZM129.583 269.749a20.716 20.716 0 0 1 3.665-8.113 349.22 349.22 0 0 1-3.665 8.113Z" style="fill:#263238"/><path d="M127.673 255.787a1.144 1.144 0 1 1-2.089.934 1.144 1.144 0 0 1 2.089-.934ZM132.69 260.9a1.144 1.144 0 1 1 2.288.045 1.144 1.144 0 0 1-2.287-.046Z" style="fill:#fff"/><path d="M128.137 269.147c-.366-2.286-.15-4.661.63-6.84a73.385 73.385 0 0 1-.63 6.84Z" style="fill:#263238"/><path d="M128.175 261.91a.883.883 0 1 1 1.68-.543.883.883 0 0 1-1.68.543Z" style="fill:#fff"/><path d="M129.65 270.642a73.447 73.447 0 0 1 4.708-5.002 13.874 13.874 0 0 1-4.708 5.002Z" style="fill:#263238"/><path d="M135.048 265.822a.883.883 0 1 0-.706-1.619.883.883 0 0 0 .706 1.619Z" style="fill:#fff"/><path d="M130.566 271.695a503.78 503.78 0 0 1 8.695-2.975 21.734 21.734 0 0 1-8.695 2.975Z" style="fill:#263238"/><path d="M139.964 269.366a1.18 1.18 0 1 0 .177-2.355 1.18 1.18 0 0 0-.177 2.355Z" style="fill:#fff"/><path d="M124.743 269.691a21.735 21.735 0 0 1-2.915-8.715c1.008 2.92 1.96 5.777 2.915 8.715Z" style="fill:#263238"/><path d="M120.89 260.809a1.18 1.18 0 1 1 1.764-1.57 1.18 1.18 0 0 1-1.765 1.57ZM141.096 261.863a1.144 1.144 0 1 1 2.287.046 1.144 1.144 0 0 1-2.287-.046Z" style="fill:#fff"/><path d="M121.374 268.263a7.483 7.483 0 0 1-2.901-2.293c-.25-.328-.47-.808-.202-1.123.319-.375.924-.09 1.315.208l4.267 3.263a12.273 12.273 0 0 1 .755-6.178c.245-.616.793-1.325 1.414-1.093.446.167.584.718.653 1.19a45.8 45.8 0 0 1 .415 4.263 17.385 17.385 0 0 1 3.44-3.572c.287-.223.685-.443.988-.242.325.216.24.709.117 1.08l-1.09 3.274a31.276 31.276 0 0 1 4.31-3.116c.274-.165.563-.329.88-.355s.675.13.78.43c.116.339-.112.69-.327.975l-2.947 3.902a9.305 9.305 0 0 1 4.011-.769c.496.016 1.07.123 1.303.561.319.602-.243 1.288-.791 1.693a11.303 11.303 0 0 1-4.79 2.044c.52.215 1.06.457 1.405.902s.416 1.155.004 1.54c-.539.502-1.405.148-2.04-.225l-10.1-5.917" style="opacity:.2"/><path d="M128.483 268.156c-2.334-.93-5.152-.516-7.119 1.047l.265 1.318a65.422 65.422 0 0 1 11.3 3.293c-.351-2.488-2.111-4.728-4.446-5.658Z" style="fill:#263238"/><path d="M133.804 272.64c-5.839-3.015-10.43-5.242-17.318-3.297l.469-.05c-2.926.146-5.416 3.024-5.392 5.679.025 2.655 2.092 4.856 4.685 5.849 2.593.993 5.627.949 8.552.55a39.577 39.577 0 0 0 7.95-1.944c1.602-.572 3.393-1.485 3.767-2.995.415-1.679-1.174-2.997-2.713-3.792Z" style="fill:#92e3a9"/><path d="M151.369 250.65c-.605.041-1.132.403-1.642.73-.51.327-1.083.643-1.685.577.092-.725.62-1.305.995-1.933.375-.628.575-1.51.066-2.036-.355-.369-.95-.413-1.433-.24-.483.172-.877.523-1.252.873a42.553 42.553 0 0 0-8.368 10.814c-.407.35-.988 2.325-.264 2.678 5.993-.849 11.518-4.552 14.581-9.773.127-.215.252-.443.263-.692.027-.605-.657-1.04-1.261-.998ZM140.578 273.066c7.302-.663 14.233-4.733 18.33-10.814.369-.547.71-1.305.295-1.818-.443-.548-1.32-.302-1.945.022-6.144 3.188-10.412 9.426-16.823 12.035M115.909 266.02c-3.798-2.61-6.429-6.856-7.076-11.418-.046-.321-.08-.66.043-.96.123-.3.456-.54.767-.447.206.062.349.246.473.421a17.14 17.14 0 0 1 2.936 7.234c.128.824.631 1.834.933 2.64.293.78 1.212 2.096 1.924 2.53" style="opacity:.1"/><path d="M132.99 348.319c-3.1 2.207-6.319 4.553-8.003 7.964-1.685 3.41-1.222 8.206 2.02 10.195 1.383.847 3.09 1.097 4.384 2.073.95.717 1.596 1.765 2.475 2.568 2.254 2.059 6.074 2.094 8.366.077 1.74-1.53 2.492-3.883 2.955-6.153.642-3.15 1.419-8.652 1.519-11.763.095-2.969.553-6.058-3.005-8.595-2.42-1.725-5.298.121-10.712 3.634M253.41 355.56c1.748 3.38 3.615 6.898 6.754 9.047s7.952 2.37 10.378-.56c1.034-1.249 1.523-2.903 2.672-4.046.844-.84 1.972-1.331 2.891-2.088 2.358-1.941 2.932-5.717 1.259-8.271-1.27-1.938-3.492-3.016-5.674-3.795-3.028-1.08-8.365-2.626-11.43-3.165-2.926-.514-5.92-1.403-8.934 1.76-2.05 2.152-.628 5.263 2.084 11.118M176.724 404.853c-.95-1.688-2.741-2.782-4.619-3.256-1.877-.475-3.85-.396-5.775-.198-7.53.773-15.722 3.192-22.086 7.289l1.784 1.19c4.432 3.968 10.535 5.51 16.457 6.078 3.711.356 7.675.327 10.877-1.582 3.202-1.91 5.191-6.273 3.362-9.521Z" style="fill:#92e3a9"/><path d="M144.244 408.688c7.25 8.412 19.872 11.708 30.309 7.914 1.153-.419 2.328-.953 3.08-1.923.752-.97.926-2.488.08-3.377-.725-.761-1.896-.83-2.947-.849-9.729-.173-20.794-1.592-30.522-1.765" style="fill:#92e3a9"/><path d="M144.244 408.688c7.25 8.412 19.872 11.708 30.309 7.914 1.153-.419 2.328-.953 3.08-1.923.752-.97.926-2.488.08-3.377-.725-.761-1.896-.83-2.947-.849-9.729-.173-20.794-1.592-30.522-1.765" style="opacity:.2"/><path d="M445.089 136.32a469.572 469.572 0 0 1-79.245-39.77l1.928-3.076a465.856 465.856 0 0 0 78.63 39.462l-1.313 3.384Z" style="fill:#263238"/><path d="M414.271 123.04c-7.262-11.29-11.705-31.963-11.891-32.837l2.663-.566c.044.21 4.527 21.062 11.518 31.93l-2.29 1.472Z" style="fill:#263238"/><path d="M376.319 107.43s-5.078 1.582-9.524.877c-4.445-.704-13.243-8.387-12.466-11.93.778-3.544 2.176-3.546 2.176-3.546s-1.219-3.36.477-5.425c1.696-2.065 2.926-2.889 9.768-1.821 6.842 1.067 9.7 1.901 11.096 4.47 1.396 2.57 4.757 16.03 4.757 16.03l-6.284 1.345Z" style="fill:#92e3a9"/><path d="M376.319 107.43s-5.078 1.582-9.524.877c-4.445-.704-13.243-8.387-12.466-11.93.778-3.544 2.176-3.546 2.176-3.546s-1.219-3.36.477-5.425c1.696-2.065 2.926-2.889 9.768-1.821 6.842 1.067 9.7 1.901 11.096 4.47 1.396 2.57 4.757 16.03 4.757 16.03l-6.284 1.345Z" style="opacity:.3"/><path d="M372.656 92.951s-5.308-11.185-4.085-13.175c1.224-1.99 3.901-1.987 3.901-1.987s.195-2.196 3.623-1.429c3.428.767 8.305 4.437 9.816 7.62 1.511 3.183 1.742 13.319 1.742 13.319l-14.997-4.348Z" style="fill:#92e3a9"/><path d="M372.656 92.951s-5.308-11.185-4.085-13.175c1.224-1.99 3.901-1.987 3.901-1.987s.195-2.196 3.623-1.429c3.428.767 8.305 4.437 9.816 7.62 1.511 3.183 1.742 13.319 1.742 13.319l-14.997-4.348Z" style="opacity:.2"/><path d="M380.244 112.992s-3.916 3.493-10.94 3.225-10.91-2.459-9.404-5.013c1.506-2.555 2.24-5.101 6.893-4.61 4.653.491 13.451 6.398 13.451 6.398Z" style="fill:#92e3a9"/><path d="M380.244 112.992s-3.916 3.493-10.94 3.225-10.91-2.459-9.404-5.013c1.506-2.555 2.24-5.101 6.893-4.61 4.653.491 13.451 6.398 13.451 6.398Z" style="opacity:.2"/><path d="M388.149 108.757s-5.182 4.601-10.867 4.431-13.338-7.838-12.825-10.848c.512-3.01 3.513-1.917 3.513-1.917s-2.978-2.485-.158-4.645c2.82-2.16 3.845-.867 4.423-.741.578.125 14.648 5.807 15.983 9.427 1.334 3.62-.07 4.293-.07 4.293Z" style="fill:#92e3a9"/><path d="M388.149 108.757s-5.182 4.601-10.867 4.431-13.338-7.838-12.825-10.848c.512-3.01 3.513-1.917 3.513-1.917s-2.978-2.485-.158-4.645c2.82-2.16 3.845-.867 4.423-.741.578.125 14.648 5.807 15.983 9.427 1.334 3.62-.07 4.293-.07 4.293Z" style="opacity:.1"/><path d="M389.044 104.998c-.305-.222-7.26-1.912-11.699-5.54-4.438-3.627-8.123-15.714-.139-14.473 0 0-.304-3.911 4.166-3.194 4.469.716 5.493 2.566 8.977 8.36 3.483 5.792-1.305 14.847-1.305 14.847Z" style="fill:#92e3a9"/><path d="M397.857 111.322c-.448 1.453-2.156 2.109-3.56 1.527-2.177-.902-5.661-2.308-6.13-2.262-.689.068-5.962 3.204-6.16 2.276-.138-.643 4.042-1.96 1.8-2.664-2.24-.704-3.17-2.833-.723-2.49 2.448.343 3.856.334 3.856.334s-5.388-7.122-2.34-6.854 4.147 2.795 4.147 2.795.652-5.802 1.973-5.457c1.32.346-.868 3.891 1.067 5.98s5.581 4.273 6.085 5.817c.108.331.086.67-.015.998ZM308.163 157.42c-14.114.806-60.385-8.591-67.265-10.01l-29.183-.568.142-7.259 29.853.582.329.068c15.237 3.151 56.887 11.074 66.5 9.87 11.574-1.442 32.061-11.285 32.267-11.384l1.2-.58 6.166 1.6c9.326 1.674 53.82-4.527 80.472-10.422l1.567 7.088c-21.995 4.866-71.634 12.72-83.51 10.444l-.228-.051-3.725-.966c-4.765 2.229-22.148 10.085-33.312 11.476-.387.049-.815.085-1.273.112Z" style="fill:#263238"/><path d="M298.486 133.679c.02-2.389 2.702-3.718 4.961-4.495-1.514-.39-2.349-2.225-1.96-3.74.39-1.514 1.732-2.644 3.208-3.16 1.477-.515 3.08-.505 4.641-.41 10.74.658 22.063 5.771 31.901 10.126l-.35 1.736c-8.39 7.933-21.216 9.874-32.44 7.17-3.063-.737-6.163-1.853-8.388-4.082-.85-.853-1.583-1.941-1.573-3.145Z" style="fill:#92e3a9"/><path d="M319.04 107.357c.859-.541 1.85-.843 2.72-1.366.975-.585 1.773-1.432 2.748-2.016 2.363-1.417 5.503-1.054 7.852.387 4.057 2.49 5.767 7.419 7.186 11.962 1.701 5.444 3.423 11.086 2.761 16.751-5.032-1.04-11.591-3.005-16.142-5.393-4.55-2.388-8.55-6.316-9.816-11.296-.828-3.256-.152-7.238 2.69-9.029Z" style="fill:#92e3a9"/><path d="M323.101 111.02c.519-.327 1.595.06 2.121-.256.589-.353.592-1.434 1.18-1.786 1.427-.856 3.323-.637 4.74.233 2.45 1.503 3.482 4.48 4.34 7.222l.03.098c1.5 4.804-3.544 9.12-8.014 6.808l-.095-.05c-2.747-1.44-5.162-3.812-5.926-6.819-.5-1.965-.092-4.37 1.624-5.45Z" style="opacity:.1"/><path d="M341.802 131.84c5.801-5.223 7.866-13.895 5.999-21.474-.407-1.65-.998-3.292-2.059-4.619-1.06-1.327-2.652-2.309-4.35-2.314-1.7-.006-3.428 1.136-3.798 2.795-.259 1.16.137 2.352.503 3.482a83.878 83.878 0 0 1 3.965 21.36M340.933 131.433c-.876 5.42-3.751 10.494-7.95 14.031s-9.69 5.508-15.18 5.449c-4.066-.044-8.311-1.302-11.04-4.317-1.128-1.246-1.982-3.037-1.317-4.58.802-1.86 3.228-2.26 5.253-2.299 5.61-.11 11.406-1.356 16.962-2.148s11.08-1.422 14.005-6.211" style="fill:#92e3a9"/><path d="M338.015 130.351a53.408 53.408 0 0 0-7.102-9.761 23.008 23.008 0 0 1 7.102 9.761ZM336.5 134.144c-4.65.17-9.264.28-13.917.324a59.026 59.026 0 0 1 13.916-.324ZM336.739 132.555a1379.804 1379.804 0 0 1-7.924-3.846 21.409 21.409 0 0 1 7.924 3.846Z" style="fill:#263238"/><path d="M329.35 120.733a1.132 1.132 0 1 0 2.179-.614 1.132 1.132 0 0 0-2.179.614ZM328.772 127.796a1.132 1.132 0 1 0-1.71 1.483 1.132 1.132 0 0 0 1.71-1.483Z" style="fill:#fff"/><path d="M337.456 131.182a98.682 98.682 0 0 1-4.81-4.8 14.412 14.412 0 0 1 4.81 4.8Z" style="fill:#263238"/><path d="M332.845 125.705a.873.873 0 1 0-1.62.65.873.873 0 0 0 1.62-.65Z" style="fill:#fff"/><path d="M337.254 133.276a14.414 14.414 0 0 1-6.747-.82c2.283.198 4.483.468 6.747.82Z" style="fill:#263238"/><path d="M330.097 133.03a.873.873 0 1 1-.488-1.676.873.873 0 0 1 .488 1.677Z" style="fill:#fff"/><path d="M337.223 134.657a22.452 22.452 0 0 1-8.493 3.245l8.493-3.244Z" style="fill:#263238"/><path d="M328.604 138.838a1.168 1.168 0 1 1-1.625-1.679 1.168 1.168 0 0 1 1.625 1.679Z" style="fill:#fff"/><path d="m340.382 129.446-3.304-8.47a22.452 22.452 0 0 1 3.304 8.47Z" style="fill:#263238"/><path d="M337.686 120.254a1.168 1.168 0 1 0-2.335-.076 1.168 1.168 0 0 0 2.335.076ZM322.993 133.851a1.132 1.132 0 1 0-1.71 1.483 1.132 1.132 0 0 0 1.71-1.483Z" style="fill:#fff"/><path d="M342.038 126.228a7.404 7.404 0 0 0 .754-3.58c-.018-.408-.155-.912-.558-.982-.48-.083-.76.516-.868.991l-1.177 5.183a12.143 12.143 0 0 0-4.487-4.22c-.576-.312-1.442-.504-1.767.066-.233.409.011.916.257 1.317a45.315 45.315 0 0 0 2.385 3.504 17.2 17.2 0 0 0-4.877-.537c-.36.012-.801.097-.904.442-.111.37.266.69.594.894l2.902 1.8a30.95 30.95 0 0 0-5.25.36c-.312.048-.635.106-.894.288-.258.182-.43.525-.319.82.126.33.52.454.865.534l4.711 1.1a9.207 9.207 0 0 0-3.536 1.956c-.367.326-.736.77-.635 1.252.139.66 1 .824 1.673.785 1.73-.1 3.436-.61 4.936-1.48-.26.494-.516 1.02-.497 1.576s.415 1.142.972 1.173c.727.04 1.162-.777 1.409-1.462l3.93-10.894" style="opacity:.2"/><path d="M336.566 130.648c1.185-2.185 3.59-3.654 6.075-3.712l.633 1.17a64.724 64.724 0 0 0-6.506 9.659c-1.307-2.114-1.388-4.932-.202-7.117Z" style="fill:#263238"/><path d="M335.36 137.427c2.53-5.99 4.61-10.59 11.078-13.473l-.387.259c2.315-1.742 6.03-1.132 7.693.902 1.663 2.034 1.486 5.017.143 7.413-1.342 2.397-3.677 4.285-6.153 5.834a39.165 39.165 0 0 1-7.275 3.556c-1.58.58-3.519 1.02-4.759.109-1.379-1.013-1.006-3.022-.34-4.6Z" style="fill:#92e3a9"/><path d="M308.083 131.832c.486-.351 1.116-.41 1.71-.484.595-.075 1.23-.197 1.647-.629-.53-.493-1.298-.598-1.98-.838-.683-.24-1.393-.785-1.34-1.507.037-.505.461-.916.937-1.09s.999-.158 1.505-.13a42.1 42.1 0 0 1 13.21 2.922c.53.009 2.222 1.142 1.896 1.87-5.094 3.15-11.639 3.833-17.274 1.804-.232-.084-.471-.178-.637-.36-.404-.443-.16-1.207.326-1.558ZM330.481 142.04c-5.97 4.12-13.817 5.414-20.782 3.386-.627-.182-1.366-.542-1.376-1.195-.01-.698.812-1.065 1.493-1.215 6.69-1.467 13.884.572 20.41-1.504M344.772 121.061c1.234-4.388.546-9.282-1.85-13.16-.17-.273-.358-.552-.642-.703s-.688-.121-.865.147c-.118.177-.11.407-.093.62a16.956 16.956 0 0 0 2.349 7.358c.424.707.68 1.793.961 2.597.272.779.407 2.361.14 3.141" style="opacity:.1"/><path d="m408.781 171.283-3.05-1.967a155.442 155.442 0 0 1 38.913-41.311l2.144 2.927a151.846 151.846 0 0 0-38.007 40.351Z" style="fill:#263238"/><path d="M292.057 133.955h2.722v29.2h-2.722z" style="fill:#263238" transform="rotate(-62.032 293.418 148.555)"/><path d="m240.83 160.241-.893-2.572a200.535 200.535 0 0 1 35.358-8.762l.41 2.691a197.83 197.83 0 0 0-34.876 8.643ZM259.127 149.064a314.33 314.33 0 0 1-27.66-13.717l2.214-3.96a309.88 309.88 0 0 0 27.259 13.517l-1.813 4.16Z" style="fill:#263238"/><path d="M440.414 131.083s6.172-8.935 16.11-11.105c9.94-2.17 20.669 4.873 21.557 9.212.89 4.338-3.739 5.778-3.739 5.778s3.427 2.856 2.82 5.353c-.608 2.496-5.735 7.968-11.17 7.998-5.437.03-25.238-13.327-25.65-13.614-.413-.287.072-3.622.072-3.622Z" style="fill:#92e3a9"/><path d="M437.455 132.655s-8.601-6.63-10.25-16.668c-1.65-10.038 5.944-20.386 10.323-21.047s5.575 4.035 5.575 4.035 3.031-3.273 5.493-2.536c2.461.737 7.24 6.138 7.405 11.572.604 19.796-14.625 24.508-14.933 24.905-.308.397-3.613-.261-3.613-.261Z" style="fill:#92e3a9"/><path d="M443.853 133.912s17.99 6.353 18.679 20.722c.687 14.369-2.386 14.725-5.437 13.967s-5.28-.802-5.28-.802-.666 5.422-5.932 3.923c-5.266-1.5-7.97-5.595-11.582-13.194s3.385-22.956 5.094-24.705c0 0-.345-2.154 4.458.09Z" style="fill:#92e3a9"/><path d="M445.882 145.13s9.361 3.305 9.72 10.781c.357 7.477-1.242 7.662-2.83 7.268s-2.747-.418-2.747-.418-.347 2.822-3.087 2.042c-2.74-.78-4.147-2.912-6.026-6.865-1.879-3.954 1.761-11.945 2.65-12.855 0 0-.18-1.121 2.32.046Z" style="opacity:.1"/><path d="M436.361 132.879s-1.822-10.706-9.915-16.87c-8.092-6.163-20.793-4.308-23.43-.751-2.638 3.557.95 6.817.95 6.817s-4.313 1.142-4.816 3.662 1.833 9.644 6.748 11.967c4.915 2.323 28.505-1.425 29-1.511.495-.086 1.463-3.314 1.463-3.314Z" style="fill:#92e3a9"/><path d="M432.645 134.74s-18.991-1.836-25.681 10.898c-6.69 12.735-4.055 14.356-.97 14.957 3.086.6 5.125 1.502 5.125 1.502s-1.685 5.196 3.721 6.06 9.588-1.706 16.07-7.069c6.481-5.363 6.624-22.238 5.813-24.546 0 0 1.223-1.806-4.078-1.801Z" style="fill:#92e3a9"/><path d="M429.293 131.75a7.96 7.96 0 1 0 15.916.319 7.96 7.96 0 0 0-15.916-.32Z" style="fill:#92e3a9"/><path d="M436.985 123.876s-6.54-8.687-2.338-15.727c4.202-7.04 5.773-6.24 6.983-4.918s2.254 2.045 2.254 2.045 2.025-2.365 4.053.007c2.028 2.371 2.022 5.169 1.342 9.915s-8.843 9.833-10.206 10.125c0 0-.514 1.132-2.088-1.447ZM452.138 129.936s7.847-5.84 14.158-2.024c6.31 3.816 5.584 5.225 4.389 6.307-1.195 1.081-1.851 2.017-1.851 2.017s2.116 1.834-.027 3.646c-2.143 1.812-4.66 1.792-8.925 1.156s-8.8-8.003-9.057-9.23c0 0-1.015-.47 1.313-1.872Z" style="opacity:.1"/><path d="M431.13 135.15a31.314 31.314 0 0 1-8.876-3.267 19.529 19.529 0 0 1 10.064.841l-5.816-6.456c-.217-.242-.449-.572-.303-.862.143-.283.534-.3.85-.27 3.964.386 6.987 2.169 9.709 5.076.377-2.277.727-5.447 2.897-6.966.67-.47 1.757-.714 2.183-.014.321.53.005 1.197-.245 1.763a7.88 7.88 0 0 0-.276 5.578 37.496 37.496 0 0 1 6.826-.985c.675-.035 1.556.1 1.686.764.14.71-.728 1.154-1.425 1.345-2.31.634-4.385 2.149-6.696 2.782 2.007.696 4.027 1.397 5.866 2.458.761.44 1.494.947 2.16 1.524.872.755.095 2.163-1.003 1.811l-7.617-2.438c1.555 1.16 2.63 2.908 3.058 4.797.309 1.368-1.345 2.308-2.332 1.312a29.344 29.344 0 0 1-4.238-5.414l-3.208 4.836c-.262.395-.607.835-1.08.82-.674-.02-.927-.885-.964-1.558-.099-1.79-.015-3.592.25-5.366l-4.829 3.755c-.188.146-.384.297-.616.349-.515.114-1.03-.322-1.162-.832-.132-.51.033-1.051.266-1.524.937-1.9 2.905-3.066 4.87-3.859Z" style="opacity:.2"/><path d="M436.924 134.904c5.064.117 9.566 3.963 11.28 8.601-2.76-4.12-6.402-7.335-11.28-8.601ZM436.924 134.904a60.562 60.562 0 0 0-14.36-4.2c5.038-.27 10.26 1.262 14.36 4.2ZM436.924 134.904c-2.288-5-5.53-9.419-8.929-13.712 4.178 3.556 7.634 8.325 8.93 13.712Z" style="fill:#263238"/><path d="M436.924 134.904c3.334-3.777 8.071-6.65 13.109-7.309-4.772 1.72-9.03 4.317-13.109 7.309ZM436.71 134.9c3.533 3.712 4.926 9.407 3.973 14.392-.165-5.084-1.335-10.012-3.972-14.393ZM427.666 147.563c.675-5.315 4.516-10.003 9.044-12.664-3.854 3.526-7.324 7.667-9.044 12.664Z" style="fill:#263238"/><path d="M426.545 147.53a1.216 1.216 0 1 0 2.43.049 1.216 1.216 0 0 0-2.43-.049ZM427.021 121.104a1.216 1.216 0 1 0 2.431.049 1.216 1.216 0 0 0-2.43-.049ZM448.594 127.767a1.216 1.216 0 1 0 2.431.05 1.216 1.216 0 0 0-2.43-.05ZM447.455 132.2a.87.87 0 1 0 1.74.034.87.87 0 0 0-1.74-.035ZM439.546 121.701a.87.87 0 1 0 1.74.035.87.87 0 0 0-1.74-.035ZM439.916 148.613a.815.815 0 1 0 1.63.033.815.815 0 0 0-1.63-.032ZM431.749 146.634a.608.608 0 1 0 1.215.024.608.608 0 0 0-1.215-.024ZM421.957 130.691a.608.608 0 1 0 1.216.025.608.608 0 0 0-1.216-.025ZM447.597 143.493a.608.608 0 1 0 1.216.024.608.608 0 0 0-1.216-.024Z" style="fill:#fff"/><path d="M437.221 134.756c-.417-4.363.71-9.01 3.187-12.639-1.843 3.986-2.883 8.263-3.187 12.64Z" style="fill:#263238"/><g style="opacity:.2"><path d="M423.212 135.175c-6.165 2.353-11.352 6.22-15.38 11.445 2.732-6.004 8.847-10.547 15.38-11.445Z" style="fill:#fff"/></g><g style="opacity:.2"><path d="M434.462 98.98c-3.639 5.504-5.601 11.669-5.83 18.262-1.277-6.471 1.045-13.726 5.83-18.262Z" style="fill:#fff"/></g><g style="opacity:.2"><path d="M463.687 120.991c-6.598.102-12.794 1.962-18.366 5.495 4.621-4.707 11.92-6.885 18.366-5.495Z" style="fill:#fff"/></g><g style="opacity:.2"><path d="M461.944 155.73c-1.846-6.336-5.28-11.818-10.163-16.256 5.763 3.21 9.797 9.671 10.163 16.255Z" style="fill:#fff"/></g><path d="M428.906 143.322s1.316 9.84-5.179 13.561c-6.494 3.721-7.387 2.382-7.758.789-.372-1.593-.879-2.637-.879-2.637s-2.67.976-3.222-1.82c-.552-2.794.705-5.018 3.37-8.49 2.666-3.472 11.438-3.867 12.653-3.49 0 0 .917-.67 1.015 2.087ZM425.747 128.83s-6.54 7.47-13.617 5.03-6.656-3.993-5.702-5.321 1.407-2.397 1.407-2.397-2.492-1.368-.752-3.624c1.74-2.255 4.242-2.773 8.61-3.052 4.368-.28 10.441 6.064 10.957 7.227 0 0 1.107.249-.903 2.137Z" style="opacity:.1"/><path d="M309.865 165.884c-.76 4.428-3.275 8.404-6.397 11.635-3.123 3.23-6.85 5.801-10.551 8.35-2.565 1.766-5.275 3.588-8.373 3.907-2.323.24-4.657-.4-6.801-1.326-2.673-1.154-5.311-2.959-6.277-5.705-1.08-3.067.274-6.583 2.577-8.878 2.303-2.296 5.398-3.596 8.462-4.685 8.945-3.182 18.488-5.048 27.947-4.233" style="fill:#92e3a9"/><path d="M309.635 160.829c-7.479-5.615-16.843-8.67-26.194-8.549-3.46.045-6.992.537-10.06 2.138-3.067 1.6-5.62 4.45-6.212 7.859s1.15 7.267 4.37 8.535c2.266.892 4.812.455 7.206.006 10.636-1.997 21.524-4.086 30.816-9.633" style="fill:#92e3a9"/><path d="M290.274 164.081a17.018 17.018 0 0 1 5.355-.978 7.502 7.502 0 0 1-5.56-2.771 9.193 9.193 0 0 1 5.558-.627c-1.42-.727-2.416-2.22-2.545-3.809 5.69 1.26 10.66 5.416 12.907 10.794l-2.81 4.078a11.841 11.841 0 0 1-3.403 6.53c-.648.629-1.5 1.218-2.384 1.037-1.467-.301-1.722-2.352-1.207-3.758.515-1.406 1.463-2.789 1.187-4.26-.849-.005-1.616.474-2.325.943-.709.468-1.464.96-2.313.983-.85.024-1.776-.642-1.689-1.488.063-.612.596-1.052 1.088-1.422 1.65-1.24 3.3-2.481 4.948-3.722a24.45 24.45 0 0 1-6.497-.018c-.502-.07-1.142-.324-1.087-.828.04-.362.433-.562.777-.684Z" style="opacity:.2"/><path d="M302.559 155.943c-2.26-5.491-8.31-9.166-14.226-8.639-3.916.349-7.48 2.307-10.914 4.222-.84.47-1.696.95-2.344 1.661-.648.712-1.064 1.706-.845 2.643.294 1.258 1.584 2.008 2.812 2.409 4.008 1.31 8.377.473 12.461-.577 4.085-1.049 8.252-2.313 12.44-1.819M292.09 190.776c-.089-.476.207-.93.49-1.321a154.201 154.201 0 0 1 13.467-16.218l3.998-2.536c1.416 2.315.901 5.328-.132 7.838-2.669 6.48-8.63 11.503-15.471 13.031-.907.203-2.183.12-2.352-.794Z" style="fill:#92e3a9"/><path d="M302.775 164.048a40.944 40.944 0 0 0-12.056.25c3.85-1.293 8.155-1.38 12.056-.25ZM301.604 165.128c-1.65 3.296-4.989 5.389-8.228 6.902 2.95-2.083 6.046-3.959 8.228-6.902ZM303.356 166.112c-.33 4.83-4.344 8.362-8.063 10.94 3.35-3.115 7.092-6.24 8.063-10.94ZM301.664 164.765a84.091 84.091 0 0 1-11.096 5.762 84.11 84.11 0 0 1 11.096-5.762ZM304.026 163.403a28.838 28.838 0 0 0-14.061-2.702c4.768-.928 9.975.075 14.061 2.702Z" style="fill:#263238"/><path d="M290.726 163.39c.655.153.98 1.069.569 1.6-.412.533-1.38.449-1.693-.146-.313-.596.165-1.441.837-1.479M293.626 170.98c.656.154.981 1.069.57 1.601s-1.38.449-1.693-.147c-.313-.595.165-1.44.837-1.478M290.7 169.579c.466.109.697.76.404 1.138-.292.378-.98.318-1.203-.105s.118-1.024.595-1.05M297.001 172.06c.466.108.697.759.405 1.137-.293.379-.98.319-1.204-.104-.222-.424.118-1.024.595-1.051M295.975 176.216c.466.109.697.76.405 1.138-.293.378-.98.318-1.203-.105-.223-.423.117-1.024.595-1.05M290.142 160.007c.466.108.697.759.405 1.137-.293.379-.98.319-1.203-.104-.223-.424.117-1.024.595-1.051" style="fill:#fff"/><path d="M296.43 157.403c1.15-1.761 3.634-1.891 5.736-1.833 3.31.7 5.157 1.002 7.558 3.387s3.726 6.05 2.666 9.263c-.632 1.914-2.01 3.482-3.438 4.906-.865.863-1.902 1.751-3.122 1.702-1.528-.06-2.566-1.524-3.356-2.834l-4.913-8.136c-.597-.99-1.201-1.995-1.501-3.111-.3-1.116-.261-2.377.37-3.344Z" style="opacity:.3"/><path d="M304.104 155.024c3.311.7 5.158 1.002 7.558 3.388 2.4 2.385 3.727 6.049 2.667 9.262-.632 1.915-2.011 3.482-3.438 4.906-.865.863-1.902 1.751-3.123 1.703-1.528-.062-2.565-1.525-3.356-2.834l-4.912-8.137c-.597-.99-1.202-1.995-1.502-3.11-.3-1.117-.26-2.377.371-3.345 1.15-1.76 3.634-1.89 5.735-1.833" style="fill:#92e3a9"/><path d="M273.556 162.2c.273-.74.704-1.261 1.149-1.696 1.956-1.912 4.33-2.44 6.65-2.178 2.32.262 4.613 1.27 6.89 2.274l-2.401 2.923c-3.168 2.248-6.672 3.258-10.187 2.937-.835-.076-1.826-.399-2.217-1.7-.247-.822-.157-1.82.116-2.56ZM293.161 176.219c-1.18 1.934-2.372 3.884-3.93 5.528-1.559 1.645-3.532 2.982-5.761 3.389-1.625.296-3.403.052-4.72-.944s-2.05-2.82-1.512-4.382c-1.064-.172-1.476-1.641-.965-2.59.512-.948 1.58-1.444 2.605-1.777 2.77-.898 5.715-1.064 8.622-1.224 1.705-.093 3.587-.132 4.906.952M306.559 177.235a21.285 21.285 0 0 1-7.52 9.608c-.321.226-.669.45-1.06.474-.391.024-.827-.233-.858-.624-.022-.27.145-.516.307-.734a41.342 41.342 0 0 1 9.299-9.082" style="opacity:.1"/><path d="M228.72 132.963c-3.675.72-7.518-.057-10.962-1.53-3.443-1.474-6.553-3.615-9.636-5.741-2.137-1.474-4.36-3.044-5.529-5.363-.876-1.738-1.07-3.747-.986-5.692.106-2.424.729-5.015 2.581-6.583 2.07-1.75 5.21-1.74 7.681-.627s4.403 3.138 6.162 5.2c5.133 6.025 9.42 12.904 11.592 20.515" style="fill:#92e3a9"/><path d="M232.59 131.283c2.154-7.493 1.755-15.694-1.115-22.942-1.062-2.682-2.494-5.288-4.651-7.202s-5.135-3.058-7.966-2.507c-2.832.55-5.32 3.052-5.352 5.937-.023 2.03 1.073 3.884 2.134 5.616 4.712 7.692 9.572 15.553 16.65 21.146" style="fill:#92e3a9"/><path d="M224.31 117.166a14.186 14.186 0 0 1 2.351 3.881 6.254 6.254 0 0 1 .509-5.154 7.663 7.663 0 0 1 2.138 4.144 4 4 0 0 1 2.211-3.113c.708 4.807-1.054 9.912-4.577 13.258l-4.01-.98a9.871 9.871 0 0 1-6.097-.712c-.683-.317-1.395-.806-1.516-1.549-.2-1.232 1.32-2.039 2.57-2.055 1.247-.016 2.606.312 3.67-.34-.248-.663-.85-1.118-1.424-1.531-.576-.413-1.183-.856-1.453-1.51-.27-.655-.027-1.574.658-1.757.495-.133.997.152 1.43.425l4.369 2.75a20.385 20.385 0 0 1-1.914-5.067c-.096-.412-.088-.986.321-1.093.295-.077.567.171.764.403Z" style="opacity:.2"/><path d="M234.296 124.32c3.607-3.39 4.673-9.194 2.507-13.645-1.434-2.947-4.017-5.143-6.528-7.25-.615-.515-1.244-1.039-1.99-1.332-.747-.294-1.645-.323-2.31.126-.892.602-1.093 1.83-1.042 2.905.17 3.512 2.119 6.666 4.148 9.537 2.03 2.87 4.252 5.741 5.11 9.15M204.054 126.504c.344-.21.785-.115 1.174-.01a128.552 128.552 0 0 1 16.631 5.677l3.162 2.361c-1.383 1.79-3.883 2.284-6.144 2.224-5.841-.155-11.523-3.31-14.744-8.184-.427-.646-.74-1.665-.079-2.068Z" style="fill:#92e3a9"/><path d="M228.046 126.894a38.035 38.035 0 0 0-3.773-9.317c2.194 2.584 3.548 5.936 3.773 9.317ZM226.857 126.302c-3.068-.255-5.715-2.247-7.818-4.36 2.533 1.64 4.89 3.483 7.818 4.36ZM226.61 127.96c-3.848 1.235-7.836-.855-10.915-3.034 3.453 1.636 6.961 3.614 10.916 3.033ZM227.158 126.241a58.486 58.486 0 0 1-7.783-6.933 58.473 58.473 0 0 1 7.783 6.933ZM228.92 127.677a25.38 25.38 0 0 0-2.069-11.755c2.19 3.414 2.959 7.8 2.069 11.755Z" style="fill:#263238"/><path d="M224.982 117.313c.075.556-.54 1.08-1.078.918-.537-.162-.758-.941-.387-1.362.37-.421 1.17-.3 1.4.213M219.93 121.825c.076.556-.54 1.081-1.078.919-.537-.163-.758-.942-.387-1.362.37-.421 1.171-.3 1.4.213M220.154 119.13c.053.395-.385.768-.767.652-.381-.115-.539-.669-.275-.968.263-.3.832-.212.995.152M220.091 124.774c.054.395-.384.769-.766.653-.381-.115-.539-.669-.275-.968.263-.3.832-.213.995.151M216.55 125.209c.053.395-.386.768-.767.653s-.54-.67-.276-.968c.264-.3.833-.213.996.151M227.445 115.854c.053.395-.385.768-.766.653-.382-.116-.54-.67-.276-.968.264-.3.833-.213.995.151" style="fill:#fff"/><path d="M231.34 119.98c1.713.372 2.551 2.269 3.13 3.923.437 2.787.75 4.316-.396 6.893-1.145 2.578-3.606 4.699-6.424 4.827-1.679.076-3.31-.533-4.842-1.222-.929-.418-1.929-.962-2.253-1.927-.406-1.209.426-2.451 1.212-3.456l4.88-6.241c.593-.76 1.197-1.529 1.978-2.094.78-.565 1.773-.908 2.715-.703Z" style="opacity:.3"/><path d="M235.47 125.252c.438 2.786.75 4.315-.395 6.892s-3.607 4.699-6.424 4.827c-1.68.076-3.31-.533-4.842-1.222-.93-.418-1.93-.962-2.253-1.927-.406-1.209.426-2.451 1.211-3.456l4.88-6.241c.594-.76 1.198-1.529 1.978-2.094s1.774-.908 2.715-.703c1.713.372 2.552 2.269 3.13 3.924" style="fill:#92e3a9"/><path d="M220.813 103.585c.658-.007 1.191.174 1.662.391 2.07.956 3.186 2.649 3.67 4.534.485 1.885.38 3.97.274 6.043l-2.99-1.004c-2.69-1.8-4.518-4.23-5.31-7.063-.19-.674-.232-1.542.666-2.232.567-.437 1.371-.663 2.028-.67ZM215.712 123.018c-1.857-.345-3.73-.695-5.474-1.421-1.743-.726-3.37-1.866-4.35-3.482-.712-1.178-1.05-2.635-.665-3.957s1.589-2.434 2.965-2.478c-.182-.88.84-1.637 1.731-1.52.891.116 1.594.8 2.157 1.5 1.522 1.892 2.526 4.137 3.513 6.354.579 1.3 1.168 2.755.715 4.104M218.896 133.756a17.744 17.744 0 0 1-9.716-3.007c-.271-.182-.55-.386-.684-.684-.134-.298-.064-.713.231-.854.205-.098.446-.04.664.022a34.464 34.464 0 0 1 9.835 4.547" style="opacity:.1"/><path d="M231.077 167.233s-1.36 3.34-3.646 5.364c-2.286 2.023-10.1 3.316-11.62 1.382-1.52-1.935-.918-2.668-.918-2.668s-2.285-.81-2.635-2.588c-.35-1.778-.25-2.778 3.258-5.899 3.509-3.121 5.178-4.258 7.124-3.881s10.443 4.42 10.443 4.42l-2.006 3.87Z" style="fill:#92e3a9"/><path d="M231.077 167.233s-1.36 3.34-3.646 5.364c-2.286 2.023-10.1 3.316-11.62 1.382-1.52-1.935-.918-2.668-.918-2.668s-2.285-.81-2.635-2.588c-.35-1.778-.25-2.778 3.258-5.899 3.509-3.121 5.178-4.258 7.124-3.881s10.443 4.42 10.443 4.42l-2.006 3.87Z" style="opacity:.3"/><path d="M221.919 162.908s-8.144-2.043-8.658-3.541c-.514-1.499.641-2.9.641-2.9s-1.065-1.048.814-2.512c1.88-1.464 5.903-2.434 8.221-1.853 2.318.58 7.723 4.83 7.723 4.83l-8.741 5.976Z" style="fill:#92e3a9"/><path d="M221.919 162.908s-8.144-2.043-8.658-3.541c-.514-1.499.641-2.9.641-2.9s-1.065-1.048.814-2.512c1.88-1.464 5.903-2.434 8.221-1.853 2.318.58 7.723 4.83 7.723 4.83l-8.741 5.976Z" style="opacity:.2"/><path d="M235.682 167.576s.14 3.556-3.029 7.118c-3.169 3.562-5.99 4.651-6.679 2.761s-1.704-3.372.56-5.596c2.262-2.224 9.148-4.283 9.148-4.283Z" style="fill:#92e3a9"/><path d="M235.682 167.576s.14 3.556-3.029 7.118c-3.169 3.562-5.99 4.651-6.679 2.761s-1.704-3.372.56-5.596c2.262-2.224 9.148-4.283 9.148-4.283Z" style="opacity:.2"/><path d="M236.872 161.612s.175 4.696-2.365 7.599c-2.54 2.903-9.854 3.603-11.208 2.037-1.355-1.565.511-2.665.511-2.665s-2.585.487-2.5-1.92c.086-2.408 1.204-2.387 1.519-2.635.315-.249 9.355-5.165 11.825-4.303 2.47.862 2.218 1.887 2.218 1.887Z" style="fill:#92e3a9"/><path d="M236.872 161.612s.175 4.696-2.365 7.599c-2.54 2.903-9.854 3.603-11.208 2.037-1.355-1.565.511-2.665.511-2.665s-2.585.487-2.5-1.92c.086-2.408 1.204-2.387 1.519-2.635.315-.249 9.355-5.165 11.825-4.303 2.47.862 2.218 1.887 2.218 1.887Z" style="opacity:.1"/><path d="M235.29 159.523c-.247.064-4.13 2.976-7.943 3.736-3.813.76-11.729-2.522-7.637-6.167 0 0-2.178-1.527.124-3.558 2.302-2.03 3.712-1.77 8.246-1.095 4.535.674 7.21 7.084 7.21 7.084Z" style="fill:#92e3a9"/><path d="M242.4 157.636c.568.86.175 2.037-.735 2.522-1.41.75-3.649 1.969-3.827 2.234-.261.39-.893 4.502-1.464 4.206-.396-.205.716-2.962-.619-2.092s-2.85.44-1.615-.694 1.837-1.875 1.837-1.875-6.05-.25-4.597-1.73c1.454-1.48 3.252-.966 3.252-.966s-2.757-2.843-2.006-3.385c.75-.542 1.662 2.132 3.59 2.02 1.928-.112 4.643-1.08 5.669-.678.22.086.388.243.516.438Z" style="fill:#263238"/><path d="M407.583 185.569s1.831 4.993 1.347 9.468-7.723 13.642-11.3 13.04c-3.578-.601-3.65-1.998-3.65-1.998s-3.296 1.384-5.442-.208c-2.146-1.592-3.03-2.78-2.3-9.667.728-6.886 1.42-9.782 3.916-11.303 2.498-1.521 15.776-5.542 15.776-5.542l1.653 6.21Z" style="fill:#92e3a9"/><path d="M407.583 185.569s1.831 4.993 1.347 9.468-7.723 13.642-11.3 13.04c-3.578-.601-3.65-1.998-3.65-1.998s-3.296 1.384-5.442-.208c-2.146-1.592-3.03-2.78-2.3-9.667.728-6.886 1.42-9.782 3.916-11.303 2.498-1.521 15.776-5.542 15.776-5.542l1.653 6.21Z" style="opacity:.3"/><path d="M393.303 189.942s-10.91 5.854-12.957 4.73c-2.048-1.124-2.177-3.798-2.177-3.798s-2.204-.086-1.607-3.548c.597-3.461 4.022-8.513 7.127-10.18 3.104-1.667 13.216-2.397 13.216-2.397l-3.602 15.193Z" style="fill:#92e3a9"/><path d="M393.303 189.942s-10.91 5.854-12.957 4.73c-2.048-1.124-2.177-3.798-2.177-3.798s-2.204-.086-1.607-3.548c.597-3.461 4.022-8.513 7.127-10.18 3.104-1.667 13.216-2.397 13.216-2.397l-3.602 15.193Z" style="opacity:.2"/><path d="M412.945 181.373s3.682 3.74 3.761 10.769c.08 7.029-1.917 11.017-4.543 9.64-2.626-1.379-5.205-1.986-4.944-6.658.26-4.672 5.726-13.75 5.726-13.75Z" style="fill:#92e3a9"/><path d="M412.945 181.373s3.682 3.74 3.761 10.769c.08 7.029-1.917 11.017-4.543 9.64-2.626-1.379-5.205-1.986-4.944-6.658.26-4.672 5.726-13.75 5.726-13.75Z" style="opacity:.2"/><path d="M408.325 173.688s4.851 4.948 4.962 10.634c.11 5.686-7.17 13.71-10.201 13.346-3.032-.364-2.088-3.415-2.088-3.415s-2.336 3.098-4.632.387c-2.297-2.71-1.056-3.797-.96-4.38.097-.584 5.078-14.917 8.627-16.43 3.55-1.511 4.292-.142 4.292-.142Z" style="fill:#92e3a9"/><path d="M408.325 173.688s4.851 4.948 4.962 10.634c.11 5.686-7.17 13.71-10.201 13.346-3.032-.364-2.088-3.415-2.088-3.415s-2.336 3.098-4.632.387c-2.297-2.71-1.056-3.797-.96-4.38.097-.584 5.078-14.917 8.627-16.43 3.55-1.511 4.292-.142 4.292-.142Z" style="opacity:.1"/><path d="M404.526 172.98c-.206.314-1.552 7.345-4.956 11.957-3.403 4.612-15.293 8.89-14.448.854 0 0-3.891.496-3.396-4.003.495-4.5 2.292-5.614 7.906-9.38 5.614-3.765 14.894.571 14.894.571Z" style="fill:#92e3a9"/><path d="M410.407 163.864c1.474.376 2.213 2.05 1.7 3.481-.793 2.219-2.024 5.768-1.955 6.234.101.684 3.494 5.796 2.577 6.04-.635.17-2.158-3.94-2.75-1.667-.592 2.274-2.673 3.308-2.45.846.221-2.462.142-3.868.142-3.868s-6.847 5.733-6.73 2.676c.117-3.057 2.587-4.28 2.587-4.28s-5.828-.365-5.547-1.701c.28-1.336 3.928.675 5.92-1.361s3.992-5.786 5.51-6.366c.324-.124.664-.119.996-.034Z" style="fill:#263238"/><path d="M266.645 132.07s-3.696.976-3.955 2.593c-.26 1.617 1.705 4.766 3.99 5.035 2.286.27 6.846-.415 6.846-.415l-6.881-7.212Z" style="fill:#92e3a9"/><path d="M266.645 132.07s-3.696.976-3.955 2.593c-.26 1.617 1.705 4.766 3.99 5.035 2.286.27 6.846-.415 6.846-.415l-6.881-7.212Z" style="opacity:.2"/><path d="M264.533 131.688c.2-.214 2.67-2.769 4.906-2.354s6.572 1.502 7.827 2.914c1.255 1.412 1.993 3.718 2.215 5.164.223 1.445-1.275 3.044-1.275 3.044s-11.456-5.067-11.817-5.377-2.302-2.916-1.856-3.392Z" style="fill:#92e3a9"/><path d="M264.533 131.688c.2-.214 2.67-2.769 4.906-2.354s6.572 1.502 7.827 2.914c1.255 1.412 1.993 3.718 2.215 5.164.223 1.445-1.275 3.044-1.275 3.044s-11.456-5.067-11.817-5.377-2.302-2.916-1.856-3.392Z" style="opacity:.1"/><path d="M265.785 137.487c.12.334 1.012 4.13 4.005 4.735s6.4.728 8.604-.767c2.204-1.496-1.337-6.334-5.346-7.266-4.008-.932-6.16.65-6.66.89-.498.24-1.11 1.001-.603 2.408Z" style="fill:#92e3a9"/><path d="M279.307 136.448c-.026.535 1.306 1.325 2.137 1.835.716.439 2.9 2.675 2.542 4.1s-1.762 2.965-3.514 1.716c-1.984-1.415-4.275-1.72-4.275-1.72l2.14-2.495.97-3.436Z" style="fill:#263238"/><path d="M184.337 146.607s-4.34 5.935-2.767 8.665c1.572 2.73 8.323 5.054 12.064 2.687 3.74-2.368 9.724-8.918 9.724-8.918l-19.021-2.434Z" style="fill:#92e3a9"/><path d="M184.337 146.607s-4.34 5.935-2.767 8.665c1.572 2.73 8.323 5.054 12.064 2.687 3.74-2.368 9.724-8.918 9.724-8.918l-19.021-2.434Z" style="opacity:.2"/><path d="M180.718 148.593c.04-.56.633-7.37 4.477-9.46 3.843-2.092 11.638-5.721 15.224-5.133 3.586.589 7.484 3.14 9.568 5.03 2.084 1.89 1.784 6.094 1.784 6.094s-23.256 6.312-24.17 6.287c-.916-.026-6.973-1.565-6.883-2.818Z" style="fill:#92e3a9"/><path d="M180.718 148.593c.04-.56.633-7.37 4.477-9.46 3.843-2.092 11.638-5.721 15.224-5.133 3.586.589 7.484 3.14 9.568 5.03 2.084 1.89 1.784 6.094 1.784 6.094s-23.256 6.312-24.17 6.287c-.916-.026-6.973-1.565-6.883-2.818Z" style="opacity:.1"/><path d="M189.616 155.74c.584.354 6.518 4.945 11.723 2.22s10.443-6.67 11.923-11.574c1.48-4.904-9.673-7.84-16.79-4.375-7.119 3.465-8.418 8.435-8.872 9.4-.454.964-.444 2.841 2.016 4.33Z" style="fill:#92e3a9"/><path d="M208.559 137.8c.61.83 3.556.398 5.415.152 1.602-.212 7.574.482 8.768 3.044 1.193 2.563.96 6.565-3.171 6.822-4.678.29-8.472 2.612-8.472 2.612l.175-6.321-2.715-6.308Z" style="fill:#263238"/><path d="M366.902 144.549h29.201v2.722h-29.201z" style="fill:#263238" transform="rotate(-20.498 381.503 145.91)"/><path d="M352.811 158.772s-3.537-1.448-3.584-3.085c-.047-1.637 2.31-4.504 4.612-4.473 2.301.03 6.734 1.302 6.734 1.302l-7.762 6.256Z" style="fill:#92e3a9"/><path d="M352.811 158.772s-3.537-1.448-3.584-3.085c-.047-1.637 2.31-4.504 4.612-4.473 2.301.03 6.734 1.302 6.734 1.302l-7.762 6.256Z" style="opacity:.2"/><path d="M350.668 158.877c.17.237 2.286 3.092 4.558 2.972 2.271-.12 6.711-.635 8.14-1.871 1.427-1.237 2.459-3.428 2.868-4.832.408-1.404-.87-3.185-.87-3.185s-12.017 3.535-12.415 3.795c-.399.26-2.662 2.59-2.281 3.12Z" style="fill:#92e3a9"/><path d="M350.668 158.877c.17.237 2.286 3.092 4.558 2.972 2.271-.12 6.711-.635 8.14-1.871 1.427-1.237 2.459-3.428 2.868-4.832.408-1.404-.87-3.185-.87-3.185s-12.017 3.535-12.415 3.795c-.399.26-2.662 2.59-2.281 3.12Z" style="opacity:.1"/><path d="M352.663 153.29c.162-.316 1.54-3.964 4.588-4.174s6.44.11 8.43 1.88c1.991 1.77-2.15 6.105-6.245 6.508s-6.024-1.445-6.487-1.748c-.464-.303-.97-1.137-.286-2.467Z" style="fill:#92e3a9"/><path d="M365.936 156.079c.043-.534 1.466-1.144 2.357-1.541.767-.342 3.223-2.275 3.054-3.735-.169-1.46-1.362-3.169-3.261-2.158-2.151 1.144-4.463 1.15-4.463 1.15l1.798 2.751.515 3.533Z" style="fill:#263238"/><path d="M403.472 84.55s2.255-3.086 3.855-2.738c1.6.348 3.817 3.325 3.235 5.551-.583 2.227-2.883 6.224-2.883 6.224l-4.207-9.037Z" style="fill:#92e3a9"/><path d="M403.472 84.55s2.255-3.086 3.855-2.738c1.6.348 3.817 3.325 3.235 5.551-.583 2.227-2.883 6.224-2.883 6.224l-4.207-9.037Z" style="opacity:.2"/><path d="M403.885 82.444c-.272.108-3.551 1.476-3.98 3.71-.43 2.234-.997 6.667-.14 8.35.858 1.684 2.737 3.212 4.001 3.946 1.265.734 3.3-.078 3.3-.078s-.543-12.515-.7-12.964c-.157-.45-1.875-3.207-2.481-2.964Z" style="fill:#92e3a9"/><path d="M403.885 82.444c-.272.108-3.551 1.476-3.98 3.71-.43 2.234-.997 6.667-.14 8.35.858 1.684 2.737 3.212 4.001 3.946 1.265.734 3.3-.078 3.3-.078s-.543-12.515-.7-12.964c-.157-.45-1.875-3.207-2.481-2.964Z" style="opacity:.1"/><path d="M408.83 85.723c.266.234 3.476 2.448 2.948 5.456-.528 3.008-1.655 6.225-3.85 7.732-2.196 1.507-5.41-3.553-4.818-7.626s2.85-5.5 3.256-5.877c.406-.377 1.337-.669 2.463.315Z" style="fill:#92e3a9"/><path d="M402.933 97.937c.507.17.757 1.698.929 2.658.148.827 1.434 3.676 2.892 3.862s3.403-.56 2.878-2.647c-.594-2.363-.043-4.608-.043-4.608l-3.103 1.084-3.553-.35Z" style="fill:#263238"/><path d="M454.125 194.76c3.099 2.206 6.318 4.552 8.003 7.963 1.684 3.411 1.222 8.207-2.021 10.195-1.382.847-3.089 1.098-4.383 2.073-.95.717-1.596 1.765-2.475 2.568-2.255 2.06-6.074 2.095-8.366.077-1.74-1.53-2.492-3.882-2.955-6.152-.643-3.151-1.42-8.652-1.52-11.763-.095-2.97-.552-6.059 3.006-8.596 2.419-1.725 5.298.122 10.711 3.634M244.247 195.813c-1.409 3.152-2.919 6.436-5.652 8.546s-7.082 2.558-9.432.028c-1-1.077-1.53-2.55-2.629-3.527-.808-.718-1.856-1.104-2.728-1.742-2.236-1.637-2.951-5.028-1.567-7.43 1.05-1.82 3.007-2.912 4.944-3.73 2.688-1.136 7.443-2.813 10.192-3.459 2.625-.617 5.291-1.577 8.186 1.134 1.968 1.842.84 4.734-1.314 10.18M330.493 247.954c.95-1.687 2.741-2.781 4.618-3.256 1.878-.475 3.85-.396 5.776-.198 7.53.774 15.722 3.193 22.086 7.29l-1.784 1.189c-4.432 3.969-10.535 5.51-16.457 6.078-3.711.356-7.676.327-10.878-1.582-3.201-1.909-5.19-6.273-3.361-9.52Z" style="fill:#92e3a9"/><path d="M362.973 251.79c-7.25 8.412-19.872 11.708-30.31 7.914-1.153-.42-2.328-.953-3.08-1.923-.752-.97-.925-2.489-.079-3.377.725-.762 1.896-.83 2.947-.85 9.728-.172 20.794-1.592 30.522-1.765" style="fill:#92e3a9"/><path d="M362.973 251.79c-7.25 8.412-19.872 11.708-30.31 7.914-1.153-.42-2.328-.953-3.08-1.923-.752-.97-.925-2.489-.079-3.377.725-.762 1.896-.83 2.947-.85 9.728-.172 20.794-1.592 30.522-1.765" style="opacity:.2"/></svg>