<svg xmlns="http://www.w3.org/2000/svg" viewBox="0 0 750 500" opacity="0.1"><g id="freepik--background-simple--inject-302"><path d="M630.08,65.49C580.37,35.83,524,23.54,467.58,15.83a414.13,414.13,0,0,0-231.22,35.8C215.93,61.28,196.2,78.54,173.94,83L196.3,51.37c4.3-6.08,8.53-14.8,3.56-20.33-2-2.26-5.11-3.2-8.09-3.64-11.51-1.72-23.06,2.51-33.5,7.71-48.1,24-87.38,68.63-117.24,112.83C-8.26,220.87-2.78,340.58,53.54,399.24s176.8,87.21,226.86,80.87c38-4.82-2.94-27.71-11.35-41.59a7.24,7.24,0,0,1-1.36-4c.1-2.43,2.29-4.17,4.36-5.39,17.36-10.23,39.56-7.22,58.78-8.75a787.49,787.49,0,0,1,92-2.3c4.16.16,52.21,1.32,48.4,11.25-3,7.89-15,14.27-21.23,19.1-4.82,3.7-36,25.19-27,32.53,2.49,2,5.86,2.44,9,2.76,52.63,5.17,106.8,3.58,158.63-7.54,45.14-9.69,95-25.44,121.89-66.36,27.47-41.72,29.15-97.45,18.67-145a232.45,232.45,0,0,0-9.92-33.3c-3.85-10-10-18.5-15.07-27.87-2.06-3.78-3.48-8.34-2-12.39,6.54-17.85,25.54,17.76,30.72-1.37,2.51-9.28-2.34-23.06-5.41-31.82-5.55-15.8-14.94-30-26.18-42.23C681.93,92.51,656.46,81.24,630.08,65.49Z" style="fill:#92E3A9"></path><path d="M630.08,65.49C580.37,35.83,524,23.54,467.58,15.83a414.13,414.13,0,0,0-231.22,35.8C215.93,61.28,196.2,78.54,173.94,83L196.3,51.37c4.3-6.08,8.53-14.8,3.56-20.33-2-2.26-5.11-3.2-8.09-3.64-11.51-1.72-23.06,2.51-33.5,7.71-48.1,24-87.38,68.63-117.24,112.83C-8.26,220.87-2.78,340.58,53.54,399.24s176.8,87.21,226.86,80.87c38-4.82-2.94-27.71-11.35-41.59a7.24,7.24,0,0,1-1.36-4c.1-2.43,2.29-4.17,4.36-5.39,17.36-10.23,39.56-7.22,58.78-8.75a787.49,787.49,0,0,1,92-2.3c4.16.16,52.21,1.32,48.4,11.25-3,7.89-15,14.27-21.23,19.1-4.82,3.7-36,25.19-27,32.53,2.49,2,5.86,2.44,9,2.76,52.63,5.17,106.8,3.58,158.63-7.54,45.14-9.69,95-25.44,121.89-66.36,27.47-41.72,29.15-97.45,18.67-145a232.45,232.45,0,0,0-9.92-33.3c-3.85-10-10-18.5-15.07-27.87-2.06-3.78-3.48-8.34-2-12.39,6.54-17.85,25.54,17.76,30.72-1.37,2.51-9.28-2.34-23.06-5.41-31.82-5.55-15.8-14.94-30-26.18-42.23C681.93,92.51,656.46,81.24,630.08,65.49Z" style="fill:#fff;opacity:0.8"></path></g><g id="freepik--Floor--inject-302"><line x1="6.28" y1="377.04" x2="738.05" y2="377.04" style="fill:none;stroke:#263238;stroke-linecap:round;stroke-linejoin:round"></line><line x1="29.9" y1="377.63" x2="3.62" y2="395.74" style="fill:none;stroke:#263238;stroke-linecap:round;stroke-linejoin:round"></line><line x1="60.22" y1="377.63" x2="9.39" y2="415.99" style="fill:none;stroke:#263238;stroke-linecap:round;stroke-linejoin:round"></line><line x1="56.51" y1="406.02" x2="8.86" y2="445.76" style="fill:none;stroke:#263238;stroke-linecap:round;stroke-linejoin:round"></line><line x1="90.54" y1="377.63" x2="62.73" y2="400.82" style="fill:none;stroke:#263238;stroke-linecap:round;stroke-linejoin:round"></line><line x1="120.86" y1="377.63" x2="10.45" y2="480.55" style="fill:none;stroke:#263238;stroke-linecap:round;stroke-linejoin:round"></line><line x1="151.18" y1="377.63" x2="40.53" y2="494.53" style="fill:none;stroke:#263238;stroke-linecap:round;stroke-linejoin:round"></line><line x1="181.5" y1="377.63" x2="81.45" y2="499.59" style="fill:none;stroke:#263238;stroke-linecap:round;stroke-linejoin:round"></line><line x1="147.26" y1="470.64" x2="127.16" y2="499.59" style="fill:none;stroke:#263238;stroke-linecap:round;stroke-linejoin:round"></line><line x1="211.82" y1="377.63" x2="152.43" y2="463.18" style="fill:none;stroke:#263238;stroke-linecap:round;stroke-linejoin:round"></line><line x1="242.14" y1="377.63" x2="172.87" y2="499.59" style="fill:none;stroke:#263238;stroke-linecap:round;stroke-linejoin:round"></line><line x1="272.46" y1="377.63" x2="218.58" y2="499.59" style="fill:none;stroke:#263238;stroke-linecap:round;stroke-linejoin:round"></line><line x1="271.27" y1="477.48" x2="264.3" y2="499.59" style="fill:none;stroke:#263238;stroke-linecap:round;stroke-linejoin:round"></line><line x1="302.77" y1="377.63" x2="273.25" y2="471.2" style="fill:none;stroke:#263238;stroke-linecap:round;stroke-linejoin:round"></line><line x1="333.09" y1="377.63" x2="310.01" y2="499.59" style="fill:none;stroke:#263238;stroke-linecap:round;stroke-linejoin:round"></line><line x1="356.15" y1="492.83" x2="355.72" y2="499.59" style="fill:none;stroke:#263238;stroke-linecap:round;stroke-linejoin:round"></line><line x1="363.41" y1="377.63" x2="356.47" y2="487.72" style="fill:none;stroke:#263238;stroke-linecap:round;stroke-linejoin:round"></line><line x1="393.73" y1="377.63" x2="401.43" y2="499.59" style="fill:none;stroke:#263238;stroke-linecap:round;stroke-linejoin:round"></line><line x1="439.79" y1="460.75" x2="447.14" y2="499.59" style="fill:none;stroke:#263238;stroke-linecap:round;stroke-linejoin:round"></line><line x1="424.05" y1="377.63" x2="438.9" y2="456.03" style="fill:none;stroke:#263238;stroke-linecap:round;stroke-linejoin:round"></line><line x1="454.37" y1="377.63" x2="492.85" y2="499.59" style="fill:none;stroke:#263238;stroke-linecap:round;stroke-linejoin:round"></line><line x1="484.69" y1="377.63" x2="538.56" y2="499.59" style="fill:none;stroke:#263238;stroke-linecap:round;stroke-linejoin:round"></line><line x1="515.01" y1="377.63" x2="584.28" y2="499.59" style="fill:none;stroke:#263238;stroke-linecap:round;stroke-linejoin:round"></line><line x1="619.12" y1="483.94" x2="629.99" y2="499.59" style="fill:none;stroke:#263238;stroke-linecap:round;stroke-linejoin:round"></line><line x1="545.33" y1="377.63" x2="615.9" y2="479.3" style="fill:none;stroke:#263238;stroke-linecap:round;stroke-linejoin:round"></line><line x1="575.65" y1="377.63" x2="675.7" y2="499.59" style="fill:none;stroke:#263238;stroke-linecap:round;stroke-linejoin:round"></line><line x1="605.97" y1="377.63" x2="720.09" y2="498.2" style="fill:none;stroke:#263238;stroke-linecap:round;stroke-linejoin:round"></line><line x1="636.29" y1="377.63" x2="736.7" y2="471.23" style="fill:none;stroke:#263238;stroke-linecap:round;stroke-linejoin:round"></line><line x1="666.61" y1="377.63" x2="741.95" y2="440.47" style="fill:none;stroke:#263238;stroke-linecap:round;stroke-linejoin:round"></line><line x1="696.93" y1="377.63" x2="741.78" y2="411.48" style="fill:none;stroke:#263238;stroke-linecap:round;stroke-linejoin:round"></line><line x1="727.25" y1="377.63" x2="748.03" y2="391.95" style="fill:none;stroke:#263238;stroke-linecap:round;stroke-linejoin:round"></line></g><g id="freepik--Stars--inject-302"><polygon points="274.24 202.67 250.19 245.85 283.82 282.07 235.32 272.54 211.26 315.72 205.34 266.64 156.84 257.11 201.69 236.32 195.76 187.25 229.4 223.47 274.24 202.67" style="fill:none;stroke:#263238;stroke-linecap:round;stroke-linejoin:round"></polygon><polygon points="481.34 189.47 404.71 214.61 404.95 295.26 357.35 230.16 280.72 255.3 327.94 189.91 280.34 124.81 357.12 149.5 404.33 84.12 404.57 164.77 481.34 189.47" style="fill:none;stroke:#263238;stroke-linecap:round;stroke-linejoin:round"></polygon><polygon points="567.13 191.99 542.53 225.14 566.46 258.77 527.33 245.63 502.74 278.79 503.15 237.51 464.02 224.37 503.4 212 503.81 170.72 527.74 204.35 567.13 191.99" style="fill:none;stroke:#263238;stroke-linecap:round;stroke-linejoin:round"></polygon><polygon points="460.17 337.22 446.67 345.59 450.45 361.02 438.32 350.77 424.81 359.14 430.82 344.43 418.68 334.17 434.53 335.34 440.54 320.63 444.32 336.06 460.17 337.22" style="fill:none;stroke:#263238;stroke-linecap:round;stroke-linejoin:round"></polygon><polygon points="239.52 110.98 229 122.56 236.76 136.14 222.5 129.71 211.98 141.29 213.69 125.74 199.42 119.31 214.74 116.13 216.44 100.58 224.2 114.16 239.52 110.98" style="fill:none;stroke:#263238;stroke-linecap:round;stroke-linejoin:round"></polygon></g><g id="freepik--Curtains--inject-302"><path d="M343.21,18.85S260.78,80.43,207.57,94.32,94.37,78,69.89,30.07" style="fill:none;stroke:#263238;stroke-linecap:round;stroke-linejoin:round"></path><path d="M298.19,27.8c-15.43,9.79-46.73,27.89-84.5,40C159.64,85.14,129,61.68,129,61.68" style="fill:none;stroke:#263238;stroke-linecap:round;stroke-linejoin:round"></path><path d="M308.54,20.89s-1.89,1.37-5.4,3.7" style="fill:none;stroke:#263238;stroke-linecap:round;stroke-linejoin:round"></path><path d="M245.58,32.18c-22.87,13.3-55.68,30.7-73.7,32.56-29.58,3.06-59.15-35.69-59.15-35.69" style="fill:none;stroke:#263238;stroke-linecap:round;stroke-linejoin:round"></path><path d="M270.8,16.81S264.24,21.06,254.29,27" style="fill:none;stroke:#263238;stroke-linecap:round;stroke-linejoin:round"></path><path d="M176.29,51.44a23.63,23.63,0,0,1-5.43,1.06c-17.34,1-20.4-7.14-20.4-7.14" style="fill:none;stroke:#263238;stroke-linecap:round;stroke-linejoin:round"></path><path d="M229,18.85s-25.66,20.52-44.92,29.53" style="fill:none;stroke:#263238;stroke-linecap:round;stroke-linejoin:round"></path><path d="M61.31,20.89,84.37,354.77a40.2,40.2,0,0,1-11.93,6.36l-7.15,2.39s-1.59,4-11.13,8.74-15.11,6.36-21.47,4l-6.36-2.39" style="fill:none;stroke:#263238;stroke-linecap:round;stroke-linejoin:round"></path><line x1="60.07" y1="285.75" x2="44.62" y2="55.08" style="fill:none;stroke:#263238;stroke-linecap:round;stroke-linejoin:round"></line><line x1="65.29" y1="363.52" x2="60.99" y2="299.39" style="fill:none;stroke:#263238;stroke-linecap:round;stroke-linejoin:round"></line><line x1="22.36" y1="345.24" x2="25.54" y2="41.56" style="fill:none;stroke:#263238;stroke-linecap:round;stroke-linejoin:round"></line><line x1="35.87" y1="96.84" x2="35.87" y2="108.34" style="fill:none;stroke:#263238;stroke-linecap:round;stroke-linejoin:round"></line><line x1="35.87" y1="20.89" x2="35.87" y2="85.77" style="fill:none;stroke:#263238;stroke-linecap:round;stroke-linejoin:round"></line><line x1="53.42" y1="63.66" x2="54.16" y2="75.75" style="fill:none;stroke:#263238;stroke-linecap:round;stroke-linejoin:round"></line><line x1="50.98" y1="23.28" x2="52.72" y2="52.01" style="fill:none;stroke:#263238;stroke-linecap:round;stroke-linejoin:round"></line><path d="M408.4,18.85S490.83,80.43,544,94.32,657.24,78,681.72,30.07" style="fill:none;stroke:#263238;stroke-linecap:round;stroke-linejoin:round"></path><path d="M481,43.68a362.9,362.9,0,0,0,57,24.12c54.05,17.34,84.65-6.12,84.65-6.12" style="fill:none;stroke:#263238;stroke-linecap:round;stroke-linejoin:round"></path><path d="M443.07,20.89a323,323,0,0,0,30.17,18.64" style="fill:none;stroke:#263238;stroke-linecap:round;stroke-linejoin:round"></path><path d="M572.48,63.39a51.81,51.81,0,0,0,7.25,1.35c29.58,3.06,59.15-35.69,59.15-35.69" style="fill:none;stroke:#263238;stroke-linecap:round;stroke-linejoin:round"></path><path d="M480.81,16.81s51.76,33.49,84.91,44.58" style="fill:none;stroke:#263238;stroke-linecap:round;stroke-linejoin:round"></path><path d="M522.62,18.85s40.8,32.63,58.13,33.65,20.4-7.14,20.4-7.14" style="fill:none;stroke:#263238;stroke-linecap:round;stroke-linejoin:round"></path><path d="M690.3,20.89l-23,333.88a40.22,40.22,0,0,0,11.92,6.36l7.15,2.39s1.59,4,11.13,8.74,15.11,6.36,21.47,4l6.36-2.39" style="fill:none;stroke:#263238;stroke-linecap:round;stroke-linejoin:round"></path><line x1="703.53" y1="106.74" x2="706.99" y2="55.08" style="fill:none;stroke:#263238;stroke-linecap:round;stroke-linejoin:round"></line><line x1="686.32" y1="363.52" x2="702.63" y2="120.17" style="fill:none;stroke:#263238;stroke-linecap:round;stroke-linejoin:round"></line><line x1="729.25" y1="345.24" x2="726.07" y2="41.56" style="fill:none;stroke:#263238;stroke-linecap:round;stroke-linejoin:round"></line><line x1="715.74" y1="98.07" x2="715.74" y2="108.34" style="fill:none;stroke:#263238;stroke-linecap:round;stroke-linejoin:round"></line><line x1="715.74" y1="20.89" x2="715.74" y2="88.84" style="fill:none;stroke:#263238;stroke-linecap:round;stroke-linejoin:round"></line><line x1="699.83" y1="36.61" x2="697.45" y2="75.75" style="fill:none;stroke:#263238;stroke-linecap:round;stroke-linejoin:round"></line><line x1="700.63" y1="23.28" x2="700.17" y2="30.91" style="fill:none;stroke:#263238;stroke-linecap:round;stroke-linejoin:round"></line><path d="M289.46,56.67s84.27,38.15,172.51,0" style="fill:none;stroke:#263238;stroke-linecap:round;stroke-linejoin:round"></path><path d="M413.27,49.12A194.8,194.8,0,0,0,438.12,44" style="fill:none;stroke:#263238;stroke-linecap:round;stroke-linejoin:round"></path><path d="M317.29,44S357.22,54.84,404,50.23" style="fill:none;stroke:#263238;stroke-linecap:round;stroke-linejoin:round"></path><path d="M341.93,30.43s38.16,11.13,67.57,0" style="fill:none;stroke:#263238;stroke-linecap:round;stroke-linejoin:round"></path></g><g id="freepik--character-4--inject-302"><path d="M566.32,262.12s-1.54,42.66-1.23,45.75-4.33,68.63-4.33,68.63l-1.24,20.09-3.71,3.4s-.92,6.8-.92,8-4,5.87-5.57,8-11.75,7.11-8.35,10.51,13,4,16.7,3.09,9.58-5.57,9.58-5.57,7.11-.3,8.66-3.7,1.54-11.75,1.54-11.75S586.73,364.44,587,361s19.17-85,19.17-85l13.29,127.36S617,409,617.64,410.5s1.85,11.13,1.85,11.13-.62,1.86,6.49,3.71,9.28,4,15.77,5.57,15.77-.62,13-5-12.36-9-14.22-10.82-1.85-8.35-1.85-9.27a44.14,44.14,0,0,0-1.55-5.57l9-159.51L643,232.45l-67.08-.31Z" style="fill:#263238;stroke:#263238;stroke-linecap:round;stroke-linejoin:round"></path><path d="M598.6,133.05l-9.28,7.29s7.29,12.14,11.93,37.32a231.55,231.55,0,0,1,3.56,47.45l-5.11,23.22s16.57,4.2,25.62,2.65a38.47,38.47,0,0,0,15.24-6.18l3.76-6.19s-8-55.21-13.48-68.24-7.5-32.68-7.5-33.35S602.58,130.84,598.6,133.05Z" style="fill:#fff;stroke:#263238;stroke-linecap:round;stroke-linejoin:round"></path><path d="M607.31,143.38l3.81,6.3s0,44.75-1.49,50.89S607,218.3,607,218.3l5.47,11.6,6.63-9.44s-1-10.78-.67-32.16a152.24,152.24,0,0,0-4.8-39.45l1.32-7.29-5.63-6Z" style="fill:#263238;stroke:#263238;stroke-linecap:round;stroke-linejoin:round"></path><path d="M660.22,138.06l5.67,19.07L645.3,136l-27.5-2.35,6.5,16.17L629.55,179s6.22,36.62,10.22,48.92,12.16,31.23,14.1,34,11.47,9.26,11.47,9.26l2.9-21.42s-9.54-31.5-13.68-44.77a185.58,185.58,0,0,1-5.94-25.7s27.49,4.7,31.36,4.15a9.41,9.41,0,0,0,7.33-6.5c.55-2.49.55-9.95-.83-13.82s-4-16-6.64-21.41A62.14,62.14,0,0,0,673.9,132Z" style="fill:#92E3A9;stroke:#263238;stroke-linecap:round;stroke-linejoin:round"></path><path d="M665.89,157.13s-4.39,9.15-2.41,11.13,3.62,4,3.62,4" style="fill:none;stroke:#263238;stroke-linecap:round;stroke-linejoin:round"></path><path d="M659.53,169.58s5.6,5.27,8.56,6.26" style="fill:none;stroke:#263238;stroke-linecap:round;stroke-linejoin:round"></path><path d="M626.9,136.3s5,21.09,4.62,29.65" style="fill:none;stroke:#263238;stroke-linecap:round;stroke-linejoin:round"></path><line x1="648.62" y1="179.24" x2="642.46" y2="149.23" style="fill:none;stroke:#263238;stroke-linecap:round;stroke-linejoin:round"></line><line x1="646.97" y1="169.18" x2="646.97" y2="152.13" style="fill:none;stroke:#263238;stroke-linecap:round;stroke-linejoin:round"></line><path d="M609.9,139.74,604.05,153s-11.57-16.29-11.57-17.19,1.69-3.82,3.26-4.49A27.69,27.69,0,0,1,599,130.2s18.42-2.25,19.32-1.69a8.15,8.15,0,0,1,2.92,3.26c.34,1.12,3.93,19.54,3.93,19.54Z" style="fill:#fff;stroke:#263238;stroke-linecap:round;stroke-linejoin:round"></path><path d="M595.74,122l1,11.79s11.57,7.75,13.71,7.53,8.2-9.66,8.2-9.66l-1.57-9.89Z" style="fill:#fff;stroke:#263238;stroke-linecap:round;stroke-linejoin:round"></path><polygon points="605.2 126.53 596.75 133.79 595.74 122 605.2 126.53" style="fill:#263238;stroke:#263238;stroke-linecap:round;stroke-linejoin:round"></polygon><path d="M599.73,84.18s-9.25,3.39-10.16,10.61.91,23,3.84,26.18,6.1,8.13,15.13,6.55,12.19-7.22,12.64-11.06.9-19.41-2.49-26.41S602.44,82.15,599.73,84.18Z" style="fill:#fff;stroke:#263238;stroke-linecap:round;stroke-linejoin:round"></path><path d="M589.56,107.5s-2.47-1.23-2.69,1.35,4.27,7.42,4.27,7.42Z" style="fill:none;stroke:#263238;stroke-linecap:round;stroke-linejoin:round"></path><path d="M621.69,104.92s2.14-1.24,2.81,1.8-3,7.86-3,7.86Z" style="fill:#fff;stroke:#263238;stroke-linecap:round;stroke-linejoin:round"></path><path d="M602.59,112.11s2.48,1.68,4.27,1a5.84,5.84,0,0,0,2.36-1.35" style="fill:none;stroke:#263238;stroke-linecap:round;stroke-linejoin:round"></path><path d="M601.25,117.73s4.83,1.79,8.87-1.13" style="fill:none;stroke:#263238;stroke-linecap:round;stroke-linejoin:round"></path><path d="M595.07,106s2.47,1.58,6.18-.67" style="fill:none;stroke:#263238;stroke-linecap:round;stroke-linejoin:round"></path><path d="M609.78,104.47a5.38,5.38,0,0,0,5.85-.34" style="fill:none;stroke:#263238;stroke-linecap:round;stroke-linejoin:round"></path><path d="M593.94,103s3.82-2.81,8.09-2" style="fill:none;stroke:#263238;stroke-linecap:round;stroke-linejoin:round"></path><path d="M607.76,100.2s5.62-1.23,8.54,1.57" style="fill:none;stroke:#263238;stroke-linecap:round;stroke-linejoin:round"></path><path d="M589.56,107.5l2.59.68a5,5,0,0,1-.45-4.83,16,16,0,0,1,3.14-4.83l-1.79-2.81,3.82.56-2.81-4.94s1.79,1.68,8,2.81a101.13,101.13,0,0,0,12.7,1.34l-1.24-4.15,3.37,3.14.11-1.79s1.35,3.25,1.8,4.94a35,35,0,0,1,1.35,5.5c0,1.13.22,2.7.22,3s1.46-2.14,1.8-2.81-.79-6.07-.79-6.07l2.14-1.68-2.14-3a6.63,6.63,0,0,0-2.8-6.18,26.7,26.7,0,0,0-7.64-3.93l1.79-.9a11,11,0,0,0-7-.67c-4.38.79-8.65,2.25-11.12,4a21.75,21.75,0,0,0-3.6,3.15,5.73,5.73,0,0,0-3.25,6.29C588.33,99.19,588.55,105.82,589.56,107.5Z" style="fill:#263238;stroke:#263238;stroke-linecap:round;stroke-linejoin:round"></path><path d="M592.48,135.81s8.6,14.27,12.33,26.57,6.64,43.11,6.5,46.71-3.18,32.88-6.08,44.49-11.88,25.29-14,25.42-30-14.37-30-14.37l10.78-32-1.52-1.11,5.94-14,4.7-24.18s-16.72-37.44-15.89-39.51,24.45-15.48,24.45-15.48Z" style="fill:#92E3A9;stroke:#263238;stroke-linecap:round;stroke-linejoin:round"></path><path d="M589.32,140.34s8.92,33.52,11.88,46.37a175,175,0,0,0,7.58,24.06" style="fill:none;stroke:#263238;stroke-linecap:round;stroke-linejoin:round"></path><line x1="572.07" y1="232.58" x2="590.17" y2="239.74" style="fill:none;stroke:#263238;stroke-linecap:round;stroke-linejoin:round"></line><path d="M721.59,339.78c-.66-20.33.66-26.14-2-27.11s-6.91,1.29-12.82-3.87S696.28,292,695.62,282.33s0-12.26,3.62-13.88,5.58.65,6.57-1.93,3-27.12-2-42.29-14.14-21.94-18.74-24.52-14.14-4.2-16.77-7.43-3.94-7.42-5.58-6.45h0l-16.35-4-.71,9.77,9.06,2.18c-5.57,5.46-13.19,12.73-19.94,18.48-12.49,10.65-17.42,35.83-17.09,51s3.28,21.95,4.93,22.27,4.27-3.23,6.24,1,3,23.24,1.32,32.6-11.51,7.42-12.82,10-9.54,41,1,64.23,34.52,35.82,53.26,33.24,31.23-15.81,38.46-26.46S722.25,360.11,721.59,339.78Z" style="fill:#263238;stroke:#263238;stroke-linecap:round;stroke-linejoin:round"></path><path d="M646.39,181.86S630.94,198,618.44,208.81s-17.42,36.5-17.09,51.95,3.29,22.35,4.93,22.68,4.27-3.29,6.25,1,3,23.67,1.31,33.2-11.5,7.56-12.82,10.19-9.53,41.75,1,65.42,34.52,36.49,53.25,33.86,31.24-16.1,38.47-27,12.16-40.77,11.5-61.48.66-26.63-2-27.61-6.9,1.31-12.82-3.95-10.52-17.09-11.18-27,0-12.49,3.62-14.13,5.59.65,6.57-2,3-27.61-2-43.06-14.13-22.36-18.74-25-14.13-4.27-16.76-7.56S648,180.87,646.39,181.86Z" style="fill:#bdbdbd;stroke:#263238;stroke-linecap:round;stroke-linejoin:round"></path><path d="M651.45,42.24a7.65,7.65,0,0,0-5.07,7.35c0,5.78,3,10.15,5.25,11.55s5.77.7,5.77.7a8,8,0,0,1-1,3.85c-1.05,1.57-9.1,6.3-11.72,12.25s-2.1,14.52-2.1,14.52S660.29,96.28,660.7,94c1.21-6.67,6.32-32,6.32-35a14.18,14.18,0,0,0-6.64-12.42C654.43,42.77,651.45,42.24,651.45,42.24Z" style="fill:#263238;stroke:#263238;stroke-linecap:round;stroke-linejoin:round"></path><path d="M659.44,60.42s-10.86-3.79-9.85-14.9c.72-7.86,14.9-2.27,18.18,5.56s4.9,14.6-1,24C662.3,82.14,660.7,94,660.7,94l-12.2-1.64s.08-9.72,3.36-16.54S659.69,64,659.44,60.42Z" style="fill:#bdbdbd;stroke:#263238;stroke-linecap:round;stroke-linejoin:round"></path><path d="M659.44,60.42s4.29-.76,5.55-3.79" style="fill:#fff;stroke:#263238;stroke-linecap:round;stroke-linejoin:round"></path><polygon points="642.53 92.46 620.13 266.67 634.14 266.38 648.83 93.49 642.53 92.46" style="fill:#263238;stroke:#263238;stroke-linecap:round;stroke-linejoin:round"></polygon><path d="M658.47,287.45s1.57.14,1.43,1.57-1.43,2.85-2.85,2.14-1.72-3.28-.15-6,6.71-4.28,10.27.28c1.88,2.41,2.86,10.84,2.86,17.69s1,15.12,2.71,18.26,4.13,2.57,5.42,1.85a5.73,5.73,0,0,0,2-2s-2.42-2.71-1.42-4.43,4.28-2.14,4.56.72-2.56,6.27-4.56,7.27a6.92,6.92,0,0,1-8.56-2.57,23.73,23.73,0,0,1-3.71-10.84c-1-8.13.43-17-.14-20.11s-1-4.85-2.85-6S659.61,285,658.47,287.45Z" style="fill:#263238"></path><path d="M629.08,296.43s-1.12.15-1,1.64,1,3,2,2.25,1.22-3.44.1-6.29-4.76-4.48-7.3.3c-1.34,2.53-2,11.38-2,18.56s-.71,15.86-1.92,19.15-2.94,2.7-3.86,1.95a5.78,5.78,0,0,1-1.42-2.1s1.73-2.84,1-4.64-3-2.24-3.25.75a10.47,10.47,0,0,0,3.25,7.63c1.42,1.05,4.46,1.05,6.08-2.69a33.21,33.21,0,0,0,2.64-11.37c.7-8.53-.31-17.81.1-21.1s.71-5.09,2-6.29S628.26,293.88,629.08,296.43Z" style="fill:#263238"></path><polygon points="640.47 307.11 653.18 308.54 652.9 304.86 640.14 303.17 640.47 307.11" style="fill:#263238;stroke:#263238;stroke-linecap:round;stroke-linejoin:round"></polygon><polygon points="613.18 310.07 630.84 312.51 633.8 311.6 632.89 309.55 629.02 308.41 613.18 310.07" style="fill:#263238;stroke:#263238;stroke-linecap:round;stroke-linejoin:round"></polygon><path d="M640.63,344.63,624,348.5s3.64,15.26,7.74,23,9.11,25.74,11.39,35.76,3.42,13,5.92,13.44,3.87-1.37,3.87-6.15-5.92-27.34-7.06-38.95S642.46,348.73,640.63,344.63Z" style="fill:#263238;stroke:#263238;stroke-linecap:round;stroke-linejoin:round"></path><line x1="623.79" y1="266.49" x2="619.09" y2="304.7" style="fill:none;stroke:#263238;stroke-linecap:round;stroke-linejoin:round"></line><line x1="645.1" y1="93.07" x2="623.79" y2="266.49" style="fill:none;stroke:#fff;stroke-linecap:round;stroke-linejoin:round"></line><line x1="629.77" y1="265.81" x2="625.87" y2="304.46" style="fill:none;stroke:#263238;stroke-linecap:round;stroke-linejoin:round"></line><line x1="647.16" y1="93.11" x2="629.77" y2="265.81" style="fill:none;stroke:#fff;stroke-linecap:round;stroke-linejoin:round"></line><line x1="618.67" y1="266.46" x2="613.18" y2="306.45" style="fill:none;stroke:#263238;stroke-linecap:round;stroke-linejoin:round"></line><line x1="642.53" y1="92.46" x2="618.67" y2="266.46" style="fill:none;stroke:#fff;stroke-linecap:round;stroke-linejoin:round"></line><line x1="613.18" y1="310.07" x2="624.01" y2="348.5" style="fill:none;stroke:#263238;stroke-linecap:round;stroke-linejoin:round"></line><line x1="619.01" y1="309.46" x2="629.96" y2="346.96" style="fill:none;stroke:#263238;stroke-linecap:round;stroke-linejoin:round"></line><line x1="625.75" y1="309.04" x2="635.65" y2="346.33" style="fill:none;stroke:#263238;stroke-linecap:round;stroke-linejoin:round"></line><line x1="634.33" y1="266.39" x2="648.83" y2="93.49" style="fill:none;stroke:#fff;stroke-linecap:round;stroke-linejoin:round"></line><polyline points="639.23 344.22 630.8 308.41 634.33 266.39" style="fill:none;stroke:#263238;stroke-linecap:round;stroke-linejoin:round"></polyline><polygon points="613.18 306.45 640.14 303.17 640.47 307.11 613.18 310.07 613.18 306.45" style="fill:none;stroke:#263238;stroke-linecap:round;stroke-linejoin:round"></polygon><path d="M667.11,461.62l.41-6.7a2.46,2.46,0,0,1,2.22-2.15h0a2.34,2.34,0,0,1,2.67,1.67l1.48,6.68s-.74.83-3.39,1.3S667.11,461.62,667.11,461.62Z" style="fill:#263238;stroke:#263238;stroke-linecap:round;stroke-linejoin:round"></path><line x1="668.68" y1="435.47" x2="670.07" y2="455.35" style="fill:none;stroke:#263238;stroke-linecap:round;stroke-linejoin:round;stroke-width:2px"></line><path d="M664.56,426.11l1.56,7.4a2.49,2.49,0,0,0,2.56,2h0a2.48,2.48,0,0,0,2.35-2.38l.29-7.74s-.87-.79-3.55-.79S664.56,426.11,664.56,426.11Z" style="fill:#263238;stroke:#263238;stroke-linecap:round;stroke-linejoin:round"></path><path d="M666.12,433.51s3.39-1.88,4.91-.42l0,.48a2.43,2.43,0,0,1-2.07,2.6h0a2.43,2.43,0,0,1-2.73-1.95Z" style="fill:#fff;stroke:#263238;stroke-linecap:round;stroke-linejoin:round"></path><path d="M568.75,150.91s-5.8,1.52-6.08,6.64-1,17.55-.33,24.18,4.75,26,10,32.47,19.07,24.73,23.08,25.56,10.64-5.94,11.33-10.64-2.21-7.05-2.63-7.74-17.27-22.66-17.27-22.66.42-2.35-.28-3.45-1.38-2.49-1.38-2.49.69-12.85-3.59-23.21-9.81-14-9.81-14" style="fill:#92E3A9;stroke:#263238;stroke-linecap:round;stroke-linejoin:round"></path><path d="M604.81,225.11s-7.32.56-8.7,4.43-1.8,7.18.41,8.84,4.29,1.11,6.64.14,7.18-7.6,6.21-9.67A6,6,0,0,0,604.81,225.11Z" style="fill:#fff;stroke:#263238;stroke-linecap:round;stroke-linejoin:round"></path><path d="M604.54,227.88s-4.42,1.66-5,4.42-1,2.63.28,4.56,4.28,5.25,4.7,6.63,1.1,6.77,1.52,8,.14,3.59,1.38,3.87,2.35.41,2.07-1.11-.55-3.59-.55-3.59,2.9,2.21,4.28,1a4.76,4.76,0,0,0,1.38-4.14c-.13-1.11-.13-3.18-.13-3.18l4.28,3.32s.55,8.7,1.93,10.08,4.84,1.94,4.43-1-2.08-6.5-2.08-8.29a20.92,20.92,0,0,0-1.1-5,43.35,43.35,0,0,1,4.7,3.59c1.38,1.39,2.07,6.5,3.86,6.64s1.8-2.77.7-5.67-1.52-4.83-3.46-6.49-9.81-6.36-11.61-7.46-6.08-5.53-7.73-5.95A15.35,15.35,0,0,0,604.54,227.88Z" style="fill:#fff;stroke:#263238;stroke-linecap:round;stroke-linejoin:round"></path><path d="M614.62,247.5a37.1,37.1,0,0,0-1-6.91" style="fill:none;stroke:#263238;stroke-linecap:round;stroke-linejoin:round"></path><line x1="621.95" y1="243.49" x2="618.22" y2="238.52" style="fill:none;stroke:#263238;stroke-linecap:round;stroke-linejoin:round"></line><path d="M609,250.68s1.52-1.38,1.38-2.77-1.24-7-1.24-7" style="fill:none;stroke:#263238;stroke-linecap:round;stroke-linejoin:round"></path><path d="M668.1,127.29s-8.71,5.52-8.43,7.18-.28,5.8,3.87,8,7.74.7,8.43-1.1,3.59-6.63,1.93-9.4S669.48,125.9,668.1,127.29Z" style="fill:#fff;stroke:#263238;stroke-linecap:round;stroke-linejoin:round"></path><path d="M655.11,111.81c-1.38-1.11-10-7-10.92-7s-10.22.42-10.08,1.52,4.14,1.8,4.14,1.8-.83,4.56-.83,5-3.31,3.18-2.76,4.42,5.25-1.1,5.25-1.1H645l1.39,1.52-3,2.62s-4.7,1.94-6,2.22-4.28,1.24-2.9,2.76,10-.69,10-.69,3.46-1,4.15-.55,5.8,6.08,8.15,7a8.67,8.67,0,0,0,3.45.83c.69.14,2.9,2.35,4,2.35a3.91,3.91,0,0,0,3.18-2.76,24.46,24.46,0,0,0,.83-3.6S656.49,112.91,655.11,111.81Zm-11.05.69h-3.32l3.59-2.35s3.6.83,3.73,1.8l.14,1S644.89,112.5,644.06,112.5Z" style="fill:#fff;stroke:#263238;stroke-linecap:round;stroke-linejoin:round"></path><line x1="637.42" y1="113.05" x2="640.74" y2="112.5" style="fill:none;stroke:#263238;stroke-linecap:round;stroke-linejoin:round"></line><line x1="638.25" y1="108.08" x2="644.19" y2="104.76" style="fill:none;stroke:#263238;stroke-linecap:round;stroke-linejoin:round"></line><line x1="648.2" y1="112.91" x2="653.31" y2="114.99" style="fill:none;stroke:#263238;stroke-linecap:round;stroke-linejoin:round"></line><path d="M647.65,119.55a6,6,0,0,1,2.9-1.11,8.58,8.58,0,0,1,2.76.55" style="fill:none;stroke:#263238;stroke-linecap:round;stroke-linejoin:round"></path></g><g id="freepik--character-3--inject-302"><path d="M478.56,319s.77,37,2.7,54.69,5.2,55.08,5,57.77-4.82,8.09-4.82,11.56,3.08,3.66,6.93,4,9.83-6,10.6-7.89a23.74,23.74,0,0,0,1.15-4.24s1.54,1.35,2.12-1.54S504.56,419,504,415.71s-2.5-3.46-4-6.54-2.12-8.48-2.12-12.33,3.08-15.6,3.66-24.84-2.89-23.88-2.89-23.88l1.54-20.22Z" style="fill:#fff;stroke:#263238;stroke-linecap:round;stroke-linejoin:round"></path><path d="M482,445.09c3.22.72,8.49.3,9.48-.68,1.15-1.16-.39-1.16-3.66-2.12a9.11,9.11,0,0,0-6.36.77l.42-2.09a19.69,19.69,0,0,1,1.24-2.73h7.2a27.53,27.53,0,0,1,6.16,1.35,18.29,18.29,0,0,0,3.85-6,31.52,31.52,0,0,0-.19-20.41,71,71,0,0,1-9.24,3.47,16.94,16.94,0,0,1-5.61.12q-.11-1.26-.21-2.58c1.75.33,5.19.84,7.55.14a42,42,0,0,0,7.95-4.11c1.39,2.1,2.91,2.62,3.41,5.46.58,3.28-1.15,14.83-1.73,17.72s-2.12,1.54-2.12,1.54a23.74,23.74,0,0,1-1.15,4.24c-.77,1.92-6.74,8.28-10.6,7.89C485.49,446.81,483,446.63,482,445.09Z" style="fill:#263238;stroke:#263238;stroke-linecap:round;stroke-linejoin:round"></path><path d="M504,327.71s-4.05,10.8-3.86,13.5,9.84,11.58,11.39,23.35,6.36,35.51,7.71,41.88,6.18,8.1,6.37,13.89-3.08,25.86-3.08,25.86-3.09,1.15-2.51,0,1.54-12.74,1.35-13.51-3.67,10.23-3.86,13.51-7.72,7.14-10.42,7.71-12.74-.77-13.12-3.08,4.44-6.37,5.4-9.84,6-22.19,5.6-27.6S492.78,378.84,488.73,368s-16-26.05-16.79-32.81S476.18,320,476.18,320Z" style="fill:#fff;stroke:#263238;stroke-linecap:round;stroke-linejoin:round"></path><path d="M493.94,450.82a1.86,1.86,0,0,1,0-.7,14.48,14.48,0,0,0,4.81,1.22c3.66.19,6.36.58,8.09-.38s1-1.93-2.89-3.66a32.59,32.59,0,0,0-7-2.13,14.39,14.39,0,0,0,2.36-4.19,58.07,58.07,0,0,0,7.34.73c4.43.19,9.44,2.89,9.44,2.89s2.69-11,4.43-14.25,1.54-3.27,1.34-5.39a9.64,9.64,0,0,0-1.54-4l-16.11-.72c.19-1.1.35-2.14.48-3.09l15.44,1.12,1.38-6.46c1.82,2.74,3.92,4.79,4,8.57.2,5.79-3.08,25.86-3.08,25.86s-3.09,1.15-2.51,0,1.54-12.74,1.35-13.51-3.67,10.23-3.86,13.51-7.72,7.14-10.42,7.71S494.32,453.13,493.94,450.82Z" style="fill:#263238;stroke:#263238;stroke-linecap:round;stroke-linejoin:round"></path><path d="M512.41,332.05a12,12,0,0,0-.26,7.42c1.12,4.38,1.8,5.27,1.8,5.27" style="fill:none;stroke:#263238;stroke-linecap:round;stroke-linejoin:round"></path><path d="M510,332.17s-.79,8.53,1,11.68" style="fill:none;stroke:#263238;stroke-linecap:round;stroke-linejoin:round"></path><path d="M508.11,331.83s-1.12,10,.79,13.59" style="fill:none;stroke:#263238;stroke-linecap:round;stroke-linejoin:round"></path><path d="M505.75,332.17s-.78,9.09.79,13" style="fill:none;stroke:#263238;stroke-linecap:round;stroke-linejoin:round"></path><path d="M503.28,331.83s.12,10.44,1.46,15.05" style="fill:none;stroke:#263238;stroke-linecap:round;stroke-linejoin:round"></path><path d="M499.8,331.72s.23,10.44,1.69,14.37" style="fill:none;stroke:#263238;stroke-linecap:round;stroke-linejoin:round"></path><path d="M498.12,331.27s-1.24,10.67-.34,14.82" style="fill:none;stroke:#263238;stroke-linecap:round;stroke-linejoin:round"></path><path d="M496.32,331.16s-1.79,10.44-1.12,13.92" style="fill:none;stroke:#263238;stroke-linecap:round;stroke-linejoin:round"></path><path d="M494.08,330.26s-2,9.32-1.69,14.48" style="fill:none;stroke:#263238;stroke-linecap:round;stroke-linejoin:round"></path><path d="M491.83,329.7c-.34,0-2.92,9.66-2.58,14.37" style="fill:none;stroke:#263238;stroke-linecap:round;stroke-linejoin:round"></path><path d="M489.25,328.91s-2.92,11-2.92,14.15" style="fill:none;stroke:#263238;stroke-linecap:round;stroke-linejoin:round"></path><path d="M487.12,327.9s-3,10-3,13.81" style="fill:none;stroke:#263238;stroke-linecap:round;stroke-linejoin:round"></path><path d="M484.5,326.14s-2.21,8.72-2.44,14.11" style="fill:none;stroke:#263238;stroke-linecap:round;stroke-linejoin:round"></path><path d="M482.74,325.43s-2.81,10.78-3,12.58a14.38,14.38,0,0,0-.12,2.92" style="fill:none;stroke:#263238;stroke-linecap:round;stroke-linejoin:round"></path><path d="M480.94,324.42s-3.26,9.1-3.37,13.48" style="fill:none;stroke:#263238;stroke-linecap:round;stroke-linejoin:round"></path><path d="M479,323.3s-3.48,9.09-3.59,13.47" style="fill:none;stroke:#263238;stroke-linecap:round;stroke-linejoin:round"></path><path d="M477,322.85s-2.69,7.41-3.25,11.68" style="fill:none;stroke:#263238;stroke-linecap:round;stroke-linejoin:round"></path><path d="M474.65,322.29s-2.62,9.16-2.71,12.94" style="fill:none;stroke:#263238;stroke-linecap:round;stroke-linejoin:round"></path><path d="M472.86,321.17s-2.47,7.41-2.47,12,.11,5.61.11,5.61" style="fill:none;stroke:#263238;stroke-linecap:round;stroke-linejoin:round"></path><path d="M470.39,321.06a44.22,44.22,0,0,0-2,10.1c-.23,4.72-.23,6.62-.23,6.62" style="fill:none;stroke:#263238;stroke-linecap:round;stroke-linejoin:round"></path><path d="M468.59,320.61s-3.59,11.45-3.37,14.59a15.65,15.65,0,0,1,0,4" style="fill:none;stroke:#263238;stroke-linecap:round;stroke-linejoin:round"></path><path d="M467.42,320.89s-3.21,7.69-4.56,11.28a16.41,16.41,0,0,1-2.69,5.05" style="fill:none;stroke:#263238;stroke-linecap:round;stroke-linejoin:round"></path><path d="M467.78,203.75l2.64-8.4a69.23,69.23,0,0,1-1.68-20.64c1-10.33,4.09-27.13-1.2-24s-8.64,16.08-8.64,30.49A32.15,32.15,0,0,0,467.78,203.75Z" style="fill:#fff;stroke:#263238;stroke-linecap:round;stroke-linejoin:round"></path><path d="M472.5,134s-7,.41-9.08,5.3-4.89,17.47-4.89,17.47l10.71,3.75Z" style="fill:#92E3A9;stroke:#263238;stroke-linecap:round;stroke-linejoin:round"></path><path d="M524.33,187.26s-5.61,18.42-5.45,19.38,10.47,17.7,12.71,31,3.1,18-3.31,45.43a315,315,0,0,1-15.87,49s-16.09,1.32-27.91-5.91-17.08-5.25-17.08-5.25,3-17.74,0-25.29-4.92-42.69-4.92-56.16S471,212.19,471.69,206s-4.27-13.14-5.58-18.39-2.3-17.08-.33-24.31,3.56-19.1,11.48-22.86,30.89-6.54,34.65-6.14,16,5.54,17.83,14.26S524.33,187.26,524.33,187.26Z" style="fill:#92E3A9;stroke:#263238;stroke-linecap:round;stroke-linejoin:round"></path><path d="M514.61,238.23a2.28,2.28,0,1,0,2.28-2.28A2.28,2.28,0,0,0,514.61,238.23Z" style="fill:#fff"></path><circle cx="517.82" cy="257.94" r="2.28" style="fill:#fff"></circle><circle cx="515.72" cy="233.63" r="1.14" style="fill:#fff"></circle><path d="M509.75,249.12a1.14,1.14,0,1,0,1.13-1.13A1.14,1.14,0,0,0,509.75,249.12Z" style="fill:#fff"></path><circle cx="512.06" cy="253.05" r="1.14" style="fill:#fff"></circle><path d="M514.37,272.93a1.14,1.14,0,1,0,1.14-1.14A1.14,1.14,0,0,0,514.37,272.93Z" style="fill:#fff"></path><circle cx="509.96" cy="267.83" r="1.14" style="fill:#fff"></circle><circle cx="518.51" cy="266.92" r="1.14" style="fill:#fff"></circle><circle cx="509.96" cy="274.31" r="1.14" style="fill:#fff"></circle><circle cx="521.07" cy="254.21" r="1.14" style="fill:#fff"></circle><circle cx="511.58" cy="263.45" r="1.14" style="fill:#fff"></circle><circle cx="515.97" cy="255.12" r="1.14" style="fill:#fff"></circle><circle cx="521.98" cy="231.31" r="1.14" style="fill:#fff"></circle><circle cx="515.37" cy="247.72" r="2.28" style="fill:#fff"></circle><circle cx="510.19" cy="258.6" r="2.28" style="fill:#fff"></circle><circle cx="514.81" cy="265.53" r="2.28" style="fill:#fff"></circle><circle cx="520.82" cy="244.73" r="2.28" style="fill:#fff"></circle><path d="M508.81,279a2.28,2.28,0,1,0,2.69-1.77A2.29,2.29,0,0,0,508.81,279Z" style="fill:#fff"></path><path d="M505.72,298.51a2.28,2.28,0,1,0,2.69-1.77A2.26,2.26,0,0,0,505.72,298.51Z" style="fill:#fff"></path><path d="M509.71,274.51a1.14,1.14,0,0,0,.89,1.34,1.14,1.14,0,1,0-.89-1.34Z" style="fill:#fff"></path><path d="M501.83,288.7a1.15,1.15,0,0,0,.89,1.35,1.14,1.14,0,1,0-.89-1.35Z" style="fill:#fff"></path><path d="M502.18,292.79a1.14,1.14,0,0,0,.89,1.34,1.14,1.14,0,1,0-.89-1.34Z" style="fill:#fff"></path><path d="M501.53,313a1.14,1.14,0,1,0,1.34-.89A1.14,1.14,0,0,0,501.53,313Z" style="fill:#fff"></path><path d="M497.13,306.83a1.14,1.14,0,1,0,1.35-.89A1.14,1.14,0,0,0,497.13,306.83Z" style="fill:#fff"></path><path d="M505.69,307.67a1.14,1.14,0,1,0,1.35-.88A1.14,1.14,0,0,0,505.69,307.67Z" style="fill:#fff"></path><path d="M495.82,313.18a1.14,1.14,0,0,0,2.23.46,1.14,1.14,0,1,0-2.23-.46Z" style="fill:#fff"></path><path d="M510.77,295.75a1.14,1.14,0,1,0,1.35-.89A1.14,1.14,0,0,0,510.77,295.75Z" style="fill:#fff"></path><path d="M499.6,302.87a1.15,1.15,0,0,0,.89,1.35,1.14,1.14,0,1,0-.89-1.35Z" style="fill:#fff"></path><path d="M505.6,295.6a1.13,1.13,0,0,0,.88,1.35,1.14,1.14,0,1,0,.46-2.23A1.12,1.12,0,0,0,505.6,295.6Z" style="fill:#fff"></path><path d="M516.31,273.51a1.14,1.14,0,1,0,1.34-.88A1.14,1.14,0,0,0,516.31,273.51Z" style="fill:#fff"></path><path d="M505.4,288a2.28,2.28,0,1,0,2.69-1.77A2.27,2.27,0,0,0,505.4,288Z" style="fill:#fff"></path><path d="M498.12,297.61a2.28,2.28,0,1,0,2.69-1.77A2.27,2.27,0,0,0,498.12,297.61Z" style="fill:#fff"></path><path d="M501.24,305.33a2.28,2.28,0,1,0,2.69-1.76A2.28,2.28,0,0,0,501.24,305.33Z" style="fill:#fff"></path><path d="M511.34,286.19a2.28,2.28,0,1,0,2.69-1.77A2.28,2.28,0,0,0,511.34,286.19Z" style="fill:#fff"></path><path d="M475,219.11c-.2,1.25.1,2.33.69,2.43s1.22-.84,1.42-2.08-.1-2.32-.68-2.42S475.22,217.87,475,219.11Z" style="fill:#fff"></path><path d="M472.24,238.63c-.2,1.24.1,2.33.69,2.42s1.22-.83,1.42-2.07-.1-2.33-.68-2.42S472.44,237.39,472.24,238.63Z" style="fill:#fff"></path><path d="M475.74,214.57c-.1.62.06,1.16.35,1.21s.61-.42.71-1-.05-1.16-.34-1.21S475.85,214,475.74,214.57Z" style="fill:#fff"></path><path d="M471,229.49c-.1.62.06,1.16.35,1.21s.61-.41.71-1-.05-1.17-.34-1.21S471.09,228.87,471,229.49Z" style="fill:#fff"></path><path d="M470.89,233.46c-.1.62.05,1.16.34,1.21s.61-.42.72-1-.06-1.16-.35-1.21S471,232.84,470.89,233.46Z" style="fill:#fff"></path><path d="M469.26,253.33c-.1.62.05,1.16.35,1.21s.61-.41.71-1-.05-1.16-.34-1.21S469.37,252.71,469.26,253.33Z" style="fill:#fff"></path><path d="M467.52,247.87c-.1.62.05,1.17.34,1.22s.61-.42.72-1-.06-1.16-.35-1.21S467.62,247.25,467.52,247.87Z" style="fill:#fff"></path><path d="M471.63,247.63c-.1.62.05,1.16.35,1.21s.61-.41.71-1-.05-1.17-.34-1.22S471.73,247,471.63,247.63Z" style="fill:#fff"></path><path d="M466.47,254.28c-.11.62,0,1.16.34,1.21s.61-.42.71-1,0-1.16-.34-1.21S466.57,253.65,466.47,254.28Z" style="fill:#fff"></path><path d="M474.88,235.29c-.1.62.05,1.16.35,1.21s.61-.42.71-1-.05-1.16-.34-1.21S475,234.67,474.88,235.29Z" style="fill:#fff"></path><path d="M469,243.68c-.1.62,0,1.16.34,1.21s.61-.41.72-1-.06-1.17-.35-1.21S469.08,243.06,469,243.68Z" style="fill:#fff"></path><path d="M472.37,235.79c-.1.62.05,1.16.34,1.21s.61-.41.72-1-.06-1.17-.35-1.21S472.47,235.17,472.37,235.79Z" style="fill:#fff"></path><path d="M479,212.76c-.1.63.05,1.17.35,1.22s.61-.42.71-1-.05-1.16-.35-1.21S479.12,212.14,479,212.76Z" style="fill:#fff"></path><path d="M472.77,228.36c-.21,1.24.1,2.33.68,2.42s1.22-.83,1.43-2.07-.1-2.32-.69-2.42S473,227.12,472.77,228.36Z" style="fill:#fff"></path><path d="M468.6,238.7c-.21,1.24.1,2.33.68,2.42s1.22-.83,1.43-2.07-.1-2.33-.69-2.42S468.8,237.46,468.6,238.7Z" style="fill:#fff"></path><path d="M469.61,245.89c-.2,1.25.11,2.33.69,2.43s1.22-.84,1.43-2.08-.11-2.32-.69-2.42S469.82,244.65,469.61,245.89Z" style="fill:#fff"></path><path d="M475.78,225.83c-.21,1.24.1,2.33.69,2.42s1.22-.83,1.42-2.07-.1-2.33-.69-2.42S476,224.59,475.78,225.83Z" style="fill:#fff"></path><path d="M473.51,291.54a68.85,68.85,0,0,0-1.62,7.45" style="fill:none;stroke:#263238;stroke-linecap:round;stroke-linejoin:round"></path><path d="M493.29,235.89s-12.43,30.58-18.45,50.92" style="fill:none;stroke:#263238;stroke-linecap:round;stroke-linejoin:round"></path><path d="M501.42,116.45s-1.23,8.63,0,13.41,4,6.62,4,6.62l7.09.93s-14.34,9.56-24.66,9.71-11.56-4.16-12-4.78,4.32-3.08,4.78-5.86-1.69-9.55-1.69-9.55Z" style="fill:#fff;stroke:#263238;stroke-linecap:round;stroke-linejoin:round"></path><path d="M483.54,128.47s1.54,10.17,1.39,11.1,0,3.54-6.63,3.39-8.32-4.47-7.25-6.32,2.62-2.78,2.32-4.16-2.32,2.46-1.85-4.32,4.79-8.47,4.79-8.47S483.69,124.15,483.54,128.47Z" style="fill:#263238;stroke:#263238;stroke-linecap:round;stroke-linejoin:round"></path><path d="M475.22,87.63a90,90,0,0,0-4.09,10.15c-.31,1,.84,3.36.49,4.87-1.41,6.15-.08,10.17,1.63,15.28,2.27,6.82,3.33,10,5.76,11.06a8.82,8.82,0,0,0,6.53,0,38.34,38.34,0,0,0,10.74-5.8c3.48-2.88,6.66-5.91,6.66-5.91a147.66,147.66,0,0,1-.6-16.21c0-11.51-7.58-17.12-13-18.48S475.22,87.63,475.22,87.63Z" style="fill:#fff;stroke:#263238;stroke-linecap:round;stroke-linejoin:round"></path><path d="M476.28,100.2s.45.91-.61,3.19-1.66,2.27-1.51,3.18,2.57,2,3.33,2" style="fill:none;stroke:#263238;stroke-linecap:round;stroke-linejoin:round"></path><path d="M477.63,112s.61-1.76,2.19-1.23,4.31,4.13,4.31,4.13-.79,4.22-3.69,5.54-4,.09-4.13-.79a10.44,10.44,0,0,1,0-2.46s-1.94-3.34-1.67-4.13S475.78,110.55,477.63,112Z" style="fill:#92E3A9;stroke:#263238;stroke-linecap:round;stroke-linejoin:round;stroke-width:0.75px"></path><path d="M475.52,115.12a3.52,3.52,0,0,1,2.72-1.94c1.85-.08,4.93,1.94,5.1,2.29S482,118.2,480,118.81s-2.55,0-3-.7S475.52,115.12,475.52,115.12Z" style="fill:#263238;stroke:#263238;stroke-linecap:round;stroke-linejoin:round"></path><path d="M482.81,97.18s3.7-1.32,6-.62a5.5,5.5,0,0,1,3.08,2" style="fill:none;stroke:#263238;stroke-linecap:round;stroke-linejoin:round"></path><path d="M475.87,97.88s-2.82-1.32-4.49.88" style="fill:none;stroke:#263238;stroke-linecap:round;stroke-linejoin:round"></path><path d="M489.23,101a7.28,7.28,0,0,1-6.15-.18" style="fill:none;stroke:#263238;stroke-linecap:round;stroke-linejoin:round;stroke-width:2px"></path><path d="M475.6,101.84a3.8,3.8,0,0,1-3.6.7" style="fill:none;stroke:#263238;stroke-linecap:round;stroke-linejoin:round;stroke-width:2px"></path><path d="M475.22,87.63s-1.06-2.12,2.27-5,9.54-5.3,18.63-3,17,12.73,17,16.36-2.27,8.79-2.27,8.79,2.42.61,3.33,4.24a7.51,7.51,0,0,1-.91,6.06s10,2.88,9.85,7.73-.91,4.84-.91,4.84,4.39,0,2.88,3.34-9.39,5.15-12.12,7.57-4.39,4.7-8.33,4.24-6.52-4.24-7-8.33,1.36-7.72,2-9.09-.61-.45-.91-2.88.91-3.78.91-5.15-4.85-2.12-5.3-5.75,2.57-6.67,2.72-8-.75-2.73-.75-3.94,1.06-2.27.75-5-7-6.36-8.48-8.64-3.79.16-7.88,1.06S475.22,87.63,475.22,87.63Z" style="fill:#263238;stroke:#263238;stroke-linecap:round;stroke-linejoin:round"></path><path d="M510.82,104.75S492,88.84,472.34,94.14l2.12-4.39s9.85-4.09,22.72,2.73,15,8.18,15,8.18Z" style="fill:#92E3A9;stroke:#263238;stroke-linecap:round;stroke-linejoin:round"></path><path d="M446.42,130.05s1.53.71,1.06,2.12-1.18,3.42-.59,4.48,4.83,3.77,5.66,4.36,4.36,8.37,4.71,12.85,2.24,17.91,4.6,26,6.24,16.74,6.24,21.1-2.59,9.31-6.12,10-5.78-1.29-7.31-3.89-4-12-4.6-18.62.36-20.15-.12-24.16-.11-5.06-.47-6.24-5.77-7.43-6.36-9.9-1.18-6.72-.59-9.55S445.59,130.4,446.42,130.05Z" style="fill:#fff;stroke:#263238;stroke-linecap:round;stroke-linejoin:round"></path><path d="M443.64,148.27s.43-2.84,1.2-3.09a1,1,0,0,1,1.4,1.06c0,.92-.1,1.45-.05,2.46a3.63,3.63,0,0,0,1.54,2.26c.48.39,4.72,2.75,5.44,4.15a5.07,5.07,0,0,1,.63,2.55" style="fill:#fff;stroke:#263238;stroke-linecap:round;stroke-linejoin:round"></path><path d="M442.55,143.45s1.68-3.64,2.76-4,1.75,1.21,1.34,2.22-1.21,1.61-1.34,2.15-.47,1.4-.47,1.4" style="fill:#fff;stroke:#263238;stroke-linecap:round;stroke-linejoin:round"></path><path d="M443,138.13s1.85-2.83,2.9-2.15-.07,1.68-.41,2.28a18.15,18.15,0,0,0-.74,1.69" style="fill:#fff;stroke:#263238;stroke-linecap:round;stroke-linejoin:round"></path><rect x="450.44" y="127.17" width="14.53" height="22.96" rx="4.26" transform="translate(935.76 152.38) rotate(164.79)" style="fill:#fff;stroke:#263238;stroke-linecap:round;stroke-linejoin:round"></rect><line x1="462.32" y1="129.71" x2="449.16" y2="133.87" style="fill:none;stroke:#263238;stroke-linecap:round;stroke-linejoin:round"></line><line x1="460.47" y1="132.99" x2="455.53" y2="134.58" style="fill:none;stroke:#263238;stroke-linecap:round;stroke-linejoin:round"></line><line x1="460.91" y1="134.52" x2="455.97" y2="136.12" style="fill:none;stroke:#263238;stroke-linecap:round;stroke-linejoin:round"></line><line x1="461.35" y1="136.06" x2="456.41" y2="137.65" style="fill:none;stroke:#263238;stroke-linecap:round;stroke-linejoin:round"></line><line x1="461.79" y1="137.59" x2="456.85" y2="139.19" style="fill:none;stroke:#263238;stroke-linecap:round;stroke-linejoin:round"></line><line x1="462.23" y1="139.13" x2="457.29" y2="140.73" style="fill:none;stroke:#263238;stroke-linecap:round;stroke-linejoin:round"></line><line x1="462.66" y1="140.66" x2="457.72" y2="142.26" style="fill:none;stroke:#263238;stroke-linecap:round;stroke-linejoin:round"></line><line x1="463.1" y1="142.2" x2="458.16" y2="143.8" style="fill:none;stroke:#263238;stroke-linecap:round;stroke-linejoin:round"></line><line x1="463.54" y1="143.73" x2="458.6" y2="145.33" style="fill:none;stroke:#263238;stroke-linecap:round;stroke-linejoin:round"></line><rect x="458.93" y="161.24" width="4.62" height="8.75" transform="translate(922.49 331.22) rotate(180)" style="fill:#263238;stroke:#263238;stroke-linecap:round;stroke-linejoin:round"></rect><line x1="461.24" y1="165.61" x2="469.72" y2="449.83" style="fill:none;stroke:#263238;stroke-linecap:round;stroke-linejoin:round;stroke-width:4px"></line><ellipse cx="471.16" cy="459.68" rx="24.21" ry="13" style="fill:#263238;stroke:#263238;stroke-linecap:round;stroke-linejoin:round"></ellipse><path d="M451.23,462.43c4.22,3.59,11.57,6,19.93,6,9.71,0,18-3.2,21.72-7.78" style="fill:none;stroke:#8c8c8c;stroke-linecap:round;stroke-linejoin:round"></path><path d="M448.36,459a10.13,10.13,0,0,0,1.21,1.8" style="fill:none;stroke:#8c8c8c;stroke-linecap:round;stroke-linejoin:round"></path><path d="M534.25,162.84s-8.94,27.9-11.87,34.22-6.32,11.41-9.86,11.25-44.86-42.54-44.86-42.54-12.12-5.88-14-6.88-9.6-7.23-9.1-8,1.75-.12,2.37.25,6.23,3,6.73,3.12-8.85-10.85-8.85-11.72.37-2.25,1.37-1.62,9.73,7.6,9.73,7.6l2.24,1.75s-9.6-10.73-10.22-11.72-1.12-2.75-.25-2.87,13.09,10.6,13.09,10.6-10.6-10.6-10.22-11.35,3.11-.5,3.74,0,14.83,9.23,14.83,9.23.63-4.37.75-6.49,1.75-4.73,2.62-3.74.75,5.74.87,7,2.25,4.24,2.5,6.36.37,7.1.37,9,1.25,3.74,3.62,6,29.05,20.2,29.05,20.2l3.86-21.57Z" style="fill:#fff;stroke:#263238;stroke-linecap:round;stroke-linejoin:round"></path><path d="M508.91,182.46s7.23,4.49,7.23,7.35" style="fill:none;stroke:#263238;stroke-linecap:round;stroke-linejoin:round"></path><line x1="469.13" y1="144.18" x2="473.37" y2="147.79" style="fill:none;stroke:#263238;stroke-linecap:round;stroke-linejoin:round"></line><line x1="537.18" y1="164.54" x2="537.46" y2="181.83" style="fill:none;stroke:#263238;stroke-linecap:round;stroke-linejoin:round"></line><line x1="535.09" y1="164.75" x2="535.22" y2="181.33" style="fill:none;stroke:#263238;stroke-linecap:round;stroke-linejoin:round"></line><line x1="532.6" y1="164.38" x2="533.22" y2="180.96" style="fill:none;stroke:#263238;stroke-linecap:round;stroke-linejoin:round"></line><path d="M530.73,164.25s-.25,14.84-.25,15.21" style="fill:none;stroke:#263238;stroke-linecap:round;stroke-linejoin:round"></path><line x1="528.73" y1="164" x2="527.99" y2="179.84" style="fill:none;stroke:#263238;stroke-linecap:round;stroke-linejoin:round"></line><line x1="526.49" y1="163.63" x2="525.37" y2="179.34" style="fill:none;stroke:#263238;stroke-linecap:round;stroke-linejoin:round"></line><line x1="524.37" y1="164" x2="523" y2="179.84" style="fill:none;stroke:#263238;stroke-linecap:round;stroke-linejoin:round"></line><line x1="521.63" y1="163.75" x2="520.26" y2="178.97" style="fill:none;stroke:#263238;stroke-linecap:round;stroke-linejoin:round"></line><line x1="519.13" y1="163.26" x2="517.64" y2="177.34" style="fill:none;stroke:#263238;stroke-linecap:round;stroke-linejoin:round"></line><line x1="516.76" y1="163.13" x2="514.89" y2="178.34" style="fill:none;stroke:#263238;stroke-linecap:round;stroke-linejoin:round"></line><line x1="514.64" y1="162.88" x2="512.65" y2="177.34" style="fill:none;stroke:#263238;stroke-linecap:round;stroke-linejoin:round"></line><line x1="511.9" y1="163.01" x2="510.78" y2="176.47" style="fill:none;stroke:#263238;stroke-linecap:round;stroke-linejoin:round"></line><path d="M510.28,162.76s-2.12,13.71-2.12,14.09" style="fill:none;stroke:#263238;stroke-linecap:round;stroke-linejoin:round"></path><path d="M511.75,150.82a52.4,52.4,0,0,0-2.31,11.71l27.74,2a52.18,52.18,0,0,1-.31-5.24c-.15-4.47-2.34-15.08-5.73-20S520.81,135,520.81,135s-5.24.77-7.7,2.62-2.78,2.62-2.78,2.62" style="fill:#92E3A9;stroke:#263238;stroke-linecap:round;stroke-linejoin:round"></path><path d="M523.09,145.59a1.89,1.89,0,1,0,1.6-2.14A1.89,1.89,0,0,0,523.09,145.59Z" style="fill:#fff"></path><path d="M522.51,141.81a.95.95,0,1,0,.8-1.08A.95.95,0,0,0,522.51,141.81Z" style="fill:#fff"></path><path d="M520.39,155.14a.94.94,0,1,0,.8-1.07A.93.93,0,0,0,520.39,155.14Z" style="fill:#fff"></path><path d="M521.82,158.23a.95.95,0,1,0,.8-1.07A1,1,0,0,0,521.82,158.23Z" style="fill:#fff"></path><path d="M529.38,158.1a.94.94,0,1,0,.8-1.07A.94.94,0,0,0,529.38,158.1Z" style="fill:#fff"></path><path d="M525.29,159.46a.94.94,0,0,0,1.07.8.94.94,0,1,0-1.07-.8Z" style="fill:#fff"></path><path d="M527.38,139.16a1,1,0,0,0,1.07.8.95.95,0,1,0-1.07-.8Z" style="fill:#fff"></path><path d="M523,153.59a1.89,1.89,0,1,0,1.6-2.15A1.89,1.89,0,0,0,523,153.59Z" style="fill:#fff"></path><path d="M527.1,150.47a1.89,1.89,0,1,0,1.6-2.14A1.88,1.88,0,0,0,527.1,150.47Z" style="fill:#fff"></path></g><g id="freepik--character-2--inject-302"><path d="M302.12,297.89H348a0,0,0,0,1,0,0V399.53a21.23,21.23,0,0,1-21.23,21.23h-3.37a21.23,21.23,0,0,1-21.23-21.23V297.89A0,0,0,0,1,302.12,297.89Z" style="fill:#263238;stroke:#263238;stroke-linecap:round;stroke-linejoin:round"></path><path d="M282.78,270.64s-16.13,27.9-16.57,33.57,3.05,98.07,3.05,99.6-.43,15.26-1.74,16.56-4.79,2-4.36,5.45,11.12,4.58,15.69,2.62,7.41-5.45,9.38-7.41a8.18,8.18,0,0,0,1.74-7.41c-.65-1.75-1.74-4.36-1.74-4.36l5.66-67.35s1.31-13.29,1.53-14,1.74-18.74,1.74-18.74,4.8-4.36,9.37-5.67,22-.87,24.85.44,27,21.36,27.68,23.54.22,14,.22,14l4.79,57.1S363,406.43,363.2,409s-.87,5.67.87,7.19,5.23,1.09,6.54,1.53,2.62,2.61,4.8,4.14,11.55,4.79,15.25,3.71,3.71-5.45,2.4-8.07-10.68-13.29-12-16.13S378,389.86,378,389.86l4.36-.22,1.53-43.59s.43-30.73-3.71-35.52S368.43,299,362.55,292.22a244.93,244.93,0,0,0-17.88-17.65c-1.52-1.31-4.35-3.71-4.35-3.71Z" style="fill:#263238;stroke:#263238;stroke-linecap:round;stroke-linejoin:round"></path><path d="M297.16,270.64s33.62.8,38.06,1.06,5.1-.84,5.1-.84-4.8-22.45-6.32-31,0-22.88.21-25.28-1.3-27.25-2.61-29-20.05-3-23.32-2.4-10,3.27-10,3.93,7.19,44.46,4.8,55.36S297.16,270.64,297.16,270.64Z" style="fill:#fff;stroke:#263238;stroke-linecap:round;stroke-linejoin:round"></path><polygon points="310.83 193.53 315.84 202.42 311.48 266.2 316.49 270.73 321.33 266.53 319.39 201.77 323.43 192.89 316.16 187.88 310.83 193.53" style="fill:#263238;stroke:#263238;stroke-linecap:round;stroke-linejoin:round"></polygon><path d="M304.21,178.68s-1.77.48-2.1,1.93-.64,3.23-.64,3.23l2.91,13.57,13.24-6.3,11.95,7.11s.64-15-.32-16.64-1.62-2.58-1.62-2.58Z" style="fill:#fff;stroke:#263238;stroke-linecap:round;stroke-linejoin:round"></path><path d="M304.05,170.44s-.81,9.53-.16,11.14,12.6,13.25,13.89,12.44,9.85-14.54,9.85-15,.32-5.65.32-5.65Z" style="fill:#fff;stroke:#263238;stroke-linecap:round;stroke-linejoin:round"></path><polygon points="313.17 177.83 303.89 181.58 304.05 170.44 313.17 177.83" style="fill:#263238;stroke:#263238;stroke-linecap:round;stroke-linejoin:round"></polygon><path d="M306.31,135.23s-6.78,2.1-7.91,7.11.32,15.18.32,15.18-1.77-1.61-2.1,1,.33,6.94,2.1,8.24a4.29,4.29,0,0,0,3.23,1s2.75,5.82,5.66,8.24,10.65,4.52,14.21,3.23,7.43-5.65,7.91-9,.81-6.3.81-6.3,1.61-.32,1.61-1.78,1.29-5.49.32-6.3a11.48,11.48,0,0,0-1.93-1.29s-1-10.17-4.52-14.53-11.63-6.78-11.63-6.78,2.26-2.43,0-1.62a15,15,0,0,0-3.39,1.62s3.23-3.23-.33-1.62S306.31,135.23,306.31,135.23Z" style="fill:#fff;stroke:#263238;stroke-linecap:round;stroke-linejoin:round"></path><path d="M329.08,151.06a7.24,7.24,0,0,0,1.46,3.39s-1-10.17-4.52-14.53-11.63-6.78-11.63-6.78,2.26-2.43,0-1.62a15,15,0,0,0-3.39,1.62s3.23-3.23-.33-1.62-4.36,3.71-4.36,3.71-6.78,2.1-7.91,7.11.32,15.18.32,15.18l1.78,2.58s1,.49.32-1.93a8.81,8.81,0,0,1,.49-6.46c1-1.94-1-7.43,1.93-9.05s8.73-.16,11,0,4.84-1.45,6.13-2.1,4.36.17,6,1.78S328.76,149,329.08,151.06Z" style="fill:#263238;stroke:#263238;stroke-linecap:round;stroke-linejoin:round"></path><path d="M313.9,161.88s4,1.62,5.33,1.13,2.26-1.61,2.26-2.1" style="fill:none;stroke:#263238;stroke-linecap:round;stroke-linejoin:round"></path><path d="M313.42,167.37s5,2.1,9.37-.48" style="fill:none;stroke:#263238;stroke-linecap:round;stroke-linejoin:round"></path><path d="M312,155.18c0,1-.55,1.86-1.22,1.86s-1.21-.84-1.21-1.86.55-1.86,1.21-1.86S312,154.15,312,155.18Z" style="fill:#263238"></path><ellipse cx="322.46" cy="153.89" rx="1.21" ry="1.86" style="fill:#263238"></ellipse><path d="M306.31,152.19a6.73,6.73,0,0,1,6.14-1.29" style="fill:none;stroke:#263238;stroke-linecap:round;stroke-linejoin:round"></path><path d="M320,150.25a4.94,4.94,0,0,1,6-.16" style="fill:none;stroke:#263238;stroke-linecap:round;stroke-linejoin:round"></path><path d="M304.38,197.41s4.52,27.78,4.52,32.3-7.43,31.17-7.43,31.17-3.55,8.88-4.36,11.95-2.91,9.85-5,10.82-20.66,4.86-20.66,4.86,13.56-27.47,13.23-31-1.61-36.17-3.39-42.31-8.23-20-8.23-20,20-8.56,21.15-9.21,6.95-4.2,6.95-4.2Z" style="fill:#92E3A9;stroke:#263238;stroke-linecap:round;stroke-linejoin:round"></path><path d="M296.33,187.73s2.22,21,3.23,26.06S305.65,234,305.65,234" style="fill:none;stroke:#263238;stroke-linecap:round;stroke-linejoin:round"></path><path d="M329.25,181.58s-.33,13.57-1,24.87-1.46,23.26-1.3,25.2,4.85,30.68,8.24,40,7.9,15.24,9.67,15.72S359.28,289,359.28,289,353.15,264.59,352,257a241.86,241.86,0,0,1-1.94-24.71c0-3.87,6.3-36.82,5.65-38.11S329.25,181.58,329.25,181.58Z" style="fill:#92E3A9;stroke:#263238;stroke-linecap:round;stroke-linejoin:round"></path><path d="M334.75,185.45a139.57,139.57,0,0,1-.57,26.25A129.63,129.63,0,0,1,329,234.14" style="fill:none;stroke:#263238;stroke-linecap:round;stroke-linejoin:round"></path><path d="M273.05,195.15s-1.62,0-2.1,2.91-8.72,58-7.92,62,8.89,6.46,10.82,6.62,9.21-4.36,9.21-4.36,7.59-6.3,8.56-8.08a12.37,12.37,0,0,0,1.61-9.52c-1-5.17-6.62-7.43-8.07-7.11l-1.46.32s-.16-17.6-1.61-21.64S273.05,195.15,273.05,195.15Z" style="fill:#92E3A9;stroke:#263238;stroke-linecap:round;stroke-linejoin:round"></path><path d="M283.7,237.94s-9.05,2.66-11.14,3.61-5.33,4.19-5.52,6.85" style="fill:none;stroke:#263238;stroke-linecap:round;stroke-linejoin:round"></path><path d="M267.61,239.84s-.19-1,4.57-.57" style="fill:none;stroke:#263238;stroke-linecap:round;stroke-linejoin:round"></path><path d="M288.94,235.17a9.05,9.05,0,0,0-3.5,6.4c-.43,4.37,1.9,7.86,3.93,8.88s3.93.29,5.39-1.89,2.91-6.41,1.74-10S290.68,234.3,288.94,235.17Z" style="fill:#fff;stroke:#263238;stroke-linecap:round;stroke-linejoin:round"></path><polygon points="295.92 214.5 281.22 183.22 288.94 181.47 295.92 214.5" style="fill:#263238"></polygon><line x1="301.6" y1="232.69" x2="291.99" y2="203.01" style="fill:none;stroke:#263238;stroke-linecap:round;stroke-linejoin:round;stroke-width:2px"></line><path d="M292.57,222.36s-3.2,8.44-3.63,11.06-1,7.57.29,9.17,4.22,2.77,5.67,1.89,1.75-4.36,1.75-4.36,5.53-.73,6.4-1.46-.14-3.35-.14-3.35.29-6,.14-7.27.87-4.8-.87-5.39S294.61,220.76,292.57,222.36Z" style="fill:#fff;stroke:#263238;stroke-linecap:round;stroke-linejoin:round"></path><path d="M298.39,221.49s.73-2.91,2.19-2.62,1.6,3.78,1.6,3.78Z" style="fill:#fff;stroke:#263238;stroke-linecap:round;stroke-linejoin:round"></path><line x1="293.74" y1="226.44" x2="302.76" y2="226.58" style="fill:none;stroke:#263238;stroke-linecap:round;stroke-linejoin:round"></line><line x1="294.03" y1="231.68" x2="302.47" y2="231.68" style="fill:none;stroke:#263238;stroke-linecap:round;stroke-linejoin:round"></line><line x1="296.36" y1="235.6" x2="302.91" y2="235.31" style="fill:none;stroke:#263238;stroke-linecap:round;stroke-linejoin:round"></line><path d="M296.65,240.12s-4.08,3.93-5.68,2.18" style="fill:#fff;stroke:#263238;stroke-linecap:round;stroke-linejoin:round"></path><path d="M355.73,194.18s4.08,14.5,6.26,27.45,3.49,30.27,3.35,35.8-.3,12.08-4.22,16-7.72,1.46-8.3.44-3.2-26-4.22-33.47,2.18-16.59,2.18-16.59Z" style="fill:#92E3A9;stroke:#263238;stroke-linecap:round;stroke-linejoin:round"></path><path d="M354.57,259.47s2-4.66,3.34-5.38,3.93-1.6,5.1-3.2,3.78-1,2.76,1.3a13.54,13.54,0,0,1-3,4.23c-.44.43-.44,2.91-.44,2.91s2.62,3.92,1.89,4.94-3.05,5.39-5.38,6.7-5,1.31-6-.44-1.31-.87-1-3.06S354.57,259.47,354.57,259.47Z" style="fill:#fff;stroke:#263238;stroke-linecap:round;stroke-linejoin:round"></path><polygon points="349.04 272.57 333.47 286.68 342.2 288.87 350.06 273.59 349.04 272.57" style="fill:#263238"></polygon><line x1="365.92" y1="255.4" x2="347.73" y2="275.04" style="fill:none;stroke:#263238;stroke-linecap:round;stroke-linejoin:round;stroke-width:2px"></line><path d="M362.43,261.8s-8.88-3.64-9.9-2.91-1.46,2.33-.73,2.76a5.71,5.71,0,0,1,1.31,1.17s-2.18-.15-2.47,1.74a3.08,3.08,0,0,0,1.16,2.91s-2.18,1.31-1.6,2.19a8,8,0,0,0,6.7,2.18c2.91-.58,4.94-3.78,6.11-5.67" style="fill:#fff;stroke:#263238;stroke-linecap:round;stroke-linejoin:round"></path><path d="M353.11,262.82s5.68,2.62,8.15,2.62" style="fill:none;stroke:#263238;stroke-linecap:round;stroke-linejoin:round"></path><path d="M351.8,267.47a18.22,18.22,0,0,0,7.13,1.75" style="fill:none;stroke:#263238;stroke-linecap:round;stroke-linejoin:round"></path><rect x="384.17" y="264.27" width="8.26" height="7.42" rx="1.08" transform="translate(3.03 -4.34) rotate(0.64)" style="fill:#263238;stroke:#263238;stroke-linecap:round;stroke-linejoin:round"></rect><line x1="433.69" y1="437.07" x2="437.4" y2="442.73" style="fill:none;stroke:#263238;stroke-linecap:round;stroke-linejoin:round;stroke-width:5px"></line><polyline points="366.84 437.01 388.6 368.33 433.69 437.07" style="fill:none;stroke:#263238;stroke-linecap:round;stroke-linejoin:round;stroke-width:3px"></polyline><line x1="364.68" y1="443.84" x2="366.84" y2="437.01" style="fill:none;stroke:#263238;stroke-linecap:round;stroke-linejoin:round;stroke-width:5px"></line><path d="M434.59,427.86c2.11,2.79,3.36,4.51,3.36,4.64" style="fill:none;stroke:#263238;stroke-linecap:round;stroke-linejoin:round;stroke-width:5px"></path><path d="M359.08,425.87l29.52-57.54s34.88,44.77,46,59.53" style="fill:none;stroke:#263238;stroke-linecap:round;stroke-linejoin:round;stroke-width:3px"></path><line x1="356.11" y1="431.67" x2="359.08" y2="425.87" style="fill:none;stroke:#263238;stroke-linecap:round;stroke-linejoin:round;stroke-width:5px"></line><line x1="388.52" y1="270.53" x2="388.52" y2="420.35" style="fill:none;stroke:#263238;stroke-linecap:round;stroke-linejoin:round;stroke-width:3px"></line><line x1="388.3" y1="255.69" x2="388.3" y2="245.73" style="fill:none;stroke:#263238;stroke-linecap:round;stroke-linejoin:round;stroke-width:3px"></line><path d="M426.8,260.7c.06,2.29-16.23,4.54-36.39,5s-36.53-1-36.59-3.26c0-1.88,11-3.75,26.22-4.62,3.23-.19,4.73-2.08,8.26-2.17,2.25-.05,6.35,1.67,8.48,1.66C413.81,257.29,426.75,258.66,426.8,260.7Z" style="fill:#bdbdbd;stroke:#263238;stroke-linecap:round;stroke-linejoin:round"></path><path d="M302.12,294.61l1.5,29.21c.28,2.58,14,3.88,30.53,2.9s29.79-3.88,29.5-6.47L362.16,291Z" style="fill:#fff;stroke:#263238;stroke-linecap:round;stroke-linejoin:round"></path><path d="M302.12,294.61l1.5,29.21c.28,2.58,14,3.88,30.53,2.9s29.79-3.88,29.5-6.47L362.16,291Z" style="fill:#92E3A9;stroke:#263238;stroke-linecap:round;stroke-linejoin:round"></path><path d="M351.72,291.66a152.08,152.08,0,0,0-20.1,0A149.17,149.17,0,0,0,311.79,294l-9.67.58v3.52c.29,2.59,14,3.89,30.54,2.9s29.78-3.88,29.5-6.47V291Z" style="fill:#fff;stroke:#263238;stroke-linecap:round;stroke-linejoin:round"></path><path d="M334.15,324.08c-16.57,1-30.25-.32-30.53-2.91v2.65c.28,2.58,14,3.88,30.53,2.9s29.79-3.88,29.5-6.47l-.11-2.14C362.24,320.56,349.67,323.16,334.15,324.08Z" style="fill:#fff;stroke:#263238;stroke-linecap:round;stroke-linejoin:round"></path><path d="M355.38,291.61c0-.06,0-.11,0-.16l-1.88.11s0,.09,0,.14L355,324.14c.67-.15,1.31-.29,1.92-.44Z" style="fill:#fff;stroke:#263238;stroke-linecap:round;stroke-linejoin:round"></path><path d="M313.85,326.7l1.94.14-1.71-32.94-1.94.11Z" style="fill:#fff;stroke:#263238;stroke-linecap:round;stroke-linejoin:round"></path><path d="M334.33,326.71l1.94-.13-1.77-33.9-1.93.12Z" style="fill:#fff;stroke:#263238;stroke-linecap:round;stroke-linejoin:round"></path><ellipse cx="332.14" cy="292.82" rx="30.07" ry="4.71" transform="translate(-16.44 19.78) rotate(-3.33)" style="fill:#fff;stroke:#263238;stroke-linecap:round;stroke-linejoin:round"></ellipse><path d="M315.59,397.7h0a41.12,41.12,0,0,0,.63-7.14c0-24.35-21.36-44.09-47.71-44.09-18.26,0-34.12,9.48-42.14,23.41l-9.51,15.4,4.11,1.65c-.11,1.19-.17,2.4-.17,3.63,0,24.34,21.36,44.08,47.71,44.08a49.41,49.41,0,0,0,35.35-14.47l5.43,2.17,4.85-18.86a41,41,0,0,0,1.36-5.29Z" style="fill:#92E3A9;stroke:#263238;stroke-linecap:round;stroke-linejoin:round"></path><ellipse cx="260.5" cy="409.78" rx="50.81" ry="46.95" style="fill:#fff;stroke:#263238;stroke-linecap:round;stroke-linejoin:round"></ellipse><ellipse cx="261.08" cy="408.62" rx="48.14" ry="44.47" style="fill:#e3e3e3;stroke:#263238;stroke-linecap:round;stroke-linejoin:round"></ellipse><path d="M270.79,349.36h-14l-2.91,7.46c0,.6,4.37,1.09,9.75,1.09s9.75-.49,9.75-1.09Z" style="fill:#fff;stroke:#263238;stroke-linecap:round;stroke-linejoin:round"></path><ellipse cx="263.79" cy="349.36" rx="7" ry="1.01" style="fill:#fff;stroke:#263238;stroke-linecap:round;stroke-linejoin:round"></ellipse><path d="M262.7,349.63a1.94,1.94,0,0,1-1.94-1.91l-.52-38a5.78,5.78,0,0,1,5.45-5.78l10.59-.58a1.94,1.94,0,0,1,.21,3.87l-10.59.58a1.89,1.89,0,0,0-1.79,1.89l.52,37.95a1.94,1.94,0,0,1-1.91,2Z" style="fill:#fff;stroke:#263238;stroke-linecap:round;stroke-linejoin:round"></path><path d="M331.86,278.53c0-4.5-13.77-8.15-30.76-8.15s-30.75,3.65-30.75,8.15l.25,36.94h61.51Z" style="fill:#fff;stroke:#263238;stroke-linecap:round;stroke-linejoin:round"></path><path d="M331.86,278.53c0-4.5-13.77-8.15-30.76-8.15s-30.75,3.65-30.75,8.15l.25,36.94h61.51Z" style="fill:#92E3A9;stroke:#263238;stroke-linecap:round;stroke-linejoin:round"></path><path d="M270.49,282.74c0-4.5,13.77-8.15,30.75-8.15,16.12,0,29.33,3.28,30.64,7.46l0-3.52c0-4.5-13.77-8.15-30.76-8.15s-30.75,3.65-30.75,8.15l.25,36.94h.11Z" style="fill:#fff;stroke:#263238;stroke-linecap:round;stroke-linejoin:round"></path><path d="M270.6,315.47h61.51l0-3c-.42-3.23-14-5.82-30.74-5.82-17,0-30.75,2.67-30.75,6l0,.3Z" style="fill:#fff;stroke:#263238;stroke-linecap:round;stroke-linejoin:round"></path><path d="M332.11,315.47c0,3.3-13.77,6-30.76,6s-30.75-2.67-30.75-6,13.77-6,30.75-6S332.11,312.18,332.11,315.47Z" style="fill:#bdbdbd;stroke:#263238;stroke-linecap:round;stroke-linejoin:round"></path><rect x="298.36" y="269.77" width="1.82" height="15.14" style="fill:#fff;stroke:#263238;stroke-linecap:round;stroke-linejoin:round"></rect><polygon points="300.57 287.15 297.96 287.15 297.1 279.16 301.44 279.16 300.57 287.15" style="fill:#fff;stroke:#263238;stroke-linecap:round;stroke-linejoin:round"></polygon><polygon points="328.51 289.63 326.68 289.17 326.68 274.02 328.51 274.48 328.51 289.63" style="fill:#fff;stroke:#263238;stroke-linecap:round;stroke-linejoin:round"></polygon><polygon points="328.9 291.97 326.29 291.31 325.42 283.1 329.77 284.2 328.9 291.97" style="fill:#fff;stroke:#263238;stroke-linecap:round;stroke-linejoin:round"></polygon><polygon points="328.51 297.57 326.68 296.85 326.68 311.99 328.51 312.72 328.51 297.57" style="fill:#fff;stroke:#263238;stroke-linecap:round;stroke-linejoin:round"></polygon><polygon points="328.9 295.49 326.29 294.44 325.42 302.09 329.77 303.83 328.9 295.49" style="fill:#fff;stroke:#263238;stroke-linecap:round;stroke-linejoin:round"></polygon><polygon points="272.67 290.02 274.8 289.57 274.76 274.81 272.63 275.26 272.67 290.02" style="fill:#fff;stroke:#263238;stroke-linecap:round;stroke-linejoin:round"></polygon><polygon points="272.22 292.31 275.27 291.66 276.26 283.65 271.18 284.73 272.22 292.31" style="fill:#fff;stroke:#263238;stroke-linecap:round;stroke-linejoin:round"></polygon><polygon points="272.69 297.77 274.82 297.05 274.86 311.82 272.73 312.53 272.69 297.77" style="fill:#fff;stroke:#263238;stroke-linecap:round;stroke-linejoin:round"></polygon><polygon points="272.23 295.74 275.28 294.71 276.31 302.16 271.23 303.87 272.23 295.74" style="fill:#fff;stroke:#263238;stroke-linecap:round;stroke-linejoin:round"></polygon><rect x="298.5" y="294.31" width="1.82" height="15.14" style="fill:#fff;stroke:#263238;stroke-linecap:round;stroke-linejoin:round"></rect><polygon points="300.71 292.06 298.1 292.06 297.24 300.06 301.58 300.06 300.71 292.06" style="fill:#fff;stroke:#263238;stroke-linecap:round;stroke-linejoin:round"></polygon><line x1="356.5" y1="227.99" x2="355.84" y2="219.44" style="fill:none;stroke:#263238;stroke-linecap:round;stroke-linejoin:round;stroke-width:3px"></line><path d="M295.16,246.09s33.19-14.83,61.34-18.1,56.86-1.54,56.86-1.54Z" style="fill:#bdbdbd;stroke:#263238;stroke-linecap:round;stroke-linejoin:round"></path><ellipse cx="355.17" cy="238.8" rx="65.19" ry="6.67" transform="matrix(0.99, -0.16, 0.16, 0.99, -34.3, 61.36)" style="fill:#737373;stroke:#263238;stroke-linecap:round;stroke-linejoin:round"></ellipse><line x1="356.73" y1="234.25" x2="359.18" y2="443.99" style="fill:none;stroke:#263238;stroke-linecap:round;stroke-linejoin:round;stroke-width:3px"></line><rect x="352.07" y="234.08" width="8.26" height="7.42" rx="1.08" transform="translate(-20.79 34.56) rotate(-5.4)" style="fill:#263238;stroke:#263238;stroke-linecap:round;stroke-linejoin:round"></rect><line x1="404.02" y1="451.69" x2="407.73" y2="457.36" style="fill:none;stroke:#263238;stroke-linecap:round;stroke-linejoin:round;stroke-width:5px"></line><polyline points="337.18 451.63 358.93 382.96 404.02 451.69" style="fill:none;stroke:#263238;stroke-linecap:round;stroke-linejoin:round;stroke-width:3px"></polyline><line x1="335.01" y1="458.46" x2="337.18" y2="451.63" style="fill:none;stroke:#263238;stroke-linecap:round;stroke-linejoin:round;stroke-width:5px"></line><path d="M404.93,442.48a56.93,56.93,0,0,1,3.35,4.65" style="fill:none;stroke:#263238;stroke-linecap:round;stroke-linejoin:round;stroke-width:5px"></path><path d="M329.42,440.5,358.93,383s34.88,44.76,46,59.52" style="fill:none;stroke:#263238;stroke-linecap:round;stroke-linejoin:round;stroke-width:3px"></path><line x1="326.44" y1="446.3" x2="329.42" y2="440.5" style="fill:none;stroke:#263238;stroke-linecap:round;stroke-linejoin:round;stroke-width:5px"></line></g><g id="freepik--character-1--inject-302"><path d="M175,148.17l6,5.22,2.72,40.79s2,3.85,2,4.53,7.7-2.94,9.06-2.49,7.18,1.55,7.6,3.45,1.17,14.43.34,14.68c-2.05.62-24.25,11.56-26.52,10.65s-7.93-8.84-8.84-12.92-3.17-16.77-3.17-16.77l10.42-45.55" style="fill:#92E3A9;stroke:#263238;stroke-linecap:round;stroke-linejoin:round"></path><path d="M191.63,200.17a8.49,8.49,0,0,0,1.68,7.05c2.68,3.52,9.4,7.13,9.4,7.13a55,55,0,0,0,.67-7.8A16.47,16.47,0,0,0,202,201Z" style="fill:#263238;stroke:#263238;stroke-linecap:round;stroke-linejoin:round"></path><path d="M191.83,197.35a24.43,24.43,0,0,0-.7,5.17c.08,2.4,3.61,7.33,5.2,6.88s6.34-4.49,6.6-7.06.46-4.08.23-5S196.59,192.14,191.83,197.35Z" style="fill:#fff;stroke:#263238;stroke-linecap:round;stroke-linejoin:round"></path><path d="M185.71,198.71s-6.35-.9-7.93-.22S173,207.1,173.92,208" style="fill:none;stroke:#263238;stroke-linecap:round;stroke-linejoin:round"></path><path d="M89.88,264.62l5.54,57.81L85.5,415.87l-4.09,2.63-.29,12s-2.05,9.93.58,12a45.22,45.22,0,0,0,4.09,2.92s2,5.55,5.25,7,19.86,7.59,22.49,5.84,2.63-4.38.58-8.18-9.93-16.64-9.93-16.64,1.76-8.18,2.63-11.39,3.8-12,3.8-12L120,339.08s7.3-50.22,7-51.1,6.71,45.84,6.71,45.84l-3.21,63.36s-4.67,4.68-4.67,6.72,1.75,8.47,1.46,9.34,1.17,11.1,1.17,12.27,5,1.16,6.71,1.46,6.43-1.17,6.43-1.17,5.55,3.5,8.47,5.25,20.44,4.38,23.36,3.22,1.75-2.63-1.46-5.55S157.91,417,155,415s-5-7-5-7,3.79-4.38,2.92-7.3-.88-12-.88-12l9.64-75.92s2.62-49.35,2.62-52.85-2.62-24.53-2.62-24.53l-68.33-2.33Z" style="fill:#263238;stroke:#263238;stroke-linecap:round;stroke-linejoin:round"></path><path d="M133.4,123s-5.38,2.79-6.24,4.3S125,234.74,125,234.74l31.22,1.07S157.74,146.66,158,143s-.21-8.4-1.93-10.55S138.79,123.41,133.4,123Z" style="fill:#fff;stroke:#263238;stroke-linecap:round;stroke-linejoin:round"></path><path d="M137.86,147.53l4.1,10.36-9.28,68.65,6.9,11.66,8-12.31-3-67.78,4.1-8.85s-3.45-6.26-4.1-7.34S137.86,147.53,137.86,147.53Z" style="fill:#263238;stroke:#263238;stroke-linecap:round;stroke-linejoin:round"></path><path d="M134.83,121s-3.45,1.94-4.31,4.53,1.94,29.58,1.94,29.58L143.25,146l8.64,9.71s4.32-11.65,4.53-17-.86-6.48-2.37-9.72S138.29,118.39,134.83,121Z" style="fill:#fff;stroke:#263238;stroke-linecap:round;stroke-linejoin:round"></path><path d="M143.47,78.76s-6.41,2.43-7.29,8.61a89.36,89.36,0,0,0-.88,11.27s-2.65-2.43-3.1,1.55-1.32,6,.23,7.07l1.54,1.1s1.33,6.41.22,10.16-1.76,5.53-1.32,7.07,5.3,9.18,7.07,12S143.69,150,143.69,150s5.08-8.4,7.07-10.38a30.19,30.19,0,0,1,3.76-3.21l2.87-12.82s6.63-5.08,8-9.94,4.86-15,1.11-25.62S159.6,77.87,155.62,77,146.34,76.33,143.47,78.76Z" style="fill:#fff;stroke:#263238;stroke-linecap:round;stroke-linejoin:round"></path><path d="M135.3,98.64s2.21,2,2.43.88-1.77-2.65,1.32-5.08,4.64-3.09,4.86-5.52a18,18,0,0,1,.67-3.76l4-.66-1.77,2.43s5.53,2.43,9.73,1.33A25.21,25.21,0,0,0,164,84.72L162.25,88h4.2a5,5,0,0,0,.44-6c-2-3.53-7.51-6.63-12.59-7.07s-11.27,1.77-15,4.42S134.63,95.77,135.3,98.64Z" style="fill:#263238;stroke:#263238;stroke-linecap:round;stroke-linejoin:round"></path><path d="M167.55,85.61s3.54,4,2.87,6.84a8.11,8.11,0,0,1-2.21,4.2L166.45,88Z" style="fill:#263238;stroke:#263238;stroke-linecap:round;stroke-linejoin:round"></path><path d="M151,105.93s6.41,2,6.85,1.33.66-8.62.88-9.28" style="fill:none;stroke:#263238;stroke-linecap:round;stroke-linejoin:round"></path><path d="M160.48,96.21s4.86-1.33,6.19,3.09" style="fill:none;stroke:#263238;stroke-linecap:round;stroke-linejoin:round"></path><path d="M152.53,95.11s-2.65-2.43-7.07-.23" style="fill:none;stroke:#263238;stroke-linecap:round;stroke-linejoin:round"></path><path d="M147.67,107.92s3.53,5.3,11.49,2.87" style="fill:none;stroke:#263238;stroke-linecap:round;stroke-linejoin:round"></path><path d="M157.39,123.6a8.27,8.27,0,0,1-3.32,1.33c-1.76.22-7.29.66-9.72-1.55" style="fill:none;stroke:#263238;stroke-linecap:round;stroke-linejoin:round"></path><path d="M154.81,96.76s-10.23-3-11.34-.55-1.1,4.42.44,5.3,7.07,1.55,8.4,1.33S154.81,96.76,154.81,96.76Z" style="fill:#263238;stroke:#263238;stroke-linecap:round;stroke-linejoin:round"></path><path d="M158.83,102.55a5.6,5.6,0,0,0,3.86,2.73,4.57,4.57,0,0,0,4.67-1.45,4.21,4.21,0,0,0,.8-3.54c-.32-.8-6.11-1.93-8-2.73S158.83,101.74,158.83,102.55Z" style="fill:#263238;stroke:#263238;stroke-linecap:round;stroke-linejoin:round"></path><path d="M154.81,96.76a7,7,0,0,1,5.31.8" style="fill:none;stroke:#263238;stroke-linecap:round;stroke-linejoin:round"></path><polygon points="143.47 96.21 135.68 97.24 142.75 98.04 143.47 96.21" style="fill:#263238;stroke:#263238;stroke-linecap:round;stroke-linejoin:round"></polygon><path d="M131.68,123.19s1.29,43.71.43,51.9-1.07,67.4-3.87,78.16-14.65,18.95-22,21.75-18.73,3.23-18.73,3.23,5.6-61.58,5.6-63.52-1.94-51-1.94-51S92.71,127.5,97,126.21s29.07-.22,29.07-.22Z" style="fill:#92E3A9;stroke:#263238;stroke-linecap:round;stroke-linejoin:round"></path><path d="M126.08,126A223.93,223.93,0,0,0,124,158.61c.37,16,1.49,19.38,1.49,19.38" style="fill:none;stroke:#263238;stroke-linecap:round;stroke-linejoin:round"></path><path d="M156,132.45a111.13,111.13,0,0,1,.43,15.72c-.43,7.75-5,31.87-5.17,35.32s-1.18,66.14-1.18,70.88,13.61,24.77,14.91,23.47.05-17-1-30-1.72-37.68-1.72-37.68l12.71-62L159.89,134.6S157.31,130.94,156,132.45Z" style="fill:#92E3A9;stroke:#263238;stroke-linecap:round;stroke-linejoin:round"></path><path d="M161.28,138.49s1.49,16.4.37,24.6a36.29,36.29,0,0,1-4.1,13" style="fill:none;stroke:#263238;stroke-linecap:round;stroke-linejoin:round"></path><path d="M199.7,177.19a59.65,59.65,0,0,0-3.93-4.81c-.88-.73-2.77-.15-2.48,2.47a26.51,26.51,0,0,0,.88,4.52Z" style="fill:#fff;stroke:#263238;stroke-linecap:round;stroke-linejoin:round"></path><path d="M160.94,193.42c.85-1.61-1.66-7.07-2.28-8.51-5.33-12.41-23.19-14.08-31.86-4.28-3.15,3.56-5.06,8.31-9,10.93-8.48,5.58-19.29-2.88-27.75-4.51-18.47-3.56-32.64,13.37-33.48,30.47a44.65,44.65,0,0,0,22,40c.7.4,1.41.78,2.13,1.13,16.36,8,33.15,1.14,43.59-12.69,3.14-4.15,5.91-8.56,9.08-12.69a13.63,13.63,0,0,1,6.35-5c5.19-1.64,11.51.41,17-.69,3.82-.77,9.48-2.25,11.55-6,2.29-4.12-.2-4.45-3.81-4.51S157,213.35,157.1,207,160.94,193.42,160.94,193.42Z" style="fill:#bdbdbd;stroke:#263238;stroke-linecap:round;stroke-linejoin:round"></path><path d="M121.89,233A3.19,3.19,0,0,0,127,234.2l30.22-26.08a11,11,0,0,1-.07-1.16,21.71,21.71,0,0,1,.58-4.44l-14-4.7-2.46-6.41-11.65,4.91,4.5,9.87-20.35,6.09Z" style="fill:#fff;stroke:#263238;stroke-linecap:round;stroke-linejoin:round"></path><polygon points="143.7 197.82 147.69 207.89 234 171.72 231.08 163.89 143.7 197.82" style="fill:#263238;stroke:#263238;stroke-miterlimit:10"></polygon><path d="M231.08,163.89l3.22-9.11s7.73,2.35,17.87-5.52a30.41,30.41,0,0,1,6.91,17.62s-13.64,2-16.81,8.59L234,171.72Z" style="fill:#bdbdbd;stroke:#263238;stroke-linecap:round;stroke-linejoin:round"></path><path d="M240.24,160.59a1.39,1.39,0,1,0-1.33,1.44A1.38,1.38,0,0,0,240.24,160.59Z" style="fill:#fff;stroke:#263238;stroke-miterlimit:10"></path><path d="M244.9,158.76a1.39,1.39,0,1,0-1.34,1.44A1.39,1.39,0,0,0,244.9,158.76Z" style="fill:#fff;stroke:#263238;stroke-miterlimit:10"></path><path d="M249.56,156.93a1.39,1.39,0,1,0-1.34,1.44A1.39,1.39,0,0,0,249.56,156.93Z" style="fill:#fff;stroke:#263238;stroke-miterlimit:10"></path><path d="M243.22,168.36a1.39,1.39,0,1,0-1.34,1.44A1.39,1.39,0,0,0,243.22,168.36Z" style="fill:#fff;stroke:#263238;stroke-miterlimit:10"></path><path d="M247.88,166.53a1.39,1.39,0,1,0-1.34,1.43A1.39,1.39,0,0,0,247.88,166.53Z" style="fill:#fff;stroke:#263238;stroke-miterlimit:10"></path><path d="M252.54,164.7a1.39,1.39,0,1,0-1.34,1.43A1.39,1.39,0,0,0,252.54,164.7Z" style="fill:#fff;stroke:#263238;stroke-miterlimit:10"></path><path d="M106,229.22l-7.8-20.45a1.23,1.23,0,0,1,.7-1.59h0a1.23,1.23,0,0,1,1.58.7l7.8,20.45a1.23,1.23,0,0,1-.7,1.59h0A1.22,1.22,0,0,1,106,229.22Z" style="fill:#363560"></path><path d="M90.7,244a2.45,2.45,0,1,0-2.42,2.48A2.46,2.46,0,0,0,90.7,244Z" style="fill:#fff;stroke:#263238;stroke-miterlimit:10"></path><path d="M108.76,248a2.45,2.45,0,1,0-2.42,2.47A2.45,2.45,0,0,0,108.76,248Z" style="fill:#fff;stroke:#263238;stroke-miterlimit:10"></path><path d="M101.06,236.49A2.45,2.45,0,1,0,98.64,239,2.44,2.44,0,0,0,101.06,236.49Z" style="fill:#fff;stroke:#263238;stroke-miterlimit:10"></path><polygon points="181.09 183.08 179.99 183.51 183.56 192.83 184.65 192.37 181.09 183.08" style="fill:#fff;stroke:#263238;stroke-miterlimit:10"></polygon><polygon points="188.54 180.14 187.44 180.58 190.94 189.73 192.04 189.27 188.54 180.14" style="fill:#fff;stroke:#263238;stroke-miterlimit:10"></polygon><polygon points="171.44 186.89 170.33 187.32 173.98 196.85 175.08 196.39 171.44 186.89" style="fill:#fff;stroke:#263238;stroke-miterlimit:10"></polygon><polygon points="195.99 177.21 194.88 177.64 198.33 186.63 199.42 186.17 195.99 177.21" style="fill:#fff;stroke:#263238;stroke-miterlimit:10"></polygon><polygon points="162.33 190.48 161.23 190.91 164.96 200.64 166.05 200.18 162.33 190.48" style="fill:#fff;stroke:#263238;stroke-miterlimit:10"></polygon><polygon points="154.84 204.89 155.93 204.43 152.12 194.5 151.02 194.94 154.84 204.89" style="fill:#fff;stroke:#263238;stroke-miterlimit:10"></polygon><polygon points="203.44 174.27 202.33 174.71 205.71 183.53 206.81 183.06 203.44 174.27" style="fill:#fff;stroke:#263238;stroke-miterlimit:10"></polygon><polygon points="223.29 166.96 222.18 167.4 225.25 175.39 226.34 174.93 223.29 166.96" style="fill:#fff;stroke:#263238;stroke-miterlimit:10"></polygon><polygon points="217.49 169.27 216.39 169.7 219.51 177.86 220.61 177.4 217.49 169.27" style="fill:#fff;stroke:#263238;stroke-miterlimit:10"></polygon><polygon points="210.88 171.33 209.78 171.77 213.1 180.42 214.19 179.96 210.88 171.33" style="fill:#fff;stroke:#263238;stroke-miterlimit:10"></polygon><line x1="233.67" y1="165.88" x2="102.85" y2="215.97" style="fill:none;stroke:#263238;stroke-linecap:round;stroke-linejoin:round"></line><line x1="103.23" y1="218.55" x2="233.13" y2="168.1" style="fill:none;stroke:#263238;stroke-linecap:round;stroke-linejoin:round"></line><line x1="233.9" y1="169.65" x2="105.55" y2="220.79" style="fill:none;stroke:#263238;stroke-linecap:round;stroke-linejoin:round"></line><line x1="106.32" y1="222.92" x2="234" y2="171.72" style="fill:none;stroke:#263238;stroke-linecap:round;stroke-linejoin:round"></line><line x1="231.08" y1="163.89" x2="102.65" y2="213.27" style="fill:none;stroke:#263238;stroke-linecap:round;stroke-linejoin:round"></line><path d="M123.48,195.3a44.82,44.82,0,0,0,5.7,1.88c1.86.35,4.66-.23,4,1.52s-3.38,1.4-4,1.28S123.48,195.3,123.48,195.3Z" style="fill:#fff;stroke:#263238;stroke-linecap:round;stroke-linejoin:round"></path><path d="M103.56,190.82s7.38,1.35,9.4,1.57,9.4,2,10.52,2.91,8.28,5.15,8.28,6.49-.45,4-1.34,4.93-5.38,3.13-6.27,3.58-4.48,1.56-6.72,1.12-7.38-2.24-7.38-2.24a69.92,69.92,0,0,1-6.72-3.13,29.28,29.28,0,0,1-4-3.36Z" style="fill:#fff;stroke:#263238;stroke-linecap:round;stroke-linejoin:round"></path><path d="M123.47,200.1s5.47,3.14,5.82,3.61a20.44,20.44,0,0,1,1.13,3" style="fill:none;stroke:#263238;stroke-linecap:round;stroke-linejoin:round"></path><path d="M121,203.71s4.2,2.21,4.55,2.91.93,1.86.93,1.86" style="fill:none;stroke:#263238;stroke-linecap:round;stroke-linejoin:round"></path><path d="M116.13,206.85a49.19,49.19,0,0,0,6.76,3.15" style="fill:none;stroke:#263238;stroke-linecap:round;stroke-linejoin:round"></path><path d="M97,126.21s-47.4,50.29-47.62,52.3.44,9.18,2.24,10.3,45.43,23.95,46.11,23.73S106,189.7,106,189.7l-24.4-10.07,9.85-8.95s1.57-32.23,2.91-36.49S97,126.21,97,126.21Z" style="fill:#92E3A9;stroke:#263238;stroke-linecap:round;stroke-linejoin:round"></path><path d="M81.62,179.63s-10.74-8.73-11.86-9.4-13.43-2.91-11,2" style="fill:none;stroke:#263238;stroke-linecap:round;stroke-linejoin:round"></path><path d="M75.13,167.1s-6.49-.67-9.63.22" style="fill:none;stroke:#263238;stroke-linecap:round;stroke-linejoin:round"></path><path d="M209,185.64s-5.39-6-9.33-8.45-6.12-1.46-7,.29a5.15,5.15,0,0,0-.44,3.35,18,18,0,0,1-1.6,3.64c-.87,1.31.29,4.37.73,5.68s-.58,3.79,0,5.39,1.89,6,3.64,6.41,7.58-.87,8.16-2.18,1.89-3.94,1.89-3.94,5.39-7.86,4.66-9Z" style="fill:#fff;stroke:#263238;stroke-linecap:round;stroke-linejoin:round"></path><path d="M192.71,177.48s7.14,3.2,8.45,4.8,3.2,4.08,3.2,4.08" style="fill:none;stroke:#263238;stroke-linecap:round;stroke-linejoin:round"></path><path d="M192.56,181.85s4.37,3.06,5.39,4.51a14.1,14.1,0,0,1,1.61,3.35" style="fill:none;stroke:#263238;stroke-linecap:round;stroke-linejoin:round"></path><path d="M191.4,183.45s3.64,6.26,4.22,7.14" style="fill:none;stroke:#263238;stroke-linecap:round;stroke-linejoin:round"></path></g></svg>
