<svg xmlns="http://www.w3.org/2000/svg" viewBox="0 0 500 500" opacity="0.1"><g id="freepik--Rocket--inject-66"><path d="M225.7,84.52s-6.11-7.86-9.09-7.9-5.79,6.2-7.88,5.87S204.37,75,199,76.69s-6.7,10-10.27,9.7-20.84-30.77-20.84-30.77l-12.44,7.23s18.61,29.68,17,32.89-9.36-.06-13.66,3.61.6,9.41-.22,11.35-6.19.92-7.72,3.48.48,12,.48,12L186.19,99.5l0,0Z" style="fill:#fff;stroke:#263238;stroke-miterlimit:10"></path><path d="M144,48.19,140.72,63l3.87,7.35,9.68-5.09S149.31,59.26,144,48.19Z" style="fill:#92E3A9;stroke:#263238;stroke-miterlimit:10"></path><path d="M160.77,39.35l14,5.68,3.87,7.35L169,57.48S166.88,50,160.77,39.35Z" style="fill:#92E3A9;stroke:#263238;stroke-miterlimit:10"></path><path d="M141,22.4s-7.93,23,13.26,42.82L169.9,57S166.06,30.45,141,22.4Z" style="fill:#fff;stroke:#263238;stroke-miterlimit:10"></path><path d="M149,59.44a51.9,51.9,0,0,0,5.31,5.78L169.9,57a42.44,42.44,0,0,0-2-7.5Z" style="fill:#92E3A9;stroke:#263238;stroke-miterlimit:10"></path><circle cx="150.54" cy="39.84" r="6.14" transform="translate(70.05 173.14) rotate(-73.7)" style="fill:#92E3A9;stroke:#263238;stroke-miterlimit:10"></circle><path d="M154,38a3.85,3.85,0,1,0-1.61,5.21A3.85,3.85,0,0,0,154,38Z" style="fill:#fff;stroke:#263238;stroke-miterlimit:10"></path></g><g id="freepik--Stars--inject-66"><polygon points="446.17 207.99 438 213.66 438.05 223.6 430.13 217.59 420.69 220.71 423.96 211.32 418.08 203.3 428.02 203.51 433.83 195.44 436.7 204.96 446.17 207.99" style="fill:#fff;stroke:#263238;stroke-miterlimit:10"></polygon><polygon points="64.56 247.88 62.6 254.69 67.1 260.17 60.01 260.41 56.19 266.38 53.77 259.71 46.91 257.93 52.51 253.57 52.09 246.49 57.96 250.46 64.56 247.88" style="fill:#fff;stroke:#263238;stroke-miterlimit:10"></polygon><polygon points="179.36 335.93 177.4 342.74 181.9 348.22 174.81 348.46 170.99 354.43 168.58 347.77 161.72 345.98 167.31 341.62 166.89 334.54 172.76 338.51 179.36 335.93" style="fill:#fff;stroke:#263238;stroke-miterlimit:10"></polygon><polygon points="344.48 335.93 342.51 342.74 347.01 348.22 339.93 348.46 336.11 354.43 333.69 347.77 326.83 345.98 332.42 341.62 332 334.54 337.87 338.51 344.48 335.93" style="fill:#fff;stroke:#263238;stroke-miterlimit:10"></polygon><polygon points="99.17 124.23 97.8 129.01 100.95 132.85 95.98 133.01 93.31 137.2 91.61 132.53 86.81 131.27 90.73 128.22 90.43 123.26 94.55 126.05 99.17 124.23" style="fill:#fff;stroke:#263238;stroke-miterlimit:10"></polygon><polygon points="190.6 26.57 186.3 29.07 185.93 34.03 182.23 30.72 177.4 31.89 179.4 27.34 176.79 23.12 181.74 23.62 184.95 19.83 186 24.69 190.6 26.57" style="fill:#fff;stroke:#263238;stroke-miterlimit:10"></polygon><polygon points="455.21 223.38 453.83 228.16 456.99 232 452.02 232.16 449.34 236.35 447.65 231.68 442.84 230.43 446.76 227.37 446.47 222.41 450.58 225.2 455.21 223.38" style="fill:#fff;stroke:#263238;stroke-miterlimit:10"></polygon><polygon points="297.56 47.55 295.59 54.36 300.09 59.84 293.01 60.08 289.19 66.05 286.77 59.39 279.91 57.6 285.5 53.24 285.08 46.16 290.95 50.13 297.56 47.55" style="fill:#fff;stroke:#263238;stroke-miterlimit:10"></polygon></g><g id="freepik--World--inject-66"><circle cx="255.46" cy="208.11" r="133.18" style="fill:#92E3A9;stroke:#263238;stroke-miterlimit:10"></circle><path d="M228.71,331.33a124.33,124.33,0,0,0,21.71,2.76" style="fill:none;stroke:#263238;stroke-miterlimit:10"></path><path d="M212.39,326.6c3.61,1.31,7.28,2.47,11,3.45" style="fill:none;stroke:#263238;stroke-miterlimit:10"></path><path d="M134.19,173.61a126.13,126.13,0,0,0,73.64,151.22" style="fill:none;stroke:#263238;stroke-miterlimit:10"></path><path d="M151.14,137.34a127.3,127.3,0,0,0-11.65,21.32" style="fill:none;stroke:#263238;stroke-miterlimit:10"></path><polygon points="237.41 148.96 250.99 151.77 255.62 156.57 261.65 157.5 263.57 163.22 262.16 167.1 258.05 168.98 247.97 167.34 247.7 166.1 252.46 162.78 249.17 156.71 240.16 155.47 235.36 151.36 237.41 148.96" style="fill:#fff;stroke:#263238;stroke-miterlimit:10"></polygon><path d="M346.83,274.25l-10.77-1.82-13-1.65-9.56,2.12-9.36.14-9.4,4.35-5.48,1.55-3.4.75-5.66,5.14-5.62,3.84-9.5-3.4.25-9.11-5.73-1-6.17,1.37L251.9,274l-.62-5.69-2.84-2.61-4.19,1.58-.55,3.36-5.17,1.47-5.86-4.52-3.5-7,2.71-9.67,9.08-1.37,2.95,1.62,3.71-.83,4-3.8,4.28.34,7.68,8.33,2.09-.78-2.19-7-2.67-3.3-.69-6,10.32-7.47-1-11.76,4-5.11,2.44-8,2.95-1.31,6.07-6.2-.24-2.54-4.87,1.41-1.47-2.27-3.4.76-5,2.4,1.58-4.56L281.7,188l1.85-3.32,5.83,5.83,3.4,2.16,4-2.2-2.74-3.6-7.51-3.18L277.32,177l-8.88-3.53-7.68.41L256.23,171l-5.21-.14-.34,1.37,1.37,9.08,1.92,2.82-.59,10.49-7.26-3.57,0-4.53-7.16-1.64-3.53-2.78-.17-8.06,7.51-8.46-1-7.55-3.33,1.07-2.77-2.3-2-4.42-2.23.17-.13,5.21L228,159.14l-3.94-10.46-2.81-1-4.73-.89-4.39,3.56,7.47,4.49,2.4,5-13-5.86-9.56-6.62L197,139.15l-8.57-.69-5.28,5.38a49.78,49.78,0,0,1-4.08,3.5c-1.41,1-7.13,2.88-7.13,2.88l-.07,5.52-7,1.88,1.37,3.26,11.83-.68,7.3,5.17,2.4,10.8-1.27,10.32,2.88,10-5.29,17,3.15,22.93,5.66,12.35,6.2,9,4.77-.41-2.64-4.6-3.29-3.15-3.05-6.45,2.64-1.23,6.78,10.15,5.28,9.19,1.78,8,7.44,5.79L231,280.54l17,.76,6,3.53,4.8,4.11,6.3,2.16,7.2.35,6.72-1.82s.38,3.15.72,4.7-2.81,7.75-2.81,7.75l-2,6.92,4,6.24,7.41,1.27L298,324.26l4.73.89,1,4.63,1,2A132.7,132.7,0,0,0,362.76,287l-.33-2.27,5-17-4.63-1.89Z" style="fill:#fff;stroke:#263238;stroke-miterlimit:10"></path><path d="M351.85,145.24l-4.69-5.11-5.83-5.83-3.29-9,5.76-.31-.38-3.15-4.08.58,3.05-2.3,3.23-3-.69-3.09-4.8-4.11-2.26-6.47a133.28,133.28,0,0,0-160.8-3.08l8.24,3.46-3.09,6.51-5.59,2.54,1.24,8.47-2.27,1.47-2.33,4.08,1.54,5.49,5.39-.55-1,5.72,5.25-1.16L190.86,123l-.17-5.14,8.5-2.53,1.34-4.19,8.74-2.91-.24-5.45,6.41-1.75s4.08-3.5,5-3.7a37.87,37.87,0,0,1,5.59.38l5.45,2.67L238,99l4.8-4.62,7.23-1a7.86,7.86,0,0,0,3.67.48c1.54-.35,5.69-3.53,5.69-3.53l10.18,3.56,4.32,2,1,4.63,4.77-.41.92-3.12,4.43,1,.24,2.53L276.54,105l6.75,5.62,12.48,3.71,6,5.14,6.92-.89.86-3.43,2.33-1.16-9.39-4.39-5.07.48,3.73-2.13-4.87-4.42,5.18-1.48,7.61,2.2,3.19,7.06,4.28,3.26,4.77,8.33,7.88,3.43,2.27,10.18,8.12,3.06L340,143l0,4.22,3.09,5.14,1.23,2.64,5.45-.24,1.3-5.79Z" style="fill:#fff;stroke:#263238;stroke-miterlimit:10"></path><path d="M349,113.26l.39,1.77-.44,5.28,1.88,4.12,3.67.48,1.3,5.86-4-.72,2.77,16.87-2.19,7.61,4.38,8.09,4.84,2.81,3.7,16.67,6.89,12.06,6.51,8.92,7.51.27,1.1-6.72.83-1a135.56,135.56,0,0,0-2.59-16.38A132.57,132.57,0,0,0,349,113.26Z" style="fill:#fff;stroke:#263238;stroke-miterlimit:10"></path><polygon points="277.25 127.16 254.9 122.73 246.02 125.03 245.16 131.37 240.57 128.18 234.13 131.23 235.77 141.55 242.21 144.33 244.92 137.58 250.58 141.18 262 147.38 265.83 155.92 276.12 164.32 288.6 159.28 287.26 154.73 283.32 150.1 279.96 137.89 281.88 131.96 277.25 127.16" style="fill:#fff;stroke:#263238;stroke-miterlimit:10"></polygon><polygon points="295.42 130.25 290.52 130.04 287.26 134.33 291.41 142.79 295.42 141.9 295.42 130.25" style="fill:#fff;stroke:#263238;stroke-miterlimit:10"></polygon><polygon points="325.42 129.74 313.7 126.51 310.71 123.29 308.45 124.77 311.98 130.46 315.62 138.07 320.66 138.89 321.31 137.45 317.5 133.44 326.21 134.74 325.42 129.74" style="fill:#fff;stroke:#263238;stroke-miterlimit:10"></polygon><polygon points="260.06 261.14 259.1 262.65 268.97 263.37 273.63 266.87 279.63 266.18 281.04 262.31 273.67 262.65 260.06 261.14" style="fill:#fff;stroke:#263238;stroke-miterlimit:10"></polygon><polygon points="288.82 260.9 282.75 264.19 284.23 266.46 292.25 264.67 293.25 261.86 290.54 262.79 288.82 260.9" style="fill:#fff;stroke:#263238;stroke-miterlimit:10"></polygon></g><g id="freepik--Airplane--inject-66"><polygon points="415 77.52 357.47 62.24 371.24 80 415 77.52" style="fill:#fff;stroke:#263238;stroke-linecap:round;stroke-linejoin:round"></polygon><polygon points="371.24 80 370.81 91.95 415 77.52 371.24 80" style="fill:#fff;stroke:#263238;stroke-linecap:round;stroke-linejoin:round"></polygon><polygon points="376.45 85.97 370.81 91.95 415 77.52 376.45 85.97" style="fill:#fff;stroke:#263238;stroke-linecap:round;stroke-linejoin:round"></polygon><polygon points="415 77.52 376.45 85.97 386.5 103.48 415 77.52" style="fill:#fff;stroke:#263238;stroke-linecap:round;stroke-linejoin:round"></polygon><path d="M361.77,89.21l-1.48.2" style="fill:none;stroke:#263238;stroke-linecap:round;stroke-linejoin:round"></path><path d="M357.33,89.83C324.51,94.51,119.43,125.56,76.6,176c-38.08,44.85,25.2,57.41,40,59.68" style="fill:none;stroke:#263238;stroke-linecap:round;stroke-linejoin:round;stroke-dasharray:2.9882700443267822,2.9882700443267822"></path><path d="M118,235.89c.95.14,1.48.19,1.48.19" style="fill:none;stroke:#263238;stroke-linecap:round;stroke-linejoin:round"></path></g><g id="freepik--Clouds--inject-66"><path d="M138.54,76.15a11.14,11.14,0,0,0-14.37-10.66,16.31,16.31,0,0,0-30.74-.06,10.91,10.91,0,0,0-3-.42,11.14,11.14,0,0,0-2.31,22L130,87A11.14,11.14,0,0,0,138.54,76.15Z" style="fill:#fff;stroke:#263238;stroke-miterlimit:10"></path><path d="M148.51,81.68a5.47,5.47,0,0,0-7.07-5.24,8,8,0,0,0-15.13,0,5.48,5.48,0,1,0-2.6,10.64l20.6,0A5.48,5.48,0,0,0,148.51,81.68Z" style="fill:#fff;stroke:#263238;stroke-miterlimit:10"></path><path d="M443.1,139.73a11.14,11.14,0,0,0-14.37-10.66A16.32,16.32,0,0,0,398,129a10.89,10.89,0,0,0-3-.42,11.14,11.14,0,0,0-2.31,22l41.88-.08A11.14,11.14,0,0,0,443.1,139.73Z" style="fill:#fff;stroke:#263238;stroke-miterlimit:10"></path><path d="M453.07,145.27a5.48,5.48,0,0,0-5.48-5.48A5.56,5.56,0,0,0,446,140a8,8,0,0,0-15.13,0,5.42,5.42,0,0,0-1.46-.2,5.48,5.48,0,0,0-1.14,10.84l20.61,0A5.48,5.48,0,0,0,453.07,145.27Z" style="fill:#fff;stroke:#263238;stroke-miterlimit:10"></path><path d="M123.2,237.93a11.13,11.13,0,0,0-14.36-10.67,16.32,16.32,0,0,0-30.75-.06,11.29,11.29,0,0,0-3-.42,11.14,11.14,0,0,0-2.31,22l41.88-.08A11.11,11.11,0,0,0,123.2,237.93Z" style="fill:#fff;stroke:#263238;stroke-miterlimit:10"></path><path d="M133.17,243.46a5.48,5.48,0,0,0-5.48-5.48,5.61,5.61,0,0,0-1.59.23,8,8,0,0,0-15.12,0,5.48,5.48,0,1,0-2.61,10.64l20.61,0A5.48,5.48,0,0,0,133.17,243.46Z" style="fill:#fff;stroke:#263238;stroke-miterlimit:10"></path></g></svg>