<?xml version="1.0" encoding="UTF-8" standalone="no"?>
<!-- Generator: Adobe Illustrator 27.5.0, SVG Export Plug-In . SVG Version: 6.00 Build 0)  -->

<svg
   version="1.1"
   id="Layer_1"
   x="0px"
   y="0px"
   viewBox="0 0 4000 4000"
   style="enable-background:new 0 0 4000 4000;"
   xml:space="preserve"
   sodipodi:docname="radio-cat-noBg.svg"
   inkscape:version="1.4.2 (f4327f4, 2025-05-13)"
   xmlns:inkscape="http://www.inkscape.org/namespaces/inkscape"
   xmlns:sodipodi="http://sodipodi.sourceforge.net/DTD/sodipodi-0.dtd"
   xmlns="http://www.w3.org/2000/svg"
   xmlns:svg="http://www.w3.org/2000/svg"><defs
   id="defs272"><clipPath
     clipPathUnits="userSpaceOnUse"
     id="clipPath272"><rect
       style="fill:#5048ec"
       id="rect273"
       width="3480.7017"
       height="3518.1287"
       x="187.13451"
       y="233.91812" /></clipPath></defs><sodipodi:namedview
   id="namedview272"
   pagecolor="#ffffff"
   bordercolor="#000000"
   borderopacity="0.25"
   inkscape:showpageshadow="2"
   inkscape:pageopacity="0.0"
   inkscape:pagecheckerboard="0"
   inkscape:deskcolor="#d1d1d1"
   inkscape:zoom="0.21375"
   inkscape:cx="2000"
   inkscape:cy="2000"
   inkscape:window-width="1850"
   inkscape:window-height="1057"
   inkscape:window-x="-8"
   inkscape:window-y="-8"
   inkscape:window-maximized="1"
   inkscape:current-layer="g272" />
<g
   id="g272">
	
	<g
   id="g271">
		<g
   id="g2">
			<ellipse
   style="fill:#A36DE8;"
   cx="2115.427"
   cy="3537.151"
   rx="1455.316"
   ry="98.315"
   id="ellipse1" />
		</g>
		<g
   id="g270">
			<g
   id="g7">
				<g
   id="g3">
					<path
   style="fill:#66DBFF;"
   d="M2692.841,2101.022v481.877h-73.646v-458.288c0-20-16.212-36.251-36.212-36.251H1135.26       c-20.039,0-36.251,16.251-36.251,36.251v458.288h-73.646v-481.877c0-69.859,56.605-126.465,126.425-126.465h1414.627       C2636.235,1974.557,2692.841,2031.163,2692.841,2101.022z"
   id="path2" />
				</g>
				<g
   id="g4">
					<path
   style="fill:#1799E2;"
   d="M2582.943,2088.36c20.039,0,36.251,16.251,36.251,36.25v458.288h73.646v-17.409h-44.4v-441.567       c0-39.872-20.261-72-85.765-72H1155.528c-65.503,0-85.765,32.128-85.765,72v441.567h-44.4v17.409h73.646v-458.288       c0-19.999,16.213-36.25,36.251-36.25H2582.943z"
   id="path3" />
				</g>
				<g
   style="opacity:0.6;"
   id="g5">
					<path
   style="fill:#FFFFFF;"
   d="M2566.415,1974.557H1151.788c-69.821,0-126.425,56.606-126.425,126.465v35.367       c0-69.86,56.605-126.465,126.425-126.465h1414.627c69.82,0,126.426,56.606,126.426,126.465v-35.367       C2692.841,2031.162,2636.235,1974.557,2566.415,1974.557z"
   id="path4" />
				</g>
				<g
   id="g6">
					<path
   style="fill:#070766;"
   d="M2692.84,2601.488h-73.645c-10.268,0-18.59-8.323-18.59-18.59v-458.287       c0-9.739-7.906-17.662-17.623-17.662H1135.259c-9.736,0-17.659,7.923-17.659,17.662v458.287c0,10.268-8.323,18.59-18.59,18.59       h-73.647c-10.268,0-18.59-8.323-18.59-18.59v-481.876c0-79.986,65.054-145.057,145.016-145.057h1414.627       c79.962,0,145.015,65.071,145.015,145.057v481.876C2711.43,2593.166,2703.107,2601.488,2692.84,2601.488z M2637.785,2564.308       h36.464v-463.285c0-59.483-48.374-107.876-107.835-107.876H1151.787c-59.461,0-107.835,48.394-107.835,107.876v463.285h36.467       v-439.697c0-30.24,24.6-54.842,54.84-54.842h1447.723c30.22,0,54.803,24.603,54.803,54.842V2564.308z"
   id="path5" />
				</g>
			</g>
			<g
   id="g136">
				<g
   id="g8">
					<path
   style="fill:#FFFFFF;"
   d="M2937.284,2009.438c198.071,41.964,197.4,302.478,247.085,432.735       s153.589,209.989,288.043,124.382c0,0-2.378,46.293-7.554,85.607l79.061-13.596c0,0-17.122,296.937-329.335,296.1       c-302.571-0.811-289.05-345.45-277.3-485.778c9.524-113.745,31.557-271.928-33.572-358.543L2937.284,2009.438z"
   id="path7" />
				</g>
				<g
   id="g9">
					<path
   style="fill:#C0D5FF;"
   d="M3324.261,2760.919l13.291-35.861c0,0-113.736,37.182-208.852-33.44       c-146.503-108.777-112.02-331.314-112.02-331.314l31.327,17.088c-18.037-87.338-6.645-230.686-130.54-320.196l-13.755,33.149       c58.607,77.941,46.635,213.822,36.71,323.139v0.001c3.996,233.554,61.069,487.934,327.829,466.1       c182.519-14.939,224.99-184.587,224.99-184.587S3416.347,2753.324,3324.261,2760.919z"
   id="path8" />
				</g>
				<g
   id="g10">
					<path
   style="fill:#070766;"
   d="M3215.885,2953.259c-0.456,0-0.895,0-1.35-0.002c-87.436-0.234-157.228-28.105-207.433-82.838       c-76.318-83.198-105.215-221.59-88.345-423.083c0.909-10.857,1.933-22.115,2.983-33.676       c9.69-106.697,21.749-239.485-32.886-312.141c-6.171-8.208-4.521-19.863,3.685-26.033c8.206-6.176,19.86-4.518,26.033,3.685       c63.241,84.102,50.463,224.799,40.198,337.852c-1.043,11.471-2.057,22.643-2.959,33.415       c-15.734,187.923,10.74,320.77,78.692,394.846c42.898,46.768,103.504,70.584,180.129,70.791c0.424,0,0.858,0,1.279,0       c121.19,0,209.894-46.208,263.684-137.361c26.584-45.05,37.917-90.78,42.611-117.552l-54.197,9.32       c-5.834,0.992-11.779-0.824-16.036-4.921c-4.26-4.094-6.317-9.97-5.547-15.829c2.213-16.799,3.912-35.05,5.123-50.251       c-48.116,23.111-94.543,27.491-138.408,12.968c-61.788-20.455-113.689-78.575-146.141-163.652       c-12.581-32.979-21.885-73.299-31.739-115.987c-29.85-129.33-63.682-275.918-201.83-305.185       c-10.046-2.13-16.463-11.998-14.335-22.041c2.13-10.046,12-16.46,22.041-14.335c161.339,34.183,199.604,199.98,230.354,333.2       c9.556,41.404,18.581,80.512,30.247,111.096c28.395,74.439,72.109,124.729,123.089,141.608       c42.05,13.914,88.345,5.077,137.602-26.282c5.871-3.731,13.336-3.875,19.343-0.38c6.012,3.502,9.566,10.068,9.208,17.016       c-0.078,1.523-1.589,30.469-4.806,62.124l54.594-9.388c5.588-0.955,11.308,0.68,15.537,4.458       c4.226,3.775,6.5,9.276,6.176,14.935c-0.185,3.212-5.057,79.574-50.095,156.672       C3470.52,2867.965,3385.104,2953.254,3215.885,2953.259z"
   id="path9" />
				</g>
				<g
   id="g17">
					<g
   id="g11">
						<path
   style="fill:#FFFFFF;"
   d="M2246.721,1770.409c0,0,5.036,323.628-80.571,485.107h-279.804        c0,0-24.857-92.993,62.765-123.71c0,0,29.173-382.546,61.67-604.118L2246.721,1770.409z"
   id="path10" />
					</g>
					<g
   id="g12">
						<path
   style="fill:#C0D5FF;"
   d="M2246.72,1770.409l-235.94-242.722c-12.715,86.689-24.92,198.018-35.069,301.438        c38.252,121.243,111.131,241.95,111.131,241.95s0.132,41.137-14.285,63.181c-6.51,9.956-49.036,2.658-49.036,2.658        s73.579,67.066,6.493,67.066c-47.325,0-111.299,0-144.906,0c-5.136,27.594,1.237,51.534,1.237,51.534h279.804        C2251.756,2094.037,2246.72,1770.409,2246.72,1770.409z"
   id="path11" />
					</g>
					<g
   id="g13">
						<path
   style="fill:#070766;"
   d="M2175.099,2270.39h-300.174l-2.949-11.033c-9.434-35.299-7.562-107.596,63.031-138.009        c4.716-60.087,31.678-395.49,61.059-595.818c1.194-8.125,8.752-13.743,16.875-12.556c8.125,1.192,13.748,8.747,12.556,16.875        c-32.05,218.516-61.267,599.267-61.557,603.088l-0.739,9.69l-9.171,3.214c-57.923,20.306-58.291,71.97-55.357,94.801h258.385        c78.631-158.788,74.839-466.858,74.79-470.005c-0.127-8.211,6.429-14.971,14.64-15.1c8.384,0.039,14.976,6.427,15.103,14.64        c0.207,13.37,4.102,329.325-82.301,492.304L2175.099,2270.39z"
   id="path12" />
					</g>
					<g
   id="g14">
						<path
   style="fill:#070766;"
   d="M2041.9,2146.841c-29.418-7.529-61.197-7.632-90.536-0.334        c-19.079,5.236-27.495-22.563-8.659-28.758c5.878-1.387,12.165-0.563,17.612-0.478c21.044,1.254,41.955,5.31,61.687,12.585        c7.841,2.749,15.356,6.351,22.653,10.077c1.835,0.938,2.563,3.185,1.626,5.021        C2045.45,2146.589,2043.586,2147.331,2041.9,2146.841L2041.9,2146.841z"
   id="path13" />
					</g>
					<g
   id="g15">
						<path
   style="fill:#070766;"
   d="M2014.075,2182.774c0.204,23.722,3.435,47.81,10.8,70.34        c4.408,14.248-16.411,21.116-21.322,7.001c-3.828-26.016-1.716-52.53,3.138-78.229        C2007.567,2177.468,2014.281,2178.28,2014.075,2182.774L2014.075,2182.774z"
   id="path14" />
					</g>
					<g
   id="g16">
						<path
   style="fill:#070766;"
   d="M1949.133,2183.171c-1.562,17.537,0.121,35.869,4.874,52.81        c1.508,5.702,3.648,11.13,5.848,16.436c2.371,5.727-0.35,12.293-6.077,14.662c-5.727,2.371-12.291-0.349-14.662-6.076        c-2.008-7.15-2.852-14.661-3.44-21.922c-1.369-19.503,0.637-38.858,6.213-57.592c0.607-1.964,2.692-3.066,4.657-2.459        C1948.349,2179.583,1949.405,2181.377,1949.133,2183.171L1949.133,2183.171z"
   id="path15" />
					</g>
				</g>
				<g
   id="g18">
					<path
   style="fill:#FFFFFF;"
   d="M1990.571,1471.959c-63.114,447.843,148.386,580.953,199.75,613.685       c43.089,27.459,163.157,96.686,163.157,96.686l22.157,73.186h477.385c0,0,165.047-94.581,115.821-308.857       c-42.803-186.321-179.686-266.125-300.128-335.714c-181.286-104.743-214.857-163.157-214.857-163.157L1990.571,1471.959z"
   id="path17" />
				</g>
				<g
   id="g19">
					<path
   style="fill:#C0D5FF;"
   d="M2715.799,2255.516h137.221c0,0,165.047-94.58,115.821-308.857       c-1.963-8.546-4.19-16.794-6.538-24.901c12.45,270.175-172.069,247.415-172.069,247.415S2835.531,2231.51,2715.799,2255.516z"
   id="path18" />
				</g>
				<g
   id="g22">
					<g
   id="g20">
						<path
   style="fill:#C0D5FF;"
   d="M2005.649,1832.51c1.145,3.916,2.318,7.778,3.52,11.582c0,0,0-0.001,0-0.001        C2008.084,1839.507,2006.899,1835.727,2005.649,1832.51z"
   id="path19" />
					</g>
					<g
   id="g21">
						<path
   style="fill:#C0D5FF;"
   d="M2517.138,2131.633c49.069-0.533,130.571,17.288,130.571,17.288        c-15.822-83.541-143.172-135.959-143.172-135.959c7.398-134.171,69.301-200.622,68.074-200.209        c-68.074,22.89-131.149,89.451-108.292,6.917l-296.491,99.46c0,0-94.589,56.851-141.812-29.183        c52.793,125.139,134.858,176.931,164.305,195.697c43.089,27.459,163.157,96.686,163.157,96.686l19.493,64.385l70.986-2.735        C2443.956,2243.98,2443.845,2149.554,2517.138,2131.633z"
   id="path20" />
					</g>
				</g>
				<g
   id="g23">
					<path
   style="fill:#C0D5FF;"
   d="M2532.248,1521.942c-63.485-48.24-78.392-74.154-78.392-74.154l-463.285,24.171       c-4.776,33.886-7.956,65.941-9.775,96.315C2135.711,1758.569,2387.662,1683.151,2532.248,1521.942z"
   id="path22" />
				</g>
				<g
   id="g24">
					<path
   style="fill:#070766;"
   d="M2856.981,2270.39h-492.385l-23.647-78.122c-23.613-13.645-120.301-69.66-158.622-94.082       l-0.521-0.331c-25.95-16.536-94.882-60.455-147.852-157.187c-65.68-119.943-85.231-278.338-58.111-470.785       c1.146-8.135,8.666-13.799,16.804-12.651c8.133,1.145,13.797,8.669,12.651,16.804c-28.085,199.292-17.489,464.94,192.49,598.73       l0.526,0.336c42.316,26.967,161.396,95.652,162.592,96.342l5.101,2.942l20.664,68.256h462.167       c22.609-14.389,148.396-103.967,105.508-290.655c-41.545-180.836-175.175-258.044-293.075-326.164       c-182.647-105.532-218.857-166.097-220.31-168.624c-4.092-7.121-1.638-16.214,5.484-20.306       c7.126-4.094,16.214-1.635,20.306,5.484c0.258,0.427,36.03,57.518,209.402,157.691       c117.057,67.632,262.74,151.803,307.186,345.261c26.647,115.995-7.991,198.132-41.74,246.609       c-36.598,52.571-79.379,77.449-81.183,78.482L2856.981,2270.39z"
   id="path23" />
				</g>
				<g
   id="g31">
					<g
   id="g25">
						<path
   style="fill:#FFFFFF;"
   d="M1754.729,995.917c-66.807-71.843-111.793-267.9-68.15-320.271s206.128,2.014,259.843,34.243        L1754.729,995.917z"
   id="path24" />
					</g>
					<g
   id="g26">
						<path
   style="fill:#C0D5FF;"
   d="M1892.47,790.391c-63.692-47.5-145.153-98.801-175.733-77.104        c-27.13,19.249-10.126,149.614,33.543,255.772l24.754-3.44L1892.47,790.391z"
   id="path25" />
					</g>
					<g
   id="g27">
						<path
   style="fill:#070766;"
   d="M1754.734,1014.506c-4.986,0-9.956-1.991-13.619-5.93        c-33.449-35.969-64.118-103.453-80.04-176.118c-8.099-36.961-23.216-127.388,11.223-168.716        c57.482-68.978,241.779,5.057,283.69,30.206c8.803,5.281,11.659,16.702,6.375,25.507c-5.281,8.803-16.702,11.652-25.507,6.375        c-60.353-36.211-204.583-75.979-235.995-38.285c-33.771,40.527,0.894,224.105,67.481,295.71        c6.992,7.518,6.566,19.282-0.953,26.275C1763.81,1012.859,1759.264,1014.506,1754.734,1014.506z"
   id="path26" />
					</g>
					<g
   id="g28">
						<path
   style="fill:#FFB3DB;"
   d="M1796.022,935.488c-51.029-63.786-74.529-189.846-54.386-210.157        c21.982-22.165,168.015,32.229,168.015,32.229L1796.022,935.488z"
   id="path27" />
					</g>
					<g
   id="g29">
						<path
   style="fill:#ED74AB;"
   d="M1909.652,757.56c0,0-146.034-54.394-168.015-32.229c-10.173,10.258-9.2,47.497,0.815,90.058        c0.029-0.688,2.677-63.116,20.17-58.495c22.395,5.915,60.06,103.042,68.067,124.313L1909.652,757.56z"
   id="path28" />
					</g>
					<g
   id="g30">
						<path
   style="fill:#070766;"
   d="M1796.033,950.361c-4.362,0-8.686-1.911-11.623-5.583        c-51.659-64.569-83.062-199.943-53.334-229.92c9.819-9.904,30.179-17.186,106.765,3.938        c39.43,10.874,75.485,24.262,77.001,24.824c7.696,2.866,11.613,11.43,8.747,19.129c-2.871,7.696-11.437,11.603-19.129,8.747        c-68.59-25.536-139.313-41.94-152.446-35.431c-11.128,16.592,6.948,129.289,55.622,190.131        c5.133,6.412,4.092,15.773-2.323,20.903C1802.572,949.294,1799.292,950.361,1796.033,950.361z M1751.646,736.261        C1751.646,736.261,1751.648,736.261,1751.646,736.261L1751.646,736.261z"
   id="path29" />
					</g>
				</g>
				<g
   id="g38">
					<g
   id="g32">
						<path
   style="fill:#FFFFFF;"
   d="M2708.32,995.917c66.807-71.843,111.793-267.9,68.15-320.271        c-43.643-52.371-206.128,2.014-259.843,34.243L2708.32,995.917z"
   id="path31" />
					</g>
					<g
   id="g33">
						<path
   style="fill:#C0D5FF;"
   d="M2570.579,790.391c63.692-47.5,145.153-98.801,175.733-77.104        c27.13,19.249,10.126,149.614-33.543,255.772l-24.754-3.44L2570.579,790.391z"
   id="path32" />
					</g>
					<g
   id="g34">
						<path
   style="fill:#070766;"
   d="M2708.315,1014.506c-4.531,0-9.073-1.645-12.656-4.977c-7.518-6.992-7.945-18.756-0.953-26.275        c66.587-71.605,101.252-255.183,67.481-295.707c-31.407-37.697-175.645,2.074-235.995,38.282        c-8.803,5.281-20.226,2.432-25.507-6.375c-5.284-8.805-2.427-20.226,6.375-25.507c41.911-25.149,226.215-99.176,283.69-30.203        c34.439,41.326,19.322,131.753,11.223,168.714c-15.922,72.665-46.59,140.149-80.04,176.118        C2718.273,1012.515,2713.299,1014.506,2708.315,1014.506z"
   id="path33" />
					</g>
					<g
   id="g35">
						<path
   style="fill:#FFB3DB;"
   d="M2667.027,935.488c51.029-63.786,74.529-189.846,54.386-210.157        c-21.982-22.165-168.015,32.229-168.015,32.229L2667.027,935.488z"
   id="path34" />
					</g>
					<g
   id="g36">
						<path
   style="fill:#ED74AB;"
   d="M2553.398,757.56c0,0,146.034-54.394,168.015-32.229c10.173,10.258,9.2,47.497-0.815,90.058        c-0.029-0.688-2.677-63.116-20.169-58.495c-22.396,5.915-60.06,103.042-68.067,124.313L2553.398,757.56z"
   id="path35" />
					</g>
					<g
   id="g37">
						<path
   style="fill:#070766;"
   d="M2667.018,950.361c-3.258,0-6.539-1.065-9.281-3.261c-6.415-5.13-7.455-14.489-2.323-20.903        c48.528-60.66,66.64-172.862,55.554-190.163c-13.319-6.424-83.905,9.968-152.381,35.462        c-7.704,2.856-16.263-1.05-19.129-8.747c-2.866-7.699,1.051-16.263,8.747-19.129c1.516-0.563,37.571-13.95,77.001-24.824        c76.586-21.122,96.941-13.838,106.765-3.938c29.728,29.974-1.672,165.348-53.332,229.92        C2675.704,948.451,2671.381,950.361,2667.018,950.361z M2711.403,736.261L2711.403,736.261L2711.403,736.261z"
   id="path36" />
					</g>
				</g>
				<g
   id="g39">
					<path
   style="fill:#FFFFFF;"
   d="M2268.7,1537.759c328.328-41.293,506.592-185.314,506.592-190.685       c0-5.371-26.798-41.229-26.798-41.229s44.838-20.786,41.57-25.913c-73.186-114.814-97.357-239.7-128.243-310.871h-430.296       h-430.297c-30.886,71.171-55.057,196.057-128.243,310.871c-3.268,5.127,41.57,25.913,41.57,25.913       s-26.798,35.858-26.798,41.229c0,5.371,178.264,149.393,506.592,190.685H2268.7z"
   id="path38" />
				</g>
				<g
   id="g40">
					<path
   style="fill:#C0D5FF;"
   d="M1746.475,1126.284c88.159,39.3,272.823,108.121,485.038,108.121       c212.231,0,396.907-68.832,485.058-108.13c-22.526-61.676-37.611-117.72-54.75-157.215h-430.297h-430.296       C1784.088,1008.556,1769.003,1064.604,1746.475,1126.284z"
   id="path39" />
				</g>
				<g
   id="g41">
					<path
   style="fill:#C0D5FF;"
   d="M2268.7,1537.759c328.328-41.293,506.593-185.314,506.593-190.685       c0-5.372-26.798-41.23-26.798-41.23s44.838-20.786,41.57-25.913c-3.212-5.04-6.298-10.104-9.326-15.177l-76.494,34.199       l13.906,31.01c0,0-218.444,132.279-486.637,132.279s-486.6-132.279-486.6-132.279l13.906-31.01l-76.505-34.204       c-3.029,5.075-6.116,10.141-9.329,15.182c-3.268,5.127,41.57,25.913,41.57,25.913s-26.798,35.858-26.798,41.23       c0,5.371,178.264,149.393,506.592,190.685H2268.7z"
   id="path40" />
				</g>
				<g
   id="g42">
					<path
   style="fill:#070766;"
   d="M2268.237,1534.07c120.351-27.393,239.754-58.977,350.901-112.943       c48.869-23.896,99.884-51.2,140.927-85.188c-3.293,3.858-4.699,10.605-3.208,15.47c0.107,0.334,0.277,0.755,0.218,0.626       c-0.017,0.024-0.013,0.058-0.013,0.058c0.133,0.21-0.165-0.351-0.389-0.765c-9.666-17.106-24.79-36.335-36.685-52.639       c17.27-8.474,39.824-17.562,55.505-28.719c-2.899,3.171-4.492,8.464-3.683,13.102c0.429,2.353,1.291,5.129,2.516,6.753       c0,0-0.102-0.168-0.102-0.168l-0.203-0.331l-0.405-0.665c-43.607-68.657-72.588-145.764-97.265-222.569       c-10.096-30.681-19.644-61.439-31.585-89.63l17.054,11.189h-860.593l17.054-11.189c-23.86,58.29-40.126,122.501-64.086,181.918       c-17.215,43.967-37.935,87.39-63.143,127.62c0,0-1.621,2.661-1.621,2.661l-0.405,0.665l-0.203,0.331l-0.101,0.168l-0.051,0.083       l0.61-1.002c3.241-5.654,2.797-13.769-1.434-18.617c13.895,9.749,38.125,20.222,55.214,28.4       c-11.907,16.136-26.867,35.627-36.749,52.607c-0.225,0.412-0.524,0.973-0.394,0.768c0,0,0.002-0.032-0.016-0.054       c1.212-3.368,1.033-7.674-0.379-11.425c-0.841-2.206-1.512-3.116-2.599-4.596c4.068,3.31,9.655,8.502,15.256,12.278       c140.892,99.416,309.396,149.973,476.631,185.804c2.017,0.423,3.306,2.405,2.882,4.42c-0.382,1.808-2.021,3.032-3.809,2.956       c-50.038-2.12-100.006-8.376-149.288-18.461c-123.592-26.29-244.979-70.932-348.973-144.217       c-7.956-6.312-17.211-12.241-23.627-21.094c-1.834-2.355-3.294-7.885-3.148-10.777c0.086-3.3,1.005-6.91,2.36-9.851       c7.738-15.57,18.573-28.85,28.454-42.33c0,0,7.072,27.995,7.072,27.995c-16.151-8.232-33.238-14.834-46.631-27.668       c-5.813-6.137-7.859-16.309-3.461-23.945c25.106-39.957,45.757-82.158,62.943-126.303       c25.741-63.912,41.473-130.137,69.317-194.326c0,0,12.326,0,12.326,0h860.593h12.326       c15.08,34.286,26.463,69.954,37.538,104.048c22.015,68.068,46.464,135.116,82.661,196.689       c2.239,3.983,8.317,13.444,10.671,17.54c5.065,7.186,5.008,17.342-0.431,24.261c-2.241,3.168-5.052,5.412-7.866,7.553       c-12.871,9.083-26.433,15.38-40.404,22.151c0,0,7.072-27.995,7.072-27.995c10.257,14.098,22.033,27.955,29.436,44.499       c0.032,0.047,0.233,0.661,0.383,1.185l0.412,1.596c0.244,1.08,0.425,2.179,0.539,3.271l0.123,1.63       c0.122,4.597-2.194,10.436-5.296,13.682c-25.481,24.69-56.433,42.112-86.415,59.554       c-132.905,72.009-282.256,116.16-433.403,121.315C2264.669,1541.489,2263.949,1535.079,2268.237,1534.07L2268.237,1534.07z"
   id="path41" />
				</g>
				<g
   id="g46">
					<g
   id="g43">
						<ellipse
   style="fill:#070766;"
   cx="2466.893"
   cy="1156.388"
   rx="85.495"
   ry="105.414"
   id="ellipse42" />
					</g>
					<g
   id="g44">
						<ellipse
   style="fill:#FFFFFF;"
   cx="2433.109"
   cy="1170.399"
   rx="26.286"
   ry="32.411"
   id="ellipse43" />
					</g>
					<g
   style="opacity:0.4;"
   id="g45">
						<ellipse
   style="fill:#FFFFFF;"
   cx="2499.706"
   cy="1173.11"
   rx="20.621"
   ry="25.426"
   id="ellipse44" />
					</g>
				</g>
				<g
   id="g50">
					<g
   id="g47">
						<ellipse
   style="fill:#070766;"
   cx="1996.157"
   cy="1156.388"
   rx="85.495"
   ry="105.414"
   id="ellipse46" />
					</g>
					<g
   id="g48">
						<ellipse
   style="fill:#FFFFFF;"
   cx="2029.941"
   cy="1170.399"
   rx="26.286"
   ry="32.411"
   id="ellipse47" />
					</g>
					<g
   style="opacity:0.4;"
   id="g49">
						<ellipse
   style="fill:#FFFFFF;"
   cx="1963.343"
   cy="1173.11"
   rx="20.621"
   ry="25.426"
   id="ellipse48" />
					</g>
				</g>
				<g
   id="g51">
					<path
   style="fill:#9F5DF4;"
   d="M2231.525,529.274c116.246,0,258.448-38.439,294.808-25.346       c11.626,4.186,47.169,44.818,64.858,90.139s41.273,227.614,41.273,227.614s131.485,185.467,128.868,208.982       c-3.083,27.697-251.704,104.239-529.807,104.239s-526.724-76.543-529.807-104.239       c-2.617-23.515,128.868-208.982,128.868-208.982s23.585-182.293,41.273-227.614c17.689-45.321,53.232-85.953,64.858-90.139       C1973.076,490.835,2115.279,529.274,2231.525,529.274z"
   id="path50" />
				</g>
				<g
   style="opacity:0.5;"
   id="g52">
					<path
   style="fill:#FFFFFF;"
   d="M2632.464,821.681c0,0-23.585-182.293-41.273-227.614       c-17.688-45.321-53.231-85.953-64.858-90.139c-36.36-13.093-178.563,25.347-294.809,25.347       c-116.245,0-258.448-38.439-294.808-25.347c-11.626,4.187-47.169,44.818-64.858,90.139       c-17.689,45.321-41.273,227.614-41.273,227.614s-131.485,185.467-128.868,208.982c0.389,3.492,4.691,7.762,12.454,12.556       c34.573-57.069,142.978-198.022,145.969-211.792c3.607-16.471,27.552-197.138,55.29-246.627       c9.891-17.661,28.184-46.106,47.481-48.634c36.55-4.722,161.556,32.46,268.603,32.46c107.083,0,232.052-37.182,268.602-32.46       c19.298,2.528,37.591,30.972,47.481,48.634c27.775,49.489,51.721,230.156,55.29,246.627       c2.991,13.77,111.416,154.715,146,211.787c7.758-4.792,12.057-9.06,12.446-12.551       C2763.949,1007.148,2632.464,821.681,2632.464,821.681z"
   id="path51" />
				</g>
				<g
   id="g53">
					<path
   style="fill:#B576FF;"
   d="M1969.258,574.94c-10.443,2.848-28.44,31.842-34.809,50.947       c-12.341,37.024-24.798,160.321-24.798,160.321s122.262,38.679,249.088,31.848l8.427-211.549       C2070.677,598.356,1969.258,574.94,1969.258,574.94z"
   id="path52" />
				</g>
				<g
   id="g54">
					<path
   style="fill:#B576FF;"
   d="M2211.02,606.584c181.954,5.538,272.14-30.537,293.5-31.644       c9.007-0.467,26.265,38.922,31.802,50.473c2.736,5.707,27.847,165.3,27.847,165.3s-146.987,34.174-353.149,28.225V606.584z"
   id="path53" />
				</g>
				<g
   id="g55">
					<path
   style="fill:#B576FF;"
   d="M2662.079,987.815c0,0-148.653,77.599-430.566,77.599c-281.876,0-430.529-77.599-430.529-77.599       l58.784-88.53c0,0,113.454,103.478,371.745,103.478s371.782-103.478,371.782-103.478L2662.079,987.815z"
   id="path54" />
				</g>
				<g
   style="opacity:0.5;"
   id="g56">
					<path
   style="fill:#FFFFFF;"
   d="M2761.318,1030.648c-3.086,27.7-251.685,104.258-529.805,104.258       c-12.307,0-24.54-0.149-36.698-0.447c-92.917-2.194-181.374-12.493-257.076-26.102c-138.465-24.8-234.135-60.606-236.031-77.71       c-0.446-4.128,244.691,71.084,529.805,71.084S2761.802,1026.521,2761.318,1030.648z"
   id="path55" />
				</g>
				<g
   id="g57">
					<path
   style="fill:#7A34E8;"
   d="M2231.525,954.353c285.103,0,364.869-129.467,364.869-129.467s-129.501,27.415-364.869,27.415       s-364.869-27.415-364.869-27.415S1946.422,954.353,2231.525,954.353z"
   id="path56" />
				</g>
				<g
   id="g58">
					<path
   style="fill:#070766;"
   d="M2231.526,1153.492c-165.721,0-304.356-26.448-372.242-42.213       c-47.348-10.996-88.638-23.218-119.409-35.348c-44.984-17.73-55.174-30.096-56.634-43.21       c-1.004-9.025-2.379-21.383,66.414-125.609c27.025-40.944,54.574-80.296,63.094-92.398       c3.885-29.365,24.888-184.095,41.792-227.407c18.5-47.399,56.634-93.941,75.875-100.87       c21.861-7.877,61.525-2.622,129.757,7.343c54.257,7.923,115.753,16.904,171.353,16.904c55.598,0,117.094-8.981,171.351-16.904       c68.227-9.96,107.896-15.212,129.757-7.343c19.241,6.929,57.375,53.47,75.875,100.872       c16.904,43.31,37.909,198.04,41.794,227.405c8.518,12.103,36.069,51.455,63.094,92.398       c68.792,104.226,67.418,116.584,66.411,125.609c-1.46,13.112-11.649,25.48-56.634,43.21       c-30.771,12.13-72.061,24.352-119.409,35.348C2535.88,1127.045,2397.247,1153.492,2231.526,1153.492z M1721.694,1026.275       c35.692,26.27,257.725,90.037,509.832,90.037s474.138-63.767,509.832-90.037c-10.499-26.523-70.133-117.774-124.059-193.841       c-1.757-2.481-2.881-5.352-3.271-8.367c-6.48-50.08-26.328-187.809-40.156-223.24c-16.002-41.002-46.193-74.668-54.367-79.589       c-14.837-4.747-63.84,2.41-111.254,9.332c-55.51,8.106-118.427,17.294-176.725,17.294c-58.301,0-121.217-9.188-176.725-17.294       c-47.414-6.921-96.419-14.084-111.256-9.332c-8.174,4.921-38.365,38.587-54.367,79.586       c-13.828,35.433-33.674,173.162-40.154,223.242c-0.39,3.015-1.514,5.886-3.271,8.367       C1791.824,908.506,1732.191,999.757,1721.694,1026.275z M1720.198,1031.037c0,0.002,0,0,0,0.002       C1720.198,1031.04,1720.198,1031.04,1720.198,1031.037z"
   id="path57" />
				</g>
				<g
   id="g59">
					<path
   style="fill:#070766;"
   d="M1907.793,844.143c177.65,59.032,386.022,62.231,568.273,22.46       c26.729-6.022,53.473-13.27,79.19-22.46c1.95-0.83,4.275,0.147,4.977,2.171c0.615,1.723-0.117,3.6-1.649,4.479       c-24.686,14.186-50.898,24.31-77.53,33.513c-160.579,51.389-338.472,51.326-499.052-0.03       c-26.633-9.192-52.844-19.314-77.538-33.483C1900.909,848.591,1902.972,842.411,1907.793,844.143L1907.793,844.143z"
   id="path58" />
				</g>
				<g
   id="g60">
					<path
   style="fill:#070766;"
   d="M2231.525,1222.697c30.974,0,54.139,5.475,54.139,18.772c0,23.204-33.72,44.584-54.139,44.584       c-20.418,0-54.139-21.379-54.139-44.584C2177.386,1228.172,2200.55,1222.697,2231.525,1222.697z"
   id="path59" />
				</g>
				<g
   id="g63">
					<g
   id="g61">
						<path
   style="fill:#FFFFFF;"
   d="M2284.227,1385.345c0,0-25.756-40.621-52.702-61.436        c-26.946,20.814-52.702,61.436-52.702,61.436"
   id="path60" />
					</g>
					<g
   id="g62">
						<path
   style="fill:#070766;"
   d="M2281.087,1387.337c-16.229-20.065-35.032-40.735-56.381-54.599c0,0,13.637,0,13.637,0        c-10.371,6.568-20.34,15.324-29.73,24.649c-9.375,9.417-18.407,19.545-26.715,30.03c-2.723,3.505-8.347-0.154-6.216-4.063        c14.876-27.552,31.84-53.657,55.956-74.734c12.966,11.8,24.951,25.39,34.24,39.267c7.878,11.51,14.995,23.225,21.489,35.467        C2289.486,1387.333,2283.773,1390.967,2281.087,1387.337L2281.087,1387.337z"
   id="path61" />
					</g>
				</g>
				<g
   id="g66">
					<g
   id="g64">
						<line
   style="fill:#FFFFFF;"
   x1="2231.525"
   y1="1268.013"
   x2="2231.525"
   y2="1323.91"
   id="line63" />
					</g>
					<g
   id="g65">
						<path
   style="fill:#070766;"
   d="M2242.679,1268.013l-3.718,55.898c-0.696,9.167-14.204,9.127-14.873,0l-3.718-55.897        C2219.865,1252.318,2243.179,1252.292,2242.679,1268.013L2242.679,1268.013z"
   id="path64" />
					</g>
				</g>
				<g
   id="g67">
					<path
   style="fill:#FFFFFF;"
   d="M2464.263,1770.409c0,0,5.036,323.628-80.572,485.107h-279.804c0,0-24.857-92.993,62.765-123.71       c0,0,7.889-132.104,1.175-212.675L2464.263,1770.409z"
   id="path66" />
				</g>
				<g
   id="g68">
					<path
   style="fill:#C0D5FF;"
   d="M2464.263,1770.409c-34.266,57.324-47.29,299.849-99.769,359.671       c-27.632,31.498-81.958,18.207-81.958,18.207s51.58,56.327-5.379,56.327c-45.028,0-137.741,0-174.631,0       c-4.924,27.327,1.363,50.901,1.363,50.901h279.803C2469.299,2094.037,2464.264,1770.409,2464.263,1770.409L2464.263,1770.409z"
   id="path67" />
				</g>
				<g
   id="g69">
					<path
   style="fill:#070766;"
   d="M2467.981,1770.351c6.086,83.003,2.643,166.224-6.873,248.893       c-7.265,62.202-18.35,124.757-38.994,184.344c-7.769,22.779-17.872,45.2-29.227,66.801c0,0-9.195,0-9.195,0h-279.803h-11.607       l-2.763-11.033c-8.066-35.388-3.897-74.777,18.644-104.416c13.377-17.543,33.332-30.16,53.569-37.168       c0,0-9.925,13.148-9.925,13.148l3.657-52.739c3.749-52.875,7.544-105.72,8.658-158.741c0.067-4.334,6.625-5.072,7.411-0.616       c11.89,73.859,12.688,149.07,9.479,223.683c-53.733,15.373-73.335,55.817-62.756,109.171c0,0-14.368-11.033-14.368-11.033       h279.803l-13.14,7.906c53.581-109.351,67.831-234.762,80.216-354.909c3.884-40.925,7.167-82.043,9.778-123.172       c0.096-2.072,1.886-3.677,3.958-3.541C2466.377,1767.046,2467.839,1768.533,2467.981,1770.351L2467.981,1770.351z"
   id="path68" />
				</g>
				<g
   id="g70">
					<path
   style="fill:#070766;"
   d="M2259.522,2146.87c-29.305-6.778-60.86-8.807-89.897-0.493       c-22.928,8.148-30.351-27.328-5.944-29.145c17.647-1.314,34.982,1.331,51.951,5.327c16.16,4.001,31.717,9.927,46.487,17.343       C2266.095,2141.825,2263.79,2148.041,2259.522,2146.87L2259.522,2146.87z"
   id="path69" />
				</g>
				<g
   id="g71">
					<path
   style="fill:#070766;"
   d="M2231.548,2183.171c-1.562,17.537,0.121,35.869,4.874,52.81       c1.508,5.702,3.648,11.13,5.848,16.436c2.371,5.727-0.35,12.293-6.077,14.662c-5.727,2.371-12.291-0.349-14.662-6.076       c-2.007-7.15-2.852-14.661-3.44-21.922c-1.369-19.503,0.637-38.858,6.213-57.592c0.607-1.964,2.692-3.066,4.657-2.459       C2230.764,2179.583,2231.819,2181.377,2231.548,2183.171L2231.548,2183.171z"
   id="path70" />
				</g>
				<g
   id="g72">
					<path
   style="fill:#070766;"
   d="M2166.676,2183.171c-1.563,17.537,0.121,35.869,4.874,52.81       c1.507,5.702,3.649,11.13,5.847,16.436c2.371,5.727-0.35,12.293-6.076,14.662c-5.727,2.371-12.291-0.349-14.662-6.076       c-2.007-7.15-2.851-14.661-3.44-21.922c-1.368-19.503,0.637-38.858,6.214-57.592c0.607-1.964,2.692-3.066,4.657-2.459       C2165.892,2179.583,2166.948,2181.377,2166.676,2183.171L2166.676,2183.171z"
   id="path71" />
				</g>
				<g
   id="g73">
					<path
   style="fill:#070766;"
   d="M2724.777,2270.388h-279.803h-12.784c-9.496-47.162,1.691-101.649,41.265-132.335       c11.867-9.254,25.305-15.975,39.027-20.545c-0.001-0.005-9.765,17.79-9.764,17.767       c-31.914-135.606-11.654-330.641,144.521-375.386c4.275-1.018,6.798,4.768,2.663,6.943       c-15.788,7.818-30.731,16.843-44.24,27.495c-101.485,80.564-98.144,231.884-70.806,347.064       c-14.779,4.605-31.178,10.405-42.994,20.026c-27.198,21.066-36.296,58.562-32.223,91.631c0,0-14.666-12.405-14.666-12.405       h279.803C2744.26,2241.125,2744.566,2269.783,2724.777,2270.388L2724.777,2270.388z"
   id="path72" />
				</g>
				<g
   id="g74">
					<path
   style="fill:#070766;"
   d="M2600.909,2143.361c-27.198-3.562-55.801-2.361-82.496,3.09       c-19.394,3.889-25.844-24.422-6.627-29.284c24.144-0.544,47.436,5.073,70.378,11.556c7.063,2.099,13.968,4.741,20.738,7.473       c1.916,0.775,2.842,2.954,2.068,4.869C2604.305,2142.719,2602.592,2143.628,2600.909,2143.361L2600.909,2143.361z"
   id="path73" />
				</g>
				<g
   id="g75">
					<path
   style="fill:#070766;"
   d="M2572.633,2183.171c-1.562,17.537,0.121,35.869,4.874,52.81       c1.508,5.702,3.648,11.13,5.848,16.436c2.371,5.727-0.35,12.293-6.077,14.662c-5.727,2.371-12.291-0.349-14.662-6.076       c-2.008-7.15-2.852-14.661-3.44-21.922c-1.37-19.503,0.637-38.858,6.213-57.592c0.607-1.964,2.692-3.066,4.657-2.459       C2571.849,2179.583,2572.905,2181.377,2572.633,2183.171L2572.633,2183.171z"
   id="path74" />
				</g>
				<g
   id="g76">
					<path
   style="fill:#070766;"
   d="M2507.761,2183.171c-1.563,17.537,0.121,35.869,4.874,52.81       c1.508,5.702,3.649,11.13,5.848,16.436c2.371,5.727-0.35,12.293-6.076,14.662c-5.727,2.371-12.292-0.349-14.662-6.076       c-2.007-7.15-2.852-14.661-3.44-21.922c-1.369-19.503,0.637-38.858,6.213-57.592c0.607-1.964,2.692-3.066,4.657-2.459       C2506.978,2179.584,2508.032,2181.377,2507.761,2183.171L2507.761,2183.171z"
   id="path75" />
				</g>
				<g
   id="g125">
					<g
   id="g100">
						<g
   id="g77">
							<ellipse
   style="fill:#FFD110;"
   cx="2199.005"
   cy="1793.193"
   rx="32.52"
   ry="26.477"
   id="ellipse76" />
						</g>
						<g
   style="opacity:0.6;"
   id="g78">
							<path
   style="fill:#FFFFFF;"
   d="M2195.998,1782.429c16.302,0,29.762,9.776,32.117,22.513c2.162-3.544,3.41-7.524,3.41-11.749         c0-14.623-14.56-26.477-32.52-26.477c-17.96,0-32.52,11.854-32.52,26.477c0,1.351,0.163,2.667,0.403,3.963         C2172.209,1788.437,2183.229,1782.429,2195.998,1782.429z"
   id="path77" />
						</g>
						<g
   id="g79">
							<path
   style="fill:#E28805;"
   d="M2203.92,1800.065c-15.907,0-29.125-9.305-31.944-21.591         c-3.465,4.209-5.491,9.271-5.491,14.719c0,14.623,14.56,26.477,32.52,26.477c17.96,0,32.52-11.854,32.52-26.477         c0-1.671-0.213-3.3-0.576-4.886C2225.114,1795.396,2215.188,1800.065,2203.92,1800.065z"
   id="path78" />
						</g>
						<g
   id="g80">
							<path
   style="fill:#070766;"
   d="M2199.005,1830.825c-24.083,0-43.676-16.882-43.676-37.631s19.592-37.631,43.676-37.631         s43.676,16.882,43.676,37.631S2223.088,1830.825,2199.005,1830.825z M2199.005,1777.871         c-11.581,0-21.366,7.016-21.366,15.322s9.785,15.322,21.366,15.322s21.366-7.016,21.366-15.322         S2210.586,1777.871,2199.005,1777.871z"
   id="path79" />
						</g>
						<g
   id="g81">
							
								<ellipse
   transform="matrix(0.6001 -0.8 0.8 0.6001 -559.0187 2415.2981)"
   style="fill:#FFD110;"
   cx="2135.998"
   cy="1766.716"
   rx="26.477"
   ry="32.52"
   id="ellipse80" />
						</g>
						<g
   style="opacity:0.6;"
   id="g82">
							<path
   style="fill:#FFFFFF;"
   d="M2151.886,1745.536c-14.367-10.777-33.127-10.031-41.902,1.667         c-3.105,4.14-4.512,9.102-4.438,14.257c8.964-11.104,27.289-11.661,41.4-1.077c9.282,6.963,14.428,17.027,14.564,26.437         c0.163-0.202,0.346-0.381,0.503-0.59C2170.787,1774.532,2166.253,1756.313,2151.886,1745.536z"
   id="path81" />
						</g>
						<g
   id="g83">
							<path
   style="fill:#E28805;"
   d="M2124.693,1766.817c-7.381-5.536-12.144-13.037-13.863-20.609         c-0.282,0.332-0.583,0.642-0.847,0.994c-8.774,11.697-4.24,29.917,10.127,40.694c14.367,10.777,33.128,10.031,41.902-1.667         c4.267-5.688,5.364-12.918,3.736-20.086C2156.668,1776.851,2138.628,1777.271,2124.693,1766.817z"
   id="path82" />
						</g>
						<g
   id="g84">
							<path
   style="fill:#070766;"
   d="M2141.918,1806.67c-9.931,0-19.987-3.463-28.5-9.851         c-8.995-6.746-15.344-16.063-17.874-26.231c-2.698-10.845-0.687-21.81,5.518-30.081c6.202-8.269,16.165-13.268,27.332-13.714         c10.492-0.397,21.191,3.071,30.184,9.819c8.995,6.746,15.344,16.063,17.874,26.231c2.698,10.845,0.687,21.807-5.515,30.079         l0,0c-0.003,0.002-0.003,0-0.003,0.002c-6.202,8.269-16.165,13.268-27.332,13.714         C2143.042,1806.661,2142.479,1806.67,2141.918,1806.67z M2130.056,1749.072c-0.26,0-0.519,0.005-0.775,0.015         c-2.605,0.105-7.416,0.865-10.372,4.808c-2.959,3.943-2.344,8.776-1.716,11.306c1.277,5.13,4.779,10.151,9.609,13.775         c4.833,3.624,10.675,5.586,15.912,5.371c2.605-0.105,7.416-0.865,10.373-4.808c0.002,0,0.002-0.002,0.002-0.002         c2.956-3.941,2.342-8.774,1.713-11.303c-1.277-5.13-4.779-10.151-9.61-13.775         C2140.597,1751.011,2135.123,1749.072,2130.056,1749.072z"
   id="path83" />
						</g>
						<g
   id="g85">
							<path
   style="fill:#070766;"
   d="M2141.918,1806.67c-9.931,0-19.987-3.463-28.5-9.851         c-8.995-6.746-15.344-16.063-17.874-26.231c-2.698-10.845-0.687-21.81,5.518-30.081c6.202-8.269,16.165-13.268,27.332-13.714         c10.492-0.397,21.191,3.071,30.184,9.819c8.995,6.746,15.344,16.063,17.874,26.231c2.698,10.845,0.687,21.807-5.515,30.079         l0,0c-0.003,0.002-0.003,0-0.003,0.002c-6.202,8.269-16.165,13.268-27.332,13.714         C2143.042,1806.661,2142.479,1806.67,2141.918,1806.67z M2130.056,1749.072c-0.26,0-0.519,0.005-0.775,0.015         c-2.605,0.105-7.416,0.865-10.372,4.808c-2.959,3.943-2.344,8.776-1.716,11.306c1.277,5.13,4.779,10.151,9.609,13.775         c4.833,3.624,10.675,5.586,15.912,5.371c2.605-0.105,7.416-0.865,10.373-4.808c0.002,0,0.002-0.002,0.002-0.002         c2.956-3.941,2.342-8.774,1.713-11.303c-1.277-5.13-4.779-10.151-9.61-13.775         C2140.597,1751.011,2135.123,1749.072,2130.056,1749.072z"
   id="path84" />
						</g>
						<g
   id="g86">
							
								<ellipse
   transform="matrix(0.8199 -0.5726 0.5726 0.8199 -607.2802 1504.161)"
   style="fill:#FFD110;"
   cx="2086.843"
   cy="1717.198"
   rx="26.477"
   ry="32.52"
   id="ellipse85" />
						</g>
						<g
   style="opacity:0.6;"
   id="g87">
							<path
   style="fill:#FFFFFF;"
   d="M2062.87,1706.188c11.989-8.373,30.044-3.223,40.327,11.502         c4.809,6.887,7.034,14.64,6.849,21.808c7.53-9.475,7.269-24.909-1.496-37.461c-10.283-14.725-28.338-19.875-40.327-11.502         c-6.382,4.457-9.725,11.854-9.936,20.013C2059.591,1708.909,2061.1,1707.424,2062.87,1706.188z"
   id="path86" />
						</g>
						<g
   id="g88">
							<path
   style="fill:#E28805;"
   d="M2110.683,1724.303c-11.989,8.372-30.044,3.222-40.327-11.502         c-3.942-5.645-6.155-11.877-6.728-17.889c-7.519,9.476-7.254,24.902,1.506,37.446c10.284,14.725,28.339,19.875,40.327,11.502         c7.392-5.162,10.737-14.263,9.816-23.932C2113.971,1721.575,2112.458,1723.063,2110.683,1724.303z"
   id="path87" />
						</g>
						<g
   id="g89">
							<path
   style="fill:#070766;"
   d="M2092.427,1758.979c-13.355,0-27.344-7.214-36.437-20.233         c-13.789-19.745-11.167-45.474,5.847-57.355c8.474-5.915,19.499-7.555,30.249-4.492c10.075,2.873,19.17,9.534,25.609,18.754         c6.436,9.217,9.558,20.05,8.788,30.5c-0.824,11.145-6.158,20.932-14.635,26.852c0,0,0,0.002-0.002,0.002         C2106.053,1757.053,2099.324,1758.979,2092.427,1758.979z M2105.461,1743.861h0.049H2105.461z M2081.353,1697.683         c-2.15,0-4.557,0.473-6.743,1.999c-6.809,4.755-6.96,16.794-0.329,26.292c6.629,9.49,17.983,13.492,24.793,8.744l0,0         c4.043-2.825,4.969-7.606,5.159-10.207c0.39-5.271-1.37-11.133-4.828-16.085c-3.458-4.952-8.357-8.625-13.438-10.073         C2084.816,1698.024,2083.179,1697.683,2081.353,1697.683z"
   id="path88" />
						</g>
						<g
   id="g90">
							
								<ellipse
   transform="matrix(0.9153 -0.4028 0.4028 0.9153 -494.576 963.9793)"
   style="fill:#FFD110;"
   cx="2044.468"
   cy="1657.79"
   rx="26.477"
   ry="32.52"
   id="ellipse89" />
						</g>
						<g
   style="opacity:0.6;"
   id="g91">
							<path
   style="fill:#FFFFFF;"
   d="M2068.702,1647.125c-7.235-16.439-23.95-24.99-37.333-19.1         c-7.166,3.154-11.894,9.821-13.658,17.846c1.422-1.115,2.985-2.066,4.686-2.814c13.384-5.89,30.099,2.661,37.333,19.1         c3.362,7.638,4.055,15.621,2.524,22.585C2072.018,1677.085,2075.017,1661.474,2068.702,1647.125z"
   id="path90" />
						</g>
						<g
   id="g92">
							<path
   style="fill:#E28805;"
   d="M2069.172,1669.98c-13.384,5.89-30.099-2.661-37.334-19.1         c-3.217-7.31-4.005-14.943-2.726-21.69c-11.664,6.846-15.691,23.788-8.879,39.265c7.234,16.439,23.949,24.99,37.333,19.1         c7.432-3.271,12.262-10.313,13.861-18.74C2070.703,1669.241,2069.955,1669.635,2069.172,1669.98z"
   id="path91" />
						</g>
						<g
   id="g93">
							<path
   style="fill:#070766;"
   d="M2048.75,1700.544c-15.52,0-31.214-10.526-38.726-27.595         c-9.7-22.044-2.14-46.776,16.85-55.132c18.99-8.362,42.335,2.771,52.037,24.815c9.7,22.044,2.14,46.778-16.85,55.135         c-0.002,0-0.002,0-0.002,0C2057.777,1699.652,2053.268,1700.544,2048.75,1700.544z M2057.567,1687.556h0.049H2057.567z          M2040.327,1637.32c-1.548,0-3.054,0.292-4.465,0.914c-7.601,3.346-10.085,15.127-5.42,25.729         c4.665,10.594,15.03,16.733,22.633,13.382c7.601-3.346,10.082-15.127,5.418-25.729         C2054.694,1642.986,2047.114,1637.32,2040.327,1637.32z"
   id="path92" />
						</g>
						<g
   id="g94">
							
								<ellipse
   transform="matrix(0.9153 -0.4028 0.4028 0.9153 -472.0687 946.5618)"
   style="fill:#FFD110;"
   cx="2014.328"
   cy="1595.58"
   rx="26.477"
   ry="32.52"
   id="ellipse93" />
						</g>
						<g
   style="opacity:0.6;"
   id="g95">
							<path
   style="fill:#FFFFFF;"
   d="M2038.563,1584.915c-7.235-16.439-23.949-24.99-37.333-19.1         c-6.824,3.003-11.448,9.188-13.399,16.7c1.649-1.435,3.484-2.661,5.546-3.568c13.384-5.89,30.099,2.661,37.333,19.1         c3.546,8.058,4.14,16.507,2.264,23.73C2042.031,1613.89,2044.683,1598.823,2038.563,1584.915z"
   id="path94" />
						</g>
						<g
   id="g96">
							<path
   style="fill:#E28805;"
   d="M2037.12,1603.015c-13.384,5.89-30.099-2.661-37.333-19.1         c-2.224-5.054-3.283-10.263-3.309-15.228c-9.71,7.675-12.683,23.243-6.383,37.559c7.234,16.439,23.949,24.99,37.333,19.1         c9.269-4.079,14.5-14.018,14.444-25.202C2040.431,1601.282,2038.849,1602.254,2037.12,1603.015z"
   id="path95" />
						</g>
						<g
   id="g97">
							<path
   style="fill:#070766;"
   d="M2018.503,1638.337c-5.752,0-11.62-1.421-17.128-4.238         c-9.329-4.772-16.96-13.068-21.488-23.362c-4.531-10.29-5.493-21.52-2.71-31.624c2.966-10.772,10.095-19.341,19.558-23.506         c9.463-4.17,20.596-3.636,30.549,1.455c9.329,4.772,16.96,13.07,21.488,23.362c4.531,10.29,5.491,21.522,2.71,31.624         c-2.969,10.774-10.099,19.343-19.563,23.506C2027.695,1637.413,2023.138,1638.337,2018.503,1638.337z M2010.158,1575.11         c-1.428,0-2.934,0.253-4.436,0.914c-4.511,1.986-6.346,6.497-7.038,9.012c-1.404,5.094-0.812,11.186,1.621,16.714         c2.432,5.53,6.527,10.08,11.23,12.488c2.32,1.189,6.887,2.888,11.398,0.897c0.002,0,0.002,0,0.002,0         c4.511-1.986,6.344-6.497,7.036-9.01c1.404-5.096,0.814-11.189-1.618-16.719c-2.432-5.527-6.527-10.078-11.233-12.485         C2015.573,1576.129,2013.024,1575.11,2010.158,1575.11z"
   id="path96" />
						</g>
						<g
   id="g98">
							
								<ellipse
   transform="matrix(0.9737 -0.2276 0.2276 0.9737 -296.3461 494.2954)"
   style="fill:#E28805;"
   cx="1994.853"
   cy="1531.961"
   rx="26.477"
   ry="32.52"
   id="ellipse97" />
						</g>
						<g
   id="g99">
							<path
   style="fill:#070766;"
   d="M1997.353,1575.347c-17.662,0-34.334-14.247-39.145-34.819         c-2.559-10.95-1.438-22.168,3.154-31.585c4.899-10.046,13.482-17.157,23.552-19.509c10.065-2.359,20.91,0.214,29.755,7.048         c8.294,6.407,14.269,15.965,16.828,26.913c2.559,10.95,1.44,22.166-3.154,31.585c-4.896,10.046-13.48,17.157-23.55,19.509         C2002.315,1575.069,1999.824,1575.347,1997.353,1575.347z M1992.423,1510.878c-0.787,0-1.599,0.085-2.432,0.28         c-4.801,1.121-7.433,5.218-8.576,7.562c-2.315,4.75-2.856,10.848-1.482,16.728c2.637,11.281,11.725,19.2,19.785,17.316         c0,0,0,0,0.002,0c4.796-1.121,7.431-5.218,8.574-7.563c2.315-4.75,2.854-10.848,1.479-16.728         c-1.375-5.881-4.56-11.108-8.742-14.338C1999.325,1512.818,1996.176,1510.878,1992.423,1510.878z"
   id="path98" />
						</g>
					</g>
					<g
   id="g124">
						<g
   id="g101">
							<ellipse
   style="fill:#FFD110;"
   cx="2264.045"
   cy="1793.193"
   rx="32.52"
   ry="26.477"
   id="ellipse100" />
						</g>
						<g
   style="opacity:0.6;"
   id="g102">
							<path
   style="fill:#FFFFFF;"
   d="M2267.051,1782.429c-16.302,0-29.762,9.776-32.116,22.513         c-2.162-3.544-3.41-7.524-3.41-11.749c0-14.623,14.56-26.477,32.52-26.477c17.96,0,32.52,11.854,32.52,26.477         c0,1.351-0.164,2.667-0.403,3.963C2290.841,1788.437,2279.821,1782.429,2267.051,1782.429z"
   id="path101" />
						</g>
						<g
   id="g103">
							<path
   style="fill:#E28805;"
   d="M2259.13,1800.065c15.908,0,29.125-9.305,31.944-21.591c3.466,4.209,5.491,9.271,5.491,14.719         c0,14.623-14.56,26.477-32.52,26.477c-17.96,0-32.52-11.854-32.52-26.477c0-1.671,0.212-3.3,0.576-4.886         C2237.936,1795.396,2247.861,1800.065,2259.13,1800.065z"
   id="path102" />
						</g>
						<g
   id="g104">
							<path
   style="fill:#070766;"
   d="M2264.044,1830.825c-24.081,0-43.673-16.882-43.673-37.631s19.592-37.631,43.673-37.631         c24.083,0,43.675,16.882,43.675,37.631S2288.128,1830.825,2264.044,1830.825z M2264.044,1777.871         c-11.581,0-21.364,7.016-21.364,15.322s9.782,15.322,21.364,15.322c11.581,0,21.366-7.016,21.366-15.322         S2275.625,1777.871,2264.044,1777.871z"
   id="path103" />
						</g>
						<g
   id="g105">
							
								<ellipse
   transform="matrix(0.8 -0.6001 0.6001 0.8 -594.6206 1749.7689)"
   style="fill:#FFD110;"
   cx="2327.051"
   cy="1766.716"
   rx="32.52"
   ry="26.477"
   id="ellipse104" />
						</g>
						<g
   style="opacity:0.6;"
   id="g106">
							<path
   style="fill:#FFFFFF;"
   d="M2311.164,1745.536c14.367-10.777,33.127-10.031,41.902,1.667         c3.105,4.14,4.512,9.102,4.438,14.257c-8.964-11.104-27.289-11.661-41.4-1.077c-9.282,6.963-14.428,17.027-14.564,26.437         c-0.163-0.202-0.346-0.381-0.503-0.59C2292.262,1774.532,2296.796,1756.313,2311.164,1745.536z"
   id="path105" />
						</g>
						<g
   id="g107">
							<path
   style="fill:#E28805;"
   d="M2338.357,1766.817c7.381-5.536,12.144-13.037,13.863-20.609         c0.282,0.332,0.582,0.642,0.846,0.994c8.774,11.697,4.24,29.917-10.127,40.694c-14.368,10.777-33.128,10.031-41.902-1.667         c-4.267-5.688-5.364-12.918-3.736-20.086C2306.382,1776.851,2324.422,1777.271,2338.357,1766.817z"
   id="path106" />
						</g>
						<g
   id="g108">
							<path
   style="fill:#070766;"
   d="M2321.131,1806.67c-0.561,0-1.124-0.01-1.684-0.032c-11.167-0.446-21.13-5.445-27.335-13.716         c-12.449-16.599-6.907-41.86,12.359-56.309c19.256-14.455,45.062-12.71,57.518,3.894         c12.451,16.604,6.907,41.865-12.359,56.314C2341.12,1803.207,2331.06,1806.67,2321.131,1806.67z M2333.036,1749.074         c-4.901,0-10.406,1.803-15.181,5.384c-9.264,6.951-12.878,18.434-7.894,25.08c2.956,3.943,7.767,4.704,10.372,4.808         c5.25,0.214,11.079-1.747,15.912-5.371c4.83-3.624,8.335-8.645,9.612-13.775c0.629-2.53,1.243-7.363-1.716-11.306         C2341.727,1750.673,2337.65,1749.074,2333.036,1749.074z"
   id="path107" />
						</g>
						<g
   id="g109">
							<path
   style="fill:#070766;"
   d="M2321.131,1806.67c-0.561,0-1.124-0.01-1.684-0.032c-11.167-0.446-21.13-5.445-27.335-13.716         c-12.449-16.599-6.907-41.86,12.359-56.309c19.256-14.455,45.062-12.71,57.518,3.894         c12.451,16.604,6.907,41.865-12.359,56.314C2341.12,1803.207,2331.06,1806.67,2321.131,1806.67z M2333.036,1749.074         c-4.901,0-10.406,1.803-15.181,5.384c-9.264,6.951-12.878,18.434-7.894,25.08c2.956,3.943,7.767,4.704,10.372,4.808         c5.25,0.214,11.079-1.747,15.912-5.371c4.83-3.624,8.335-8.645,9.612-13.775c0.629-2.53,1.243-7.363-1.716-11.306         C2341.727,1750.673,2337.65,1749.074,2333.036,1749.074z"
   id="path108" />
						</g>
						<g
   id="g110">
							
								<ellipse
   transform="matrix(0.5726 -0.8199 0.8199 0.5726 -392.1785 2682.1709)"
   style="fill:#FFD110;"
   cx="2376.207"
   cy="1717.198"
   rx="32.52"
   ry="26.477"
   id="ellipse109" />
						</g>
						<g
   style="opacity:0.6;"
   id="g111">
							<path
   style="fill:#FFFFFF;"
   d="M2400.18,1706.188c-11.989-8.373-30.044-3.223-40.327,11.502         c-4.809,6.887-7.034,14.64-6.849,21.808c-7.53-9.475-7.27-24.909,1.496-37.461c10.283-14.725,28.338-19.875,40.327-11.502         c6.382,4.457,9.725,11.854,9.936,20.013C2403.459,1708.909,2401.95,1707.424,2400.18,1706.188z"
   id="path110" />
						</g>
						<g
   id="g112">
							<path
   style="fill:#E28805;"
   d="M2352.366,1724.303c11.989,8.372,30.044,3.222,40.327-11.502         c3.942-5.645,6.155-11.877,6.727-17.889c7.519,9.476,7.254,24.902-1.506,37.446c-10.283,14.725-28.338,19.875-40.327,11.502         c-7.392-5.162-10.737-14.263-9.816-23.932C2349.078,1721.575,2350.591,1723.063,2352.366,1724.303z"
   id="path111" />
						</g>
						<g
   id="g113">
							<path
   style="fill:#070766;"
   d="M2370.622,1758.979c-6.897,0-13.626-1.925-19.419-5.971c-0.002-0.002-0.002-0.002-0.002-0.002         c-17.011-11.883-19.633-37.612-5.844-57.355c6.437-9.217,15.532-15.878,25.609-18.751c10.75-3.063,21.773-1.423,30.25,4.494         c17.011,11.879,19.633,37.607,5.847,57.35C2397.969,1751.762,2383.977,1758.979,2370.622,1758.979z M2363.976,1734.717         c6.809,4.747,18.164,0.751,24.795-8.747c6.629-9.495,6.478-21.534-0.329-26.287c-4.046-2.829-8.852-2.047-11.359-1.331         c-5.081,1.448-9.98,5.12-13.436,10.07C2357.013,1717.92,2357.166,1729.96,2363.976,1734.717L2363.976,1734.717z"
   id="path112" />
						</g>
						<g
   id="g114">
							
								<ellipse
   transform="matrix(0.4028 -0.9153 0.9153 0.4028 -72.9921 3203.7095)"
   style="fill:#FFD110;"
   cx="2418.582"
   cy="1657.79"
   rx="32.52"
   ry="26.477"
   id="ellipse113" />
						</g>
						<g
   style="opacity:0.6;"
   id="g115">
							<path
   style="fill:#FFFFFF;"
   d="M2394.347,1647.125c7.235-16.439,23.95-24.99,37.334-19.1         c7.166,3.154,11.894,9.821,13.658,17.846c-1.422-1.115-2.985-2.066-4.686-2.814c-13.385-5.89-30.099,2.661-37.333,19.1         c-3.361,7.638-4.055,15.621-2.523,22.585C2391.032,1677.085,2388.033,1661.474,2394.347,1647.125z"
   id="path114" />
						</g>
						<g
   id="g116">
							<path
   style="fill:#E28805;"
   d="M2393.877,1669.98c13.384,5.89,30.099-2.661,37.333-19.1c3.217-7.31,4.005-14.943,2.726-21.69         c11.664,6.846,15.691,23.788,8.879,39.265c-7.234,16.439-23.949,24.99-37.333,19.1c-7.432-3.271-12.262-10.313-13.861-18.74         C2392.347,1669.241,2393.095,1669.635,2393.877,1669.98z"
   id="path115" />
						</g>
						<g
   id="g117">
							<path
   style="fill:#070766;"
   d="M2414.3,1700.544c-4.521,0-9.025-0.892-13.309-2.778c0,0,0,0-0.002,0         c-18.99-8.357-26.55-33.091-16.85-55.132c9.705-22.046,33.047-33.174,52.037-24.817c18.99,8.357,26.55,33.089,16.85,55.13         C2445.514,1690.016,2429.819,1700.544,2414.3,1700.544z M2409.974,1677.345c7.594,3.351,17.966-2.788,22.634-13.385         c4.665-10.599,2.181-22.38-5.42-25.726c-7.597-3.344-17.967,2.783-22.631,13.385         C2399.891,1662.218,2402.372,1673.999,2409.974,1677.345L2409.974,1677.345z"
   id="path116" />
						</g>
						<g
   id="g118">
							
								<ellipse
   transform="matrix(0.4028 -0.9153 0.9153 0.4028 1.9401 3194.134)"
   style="fill:#FFD110;"
   cx="2448.721"
   cy="1595.58"
   rx="32.52"
   ry="26.477"
   id="ellipse117" />
						</g>
						<g
   style="opacity:0.6;"
   id="g119">
							<path
   style="fill:#FFFFFF;"
   d="M2424.487,1584.915c7.235-16.439,23.949-24.99,37.333-19.1         c6.824,3.003,11.448,9.188,13.399,16.7c-1.649-1.435-3.484-2.661-5.545-3.568c-13.384-5.89-30.099,2.661-37.333,19.1         c-3.546,8.058-4.14,16.507-2.264,23.73C2421.019,1613.89,2418.367,1598.823,2424.487,1584.915z"
   id="path118" />
						</g>
						<g
   id="g120">
							<path
   style="fill:#E28805;"
   d="M2425.929,1603.015c13.384,5.89,30.099-2.661,37.333-19.1         c2.224-5.054,3.283-10.263,3.309-15.228c9.71,7.675,12.683,23.243,6.383,37.559c-7.234,16.439-23.949,24.99-37.333,19.1         c-9.269-4.079-14.5-14.018-14.444-25.202C2422.618,1601.282,2424.201,1602.254,2425.929,1603.015z"
   id="path119" />
						</g>
						<g
   id="g121">
							<path
   style="fill:#070766;"
   d="M2444.442,1638.334c-4.521,0-9.027-0.895-13.312-2.781l0,0         c-9.463-4.163-16.594-12.732-19.563-23.506c-2.781-10.102-1.821-21.334,2.71-31.624         c9.702-22.046,33.042-33.169,52.037-24.817c18.99,8.357,26.55,33.089,16.85,55.13         C2475.654,1627.806,2459.959,1638.332,2444.442,1638.334z M2452.862,1575.11c-6.787,0-14.367,5.666-18.166,14.299         c-2.432,5.527-3.022,11.62-1.618,16.716c0.692,2.513,2.525,7.024,7.036,9.01c0,0,0,0,0.002,0         c7.604,3.344,17.967-2.786,22.631-13.385c4.665-10.599,2.181-22.38-5.42-25.726         C2455.916,1575.403,2454.409,1575.11,2452.862,1575.11z"
   id="path120" />
						</g>
						<g
   id="g122">
							
								<ellipse
   transform="matrix(0.2276 -0.9737 0.9737 0.2276 414.6264 3586.6509)"
   style="fill:#E28805;"
   cx="2468.196"
   cy="1531.961"
   rx="32.52"
   ry="26.477"
   id="ellipse121" />
						</g>
						<g
   id="g123">
							<path
   style="fill:#070766;"
   d="M2465.698,1575.347c-2.471,0-4.962-0.278-7.443-0.858         c-10.068-2.354-18.651-9.463-23.55-19.509c-4.591-9.417-5.712-20.635-3.154-31.585c5.484-23.45,26.372-38.687,46.585-33.961         c10.068,2.352,18.651,9.463,23.55,19.509c4.592,9.417,5.713,20.635,3.154,31.585         C2500.03,1561.097,2483.357,1575.347,2465.698,1575.347z M2470.624,1510.878c-7.392,0-14.974,7.44-17.347,17.596         c-1.375,5.881-0.833,11.978,1.482,16.728c1.143,2.345,3.775,6.441,8.574,7.563h0.002c8.079,1.889,17.145-6.037,19.782-17.316         c1.375-5.881,0.833-11.978-1.482-16.728c-1.143-2.344-3.775-6.441-8.574-7.562         C2472.254,1510.97,2471.44,1510.878,2470.624,1510.878z"
   id="path122" />
						</g>
					</g>
				</g>
				<g
   id="g126">
					<path
   style="fill:#FFFFFF;"
   d="M2120.492,787.103c-17.793,5.875-97.381-26.605-97.357-51.532       c0.021-21.528,53.96-49.303,92.657-49.35C2125.864,686.209,2126.804,785.019,2120.492,787.103z"
   id="path125" />
				</g>
				<g
   id="g127">
					<path
   style="fill:#FFFFFF;"
   d="M2118.813,731.478c68.583,3.683,137.758,7.171,206.403,3.729       c9.539-0.461,10.76,13.742,1.174,14.824c-69.459,5.985-138.957,4.975-208.582,3.732       C2102.862,753.013,2103.741,730.909,2118.813,731.478L2118.813,731.478z"
   id="path126" />
				</g>
				<g
   id="g128">
					<path
   style="fill:#FFFFFF;"
   d="M2312.211,743.565c8.786-17.058,64.431-55.917,79.706-57.596       c8.684-0.954,12.156,3.273,12.156,47.336c0,41.922-2.127,49.098-8.233,49.751       C2370.744,785.738,2309.819,748.209,2312.211,743.565z"
   id="path127" />
				</g>
				<g
   id="g129">
					<path
   style="fill:#FFFFFF;"
   d="M2158.906,687.356c12.752,32.611,15.223,71.538,0.001,103.728       c-0.818,1.711-3.575,1.138-3.643-0.746c-1.991-24.815-0.614-51.555-0.66-76.43c0.105-8.53,0.157-17.143,0.664-25.882       C2155.316,686.091,2158.187,685.57,2158.906,687.356L2158.906,687.356z"
   id="path128" />
				</g>
				<g
   id="g130">
					<path
   style="fill:#FFFFFF;"
   d="M2191.325,690.756c12.754,32.611,15.222,71.537,0.001,103.728       c-0.819,1.711-3.578,1.137-3.644-0.748c-1.99-24.814-0.613-51.553-0.659-76.428c0.106-8.533,0.156-17.145,0.664-25.885       C2187.735,689.492,2190.607,688.969,2191.325,690.756L2191.325,690.756z"
   id="path129" />
				</g>
				<g
   id="g131">
					<path
   style="fill:#FFFFFF;"
   d="M2223.866,692.099c12.754,32.611,15.223,71.537,0.001,103.729       c-0.819,1.71-3.579,1.137-3.643-0.748c-1.991-24.814-0.614-51.553-0.66-76.428c0.105-8.533,0.158-17.145,0.664-25.885       C2220.277,690.835,2223.149,690.312,2223.866,692.099L2223.866,692.099z"
   id="path130" />
				</g>
				<g
   id="g132">
					<path
   style="fill:#FFFFFF;"
   d="M2258.048,697.051c12.179,29.307,14.576,64.949,0.001,93.824       c-0.849,1.652-3.527,1.094-3.644-0.748c-2.484-22.415-1.124-46.507-0.991-68.99c0.18-7.708,0.336-15.497,0.998-23.421       C2254.506,695.817,2257.303,695.318,2258.048,697.051L2258.048,697.051z"
   id="path131" />
				</g>
				<g
   id="g133">
					<path
   style="fill:#FFFFFF;"
   d="M2290.618,712.914c10.187,17.738,12.305,42.17,0.001,59.414c-0.996,1.34-3.256,0.86-3.643-0.748       c-4.063-14.531-3.125-28.435-2.171-43.149c0.498-4.846,0.978-9.789,2.198-14.881       C2287.341,711.874,2289.741,711.469,2290.618,712.914L2290.618,712.914z"
   id="path132" />
				</g>
				<g
   id="g134">
					<circle
   style="fill:#B16AEF;"
   cx="2089.819"
   cy="717.403"
   r="12.444"
   id="circle133" />
				</g>
				<g
   style="opacity:0.4;"
   id="g135">
					<path
   style="fill:#FFFFFF;"
   d="M2231.525,1234.387c13.678-0.04,27.356,1.64,27.356,5.16c0,7.041-19.232,11.743-27.356,11.743       s-27.357-4.701-27.357-11.743C2204.168,1236.026,2217.847,1234.346,2231.525,1234.387z"
   id="path134" />
				</g>
			</g>
			<g
   id="g269">
				<g
   id="g147">
					<g
   id="g137">
						<path
   style="fill:#66DBFF;"
   d="M2788.948,3537.151H929.257c-102.337,0-186.068-83.73-186.068-186.068v-921.035        c0-102.337,83.731-186.068,186.068-186.068h1859.691c102.337,0,186.068,83.73,186.068,186.068v921.035        C2975.016,3453.42,2891.285,3537.151,2788.948,3537.151z"
   id="path136" />
					</g>
					<g
   style="opacity:0.6;"
   id="g138">
						<path
   style="fill:#FFFFFF;"
   d="M2788.948,2243.98H929.257c-102.337,0-186.068,83.731-186.068,186.068v32.989        c0-102.337,83.731-186.068,186.068-186.068h1859.691c102.337,0,186.067,83.73,186.067,186.068v-32.989        C2975.016,2327.711,2891.286,2243.98,2788.948,2243.98z"
   id="path137" />
					</g>
					<g
   id="g139">
						<path
   style="fill:#1799E2;"
   d="M2788.948,3501.314H929.257c-102.337,0-186.068-83.731-186.068-186.068v35.837        c0,102.337,83.731,186.067,186.068,186.067h1859.691c102.337,0,186.067-83.73,186.067-186.067v-35.837        C2975.016,3417.583,2891.286,3501.314,2788.948,3501.314z"
   id="path138" />
					</g>
					<g
   id="g140">
						<path
   style="fill:#070766;"
   d="M2788.947,3555.742H929.257c-112.851,0-204.659-91.811-204.659-204.659v-921.036        c0-112.848,91.808-204.657,204.659-204.657h1859.69c112.851,0,204.659,91.809,204.659,204.657v921.036        C2993.606,3463.932,2901.798,3555.742,2788.947,3555.742z M929.257,2262.571c-92.347,0-167.478,75.129-167.478,167.476        v921.036c0,92.347,75.131,167.479,167.478,167.479h1859.69c92.347,0,167.479-75.131,167.479-167.479v-921.036        c0-92.347-75.131-167.476-167.479-167.476H929.257z"
   id="path139" />
					</g>
					<g
   id="g141">
						<path
   style="fill:#E063C8;"
   d="M814.192,3347.007v-912.881c0-65.8,53.342-119.142,119.142-119.142h1851.535        c65.8,0,119.142,53.342,119.142,119.142v912.881c0,65.8-53.342,119.142-119.142,119.142H933.334        C867.534,3466.148,814.192,3412.807,814.192,3347.007z"
   id="path140" />
					</g>
					<g
   id="g142">
						<path
   style="fill:#FFABED;"
   d="M851.516,3338.437v-882.873c0-54.346,44.056-98.402,98.402-98.402h1818.366        c54.346,0,98.402,44.056,98.402,98.402v882.873c0,54.346-44.056,98.402-98.402,98.402H949.919        C895.573,3436.839,851.516,3392.783,851.516,3338.437z"
   id="path141" />
					</g>
					<g
   id="g145">
						<g
   id="g143">
							<path
   style="fill:#FFC7F4;"
   d="M2143.846,2357.162h-611.983l-680.346,939.86v41.415c0,54.346,44.056,98.402,98.402,98.402         h412.371L2143.846,2357.162z"
   id="path142" />
						</g>
						<g
   id="g144">
							<path
   style="fill:#FFC7F4;"
   d="M2835.456,2383.685c-17.587-16.442-41.196-26.523-67.171-26.523h-373.618l-781.557,1079.677         h459.989L2835.456,2383.685z"
   id="path143" />
						</g>
					</g>
					<g
   id="g146">
						<path
   style="fill:#070766;"
   d="M2784.87,3481.021H933.334c-73.896,0-134.017-60.119-134.017-134.012v-912.882        c0-73.896,60.121-134.017,134.017-134.017H2784.87c73.896,0,134.014,60.121,134.014,134.017v912.882        C2918.884,3420.902,2858.765,3481.021,2784.87,3481.021z M933.334,2329.858c-57.494,0-104.269,46.775-104.269,104.269v912.882        c0,57.491,46.775,104.27,104.269,104.27H2784.87c57.494,0,104.267-46.778,104.267-104.27v-912.882        c0-57.494-46.773-104.269-104.267-104.269H933.334z"
   id="path145" />
					</g>
				</g>
				<g
   id="g268">
					<g
   id="g153">
						<g
   id="g148">
							<circle
   style="fill:#E063C8;"
   cx="957.458"
   cy="2689.726"
   r="72.515"
   id="circle147" />
						</g>
						<g
   id="g149">
							<circle
   style="fill:#A9D0FF;"
   cx="957.458"
   cy="2652.544"
   r="72.515"
   id="circle148" />
						</g>
						<g
   style="opacity:0.6;"
   id="g150">
							<path
   style="fill:#FFFFFF;"
   d="M1029.973,2652.544c0-40.049-32.466-72.515-72.515-72.515         c-40.049,0-72.515,32.466-72.515,72.515c0,15.875,5.16,30.513,13.813,42.455c-3.188-7.582-4.955-15.908-4.955-24.649         c0-15.506,5.555-29.707,14.77-40.749c5.912,7.692,20.958,9.941,36.378,4.801c15.703-5.233,26.475-16.36,26.195-26.195         c28.572,6.266,49.97,31.69,49.97,62.143c0,8.741-1.767,17.067-4.955,24.648         C1024.813,2683.056,1029.973,2668.419,1029.973,2652.544z"
   id="path149" />
						</g>
						<g
   id="g151">
							<path
   style="fill:#6692D3;"
   d="M1010.601,2603.322c3.208,7.215,5.028,15.184,5.028,23.59c0,32.126-26.044,58.17-58.17,58.17         c-32.127,0-58.17-26.044-58.17-58.17c0-8.406,1.819-16.374,5.027-23.59c-11.986,12.936-19.372,30.196-19.372,49.221         c0,40.049,32.466,72.515,72.515,72.515c40.049,0,72.515-32.466,72.515-72.515         C1029.973,2633.518,1022.587,2616.257,1010.601,2603.322z"
   id="path150" />
						</g>
						<g
   id="g152">
							<path
   style="fill:#070766;"
   d="M957.459,2739.931c-48.187,0-87.39-39.203-87.39-87.388c0-48.184,39.203-87.387,87.39-87.387         c48.184,0,87.388,39.203,87.388,87.387C1044.847,2700.728,1005.643,2739.931,957.459,2739.931z M957.459,2594.903         c-31.785,0-57.643,25.858-57.643,57.64s25.858,57.64,57.643,57.64c31.782,0,57.64-25.858,57.64-57.64         S989.241,2594.903,957.459,2594.903z"
   id="path151" />
						</g>
					</g>
					<g
   id="g159">
						<g
   id="g154">
							<circle
   style="fill:#E063C8;"
   cx="2760.242"
   cy="2689.726"
   r="72.515"
   id="circle153" />
						</g>
						<g
   id="g155">
							<circle
   style="fill:#A9D0FF;"
   cx="2760.242"
   cy="2652.544"
   r="72.515"
   id="circle154" />
						</g>
						<g
   style="opacity:0.6;"
   id="g156">
							<path
   style="fill:#FFFFFF;"
   d="M2832.757,2652.544c0-40.049-32.466-72.515-72.515-72.515         c-40.049,0-72.515,32.466-72.515,72.515c0,15.875,5.16,30.513,13.813,42.455c-3.188-7.582-4.955-15.908-4.955-24.649         c0-15.506,5.555-29.707,14.77-40.749c5.912,7.692,20.957,9.941,36.377,4.801c15.703-5.233,26.475-16.36,26.195-26.195         c28.572,6.266,49.97,31.69,49.97,62.143c0,8.741-1.767,17.067-4.955,24.648         C2827.596,2683.056,2832.757,2668.419,2832.757,2652.544z"
   id="path155" />
						</g>
						<g
   id="g157">
							<path
   style="fill:#6692D3;"
   d="M2813.384,2603.322c3.208,7.215,5.028,15.184,5.028,23.59c0,32.126-26.044,58.17-58.17,58.17         c-32.127,0-58.17-26.044-58.17-58.17c0-8.406,1.819-16.374,5.027-23.59c-11.986,12.936-19.372,30.196-19.372,49.221         c0,40.049,32.466,72.515,72.515,72.515c40.049,0,72.515-32.466,72.515-72.515         C2832.757,2633.518,2825.371,2616.257,2813.384,2603.322z"
   id="path156" />
						</g>
						<g
   id="g158">
							<path
   style="fill:#070766;"
   d="M2760.243,2739.931c-48.187,0-87.39-39.203-87.39-87.388c0-48.184,39.203-87.387,87.39-87.387         c48.184,0,87.387,39.203,87.387,87.387C2847.63,2700.728,2808.427,2739.931,2760.243,2739.931z M2760.243,2594.903         c-31.785,0-57.643,25.858-57.643,57.64s25.858,57.64,57.643,57.64c31.782,0,57.64-25.858,57.64-57.64         S2792.025,2594.903,2760.243,2594.903z"
   id="path157" />
						</g>
					</g>
					<g
   id="g183">
						<g
   id="g160">
							<circle
   style="fill:#E063C8;"
   cx="2461.12"
   cy="3061.95"
   r="324.971"
   id="circle159" />
						</g>
						<g
   id="g161">
							<circle
   style="fill:#66DBFF;"
   cx="2461.12"
   cy="2987.586"
   r="324.971"
   id="circle160" />
						</g>
						<g
   id="g162">
							<path
   style="fill:#1799E2;"
   d="M2728.378,2802.698c28.125,46.817,44.326,101.614,44.326,160.205         c0,172.083-139.501,311.584-311.584,311.584c-172.083,0-311.583-139.501-311.583-311.584         c0-58.593,16.201-113.389,44.326-160.206c-36.379,52.487-57.714,116.192-57.714,184.889         c0,179.476,145.495,324.971,324.971,324.971c179.477,0,324.971-145.495,324.971-324.971         C2786.091,2918.889,2764.756,2855.185,2728.378,2802.698z"
   id="path161" />
						</g>
						<g
   style="opacity:0.6;"
   id="g163">
							<path
   style="fill:#FFFFFF;"
   d="M2141.206,3014.168c0-176.684,143.231-319.914,319.914-319.914         c176.684,0,319.914,143.23,319.914,319.914c0,16.433-1.248,32.575-3.638,48.341c5.677-24.054,8.695-49.134,8.695-74.922         c0-179.477-145.494-324.971-324.971-324.971c-179.476,0-324.971,145.494-324.971,324.971c0,25.788,3.019,50.868,8.695,74.922         C2142.455,3046.742,2141.206,3030.601,2141.206,3014.168z"
   id="path162" />
						</g>
						<g
   id="g164">
							<path
   style="fill:#070766;"
   d="M2461.121,3331.148c-189.442,0-343.562-154.121-343.562-343.562         c0-189.439,154.121-343.56,343.562-343.56c189.439,0,343.56,154.121,343.56,343.56         C2804.681,3177.027,2650.561,3331.148,2461.121,3331.148z M2461.121,2681.206c-168.938,0-306.382,137.441-306.382,306.379         s137.444,306.382,306.382,306.382s306.379-137.443,306.379-306.382S2630.06,2681.206,2461.121,2681.206z"
   id="path163" />
						</g>
						<g
   style="opacity:0.6;"
   id="g165">
							<circle
   style="fill:#FFFFFF;"
   cx="2461.121"
   cy="2998.741"
   r="266.475"
   id="circle164" />
						</g>
						<g
   id="g166">
							<circle
   style="fill:#628FD1;"
   cx="2461.12"
   cy="2987.586"
   r="248.093"
   id="circle165" />
						</g>
						<g
   id="g169">
							<g
   style="opacity:0.3;"
   id="g167">
								<path
   style="fill:#FFFFFF;"
   d="M2358.433,3213.417l102.687-225.83l-228.435,96.927          C2256.957,3141.643,2302.06,3187.741,2358.433,3213.417z"
   id="path166" />
							</g>
							<g
   style="opacity:0.3;"
   id="g168">
								<path
   style="fill:#FFFFFF;"
   d="M2683.413,3097.754l-222.292-110.167l40.2,244.802          C2581.376,3219.34,2648.532,3167.996,2683.413,3097.754z"
   id="path167" />
							</g>
						</g>
						<g
   id="g170">
							<path
   style="fill:#2E6ECC;"
   d="M2461.149,3045.4l230.565-149.317c-36.427-91.713-125.905-156.589-230.594-156.589         c-104.684,0-194.159,64.871-230.59,156.579L2461.149,3045.4z"
   id="path169" />
						</g>
						<g
   id="g171">
							<path
   style="fill:#070766;"
   d="M2461.121,3254.271c-147.051,0-266.684-119.635-266.684-266.686         s119.633-266.684,266.684-266.684s266.683,119.633,266.683,266.684S2608.172,3254.271,2461.121,3254.271z M2461.121,2758.083         c-126.547,0-229.503,102.956-229.503,229.503c0,126.55,102.956,229.505,229.503,229.505s229.503-102.956,229.503-229.505         C2690.624,2861.039,2587.668,2758.083,2461.121,2758.083z"
   id="path170" />
						</g>
						<g
   id="g172">
							<circle
   style="fill:#070766;"
   cx="2461.121"
   cy="2987.586"
   r="115.975"
   id="circle171" />
						</g>
						<g
   id="g173">
							<path
   style="fill:#070766;"
   d="M2709.215,2998.74h-496.187c-6.161,0-11.155-4.994-11.155-11.155         c0-6.161,4.994-11.155,11.155-11.155h496.187c6.161,0,11.155,4.994,11.155,11.155         C2720.369,2993.747,2715.375,2998.74,2709.215,2998.74z"
   id="path172" />
						</g>
						<g
   id="g174">
							<path
   style="fill:#070766;"
   d="M2461.121,3246.833c-6.161,0-11.155-4.991-11.155-11.152v-496.189         c0-6.161,4.994-11.155,11.155-11.155c6.161,0,11.155,4.994,11.155,11.155v496.189         C2472.276,3241.842,2467.282,3246.833,2461.121,3246.833z"
   id="path173" />
						</g>
						<g
   id="g175">
							<path
   style="fill:#070766;"
   d="M2371.652,3230.203c-6.161,0-11.155-4.991-11.155-11.152v-462.927         c0-6.161,4.994-11.155,11.155-11.155c6.161,0,11.155,4.994,11.155,11.155v462.927         C2382.807,3225.211,2377.813,3230.203,2371.652,3230.203z"
   id="path174" />
						</g>
						<g
   id="g176">
							<path
   style="fill:#070766;"
   d="M2288.059,3176.481c-6.161,0-11.155-4.994-11.155-11.155v-355.48         c0-6.161,4.994-11.155,11.155-11.155c6.161,0,11.155,4.994,11.155,11.155v355.48         C2299.214,3171.488,2294.22,3176.481,2288.059,3176.481z"
   id="path175" />
						</g>
						<g
   id="g177">
							<path
   style="fill:#070766;"
   d="M2634.181,3176.481c-6.161,0-11.155-4.994-11.155-11.155v-355.48         c0-6.161,4.994-11.155,11.155-11.155c6.161,0,11.155,4.994,11.155,11.155v355.48         C2645.335,3171.488,2640.342,3176.481,2634.181,3176.481z"
   id="path176" />
						</g>
						<g
   id="g178">
							<path
   style="fill:#070766;"
   d="M2550.588,3230.203c-6.161,0-11.155-4.991-11.155-11.152v-462.927         c0-6.161,4.994-11.155,11.155-11.155c6.161,0,11.155,4.994,11.155,11.155v462.927         C2561.742,3225.211,2556.749,3230.203,2550.588,3230.203z"
   id="path177" />
						</g>
						<g
   id="g179">
							<path
   style="fill:#070766;"
   d="M2692.584,3088.209h-462.927c-6.161,0-11.155-4.994-11.155-11.155         c0-6.161,4.994-11.155,11.155-11.155h462.927c6.161,0,11.155,4.994,11.155,11.155         C2703.738,3083.216,2698.745,3088.209,2692.584,3088.209z"
   id="path178" />
						</g>
						<g
   id="g180">
							<path
   style="fill:#070766;"
   d="M2638.86,3171.802h-355.48c-6.161,0-11.155-4.993-11.155-11.155s4.994-11.155,11.155-11.155         h355.48c6.161,0,11.155,4.993,11.155,11.155S2645.021,3171.802,2638.86,3171.802z"
   id="path179" />
						</g>
						<g
   id="g181">
							<path
   style="fill:#070766;"
   d="M2638.86,2825.681h-355.482c-6.161,0-11.155-4.994-11.155-11.155         c0-6.161,4.994-11.155,11.155-11.155h355.482c6.161,0,11.155,4.994,11.155,11.155         C2650.015,2820.687,2645.021,2825.681,2638.86,2825.681z"
   id="path180" />
						</g>
						<g
   id="g182">
							<path
   style="fill:#070766;"
   d="M2692.581,2909.274h-462.925c-6.161,0-11.155-4.994-11.155-11.155         c0-6.161,4.994-11.155,11.155-11.155h462.925c6.161,0,11.155,4.994,11.155,11.155         C2703.736,2904.28,2698.742,2909.274,2692.581,2909.274z"
   id="path181" />
						</g>
					</g>
					<g
   id="g207">
						<g
   id="g184">
							<circle
   style="fill:#E063C8;"
   cx="1256.58"
   cy="3061.95"
   r="324.971"
   id="circle183" />
						</g>
						<g
   id="g185">
							<circle
   style="fill:#66DBFF;"
   cx="1256.58"
   cy="2987.586"
   r="324.971"
   id="circle184" />
						</g>
						<g
   id="g186">
							<path
   style="fill:#1799E2;"
   d="M1523.837,2802.698c28.125,46.817,44.326,101.614,44.326,160.205         c0,172.083-139.501,311.584-311.584,311.584c-172.083,0-311.583-139.501-311.583-311.584         c0-58.593,16.201-113.389,44.326-160.206c-36.379,52.487-57.714,116.192-57.714,184.889         c0,179.476,145.495,324.971,324.971,324.971c179.477,0,324.971-145.495,324.971-324.971         C1581.551,2918.889,1560.216,2855.185,1523.837,2802.698z"
   id="path185" />
						</g>
						<g
   style="opacity:0.6;"
   id="g187">
							<path
   style="fill:#FFFFFF;"
   d="M936.666,3014.168c0-176.684,143.231-319.914,319.914-319.914         c176.684,0,319.914,143.23,319.914,319.914c0,16.433-1.248,32.575-3.638,48.341c5.677-24.054,8.695-49.134,8.695-74.922         c0-179.477-145.494-324.971-324.971-324.971c-179.476,0-324.971,145.494-324.971,324.971c0,25.788,3.019,50.868,8.695,74.922         C937.914,3046.742,936.666,3030.601,936.666,3014.168z"
   id="path186" />
						</g>
						<g
   id="g188">
							<path
   style="fill:#070766;"
   d="M1256.581,3331.148c-189.442,0-343.562-154.121-343.562-343.562         c0-189.439,154.121-343.56,343.562-343.56c189.439,0,343.56,154.121,343.56,343.56         C1600.14,3177.027,1446.02,3331.148,1256.581,3331.148z M1256.581,2681.206c-168.938,0-306.382,137.441-306.382,306.379         s137.444,306.382,306.382,306.382s306.379-137.443,306.379-306.382S1425.519,2681.206,1256.581,2681.206z"
   id="path187" />
						</g>
						<g
   style="opacity:0.6;"
   id="g189">
							<circle
   style="fill:#FFFFFF;"
   cx="1256.58"
   cy="2998.741"
   r="266.475"
   id="circle188" />
						</g>
						<g
   id="g190">
							<circle
   style="fill:#628FD1;"
   cx="1256.58"
   cy="2987.586"
   r="248.093"
   id="circle189" />
						</g>
						<g
   id="g193">
							<g
   style="opacity:0.3;"
   id="g191">
								<path
   style="fill:#FFFFFF;"
   d="M1153.893,3213.417l102.687-225.83l-228.434,96.927          C1052.417,3141.643,1097.52,3187.741,1153.893,3213.417z"
   id="path190" />
							</g>
							<g
   style="opacity:0.3;"
   id="g192">
								<path
   style="fill:#FFFFFF;"
   d="M1478.872,3097.754l-222.293-110.167l40.2,244.802          C1376.835,3219.34,1443.991,3167.996,1478.872,3097.754z"
   id="path191" />
							</g>
						</g>
						<g
   id="g194">
							<path
   style="fill:#2E6ECC;"
   d="M1256.608,3045.4l230.565-149.317c-36.427-91.713-125.905-156.589-230.594-156.589         c-104.684,0-194.159,64.871-230.589,156.579L1256.608,3045.4z"
   id="path193" />
						</g>
						<g
   id="g195">
							<path
   style="fill:#070766;"
   d="M1256.581,3254.271c-147.05,0-266.683-119.635-266.683-266.686         s119.633-266.684,266.683-266.684s266.684,119.633,266.684,266.684S1403.631,3254.271,1256.581,3254.271z M1256.581,2758.083         c-126.547,0-229.503,102.956-229.503,229.503c0,126.55,102.956,229.505,229.503,229.505s229.503-102.956,229.503-229.505         C1486.083,2861.039,1383.128,2758.083,1256.581,2758.083z"
   id="path194" />
						</g>
						<g
   id="g196">
							<circle
   style="fill:#070766;"
   cx="1256.58"
   cy="2987.586"
   r="115.975"
   id="circle195" />
						</g>
						<g
   id="g197">
							<path
   style="fill:#070766;"
   d="M1504.674,2998.74h-496.186c-6.161,0-11.155-4.994-11.155-11.155         c0-6.161,4.994-11.155,11.155-11.155h496.186c6.161,0,11.155,4.994,11.155,11.155         C1515.828,2993.747,1510.835,2998.74,1504.674,2998.74z"
   id="path196" />
						</g>
						<g
   id="g198">
							<path
   style="fill:#070766;"
   d="M1256.581,3246.833c-6.161,0-11.155-4.991-11.155-11.152v-496.189         c0-6.161,4.994-11.155,11.155-11.155s11.155,4.994,11.155,11.155v496.189         C1267.735,3241.842,1262.742,3246.833,1256.581,3246.833z"
   id="path197" />
						</g>
						<g
   id="g199">
							<path
   style="fill:#070766;"
   d="M1167.112,3230.203c-6.161,0-11.155-4.991-11.155-11.152v-462.927         c0-6.161,4.994-11.155,11.155-11.155c6.161,0,11.155,4.994,11.155,11.155v462.927         C1178.266,3225.211,1173.273,3230.203,1167.112,3230.203z"
   id="path198" />
						</g>
						<g
   id="g200">
							<path
   style="fill:#070766;"
   d="M1083.519,3176.481c-6.161,0-11.155-4.994-11.155-11.155v-355.48         c0-6.161,4.994-11.155,11.155-11.155s11.155,4.994,11.155,11.155v355.48         C1094.673,3171.488,1089.68,3176.481,1083.519,3176.481z"
   id="path199" />
						</g>
						<g
   id="g201">
							<path
   style="fill:#070766;"
   d="M1429.64,3176.481c-6.161,0-11.155-4.994-11.155-11.155v-355.48         c0-6.161,4.994-11.155,11.155-11.155s11.155,4.994,11.155,11.155v355.48         C1440.795,3171.488,1435.801,3176.481,1429.64,3176.481z"
   id="path200" />
						</g>
						<g
   id="g202">
							<path
   style="fill:#070766;"
   d="M1346.047,3230.203c-6.161,0-11.155-4.991-11.155-11.152v-462.927         c0-6.161,4.994-11.155,11.155-11.155s11.155,4.994,11.155,11.155v462.927         C1357.202,3225.211,1352.208,3230.203,1346.047,3230.203z"
   id="path201" />
						</g>
						<g
   id="g203">
							<path
   style="fill:#070766;"
   d="M1488.043,3088.209h-462.927c-6.161,0-11.155-4.994-11.155-11.155         c0-6.161,4.994-11.155,11.155-11.155h462.927c6.161,0,11.155,4.994,11.155,11.155         C1499.198,3083.216,1494.204,3088.209,1488.043,3088.209z"
   id="path202" />
						</g>
						<g
   id="g204">
							<path
   style="fill:#070766;"
   d="M1434.319,3171.802h-355.48c-6.161,0-11.155-4.993-11.155-11.155s4.994-11.155,11.155-11.155         h355.48c6.161,0,11.155,4.993,11.155,11.155S1440.48,3171.802,1434.319,3171.802z"
   id="path203" />
						</g>
						<g
   id="g205">
							<path
   style="fill:#070766;"
   d="M1434.319,2825.681h-355.482c-6.161,0-11.155-4.994-11.155-11.155         c0-6.161,4.994-11.155,11.155-11.155h355.482c6.161,0,11.155,4.994,11.155,11.155         C1445.474,2820.687,1440.48,2825.681,1434.319,2825.681z"
   id="path204" />
						</g>
						<g
   id="g206">
							<path
   style="fill:#070766;"
   d="M1488.041,2909.274h-462.925c-6.161,0-11.155-4.994-11.155-11.155         c0-6.161,4.994-11.155,11.155-11.155h462.925c6.161,0,11.155,4.994,11.155,11.155         C1499.195,2904.28,1494.202,2909.274,1488.041,2909.274z"
   id="path205" />
						</g>
					</g>
					<g
   id="g232">
						<g
   id="g208">
							<rect
   x="1037.274"
   y="2368.866"
   style="fill:#FFFFFF;"
   width="1643.656"
   height="132.943"
   id="rect207" />
						</g>
						<g
   id="g209">
							<rect
   x="1037.274"
   y="2413.485"
   style="fill:#E063C8;"
   width="1643.656"
   height="132.943"
   id="rect208" />
						</g>
						<g
   id="g210">
							<rect
   x="1037.274"
   y="2368.866"
   style="fill:#FFFFFF;"
   width="1643.656"
   height="132.943"
   id="rect209" />
						</g>
						<g
   id="g211">
							<rect
   x="1074.455"
   y="2454.343"
   style="fill:#CADAFF;"
   width="1569.292"
   height="21.239"
   id="rect210" />
						</g>
						<g
   id="g212">
							<path
   style="fill:#070766;"
   d="M2680.929,2516.682H1037.275c-8.213,0-14.874-6.661-14.874-14.874v-132.942         c0-8.213,6.661-14.874,14.874-14.874h1643.655c8.213,0,14.874,6.661,14.874,14.874v132.942         C2695.803,2510.021,2689.142,2516.682,2680.929,2516.682z M1052.148,2486.934h1613.907V2383.74H1052.148V2486.934z"
   id="path211" />
						</g>
						<g
   id="g213">
							<line
   style="fill:#FFFFFF;"
   x1="1099.01"
   y1="2435.338"
   x2="2619.195"
   y2="2435.338"
   id="line212" />
							<path
   style="fill:#070766;"
   d="M2619.195,2442.774H1099.009c-4.107,0-7.436-3.329-7.436-7.436         c0-4.107,3.329-7.436,7.436-7.436h1520.186c4.107,0,7.436,3.329,7.436,7.436         C2626.631,2439.445,2623.302,2442.774,2619.195,2442.774z"
   id="path212" />
						</g>
						<g
   id="g222">
							<g
   id="g214">
								<line
   style="fill:#FFFFFF;"
   x1="1161.489"
   y1="2416.706"
   x2="1161.489"
   y2="2457.327"
   id="line213" />
								<path
   style="fill:#070766;"
   d="M1161.489,2464.761c-4.106,0-7.436-3.329-7.436-7.436v-40.619          c0-4.106,3.329-7.436,7.436-7.436c4.107,0,7.436,3.329,7.436,7.436v40.619          C1168.925,2461.432,1165.596,2464.761,1161.489,2464.761z"
   id="path213" />
							</g>
							<g
   id="g215">
								<line
   style="fill:#FFFFFF;"
   x1="1261.148"
   y1="2416.706"
   x2="1261.148"
   y2="2457.327"
   id="line214" />
								<path
   style="fill:#070766;"
   d="M1261.148,2464.761c-4.107,0-7.436-3.329-7.436-7.436v-40.619          c0-4.106,3.329-7.436,7.436-7.436c4.106,0,7.436,3.329,7.436,7.436v40.619          C1268.583,2461.432,1265.254,2464.761,1261.148,2464.761z"
   id="path214" />
							</g>
							<g
   id="g216">
								<line
   style="fill:#FFFFFF;"
   x1="1360.807"
   y1="2416.706"
   x2="1360.807"
   y2="2457.327"
   id="line215" />
								<path
   style="fill:#070766;"
   d="M1360.806,2464.761c-4.107,0-7.436-3.329-7.436-7.436v-40.619          c0-4.106,3.329-7.436,7.436-7.436s7.436,3.329,7.436,7.436v40.619C1368.242,2461.432,1364.913,2464.761,1360.806,2464.761z"
   id="path215" />
							</g>
							<g
   id="g217">
								<line
   style="fill:#FFFFFF;"
   x1="1460.466"
   y1="2416.706"
   x2="1460.466"
   y2="2457.327"
   id="line216" />
								<path
   style="fill:#070766;"
   d="M1460.465,2464.761c-4.106,0-7.436-3.329-7.436-7.436v-40.619          c0-4.106,3.329-7.436,7.436-7.436s7.436,3.329,7.436,7.436v40.619C1467.9,2461.432,1464.571,2464.761,1460.465,2464.761z"
   id="path216" />
							</g>
							<g
   id="g218">
								<line
   style="fill:#FFFFFF;"
   x1="1560.125"
   y1="2416.706"
   x2="1560.125"
   y2="2457.327"
   id="line217" />
								<path
   style="fill:#070766;"
   d="M1560.125,2464.761c-4.107,0-7.436-3.329-7.436-7.436v-40.619          c0-4.106,3.329-7.436,7.436-7.436s7.436,3.329,7.436,7.436v40.619C1567.561,2461.432,1564.232,2464.761,1560.125,2464.761z"
   id="path217" />
							</g>
							<g
   id="g219">
								<line
   style="fill:#FFFFFF;"
   x1="1659.784"
   y1="2416.706"
   x2="1659.784"
   y2="2457.327"
   id="line218" />
								<path
   style="fill:#070766;"
   d="M1659.784,2464.761c-4.107,0-7.436-3.329-7.436-7.436v-40.619          c0-4.106,3.329-7.436,7.436-7.436c4.106,0,7.436,3.329,7.436,7.436v40.619          C1667.219,2461.432,1663.89,2464.761,1659.784,2464.761z"
   id="path218" />
							</g>
							<g
   id="g220">
								<line
   style="fill:#FFFFFF;"
   x1="1759.443"
   y1="2416.706"
   x2="1759.443"
   y2="2457.327"
   id="line219" />
								<path
   style="fill:#070766;"
   d="M1759.442,2464.761c-4.106,0-7.436-3.329-7.436-7.436v-40.619          c0-4.106,3.329-7.436,7.436-7.436c4.107,0,7.436,3.329,7.436,7.436v40.619          C1766.878,2461.432,1763.549,2464.761,1759.442,2464.761z"
   id="path219" />
							</g>
							<g
   id="g221">
								<line
   style="fill:#FFFFFF;"
   x1="1859.102"
   y1="2416.706"
   x2="1859.102"
   y2="2457.327"
   id="line220" />
								<path
   style="fill:#070766;"
   d="M1859.101,2464.761c-4.107,0-7.436-3.329-7.436-7.436v-40.619          c0-4.106,3.329-7.436,7.436-7.436s7.436,3.329,7.436,7.436v40.619C1866.536,2461.432,1863.207,2464.761,1859.101,2464.761z"
   id="path220" />
							</g>
						</g>
						<g
   id="g231">
							<g
   id="g223">
								<line
   style="fill:#FFFFFF;"
   x1="1859.103"
   y1="2416.706"
   x2="1859.103"
   y2="2457.327"
   id="line222" />
								<path
   style="fill:#070766;"
   d="M1859.103,2464.761c-4.107,0-7.436-3.329-7.436-7.436v-40.619          c0-4.106,3.329-7.436,7.436-7.436s7.436,3.329,7.436,7.436v40.619C1866.539,2461.432,1863.21,2464.761,1859.103,2464.761z"
   id="path222" />
							</g>
							<g
   id="g224">
								<line
   style="fill:#FFFFFF;"
   x1="1958.762"
   y1="2416.706"
   x2="1958.762"
   y2="2457.327"
   id="line223" />
								<path
   style="fill:#070766;"
   d="M1958.762,2464.761c-4.106,0-7.436-3.329-7.436-7.436v-40.619          c0-4.106,3.329-7.436,7.436-7.436s7.436,3.329,7.436,7.436v40.619C1966.197,2461.432,1962.868,2464.761,1958.762,2464.761z"
   id="path223" />
							</g>
							<g
   id="g225">
								<line
   style="fill:#FFFFFF;"
   x1="2058.42"
   y1="2416.706"
   x2="2058.42"
   y2="2457.327"
   id="line224" />
								<path
   style="fill:#070766;"
   d="M2058.42,2464.761c-4.106,0-7.436-3.329-7.436-7.436v-40.619          c0-4.106,3.329-7.436,7.436-7.436c4.107,0,7.436,3.329,7.436,7.436v40.619          C2065.856,2461.432,2062.527,2464.761,2058.42,2464.761z"
   id="path224" />
							</g>
							<g
   id="g226">
								<line
   style="fill:#FFFFFF;"
   x1="2158.08"
   y1="2416.706"
   x2="2158.08"
   y2="2457.327"
   id="line225" />
								<path
   style="fill:#070766;"
   d="M2158.079,2464.761c-4.107,0-7.436-3.329-7.436-7.436v-40.619          c0-4.106,3.329-7.436,7.436-7.436c4.106,0,7.436,3.329,7.436,7.436v40.619          C2165.514,2461.432,2162.185,2464.761,2158.079,2464.761z"
   id="path225" />
							</g>
							<g
   id="g227">
								<line
   style="fill:#FFFFFF;"
   x1="2257.739"
   y1="2416.706"
   x2="2257.739"
   y2="2457.327"
   id="line226" />
								<path
   style="fill:#070766;"
   d="M2257.739,2464.761c-4.106,0-7.436-3.329-7.436-7.436v-40.619          c0-4.106,3.329-7.436,7.436-7.436c4.107,0,7.436,3.329,7.436,7.436v40.619          C2265.175,2461.432,2261.846,2464.761,2257.739,2464.761z"
   id="path226" />
							</g>
							<g
   id="g228">
								<line
   style="fill:#FFFFFF;"
   x1="2357.397"
   y1="2416.706"
   x2="2357.397"
   y2="2457.327"
   id="line227" />
								<path
   style="fill:#070766;"
   d="M2357.398,2464.761c-4.106,0-7.436-3.329-7.436-7.436v-40.619          c0-4.106,3.329-7.436,7.436-7.436c4.107,0,7.436,3.329,7.436,7.436v40.619          C2364.833,2461.432,2361.504,2464.761,2357.398,2464.761z"
   id="path227" />
							</g>
							<g
   id="g229">
								<line
   style="fill:#FFFFFF;"
   x1="2457.056"
   y1="2416.706"
   x2="2457.056"
   y2="2457.327"
   id="line228" />
								<path
   style="fill:#070766;"
   d="M2457.056,2464.761c-4.106,0-7.436-3.329-7.436-7.436v-40.619          c0-4.106,3.329-7.436,7.436-7.436s7.436,3.329,7.436,7.436v40.619C2464.492,2461.432,2461.163,2464.761,2457.056,2464.761z"
   id="path228" />
							</g>
							<g
   id="g230">
								<line
   style="fill:#FFFFFF;"
   x1="2556.715"
   y1="2416.706"
   x2="2556.715"
   y2="2457.327"
   id="line229" />
								<path
   style="fill:#070766;"
   d="M2556.715,2464.761c-4.106,0-7.436-3.329-7.436-7.436v-40.619          c0-4.106,3.329-7.436,7.436-7.436s7.436,3.329,7.436,7.436v40.619C2564.15,2461.432,2560.821,2464.761,2556.715,2464.761z"
   id="path229" />
							</g>
						</g>
					</g>
					<g
   id="g267">
						<g
   id="g233">
							<path
   style="fill:#070766;"
   d="M1992.949,2956.805h-267.695c-31.583,0-57.277-25.695-57.277-57.277v-195.181         c0-31.583,25.694-57.277,57.277-57.277h267.695c31.583,0,57.277,25.694,57.277,57.277v195.181         C2050.227,2931.11,2024.532,2956.805,1992.949,2956.805z M1725.255,2676.817c-15.181,0-27.53,12.349-27.53,27.53v195.181         c0,15.181,12.349,27.53,27.53,27.53h267.695c15.181,0,27.53-12.349,27.53-27.53v-195.181c0-15.181-12.349-27.53-27.53-27.53         H1725.255z"
   id="path232" />
						</g>
						<g
   id="g234">
							<path
   style="fill:#E063C8;"
   d="M2052.084,3449.064H1666.12c-26.914,0-48.733-21.819-48.733-48.733v-723.355         c0-26.915,21.818-48.733,48.733-48.733h385.964c26.915,0,48.733,21.818,48.733,48.733v723.355         C2100.817,3427.245,2078.998,3449.064,2052.084,3449.064z"
   id="path233" />
						</g>
						<g
   id="g235">
							<path
   style="fill:#66DBFF;"
   d="M2052.084,3404.208H1666.12c-26.914,0-48.733-21.818-48.733-48.733V2632.12         c0-26.914,21.818-48.733,48.733-48.733h385.964c26.915,0,48.733,21.819,48.733,48.733v723.355         C2100.817,3382.39,2078.998,3404.208,2052.084,3404.208z"
   id="path234" />
						</g>
						<g
   style="opacity:0.3;"
   id="g236">
							<path
   style="fill:#FFFFFF;"
   d="M1617.387,3068.989l483.43-220.604V2632.12c0-0.932-0.088-1.842-0.14-2.761l-483.29,220.54         V3068.989z"
   id="path235" />
						</g>
						<g
   style="opacity:0.6;"
   id="g237">
							<path
   style="fill:#FFFFFF;"
   d="M2052.084,2583.387H1666.12c-26.915,0-48.733,21.818-48.733,48.733v34.651         c0-26.915,21.818-48.733,48.733-48.733h385.964c26.914,0,48.733,21.818,48.733,48.733v-34.651         C2100.817,2605.206,2078.998,2583.387,2052.084,2583.387z"
   id="path236" />
						</g>
						<g
   id="g238">
							<path
   style="fill:#1799E2;"
   d="M2052.084,3368.134H1666.12c-26.915,0-48.733-21.818-48.733-48.733v36.074         c0,26.914,21.818,48.733,48.733,48.733h385.964c26.914,0,48.733-21.819,48.733-48.733v-36.074         C2100.817,3346.315,2078.998,3368.134,2052.084,3368.134z"
   id="path237" />
						</g>
						<g
   id="XMLID_00000088839029176372539330000010883651811227919039_">
							<path
   style="fill:#1799E2;"
   d="M2000.115,3312.862h-282.027c-33.782,0-61.422-27.64-61.422-61.422v-151.602         c0-33.782,27.64-61.422,61.422-61.422h282.027c33.782,0,61.422,27.64,61.422,61.422v151.602         C2061.537,3285.222,2033.897,3312.862,2000.115,3312.862z"
   id="path238" />
						</g>
						<g
   style="opacity:0.3;"
   id="g239">
							<polygon
   style="fill:#FFFFFF;"
   points="1617.387,3291.21 2100.817,3070.606 2100.817,2961.061 1617.387,3181.665        "
   id="polygon238" />
						</g>
						<g
   id="XMLID_00000114760109061220318920000002904469160174535344_">
							<path
   style="fill:#FFABED;"
   d="M2000.115,3268.243h-282.027c-33.782,0-61.422-27.64-61.422-61.422v-151.602         c0-33.782,27.64-61.422,61.422-61.422h282.027c33.782,0,61.422,27.64,61.422,61.422v151.602         C2061.537,3240.604,2033.897,3268.243,2000.115,3268.243z"
   id="path239" />
						</g>
						<g
   style="opacity:0.6;"
   id="g240">
							<path
   style="fill:#FFFFFF;"
   d="M1987.015,2993.797h-255.827c-40.987,0-74.522,33.535-74.522,74.522v24.92         c0-40.987,33.535-74.522,74.522-74.522h255.827c40.987,0,74.522,33.535,74.522,74.522v-24.92         C2061.537,3027.332,2028.003,2993.797,1987.015,2993.797z"
   id="path240" />
						</g>
						<g
   id="g241">
							<path
   style="fill:#E063C8;"
   d="M1987.015,3242.928h-255.827c-40.987,0-74.522-33.535-74.522-74.522v25.315         c0,40.987,33.535,74.522,74.522,74.522h255.827c40.987,0,74.522-33.535,74.522-74.522v-25.315         C2061.537,3209.393,2028.003,3242.928,1987.015,3242.928z"
   id="path241" />
						</g>
						<g
   id="XMLID_00000036948613906323505990000012251595197948785582_">
							<path
   style="fill:#070766;"
   d="M1987.015,3283.112h-255.826c-49.293,0-89.396-40.1-89.396-89.391V3068.32         c0-49.293,40.103-89.396,89.396-89.396h255.826c49.293,0,89.396,40.103,89.396,89.396v125.402         C2076.411,3243.012,2036.308,3283.112,1987.015,3283.112z M1731.189,3008.671c-32.891,0-59.648,26.757-59.648,59.648v125.402         c0,32.889,26.757,59.648,59.648,59.648h255.826c32.891,0,59.648-26.76,59.648-59.648V3068.32         c0-32.891-26.757-59.648-59.648-59.648H1731.189z"
   id="path242" />
						</g>
						<g
   id="XMLID_00000165934756351091189940000000999092869855375002_">
							<path
   style="fill:#070766;"
   d="M1987.015,3283.112h-255.826c-49.293,0-89.396-40.1-89.396-89.391V3068.32         c0-49.293,40.103-89.396,89.396-89.396h255.826c49.293,0,89.396,40.103,89.396,89.396v125.402         C2076.411,3243.012,2036.308,3283.112,1987.015,3283.112z M1731.189,3008.671c-32.891,0-59.648,26.757-59.648,59.648v125.402         c0,32.889,26.757,59.648,59.648,59.648h255.826c32.891,0,59.648-26.76,59.648-59.648V3068.32         c0-32.891-26.757-59.648-59.648-59.648H1731.189z"
   id="path243" />
						</g>
						<g
   id="g244">
							<path
   style="fill:#070766;"
   d="M1702.115,3178.316v-94.592c0-21.078,17.246-38.324,38.324-38.324h237.327         c21.078,0,38.324,17.246,38.324,38.324v94.595c0,21.077-17.245,38.322-38.322,38.322h-237.329         C1719.361,3216.641,1702.115,3199.395,1702.115,3178.316z"
   id="path244" />
						</g>
						<g
   id="g245">
							<path
   style="fill:#070766;"
   d="M1966.663,3231.514h-215.117c-35.458,0-64.306-28.846-64.306-64.303v-72.38         c0-35.458,28.848-64.306,64.306-64.306h215.114c35.458,0,64.303,28.848,64.303,64.306v72.382         C2030.964,3202.671,2002.118,3231.514,1966.663,3231.514z M1751.546,3060.272c-19.056,0-34.558,15.502-34.558,34.558v72.38         c0,19.056,15.503,34.558,34.558,34.558h215.117c19.053,0,34.553-15.5,34.553-34.556v-72.382         c0-19.056-15.5-34.558-34.556-34.558H1751.546z"
   id="path245" />
						</g>
						<g
   id="g246">
							<path
   style="fill:#1799E2;"
   d="M1992.949,2971.676h-267.694c-23.322,0-42.403-19.081-42.403-42.403v-195.18         c0-23.322,19.081-42.403,42.403-42.403h267.694c23.321,0,42.403,19.081,42.403,42.403v195.18         C2035.352,2952.594,2016.27,2971.676,1992.949,2971.676z"
   id="path246" />
						</g>
						<g
   id="g247">
							<path
   style="fill:#06A1C4;"
   d="M1992.949,2941.93h-267.694c-23.322,0-42.403-19.081-42.403-42.403v-195.18         c0-23.322,19.081-42.403,42.403-42.403h267.694c23.321,0,42.403,19.081,42.403,42.403v195.18         C2035.352,2922.849,2016.27,2941.93,1992.949,2941.93z"
   id="path247" />
						</g>
						<g
   style="opacity:0.6;"
   id="g248">
							<path
   style="fill:#FFFFFF;"
   d="M1992.954,2661.93h-91.542h-163.675h-12.493c-23.313,0-42.387,19.111-42.387,42.424v38.298         c0-23.35,19.074-42.424,42.387-42.424h2.677c10.151,22.532,47.333,39.264,91.654,39.264s81.54-16.732,91.691-39.264h81.689         c23.313,0,42.387,19.074,42.387,42.424v-38.298C2035.341,2681.041,2016.267,2661.93,1992.954,2661.93z"
   id="path248" />
						</g>
						<g
   style="opacity:0.6;"
   id="g249">
							<ellipse
   style="fill:#FFFFFF;"
   cx="1819.581"
   cy="2780.808"
   rx="38.575"
   ry="21.129"
   id="ellipse248" />
						</g>
						<g
   id="g250">
							<path
   style="fill:#007093;"
   d="M1992.948,2847.227h-267.692c-6.863,0-12.658-5.795-12.658-12.658v64.958         c0,6.863,5.795,12.658,12.658,12.658h267.692c6.863,0,12.658-5.795,12.658-12.658v-64.958         C2005.605,2841.432,1999.81,2847.227,1992.948,2847.227z"
   id="path249" />
						</g>
						<g
   id="g251">
							<path
   style="fill:#070766;"
   d="M1992.949,2956.805h-267.695c-31.583,0-57.277-25.695-57.277-57.277v-195.181         c0-31.583,25.694-57.277,57.277-57.277h267.695c31.583,0,57.277,25.694,57.277,57.277v195.181         C2050.227,2931.11,2024.532,2956.805,1992.949,2956.805z M1725.255,2676.817c-15.181,0-27.53,12.349-27.53,27.53v195.181         c0,15.181,12.349,27.53,27.53,27.53h267.695c15.181,0,27.53-12.349,27.53-27.53v-195.181c0-15.181-12.349-27.53-27.53-27.53         H1725.255z"
   id="path250" />
						</g>
						<g
   id="g252">
							<path
   style="fill:#B0D0FF;"
   d="M2016.09,3097.841v66.363c0,28.84-23.597,52.437-52.437,52.437h-63.128         c-25.024-17.359-41.422-46.276-41.422-79.038c0-43.628,29.068-80.446,68.887-92.202h35.66         C1992.492,3045.4,2016.09,3068.999,2016.09,3097.841z M1859.102,3137.602c0-43.628-29.068-80.446-68.887-92.202h-35.659         c-28.843,0-52.441,23.599-52.441,52.441v66.359c0,28.843,23.599,52.441,52.441,52.441h63.123         C1842.703,3199.281,1859.102,3170.364,1859.102,3137.602z"
   id="path251" />
						</g>
						<g
   id="g255">
							<g
   id="g253">
								<path
   style="fill:#2E6ECC;"
   d="M1963.649,3045.4h-35.66c-31.669,9.35-56.479,34.578-65.333,66.452h153.433v-14.012          C2016.09,3068.998,1992.492,3045.4,1963.649,3045.4z"
   id="path252" />
							</g>
							<g
   id="g254">
								<path
   style="fill:#2E6ECC;"
   d="M1754.556,3045.4c-28.843,0-52.441,23.598-52.441,52.44v14.012h153.433          c-8.853-31.874-33.663-57.103-65.333-66.452H1754.556z"
   id="path253" />
							</g>
						</g>
						<g
   id="g258">
							<g
   id="g256">
								<path
   style="fill:#070766;"
   d="M1963.653,3231.514h-63.129c-3.029,0-5.988-0.926-8.479-2.652          c-29.94-20.776-47.816-54.891-47.816-91.26c0-48.857,32.711-92.639,79.547-106.468c1.367-0.405,2.786-0.609,4.211-0.609          h35.66c37.117,0,67.316,30.198,67.316,67.315v66.363C2030.964,3201.32,2000.768,3231.514,1963.653,3231.514z           M1905.394,3201.769h58.259c20.713,0,37.563-16.85,37.563-37.566v-66.363c0-20.715-16.853-37.568-37.568-37.568h-33.415          c-33.228,10.748-56.256,42.25-56.256,77.33C1873.977,3162.729,1885.643,3186.396,1905.394,3201.769z"
   id="path255" />
							</g>
							<g
   id="g257">
								<path
   style="fill:#070766;"
   d="M1817.68,3231.514h-63.124c-37.117,0-67.316-30.196-67.316-67.316v-66.358          c0-37.117,30.198-67.315,67.316-67.315h35.66c1.426,0,2.844,0.205,4.211,0.609c46.836,13.828,79.547,57.611,79.547,106.468          c0,36.372-17.876,70.486-47.816,91.26C1823.668,3230.588,1820.709,3231.514,1817.68,3231.514z M1754.556,3060.272          c-20.715,0-37.568,16.853-37.568,37.568v66.358c0,20.718,16.853,37.571,37.568,37.571h58.254          c19.75-15.373,31.417-39.038,31.417-64.167c0-35.08-23.028-66.582-56.256-77.33H1754.556z"
   id="path256" />
							</g>
						</g>
						<g
   id="g261">
							<g
   id="g259">
								<path
   style="fill:#070766;"
   d="M1963.653,3231.514h-63.129c-3.029,0-5.988-0.926-8.479-2.652          c-29.94-20.776-47.816-54.891-47.816-91.26c0-48.857,32.711-92.639,79.547-106.468c1.367-0.405,2.786-0.609,4.211-0.609          h35.66c37.117,0,67.316,30.198,67.316,67.315v66.363C2030.964,3201.32,2000.768,3231.514,1963.653,3231.514z           M1905.394,3201.769h58.259c20.713,0,37.563-16.85,37.563-37.566v-66.363c0-20.715-16.853-37.568-37.568-37.568h-33.415          c-33.228,10.748-56.256,42.25-56.256,77.33C1873.977,3162.729,1885.643,3186.396,1905.394,3201.769z"
   id="path258" />
							</g>
							<g
   id="g260">
								<path
   style="fill:#070766;"
   d="M1817.68,3231.514h-63.124c-37.117,0-67.316-30.196-67.316-67.316v-66.358          c0-37.117,30.198-67.315,67.316-67.315h35.66c1.426,0,2.844,0.205,4.211,0.609c46.836,13.828,79.547,57.611,79.547,106.468          c0,36.372-17.876,70.486-47.816,91.26C1823.668,3230.588,1820.709,3231.514,1817.68,3231.514z M1754.556,3060.272          c-20.715,0-37.568,16.853-37.568,37.568v66.358c0,20.718,16.853,37.571,37.568,37.571h58.254          c19.75-15.373,31.417-39.038,31.417-64.167c0-35.08-23.028-66.582-56.256-77.33H1754.556z"
   id="path259" />
							</g>
						</g>
						<g
   id="g262">
							<circle
   style="fill:#B0D0FF;"
   cx="1762.955"
   cy="3137.602"
   r="35.719"
   id="circle261" />
						</g>
						<g
   id="g263">
							<circle
   style="fill:#B0D0FF;"
   cx="1955.25"
   cy="3137.602"
   r="35.719"
   id="circle262" />
						</g>
						<g
   id="g264">
							<path
   style="fill:#070766;"
   d="M1762.954,3184.478c-25.846,0-46.873-21.027-46.873-46.875         c0-25.845,21.027-46.873,46.873-46.873c25.848,0,46.875,21.028,46.875,46.873         C1809.83,3163.45,1788.802,3184.478,1762.954,3184.478z M1762.954,3113.039c-13.546,0-24.564,11.018-24.564,24.563         c0,13.546,11.018,24.566,24.564,24.566s24.566-11.021,24.566-24.566C1787.52,3124.057,1776.5,3113.039,1762.954,3113.039z"
   id="path263" />
						</g>
						<g
   id="g265">
							<path
   style="fill:#070766;"
   d="M1955.25,3184.478c-25.846,0-46.873-21.027-46.873-46.875         c0-25.845,21.027-46.873,46.873-46.873c25.846,0,46.873,21.028,46.873,46.873         C2002.123,3163.45,1981.095,3184.478,1955.25,3184.478z M1955.25,3113.039c-13.545,0-24.564,11.018-24.564,24.563         c0,13.546,11.018,24.566,24.564,24.566s24.564-11.021,24.564-24.566C1979.813,3124.057,1968.795,3113.039,1955.25,3113.039z"
   id="path264" />
						</g>
						<g
   id="g266">
							<path
   style="fill:#070766;"
   d="M2052.083,3422.798H1666.12c-37.122,0-67.323-30.201-67.323-67.323v-723.354         c0-37.122,30.201-67.323,67.323-67.323h385.963c37.122,0,67.323,30.201,67.323,67.323v723.354         C2119.406,3392.597,2089.206,3422.798,2052.083,3422.798z M1666.12,2601.978c-16.621,0-30.142,13.521-30.142,30.142v723.354         c0,16.621,13.521,30.142,30.142,30.142h385.963c16.621,0,30.142-13.521,30.142-30.142v-723.354         c0-16.621-13.521-30.142-30.142-30.142H1666.12z"
   id="path265" />
						</g>
					</g>
				</g>
			</g>
		</g>
	</g>
</g>
</svg>
