<svg xmlns="http://www.w3.org/2000/svg" xmlns:xlink="http://www.w3.org/1999/xlink" viewBox="0 0 500 500" opacity="0.07"><defs><clipPath id="freepik--clip-path--inject-45"><path d="M165.69,306.26s-8.73,18.07-10.6,30.85-12.46,35.53-12.46,35.53-9.35,3.74-9.66,6.86-2.81,12.77-2.81,12.77l1.56.94,4.05-9.66s1.87,6.85,2.49,9.66a12.7,12.7,0,0,0,1.25,3.74s8.1,4.05,10,4.67,4.68.32,3.43-2.18-5.92-7.79-5.92-7.79l2.8-16.52s39.58-66.69,40.83-69.5-8.1-10.9-8.1-10.9Z" style="fill:#fff;stroke:#263238;stroke-linecap:round;stroke-linejoin:round"></path></clipPath><clipPath id="freepik--clip-path-2--inject-45"><path d="M118.85,169.12,89.33,194.3l15,13,16.21-34.15S121.17,169.69,118.85,169.12Z" style="fill:#92E3A9;stroke:#263238;stroke-linecap:round;stroke-linejoin:round"></path></clipPath><clipPath id="freepik--clip-path-3--inject-45"><path d="M101.77,324s-33.28,53.54-35,55.86-6.36,4.34-8.68,5.5S43.6,397.18,43.6,397.18l1.16.87,9.55-4.92a17.51,17.51,0,0,1,0,8.4c-1.16,4.34-1.16,6.94,0,8.68s8.68,8.39,10.42,6.94-.58-9.55-.58-9.55,6.66-15.34,7.24-17.07,2.31-6.37,2.31-6.37,46-43.7,50.65-49.49,4.92-6.95,5.79-11a52.77,52.77,0,0,0,.87-9.26Z" style="fill:#fff;stroke:#263238;stroke-linecap:round;stroke-linejoin:round"></path></clipPath><clipPath id="freepik--clip-path-4--inject-45"><path d="M128.4,157.54S118,166.8,116,172.3s-22,47.18-22.58,49.2,7.82,12.16,13.32,13.6,34.15,6.08,37.33,3.48,11-25.18,11.29-29.81-5.79-35.6-5.79-35.6Z" style="fill:#92E3A9;stroke:#263238;stroke-linecap:round;stroke-linejoin:round"></path></clipPath><clipPath id="freepik--clip-path-5--inject-45"><path d="M169.5,207l.91-.35L210.72,192s2.6-8.39,3.47-11a4.43,4.43,0,0,1,3.47-3.18,23.59,23.59,0,0,1,4.05-.29h2.61s4.92-1.45,6.08.29,0,6.37,0,6.37,0,6.94-1.16,8.68-4.92,3.18-7,4.05a30,30,0,0,1-4.92,1.45s-44.4,27.78-47.58,29.23-3.76,2.6-6.37.58a45.14,45.14,0,0,1-5.5-5.5l6.66-17.37Z" style="fill:#fff;stroke:#263238;stroke-linecap:round;stroke-linejoin:round"></path></clipPath><clipPath id="freepik--clip-path-6--inject-45"><path d="M171.82,205.58s-32.76-30.51-37.39-31.66-9.84,3.47-10.13,9.84,32.76,49.32,32.76,49.32Z" style="fill:#92E3A9;stroke:#263238;stroke-linecap:round;stroke-linejoin:round"></path></clipPath></defs><g id="freepik--Clock--inject-45"><circle cx="417.92" cy="402.02" r="40.98" transform="translate(-124.24 196.25) rotate(-23.11)" style="fill:none;stroke:#263238;stroke-linecap:round;stroke-linejoin:round"></circle><circle cx="417.92" cy="402.02" r="37.49" style="fill:none;stroke:#263238;stroke-linecap:round;stroke-linejoin:round"></circle><path d="M420.25,402a2.34,2.34,0,1,1-2.33-2.33A2.33,2.33,0,0,1,420.25,402Z" style="fill:none;stroke:#263238;stroke-linecap:round;stroke-linejoin:round"></path><line x1="417.92" y1="404.35" x2="417.92" y2="429.08" style="fill:none;stroke:#263238;stroke-linecap:round;stroke-linejoin:round"></line><line x1="415.58" y1="402.02" x2="403.11" y2="402.02" style="fill:none;stroke:#263238;stroke-linecap:round;stroke-linejoin:round"></line></g><g id="freepik--Gears--inject-45"><path d="M334.8,271.75V250.58l-22.06-2.51a73.73,73.73,0,0,0-3.07-12.53l18.38-13.45-10.74-18.34-20.4,8.71a76.3,76.3,0,0,0-9-9.33l9.1-20.72L278.4,171.82l-13.24,17.59a77.22,77.22,0,0,0-12.53-3.66L250,163.35H228.52L226,185.1a76.32,76.32,0,0,0-12.7,3L199.63,170,181,180.6l8.84,20.11a76.4,76.4,0,0,0-9.46,8.87l-21-9L148.64,219,166.48,232a73.81,73.81,0,0,0-3.72,12.36L140,247v21.18l22.06,2.51a73.4,73.4,0,0,0,3.08,12.52L146.8,296.61,157.54,315l20.4-8.71a76.3,76.3,0,0,0,9,9.33l-9.1,20.72,18.6,10.59,13.24-17.59A75.38,75.38,0,0,0,222.22,333l2.62,22.4h21.48l2.55-21.74a77.69,77.69,0,0,0,12.71-3l13.64,18.11,18.6-10.59L285,318a75.61,75.61,0,0,0,9.46-8.87l21,9,10.74-18.34L308.37,286.7a74.44,74.44,0,0,0,3.71-12.36Zm-97.38,38c-28.21,0-51.08-22.54-51.08-50.36S209.21,209,237.42,209s51.09,22.55,51.09,50.36S265.64,309.71,237.42,309.71Z" style="fill:#92E3A9"></path><path d="M429.91,166V152.3l-14.25-1.62a47.57,47.57,0,0,0-2-8.09l11.88-8.69L418.61,122l-13.19,5.63a48.68,48.68,0,0,0-5.81-6l5.88-13.39-12-6.84-8.56,11.37a49,49,0,0,0-8.1-2.37l-1.7-14.48H361.23L359.58,110a48.86,48.86,0,0,0-8.21,2l-8.81-11.71-12,6.84,5.71,13a49.46,49.46,0,0,0-6.11,5.73L316.55,120l-6.94,11.86,11.52,8.43a47.86,47.86,0,0,0-2.4,8L304.05,150v13.69l14.26,1.62a47.32,47.32,0,0,0,2,8.09l-11.87,8.7,6.94,11.85,13.18-5.63a48.76,48.76,0,0,0,5.82,6l-5.88,13.39,12,6.84,8.56-11.36a49.69,49.69,0,0,0,8.1,2.36L358.85,220h13.88L374.38,206a48.4,48.4,0,0,0,8.21-2l8.82,11.71,12-6.84-5.71-13a48.8,48.8,0,0,0,6.12-5.73l13.58,5.8,6.94-11.85-11.53-8.44a47.86,47.86,0,0,0,2.4-8ZM367,190.52A32.55,32.55,0,1,1,400,158,32.78,32.78,0,0,1,367,190.52Z" style="fill:#92E3A9"></path></g></svg>