<svg xmlns="http://www.w3.org/2000/svg" viewBox="0 0 500 500"><g id="freepik--Ghost--inject-143"><path d="M382,308.9c-5-5.34-12.45-8.75-15.35-15.49-3-7,0-15.28,4.52-21.49s10.36-11.44,14-18.18c8.27-15.34,2.48-35.43-9.77-47.82S345.84,187.51,328.77,184l-97.34-23.65c1.75,8.28-11,14.48-21.08,16-7.11,1.07-17.51-3.77-18-10.94s2.85-14,4.73-20.91S199,129,193.47,124.43c-8.64-7.24-22.87.75-32.72-4.73-5.31-3-7.91-9-12.07-13.48-9.28-9.88-25.35-10.09-37.92-5S96.68,125.43,85.43,133s-33.51,3.83-46.82,1.26c2.84.53,20.24,10.68,30,10.14S80.92,142.52,89,137s15.83-11.73,24.91-15.39c7-2.84,15.86-3.71,21.45,1.39,4.9,4.47,5.55,11.94,4.84,18.53s-2.43,13.29-1,19.77,7.48,12.66,13.95,11.18c3.11-.71,5.81-3.06,9-3.1,7-.08,8.91,9.38,10.24,16.27,4.33,22.44,25.74,37.8,47.51,44.74s45.06,7.82,67,14.23,43.88,20.52,49.82,42.58c2.9,10.76,2.14,23.39,9.86,31.43,5.15,5.37,13.15,7.44,17.89,13.18,5.21,6.29,5.1,15.87,1.21,23.05s-11,12.18-18.45,15.42c-4.33,1.87-8.94,3.26-12.77,6s-6.84,7.31-6.1,12a60.71,60.71,0,0,1,41.82-13.92C377.32,364.6,384.62,354.6,388,343S390.29,317.7,382,308.9ZM165.82,156.42c-.33,4.06-3.74,7.31-7.53,8.78-2.95,1.15-6.49,1.39-9.13-.37-3.27-2.17-4.13-6.66-3.68-10.56s1.9-7.67,2.08-11.59l-.56,1.2c1-2.79-1-5.75-1.14-8.72a6.56,6.56,0,0,1,9.25-6.2c2.71,1.22,4.28,4.12,5,7s.94,5.89,1.88,8.72C163.35,148.62,166.16,152.28,165.82,156.42Zm2-26.81-.28-.09c3.52-3.29,8.71-3.92,13.52-4.25,3.23-.22,6.58-.37,9.6.8s5.64,4,5.53,7.24c-.09,2.83-2.26,5.29-4.86,6.45a17.66,17.66,0,0,1-8.36,1.05,21.61,21.61,0,0,1-10-2.68C170,136.3,167.71,133.09,167.78,129.61Zm8.24,22,.37-1.1a3.07,3.07,0,0,1,5.39-1,4.9,4.9,0,0,1,.81,2.95,6.37,6.37,0,0,1-.7,3.25,3.3,3.3,0,0,1-2.71,1.74,3.34,3.34,0,0,1-2.89-2.11A6.63,6.63,0,0,1,176,151.57Zm11.28,35.65a10,10,0,0,1-7.25-5.1,21.45,21.45,0,0,1-2.89-8.61,20.12,20.12,0,0,1,.25-8.39,3.34,3.34,0,0,1,1.35-2.25c1.26-.67,2.82.41,3.4,1.71s.58,2.78,1.05,4.13c1,2.79,3.75,4.45,6.19,6.11s5,4,4.93,6.91C194.29,185.08,190.63,187.56,187.3,187.22Zm163.15,81.31a12.92,12.92,0,0,1,8.71-6.88c2-.45,4.52-.22,5.68,1.51,1.07,1.57.59,3.7,0,5.49a21.4,21.4,0,0,1-4.32,7.69,10.68,10.68,0,0,1-7.86,3.58l-2.17-.28A12.94,12.94,0,0,1,350.45,268.53Zm22.17,60c-2.49-1-3.8-3.76-6-5.36-3-2.2-7.11-1.91-10.57-3.26-3.75-1.46-6.52-4.81-8.11-8.5a40.38,40.38,0,0,1-2.58-11.74c-.43-3.4.9-3.28,1-5.15a12.62,12.62,0,0,1,.91-5.47c.86-1.65,2.94-2.85,4.62-2.05,1.4.67,2,2.41,1.91,4s-.54,3.05-.6,4.6c-.14,3.57,2.09,6.88,4.94,9s6.27,3.34,9.62,4.58,6.73,2.61,9.37,5,4.39,6.08,3.58,9.55S375.92,329.88,372.62,328.53Zm10,11.62a6.39,6.39,0,0,1-3.4,3.54,3,3,0,0,1-2.79-.1,3.48,3.48,0,0,1-1.25-2.09,9.08,9.08,0,0,1,.87-6.56c.78-.81,1.63-2.05,2.68-2.45s3.29-.05,4,.84a3.55,3.55,0,0,1,.55,1.86A10.71,10.71,0,0,1,382.63,340.15Z" style="fill:#FF725E"></path><path d="M327.74,396.76a3.22,3.22,0,0,0-2,3.29,2.87,2.87,0,0,0,2.91,2.44c1.39-.09,3.16-1.92,2.93-3.29A3.34,3.34,0,0,0,327.74,396.76Z" style="fill:#FF725E"></path><path d="M383.37,298.46c-4.09,0-7.73-3.27-9-7.17S374,283,375.84,279.4a38.82,38.82,0,0,1,7.61-9.58c-1.42,4.52-4.68,8.43-5.34,13.12-.83,6,2.7,11.6,6.08,16.6" style="fill:#FF725E"></path><g style="opacity:0.8"><path d="M382,308.9c-5-5.34-12.45-8.75-15.35-15.49-3-7,0-15.28,4.52-21.49s10.36-11.44,14-18.18c8.27-15.34,2.48-35.43-9.77-47.82S345.84,187.51,328.77,184l-97.34-23.65c1.75,8.28-11,14.48-21.08,16-7.11,1.07-17.51-3.77-18-10.94s2.85-14,4.73-20.91S199,129,193.47,124.43c-8.64-7.24-22.87.75-32.72-4.73-5.31-3-7.91-9-12.07-13.48-9.28-9.88-25.35-10.09-37.92-5S96.68,125.43,85.43,133s-33.51,3.83-46.82,1.26c2.84.53,20.24,10.68,30,10.14S80.92,142.52,89,137s15.83-11.73,24.91-15.39c7-2.84,15.86-3.71,21.45,1.39,4.9,4.47,5.55,11.94,4.84,18.53s-2.43,13.29-1,19.77,7.48,12.66,13.95,11.18c3.11-.71,5.81-3.06,9-3.1,7-.08,8.91,9.38,10.24,16.27,4.33,22.44,25.74,37.8,47.51,44.74s45.06,7.82,67,14.23,43.88,20.52,49.82,42.58c2.9,10.76,2.14,23.39,9.86,31.43,5.15,5.37,13.15,7.44,17.89,13.18,5.21,6.29,5.1,15.87,1.21,23.05s-11,12.18-18.45,15.42c-4.33,1.87-8.94,3.26-12.77,6s-6.84,7.31-6.1,12a60.71,60.71,0,0,1,41.82-13.92C377.32,364.6,384.62,354.6,388,343S390.29,317.7,382,308.9ZM165.82,156.42c-.33,4.06-3.74,7.31-7.53,8.78-2.95,1.15-6.49,1.39-9.13-.37-3.27-2.17-4.13-6.66-3.68-10.56s1.9-7.67,2.08-11.59l-.56,1.2c1-2.79-1-5.75-1.14-8.72a6.56,6.56,0,0,1,9.25-6.2c2.71,1.22,4.28,4.12,5,7s.94,5.89,1.88,8.72C163.35,148.62,166.16,152.28,165.82,156.42Zm2-26.81-.28-.09c3.52-3.29,8.71-3.92,13.52-4.25,3.23-.22,6.58-.37,9.6.8s5.64,4,5.53,7.24c-.09,2.83-2.26,5.29-4.86,6.45a17.66,17.66,0,0,1-8.36,1.05,21.61,21.61,0,0,1-10-2.68C170,136.3,167.71,133.09,167.78,129.61Zm8.24,22,.37-1.1a3.07,3.07,0,0,1,5.39-1,4.9,4.9,0,0,1,.81,2.95,6.37,6.37,0,0,1-.7,3.25,3.3,3.3,0,0,1-2.71,1.74,3.34,3.34,0,0,1-2.89-2.11A6.63,6.63,0,0,1,176,151.57Zm11.28,35.65a10,10,0,0,1-7.25-5.1,21.45,21.45,0,0,1-2.89-8.61,20.12,20.12,0,0,1,.25-8.39,3.34,3.34,0,0,1,1.35-2.25c1.26-.67,2.82.41,3.4,1.71s.58,2.78,1.05,4.13c1,2.79,3.75,4.45,6.19,6.11s5,4,4.93,6.91C194.29,185.08,190.63,187.56,187.3,187.22Zm163.15,81.31a12.92,12.92,0,0,1,8.71-6.88c2-.45,4.52-.22,5.68,1.51,1.07,1.57.59,3.7,0,5.49a21.4,21.4,0,0,1-4.32,7.69,10.68,10.68,0,0,1-7.86,3.58l-2.17-.28A12.94,12.94,0,0,1,350.45,268.53Zm22.17,60c-2.49-1-3.8-3.76-6-5.36-3-2.2-7.11-1.91-10.57-3.26-3.75-1.46-6.52-4.81-8.11-8.5a40.38,40.38,0,0,1-2.58-11.74c-.43-3.4.9-3.28,1-5.15a12.62,12.62,0,0,1,.91-5.47c.86-1.65,2.94-2.85,4.62-2.05,1.4.67,2,2.41,1.91,4s-.54,3.05-.6,4.6c-.14,3.57,2.09,6.88,4.94,9s6.27,3.34,9.62,4.58,6.73,2.61,9.37,5,4.39,6.08,3.58,9.55S375.92,329.88,372.62,328.53Zm10,11.62a6.39,6.39,0,0,1-3.4,3.54,3,3,0,0,1-2.79-.1,3.48,3.48,0,0,1-1.25-2.09,9.08,9.08,0,0,1,.87-6.56c.78-.81,1.63-2.05,2.68-2.45s3.29-.05,4,.84a3.55,3.55,0,0,1,.55,1.86A10.71,10.71,0,0,1,382.63,340.15Z" style="fill:#fff"></path><path d="M327.74,396.76a3.22,3.22,0,0,0-2,3.29,2.87,2.87,0,0,0,2.91,2.44c1.39-.09,3.16-1.92,2.93-3.29A3.34,3.34,0,0,0,327.74,396.76Z" style="fill:#fff"></path><path d="M383.37,298.46c-4.09,0-7.73-3.27-9-7.17S374,283,375.84,279.4a38.82,38.82,0,0,1,7.61-9.58c-1.42,4.52-4.68,8.43-5.34,13.12-.83,6,2.7,11.6,6.08,16.6" style="fill:#fff"></path></g><path d="M277.2,99.36a2,2,0,0,0-2.58-2c-8.71,2.78-18.79,0-27.59,3-5.95,2-14.48,7.22-18.52,13L273.42,115c-.08-3,.4-6.25-2.8-7.74C274.66,106.37,276.87,103.41,277.2,99.36Z" style="fill:#FF725E"></path><path d="M415.44,166.07l0-3.28,13,2.8,18.61,6.59c-1.53-2.22-12.79-10.51-12.79-10.51S412.54,147,411.11,146.19s-15.2-.59-20.93,3.78c-3.68,2.8-22.21,16.44-24.82,18.44a23.22,23.22,0,0,1-1.89,1.45c-5.11,3.55-20.5,12.06-45.12,6.86-23.13-4.9-30.49-28.94-32.71-40.44a41.52,41.52,0,0,0-13.23-23.57A36.14,36.14,0,0,0,257,104.64a33.44,33.44,0,0,0-10,0,28.76,28.76,0,0,0-5.18,1.17c-5.32,1.75-10,4.16-13.17,7.56-10.17,10.94-11.54,42.4-17,50.45-3.88,5.69-3.21,9.58-26.11,15.46-24.37,6.26-40.12-1.58-45.37-4.92a19.73,19.73,0,0,1-2-1.36c-2.7-1.89-21.8-14.72-25.59-17.36-5.91-4.12-19.68-3.72-21.07-2.88s-23.87,14.06-23.87,14.06S53,191.33,54.22,193.6L75,172.89l12.86-3.36s2,3.36.28,5.87-9.36,9.86-9.92,14a18.07,18.07,0,0,0,1.48,8.62L88.92,218s1.08-10.21.15-15.81a35.48,35.48,0,0,1,0-8.58L95.71,188l4.21,18.39s10,.21,14.83,3.41l2.84,14.69a5.39,5.39,0,0,0,8.54,3.27l11.7-8.83c0,.6.08,1.19.11,1.73.41,6.57-1.64,13.13-2.46,17.23s6.15,15.17,6.15,15.17c-1.23-7.38.82-16.81,1.89-12.3a147.37,147.37,0,0,0,6.73,24.2c4.92,13.53,8.3,12.58,10.76,13s10.15,10.38,11.38,14.49,10.67,14.35,10.67,14.35-1.23-14.76,1.64-13.12,11.07,17.22,11.48,18.86,2.87,25.84,3.28,29.53A148.7,148.7,0,0,0,204,365.89c3.28,12.3,9.43,12.3,9.43,12.3-2.05-8.61.82-12.71.82-12.71s4.52,5.74,4.11,7,2,21.33,2,21.33A105,105,0,0,1,232.68,411a143.29,143.29,0,0,0,9.84,15.59l2.87-10.26,7.12,18.87,11.72,15.42s-1.08-6.67-1.23-7.25c.34.75,14.39,17.16,14.39,17.16s3.92-32.36,4.21-30.89,2.35,3.53,2.35,3.53c4.53-9.22,8.78-40.66,8.78-40.66s1.59-20.19,1.13-21.4,3.8-7.14,3.8-7.14,3,4,1.36,12.67c0,0,6.15-.27,8.9-12.7a149.61,149.61,0,0,0,3.49-24c.25-3.7,1.67-28,2-29.64s8.06-18.12,11.19-19.48l-.41,16.61s11.07-14.08,12.12-18.23,8.3-14.44,10.75-15,5.86.29,10.2-13.44A149,149,0,0,0,363,236.38c.87-4.56,3.32,4.78,2.41,12.21,0,0,5.48-11.25,5.5-15.43,0-.73,10.61.84,10.74-5.74l-.2-13.87s10.39-17.54,9-17.83l4.61,20c-.64-4.28,10.15-26.65,10.77-27s5.41,8.57,5.41,8.57l3.49,12.06s3.81-9.05,4-11.59-4.76-17-4.29-17.09,8.93,5,8.93,5c-1.81,4.29-.42,9.61,2,15.27l7.89-17.59-8.2-9ZM158,193.42a9.82,9.82,0,0,1-6.49-5.09,2,2,0,0,1,.16-2.1l0,0a3.81,3.81,0,0,1,3-1.19,14.6,14.6,0,0,1,2.72.8,16.17,16.17,0,0,0,6.91.7,13.91,13.91,0,0,1,3.14-.25,3.08,3.08,0,0,1,2.56,1.6,2.82,2.82,0,0,1-.52,2.8,6.27,6.27,0,0,1-2.45,1.69A14.11,14.11,0,0,1,158,193.42Zm17.21,92.73c0,.52-8.51-10.42-10.42-12.67s-3.46-16-3-15.8c3.82,1.56,11.29,6.94,14.41,14.24S175.25,285.63,175.25,286.15Zm130.08,60.26c-.41,2.14-1.9,12.21-2.09,11.88s-5.17-2.93-5.81-8.73,2.19-11.95,4.07-14.33C301.75,334.92,305.73,344.28,305.33,346.41Z" style="fill:#FF725E"></path><path d="M218,218s20.28,32.75,36.22,35.85,34.08,7.08,34.08,7.08-24.92,4.08-38.2.54S218.55,222.86,218,218Z" style="opacity:0.30000000000000004"></path><g style="opacity:0.1"><path d="M282.22,137c2.43,21.75,15.2,42.64,35.32,51.25l-26.91-6c5.6,20.71,12,42.73,28.36,56.63a293,293,0,0,1-75.56-22.33q4.37,13.1,8.74,26.19a80.94,80.94,0,0,1-35.31-49.53,138.82,138.82,0,0,0-14.79,34.59c-.52-9.81-1-19.91,2.21-29.2,3.78-11,18.23-21.34,13.32-31.83-.72-1.55,2.93-30.61,5.74-40.29s14.89-20.35,28.27-20.34C262.9,106.12,279.42,112.06,282.22,137Z" style="fill:#fff"></path></g><path d="M224,148c.3,4.2.6,8.47,2.1,12.41s4.39,7.56,8.38,8.9,9-.21,10.79-4A59.13,59.13,0,0,1,224,148Z" style="fill:#263238"></path><path d="M280.21,149c-.29,4.2-.6,8.47-2.1,12.41s-4.38,7.56-8.37,8.91-9.05-.21-10.8-4.05A59,59,0,0,0,280.21,149Z" style="fill:#263238"></path><path d="M279.33,164.32c-3.25,6.18-8.09,10.77-13.08,15.67l-.5-3.62q-1.67,2.85-3.34,5.7l-1.87-3.39-2.79,4.6c-.69-1.42-.7-6.06-1.4-7.47-1.28,1.61-3.25,6.46-4.54,8.08-.57-1.55-1.15-3.09-1.73-4.64-.68,1.39-1.35,2.78-2,4.16A38,38,0,0,1,243,178c0,1.26,0,2.52-.07,3.79a26.47,26.47,0,0,1-7.94-9.36l-.51-.18c-.25,1.4-.51,2.81-.77,4.22-1.22-1.22-5.6-5-8.43-7.91a22.61,22.61,0,0,1-5.88-4.44l.11.53c7.37,10.86,16.33,27.17,28.95,30.78a26.17,26.17,0,0,0,12.31.4c3.78-.92,5.9-2.48,8.69-5.19,6.06-5.87,11.86-25.35,14.44-33.39C282.59,158.94,281.65,161.07,279.33,164.32Z" style="fill:#263238"></path><path d="M248.28,165.9a6.11,6.11,0,0,1-1.3-.2,21,21,0,0,1-3.42-1.11,40.33,40.33,0,0,1-10-6.26,48.48,48.48,0,0,1-8.14-8.54,31.12,31.12,0,0,1-2-3,5.84,5.84,0,0,1-.6-1.17c.08,0,1,1.57,2.87,3.94a55,55,0,0,0,8.18,8.36,44.35,44.35,0,0,0,9.82,6.32A44.93,44.93,0,0,0,248.28,165.9Z" style="fill:#263238"></path><path d="M281.12,147.48a5.72,5.72,0,0,1-.62,1.1,31.91,31.91,0,0,1-2,2.81,43.46,43.46,0,0,1-3.38,3.85,53.52,53.52,0,0,1-4.69,4.16,51.9,51.9,0,0,1-9.69,6c-1.32.62-2.41,1.07-3.18,1.34a6.18,6.18,0,0,1-1.21.39,5.27,5.27,0,0,1,1.13-.57c.74-.33,1.8-.83,3.09-1.49a58.93,58.93,0,0,0,9.53-6,58.26,58.26,0,0,0,4.68-4.09,50.64,50.64,0,0,0,3.43-3.74C280.06,148.94,281,147.43,281.12,147.48Z" style="fill:#263238"></path><path d="M246.35,154.21a5.47,5.47,0,0,1,1.78.55,5.93,5.93,0,0,1,3.35,3.05,4.64,4.64,0,0,1,.17,2.56,7.28,7.28,0,0,1-.73,1.93,5.06,5.06,0,0,1-1.09,1.52,10.24,10.24,0,0,1,.76-1.68A5.51,5.51,0,0,0,251,158a6.08,6.08,0,0,0-3-2.91A7.89,7.89,0,0,1,246.35,154.21Z" style="fill:#263238"></path><path d="M255.6,164.32c-.07.12-1.11-.7-1.36-2.21a2.79,2.79,0,0,1,.54-2.54,14.79,14.79,0,0,0,0,2.45A14.6,14.6,0,0,0,255.6,164.32Z" style="fill:#263238"></path><path d="M248.92,194.25s2.55,8.35,2.71,7.91,1.55-7.15,1.55-7.15l-4.26-1.41" style="fill:#263238"></path><path d="M127.34,178a2,2,0,0,1,.32.49c.19.34.46.84.8,1.49a24.79,24.79,0,0,1,2.21,5.81,11.33,11.33,0,0,1-1.69,8.95,17,17,0,0,1-3.73,4,31.17,31.17,0,0,1-5,3.1c-1.2.61-2.4,1.17-3.54,1.7l-.57.27.22-.59a37.77,37.77,0,0,0,2.57-9.44,14.29,14.29,0,0,0-.18-4.17,11.93,11.93,0,0,0-1.25-3.38,9.16,9.16,0,0,0-3.57-3.69,15.49,15.49,0,0,0-1.75-.74,5.26,5.26,0,0,1,1.84.58,9,9,0,0,1,3.78,3.68,12.37,12.37,0,0,1,1.35,3.47,14.73,14.73,0,0,1,.23,4.29,37.29,37.29,0,0,1-2.54,9.58l-.35-.33c1.14-.53,2.33-1.09,3.52-1.69,3.54-1.78,6.69-4,8.55-6.92A11.42,11.42,0,0,0,130.4,190a11.85,11.85,0,0,0-.09-4.18,26.35,26.35,0,0,0-2-5.8c-.28-.62-.52-1.13-.71-1.53A3.36,3.36,0,0,1,127.34,178Z" style="fill:#263238"></path><path d="M111,174.12a3.78,3.78,0,0,1-.55.32l-1.64.84-6,3,.11-.2a28.88,28.88,0,0,1-.3,12.24l-.08.33-.29-.17a30.16,30.16,0,0,1-5.65-4.23,29.53,29.53,0,0,1-3.79-4.35,8.86,8.86,0,0,1-1.37-2.44,4,4,0,0,1,.18-2.72,24.61,24.61,0,0,1,1.13-2.24l1.11-2.07,2-3.71,2.93-5.34c.34-.59.61-1.07.82-1.45a3.37,3.37,0,0,1,.32-.48,2.12,2.12,0,0,1-.22.53c-.2.39-.44.89-.74,1.49l-2.79,5.43c-.59,1.14-1.25,2.39-1.94,3.73-.36.67-.72,1.37-1.09,2.08A23.86,23.86,0,0,0,92,176.89a3.45,3.45,0,0,0-.15,2.39,8.25,8.25,0,0,0,1.3,2.29,31.08,31.08,0,0,0,3.74,4.28,30.69,30.69,0,0,0,5.54,4.17l-.37.15a29.17,29.17,0,0,0,.41-12l0-.15.13-.06,6.11-2.82,1.68-.75A2.72,2.72,0,0,1,111,174.12Z" style="fill:#263238"></path><g style="opacity:0.30000000000000004"><path d="M228.81,116.14a37.09,37.09,0,0,0-7,14.63,110.89,110.89,0,0,0-2.44,16.14l0,.56c2.45-4.2,4-8.84,5.93-13.32s4.23-8.91,7.83-12.19c3.15-2.87,7.1-4.69,10.77-6.87s7.26-4.94,8.93-8.86A28.16,28.16,0,0,0,228.81,116.14Z" style="fill:#fff"></path></g><g style="opacity:0.30000000000000004"><path d="M244.67,161.72c-.19.3-1.4-.06-3.2-.93a39.42,39.42,0,0,1-6.68-4.13,27.11,27.11,0,0,1-5.61-5.61c-1.19-1.67-1.62-2.9-1.34-3.1s1.25.6,2.71,1.87,3.48,3,5.83,4.78,4.54,3.38,6.07,4.64S244.87,161.41,244.67,161.72Z" style="fill:#fff"></path></g><g style="opacity:0.1"><path d="M201.7,181.86c-9.65,32-5.37,46.2,5.31,63.75q2.72-8,5.45-15.91a87.19,87.19,0,0,0,101.35,48.55c-13.95,15.88-37.6,22.47-57.75,16.08q9.68,19.07,19.36,38.11c.62,1.22,1.21,2.79.37,3.86s-2.35.9-3.62.64c-23.07-4.72-40.83-23-54.94-41.83-20.9-27.91-39.68-64.14-50.69-97.22,0,0,7.33-2.14,8-7.66s3-6,3-6l27.3-6.25Z" style="fill:#fff"></path></g><path d="M194.48,251a3.18,3.18,0,0,1,.07.66c0,.49.06,1.11.1,1.89.07,1.7.17,4.06.3,6.94.27,5.92.63,14,1,22.91s.62,17.06.66,22.93c0,2.94,0,5.31,0,7,0,.78,0,1.41-.05,1.89a2.78,2.78,0,0,1-.06.66,4.73,4.73,0,0,1,0-.66c0-.48,0-1.11-.05-1.89,0-1.7-.08-4.06-.14-6.94-.13-5.87-.42-14-.81-22.92s-.73-17.05-.88-22.92c-.08-2.93-.13-5.31-.13-6.95v-1.89A2.82,2.82,0,0,1,194.48,251Z" style="fill:#263238"></path><path d="M218.21,374c-.15,0,.32-17.69,1-39.5S220.66,295,220.81,295s-.32,17.68-1,39.5S218.35,374,218.21,374Z" style="fill:#263238"></path><g style="opacity:0.30000000000000004"><path d="M98.81,188.58l5.58,5.07a2.28,2.28,0,0,0,1.35.74,1.5,1.5,0,0,0,1.33-1,4.43,4.43,0,0,0,.15-1.78c-.15-2.77-.29-5.53-.44-8.3a8.09,8.09,0,0,1,.15-2.6c.77-2.73,4.12-4,5.25-6.56a73.42,73.42,0,0,0-7.74,2.89,3.26,3.26,0,0,0-1.48,1,3.62,3.62,0,0,0,0,2.82,18.78,18.78,0,0,1-.34,9.53l-2.76-2.11"></path></g><g style="opacity:0.30000000000000004"><path d="M118.64,189.11a38.77,38.77,0,0,1-5,17.34,6.24,6.24,0,0,0,4.64-.35,16.47,16.47,0,0,0,3.89-2.71c3.5-3,7-6.49,8-11a25.43,25.43,0,0,1-13.42,10.36,20.23,20.23,0,0,0,2-14"></path></g><path d="M225.32,315.78s-2,56.48-2,64.91c-.05,15.72,18.08,38.52,18.08,38.52l1.71-53.42s-4.85,28.72-6,20.36S225.32,315.78,225.32,315.78Z" style="fill:#fff;opacity:0.1"></path><g style="opacity:0.1"><path d="M202.07,289.45a233.53,233.53,0,0,0,6.46,72.84q3.33-19.74,6.65-39.47l-5.85,15.64a272.85,272.85,0,0,0-6.1-46.42" style="fill:#fff"></path></g><g style="opacity:0.1"><path d="M154.37,206.26A129.74,129.74,0,0,0,156,233.61a157.16,157.16,0,0,1-8-38.11,61.87,61.87,0,0,0-.73,10.18v-.08c-.8,16.94,2.82,41.74,7.61,58q2.53-8.51,5.06-17a48,48,0,0,0,22,20C171.39,247,160.9,227.39,154.37,206.26Z" style="fill:#fff"></path></g><g style="opacity:0.1"><path d="M368.24,193.86l-4-20.3-15.76,7.28c-7.77,3.82-16.77,5.82-25.16,3.68l-1.71,1.6c3.33,3.22,6.69,6.48,9.19,10.39s4.08,8.57,3.47,13.16c-.9,6.8-6.38,12.46-6.76,19.31a85.06,85.06,0,0,0,16.8-18.62,186.85,186.85,0,0,1-5.15,52.05c13.28-15.89,16.34-43.74,21.31-63.85,2.64,8.19,2,34.2,3.77,37.71C364.21,236.27,368.59,209.9,368.24,193.86Z" style="fill:#fff"></path></g><g style="opacity:0.1"><path d="M137.41,178.91c-6.25-7-13.76-12.81-21.22-18.54a48.57,48.57,0,0,0-8.33-5.53,16.26,16.26,0,0,0-9.71-1.67l-.85.09a19.53,19.53,0,0,0-8.9,3.32c-3,2.1-13,6.31-15.67,8.86,4.75-2.37,16.77-6.24,21.85-7.82a16.6,16.6,0,0,1-.35,7.64,21.56,21.56,0,0,1,6.62-6.45,2.41,2.41,0,0,1,1.85-.5,1.72,1.72,0,0,1,1,1.86,5.34,5.34,0,0,1-.87,2.13,41,41,0,0,0-5.07,15.31A22.93,22.93,0,0,1,114.07,167a31.93,31.93,0,0,1,9.45,21,13,13,0,0,0,2.57-7.8,38.66,38.66,0,0,0-1-8.28A20.81,20.81,0,0,0,137.41,178.91Z" style="fill:#fff"></path></g><path d="M393.61,166.77a3.27,3.27,0,0,1,.6.23l1.68.74,6.11,2.83.13.06,0,.14a29.22,29.22,0,0,0,.41,12.06l-.37-.16a30.69,30.69,0,0,0,5.54-4.17,31,31,0,0,0,3.74-4.27,8.39,8.39,0,0,0,1.3-2.29,3.48,3.48,0,0,0-.15-2.4c-.3-.76-.72-1.48-1.09-2.2s-.73-1.41-1.09-2.08c-.69-1.34-1.35-2.59-1.94-3.74-1.16-2.24-2.1-4.08-2.79-5.42l-.74-1.49a2.3,2.3,0,0,1-.22-.53,2.46,2.46,0,0,1,.31.48l.83,1.44c.72,1.33,1.72,3.14,2.93,5.35.62,1.14,1.29,2.38,2,3.71.36.66.74,1.35,1.12,2.06s.8,1.43,1.13,2.25a4,4,0,0,1,.18,2.71,9.07,9.07,0,0,1-1.37,2.45,29.53,29.53,0,0,1-3.79,4.35,30.16,30.16,0,0,1-5.65,4.23l-.29.17L402,183a28.93,28.93,0,0,1-.3-12.25l.1.21-6-3-1.64-.84A2.55,2.55,0,0,1,393.61,166.77Z" style="fill:#263238"></path><g style="opacity:0.30000000000000004"><path d="M405.79,181.24l-5.58,5.07a2.24,2.24,0,0,1-1.35.73,1.49,1.49,0,0,1-1.33-1,4.43,4.43,0,0,1-.15-1.78c.15-2.77.29-5.54.44-8.3a8.09,8.09,0,0,0-.15-2.6c-.77-2.73-4.12-4-5.25-6.56a71.27,71.27,0,0,1,7.74,2.89,3.19,3.19,0,0,1,1.48,1,3.64,3.64,0,0,1,.05,2.81A18.77,18.77,0,0,0,402,183l2.76-2.11"></path></g><g style="opacity:0.1"><path d="M365.21,173.76c6.25-7,13.75-12.81,21.21-18.54a48.4,48.4,0,0,1,8.34-5.52,16.19,16.19,0,0,1,9.71-1.68l.85.1a19.56,19.56,0,0,1,8.9,3.31c3,2.1,13,6.32,15.67,8.86-4.76-2.37-16.77-6.24-21.85-7.82a16.59,16.59,0,0,0,.35,7.64,21.67,21.67,0,0,0-6.62-6.45,2.4,2.4,0,0,0-1.85-.49,1.73,1.73,0,0,0-1.05,1.86,5.67,5.67,0,0,0,.87,2.12,40.8,40.8,0,0,1,5.08,15.31,23,23,0,0,0-16.27-10.58,31.88,31.88,0,0,0-9.45,21,13,13,0,0,1-2.57-7.79,38.67,38.67,0,0,1,.94-8.29A20.76,20.76,0,0,1,365.21,173.76Z" style="fill:#fff"></path></g><g style="opacity:0.30000000000000004"><path d="M148.4,192.8a62.85,62.85,0,0,0,11.38,13.79c1.91,1.74,4.21,3.45,6.78,3.26A55.18,55.18,0,0,1,151.21,193c-2-3.31-3.86-6.89-4.12-10.76-.16,3.76-.42,7.2,1.31,10.54"></path></g><g style="opacity:0.30000000000000004"><path d="M214.22,365.48l4.07,5.9c.68-20.25,1.13-39.74,1.82-60A522.8,522.8,0,0,0,214.22,365.48Z"></path></g><polygon points="193.62 307.25 194.81 261.88 196.27 313.38 193.62 307.25" style="opacity:0.30000000000000004"></polygon><path d="M183.63,294c-.09.19,0-28.06,0-28.06s2.68,16.2,2.79,23.49,0,6,0,6S184.32,292.58,183.63,294Z" style="opacity:0.30000000000000004"></path><path d="M281.11,349.44c.14,0,.26,18.23.26,40.73s-.12,40.73-.26,40.73-.26-18.24-.26-40.73S281,349.44,281.11,349.44Z" style="fill:#263238"></path><path d="M245.61,363.54c.14,0,.26,12.36.26,27.6s-.12,27.6-.26,27.6-.26-12.36-.26-27.6S245.47,363.54,245.61,363.54Z" style="fill:#263238"></path><path d="M294.18,315.78c.15,0,.26,13,.26,29s-.11,28.95-.26,28.95-.26-13-.26-28.95S294,315.78,294.18,315.78Z" style="fill:#263238"></path><g style="opacity:0.30000000000000004"><path d="M250,399.64l1.1,9.68a71,71,0,0,0,24.35,43.79C272.41,436.73,253.16,416,250,399.64Z"></path></g><path d="M297.66,364l-3.48,5V319C294.18,319.49,297.66,364,297.66,364Z" style="opacity:0.30000000000000004"></path><path d="M323.79,241c.14,0,.44,11.17.67,24.95s.29,25,.15,25-.45-11.17-.67-24.95S323.64,241,323.79,241Z" style="fill:#263238"></path><path d="M336,260.82a5.56,5.56,0,0,1,.12,1.11c0,.83.08,1.84.13,3,.08,2.56.17,6.1.24,10s.1,7.45.09,10c0,1.28,0,2.32,0,3a4.16,4.16,0,0,1-.09,1.11,5.56,5.56,0,0,1-.12-1.11c0-.83-.07-1.84-.13-3-.08-2.56-.17-6.1-.24-10s-.1-7.44-.09-10c0-1.29,0-2.32,0-3A4.08,4.08,0,0,1,336,260.82Z" style="fill:#263238"></path><path d="M314.23,273.34a8.16,8.16,0,0,1,.21,1.53c.11,1,.22,2.42.33,4.19.21,3.54.33,8.45.16,13.86s-.62,10.31-1,13.83c-.2,1.77-.39,3.19-.54,4.17a10.34,10.34,0,0,1-.28,1.52,7.75,7.75,0,0,1,.08-1.54c.09-1.08.22-2.49.37-4.18.31-3.53.68-8.41.87-13.81s.11-10.3,0-13.84c-.06-1.69-.12-3.1-.16-4.19A9.56,9.56,0,0,1,314.23,273.34Z" style="fill:#263238"></path><path d="M363.42,205.43a4.6,4.6,0,0,1,.09,1.17c0,.87,0,1.93.05,3.19,0,2.82.08,6.48.12,10.53s0,7.84,0,10.54c0,1.35-.06,2.44-.11,3.19a4.59,4.59,0,0,1-.12,1.17,5.69,5.69,0,0,1-.08-1.17c0-.86,0-1.93,0-3.19,0-2.81-.08-6.48-.13-10.53s0-7.84,0-10.54c0-1.35.07-2.44.12-3.19A5.92,5.92,0,0,1,363.42,205.43Z" style="fill:#263238"></path><path d="M371.22,220.36a34.53,34.53,0,0,1,.08,6,35.6,35.6,0,0,1-.44,6,34.38,34.38,0,0,1-.08-6A35.93,35.93,0,0,1,371.22,220.36Z" style="fill:#263238"></path><g style="opacity:0.30000000000000004"><path d="M324.2,250.22c-.69,11-2.18,24.7-6.35,35.23-1-2.59-2.47-8.21-3.46-10.8.38,13.17-.22,22.38-.72,34.76,4-8.57,8-17,10.94-18.55C324.56,276.1,324.37,265.06,324.2,250.22Z"></path></g><path d="M257.5,104.62a3.62,3.62,0,0,1,.94.12,21,21,0,0,1,2.5.63,30.89,30.89,0,0,1,7.68,3.62,31.34,31.34,0,0,1,6.41,5.58,22.55,22.55,0,0,1,1.58,2,3.11,3.11,0,0,1,.48.81c-.07,0-.87-1-2.34-2.6a34.88,34.88,0,0,0-13.93-9.1C258.79,105,257.48,104.71,257.5,104.62Z" style="fill:#263238"></path><g style="opacity:0.1"><path d="M275,98.44a2.55,2.55,0,0,0-2.07.1,35.31,35.31,0,0,1-11.16,1.78c-2.65,0-5.3-.3-7.94-.07s-7.47.82-6.86,2.54c1.5.59,3.17,0,4.76-.23,3.72-.65,7.51.23,11.25.75s7.79.64,11-1.33a3.57,3.57,0,0,0,1.53-1.57A1.61,1.61,0,0,0,275,98.44Z" style="fill:#fff"></path></g><path d="M264.47,302.1s23.8,7.11,31.45,4.92,12.3-16.16,12.3-16.16-6.2,11.79-14,12.06S264.47,302.1,264.47,302.1Z" style="opacity:0.30000000000000004"></path><path d="M234.74,322.69s23.67,35.84,31.92,35.61a11.43,11.43,0,0,0,10.63-6.89s-2.39,13.89-10.37,12.13S248.31,354.34,234.74,322.69Z" style="opacity:0.30000000000000004"></path><path d="M370.86,233.16s4.74-.54,5.54-.73-2.77-37.57-2.77-37.57Z" style="opacity:0.30000000000000004"></path><path d="M286.54,239.81a3.76,3.76,0,0,1-.72-.13l-2.06-.49c-.89-.21-2-.49-3.21-.89s-2.68-.78-4.21-1.37l-2.41-.88c-.84-.32-1.69-.71-2.58-1.07-1.79-.72-3.63-1.65-5.58-2.59A91.56,91.56,0,0,1,242.94,216c-1.52-1.55-3-3-4.24-4.47-.63-.72-1.27-1.4-1.84-2.1l-1.61-2c-1.05-1.26-1.87-2.5-2.64-3.55s-1.39-2-1.87-2.76l-1.11-1.79a3.94,3.94,0,0,1-.36-.64,4.28,4.28,0,0,1,.45.58l1.19,1.73c.51.76,1.14,1.68,1.94,2.71s1.63,2.25,2.69,3.49l1.63,2c.57.69,1.21,1.36,1.85,2.07,1.26,1.45,2.73,2.88,4.25,4.41A95.28,95.28,0,0,0,266,232c1.93.95,3.76,1.89,5.53,2.62.88.37,1.72.77,2.55,1.09l2.4.91c1.51.62,2.93,1,4.16,1.44s2.3.74,3.19,1l2,.58A4,4,0,0,1,286.54,239.81Z" style="fill:#263238"></path><path d="M297.93,234c0,.14-7.92-1.58-17.61-3.83s-17.53-4.2-17.5-4.34,7.92,1.57,17.62,3.83S298,233.88,297.93,234Z" style="fill:#263238"></path><path d="M205,385.61s.29,21.84,5.45,29.88,20.45,23.69,20.45,23.69-11.77-22.7-14.37-30.09S205,385.61,205,385.61Z" style="fill:#FF725E"></path><g style="opacity:0.30000000000000004"><path d="M286.24,226.07c0,.33-2.32.49-6,.07a58.42,58.42,0,0,1-26.5-10.4c-3-2.18-4.52-3.85-4.32-4.11.47-.63,7.74,4.6,17.88,8.53S286.31,225.29,286.24,226.07Z" style="fill:#fff"></path></g><g style="opacity:0.30000000000000004"><path d="M278.73,282.94c0,.33-2.28.79-6,.72a44.81,44.81,0,0,1-6.56-.63,50.6,50.6,0,0,1-15.24-5.22,43.48,43.48,0,0,1-5.57-3.52c-3-2.24-4.54-4-4.33-4.26.49-.62,7.68,5,18.16,8.54S278.73,282.15,278.73,282.94Z" style="fill:#fff"></path></g><g style="opacity:0.30000000000000004"><path d="M203.87,178.68c.29.62-5.44,3.84-13.28,5.66s-14.39,1.55-14.41.86,6.26-1.59,13.82-3.39S203.57,178,203.87,178.68Z" style="fill:#fff"></path></g><g style="opacity:0.30000000000000004"><path d="M135.29,175.13c-.3.62-7-2-14.4-7s-12.4-10.18-11.94-10.69,6.16,3.69,13.39,8.53S135.62,174.46,135.29,175.13Z" style="fill:#fff"></path></g><g style="opacity:0.30000000000000004"><path d="M356.49,177.2c.16.3-1.3,1.48-3.95,2.9a51.11,51.11,0,0,1-22.61,5.69c-3,0-4.85-.34-4.85-.68,0-.76,7.26-1.18,15.85-3.38S356.13,176.53,356.49,177.2Z" style="fill:#fff"></path></g><g style="opacity:0.30000000000000004"><path d="M399.61,149.1c.31.69-6.2,4.11-13.47,9.39s-12.6,10.34-13.16,9.82,4.07-6.5,11.64-11.93S399.36,148.47,399.61,149.1Z" style="fill:#fff"></path></g></g></svg>
