<svg xmlns="http://www.w3.org/2000/svg" viewBox="0 0 500 500"><path d="m449.5 62.65-31 242.4a9 9 0 0 0-9.94 7.58v.17c0 .22-.05.44-.06.65a9 9 0 0 0 7.75 9.36l-15.8 123.72-158.36-20.23 15.81-123.73h0a9 9 0 0 0 9.91-7.12c0-.2.08-.42.11-.64v-.16a8.93 8.93 0 0 0-7.77-9.85h0l31-242.4Z" style="fill:#ff725e;stroke:#263238;stroke-linecap:round;stroke-linejoin:round"/><path d="m267.96 294.75 139.53 17.82" style="fill:none;stroke:#263238;stroke-linecap:round;stroke-linejoin:round;stroke-dasharray:5,5"/><path d="m414.77 330.75-8.42 9-5.88-10.83-8.42 9.01-5.88-10.84-8.42 9.01-5.88-10.84-8.42 9.01-5.89-10.83-8.42 9-5.88-10.83-8.42 9-5.89-10.83-8.42 9.01-5.89-10.84-8.42 9.01-5.89-10.84-8.42 9.01-5.89-10.83-8.42 9-5.89-10.83-8.42 9-5.89-10.83-.61.65-13.05 102.11 158.36 20.24 13.06-102.18-.39-.71z" style="fill:#fff;stroke:#263238;stroke-linecap:round;stroke-linejoin:round"/><path d="m397.65 407.87-5.88-10.84-8.42 9.01-5.89-10.84-8.41 9.01-5.89-10.83-8.42 9-5.88-10.83-8.42 9.01-5.89-10.84-8.42 9.01-5.88-10.84-8.43 9.01-5.88-10.83-8.42 9-5.89-10.83-8.43 9-5.88-10.83-8.43 9-5.89-10.83-8.42 9-5.88-10.83-.61.65-6.03 47.15 158.36 20.24 6.03-47.21-.39-.72-8.41 9.01z" style="fill:#263238;stroke:#263238;stroke-miterlimit:10"/><circle cx="338.11" cy="103.22" r="44.85" style="fill:#fff;stroke:#263238;stroke-linecap:round;stroke-linejoin:round" transform="rotate(-45 338.106 103.222)"/><path d="M329.52 167.44s-6.71-.66-8.28-.23l-.7.22c-.27.09-.57.19-.88.31l-1 .39-.53.21-1.09.45a31 31 0 0 0-3.3 1.62 7.2 7.2 0 0 0-2.45 2.16 8 8 0 0 0 0-.88c0-.38.62-1.17.62-1.17a4.21 4.21 0 0 0-1.31 1.91 36.11 36.11 0 0 1-1.65 6.62 11.17 11.17 0 0 1-1.28 2.59 10.55 10.55 0 0 0-.17-3.57c-.14-.82-.66-1.69-.68-1.49a8.34 8.34 0 0 1-.72 2.28 18.91 18.91 0 0 1-1.73 2.3 2.79 2.79 0 0 0-2-.53 3.24 3.24 0 0 0-1.32.64l-.12-.08a6.68 6.68 0 0 1-1.6-2.12c-.44-1.09-.47-1.95-.66-1.89s-.25.81-.33 1.72a50.25 50.25 0 0 1-2.26-4.51 4.24 4.24 0 0 0-1.74-1.52s.8.61.89 1a2.46 2.46 0 0 0 .07.29 3.75 3.75 0 0 0 .12.39l.05.17a7.2 7.2 0 0 0-2.91-1.49 43.43 43.43 0 0 0-8.07-1.23 11.62 11.62 0 0 0-2.57.51c-.65.18-1.35.4-2 .61l-.66.22c-.75.24-1.43.48-1.92.65l-.79.28h.08a6 6 0 0 0 1.62.06 9 9 0 0 1 5.38 2.79 6.48 6.48 0 0 1 .74 4.32s4-.44 5.7 1.93a9.2 9.2 0 0 1 1.52 5.33s5.45-2.73 9.06-1.12a4.65 4.65 0 0 1 .87.49l.15.43a3.62 3.62 0 0 0 .89 1.38 3.35 3.35 0 0 1-.91 2s3.79.28 4.83 2.5v-.43a3 3 0 0 1 2.36-3.08 5.29 5.29 0 0 1 .75-.12s-3.19-1.92-.09-4.38 9.06-1.16 9.06-1.16a9.1 9.1 0 0 1 .15-5.54c1.06-2.72 5-3.28 5-3.28a6.49 6.49 0 0 1-.36-4.37 9.06 9.06 0 0 1 4.53-4 7.08 7.08 0 0 0 1.62-.48Z" style="fill:#263238"/><path d="M308 182.15a11.59 11.59 0 0 0 1.28-2.59 36.84 36.84 0 0 0 1.65-6.63 3.12 3.12 0 0 1 .36-.81 3.09 3.09 0 0 0 0-.43c0-.38.62-1.17.62-1.17a4.21 4.21 0 0 0-1.31 1.91 36.11 36.11 0 0 1-1.65 6.62 13.39 13.39 0 0 1-.85 1.91 4.94 4.94 0 0 1-.1 1.19ZM301.26 181.7l.12.08a3 3 0 0 1 1.32-.64 2.79 2.79 0 0 1 2 .53 19.59 19.59 0 0 0 1.72-2.31 8.08 8.08 0 0 0 .73-2.27c-.17-.37-.34-.59-.35-.48a8.34 8.34 0 0 1-.72 2.28 18.91 18.91 0 0 1-1.73 2.3 2.79 2.79 0 0 0-2-.53 3.24 3.24 0 0 0-1.32.64l-.12-.08a8.19 8.19 0 0 1-1.08-1.2 7.56 7.56 0 0 0 1.43 1.68ZM301.63 188.43v.06a3.63 3.63 0 0 0 .54 1 2.9 2.9 0 0 1-.17-.49c-.05-.13-.1-.28-.15-.43ZM308.66 189.89a3.06 3.06 0 0 0 .62.84h.28a3.94 3.94 0 0 1-.9-.84ZM298.67 179.4a6 6 0 0 1 .26-1.63c-.1-.39-.16-.62-.26-.59s-.25.78-.32 1.67c.1.15.2.37.32.55ZM311.64 172.1a.34.34 0 0 0 0 .1v.88a7.34 7.34 0 0 1 2.45-2.16 31.25 31.25 0 0 1 3.31-1.62c.36-.16.73-.31 1.09-.45l.53-.22 1-.38.88-.31.7-.22c1.12-.31 4.82-.06 6.88.1a9 9 0 0 0 1.07-.37s-6.71-.66-8.28-.23l-.7.22c-.27.09-.57.19-.88.31l-1 .39-.53.21-1.09.45a31 31 0 0 0-3.3 1.62 9 9 0 0 0-2.13 1.68ZM291.89 188.54a8.93 8.93 0 0 0-1.49-4.63 9.3 9.3 0 0 1 1.17 4.78ZM306.42 194.26v.07a.1.1 0 0 0 0-.07ZM302.87 190.38a4.32 4.32 0 0 1-.34-.39 3.48 3.48 0 0 1-.9 1.84s.26 0 .66.09a2.9 2.9 0 0 0 .58-1.54ZM278 174.34l1.54-.52.65-.21c.67-.22 1.37-.43 2-.61a11.2 11.2 0 0 1 2.57-.52 43.62 43.62 0 0 1 8.07 1.24 7.28 7.28 0 0 1 2.91 1.48 1 1 0 0 1-.06-.17l-.11-.38c0-.1-.06-.2-.08-.29a1.19 1.19 0 0 0-.31-.47 2.27 2.27 0 0 0 .06.25 3.75 3.75 0 0 0 .12.39l.05.17a7.2 7.2 0 0 0-2.91-1.49 43.43 43.43 0 0 0-8.07-1.23 11.62 11.62 0 0 0-2.57.51c-.65.18-1.35.4-2 .61l-.66.22c-.75.24-1.43.48-1.92.65l-.79.28h.08a6.67 6.67 0 0 0 1.43.09ZM284.74 181.4a6 6 0 0 0-.8-3.79l-.07-.09a7 7 0 0 1 .48 3.91ZM295.12 173.63a4.21 4.21 0 0 1 1 .89l-.06-.13a4.24 4.24 0 0 0-1.74-1.52 4.38 4.38 0 0 1 .8.76ZM433.32 185.84a28.3 28.3 0 0 0-5.06-.14l-.43.13-.53.19-.62.23-.32.13-.67.28a19.93 19.93 0 0 0-2 1 4.38 4.38 0 0 0-1.5 1.32s0-.3 0-.54.38-.71.38-.71a2.56 2.56 0 0 0-.8 1.16 22.85 22.85 0 0 1-1 4 6.93 6.93 0 0 1-.78 1.58 6.58 6.58 0 0 0-.11-2.17c-.09-.51-.4-1-.41-.91a5.44 5.44 0 0 1-.45 1.39 11.71 11.71 0 0 1-1 1.4 1.71 1.71 0 0 0-1.23-.32 1.92 1.92 0 0 0-.8.39l-.07-.05a4 4 0 0 1-1-1.29c-.27-.67-.29-1.19-.41-1.16s-.15.49-.2 1.05c-.79-1.32-1.1-2.25-1.38-2.75a2.54 2.54 0 0 0-1.06-.93s.49.37.54.6c0 .06 0 .12.05.18a2.19 2.19 0 0 0 .07.23v.11a4.35 4.35 0 0 0-1.77-.91 26 26 0 0 0-4.93-.75 6.55 6.55 0 0 0-1.57.31c-.4.11-.83.24-1.23.37l-.41.13-1.17.4-.45.21a4.09 4.09 0 0 0 1 0 5.48 5.48 0 0 1 3.28 1.7 3.92 3.92 0 0 1 .45 2.64s2.44-.27 3.48 1.17a5.63 5.63 0 0 1 .93 3.26s3.33-1.67 5.53-.69a3.57 3.57 0 0 1 .53.3c0 .09.07.18.1.26a2.11 2.11 0 0 0 .54.85 2.08 2.08 0 0 1-.56 1.2s2.32.17 2.95 1.52V202a1.86 1.86 0 0 1 1.45-1.88 2.4 2.4 0 0 1 .45-.08 1.49 1.49 0 0 1-.05-2.67c1.89-1.5 5.53-.71 5.53-.71a5.57 5.57 0 0 1 .09-3.38c.65-1.66 3.08-2 3.08-2a3.93 3.93 0 0 1-.22-2.67 5.46 5.46 0 0 1 2.76-2.46 4.42 4.42 0 0 0 1-.3Z" style="fill:#263238"/><path d="M420.19 194.81a6.93 6.93 0 0 0 .78-1.58 22.85 22.85 0 0 0 1-4 1.5 1.5 0 0 1 .22-.5v-.26c0-.23.38-.71.38-.71a2.56 2.56 0 0 0-.8 1.16 22.85 22.85 0 0 1-1 4 9.18 9.18 0 0 1-.52 1.17 3.23 3.23 0 0 1-.06.72ZM416.07 194.54l.07.05a1.79 1.79 0 0 1 .8-.39 1.71 1.71 0 0 1 1.23.32 11.25 11.25 0 0 0 1.05-1.41 5.21 5.21 0 0 0 .45-1.39c-.1-.23-.2-.36-.21-.29a5.44 5.44 0 0 1-.45 1.39 11.71 11.71 0 0 1-1 1.4 1.71 1.71 0 0 0-1.23-.32 1.92 1.92 0 0 0-.8.39l-.07-.05a4.64 4.64 0 0 1-.66-.73 4.55 4.55 0 0 0 .82 1.03ZM416.29 198.65a2.14 2.14 0 0 0 .32.6 2 2 0 0 1-.12-.29c0-.08-.07-.17-.1-.26ZM420.58 199.54a1.88 1.88 0 0 0 .38.51h.17a2.35 2.35 0 0 1-.55-.51ZM414.48 193.14a3.87 3.87 0 0 1 .16-1c-.06-.24-.09-.38-.16-.36a2.39 2.39 0 0 0-.19 1ZM422.4 188.68V189.28a4.38 4.38 0 0 1 1.5-1.32 18 18 0 0 1 2-1l.67-.28.32-.13.62-.23.53-.19.43-.13a20.71 20.71 0 0 1 4.2.06 4.32 4.32 0 0 0 .65-.23 28.3 28.3 0 0 0-5.06-.14l-.43.13-.53.19-.62.23-.32.13-.67.28a19.93 19.93 0 0 0-2 1 5.22 5.22 0 0 0-1.29 1.03ZM410.35 198.71a5.52 5.52 0 0 0-.91-2.82 5.67 5.67 0 0 1 .71 2.92ZM419.22 202.21ZM417.05 199.84a1.64 1.64 0 0 1-.21-.24 2.1 2.1 0 0 1-.55 1.13l.41.05a1.82 1.82 0 0 0 .35-.94ZM401.88 190.05l.94-.32.4-.13 1.24-.37a7.26 7.26 0 0 1 1.57-.32 25.9 25.9 0 0 1 4.92.76 4.42 4.42 0 0 1 1.78.9v-.1a2.19 2.19 0 0 1-.07-.23 1.21 1.21 0 0 1-.05-.18.76.76 0 0 0-.19-.29.94.94 0 0 0 0 .16 2.19 2.19 0 0 0 .07.23v.11a4.35 4.35 0 0 0-1.77-.91 26 26 0 0 0-4.93-.75 6.55 6.55 0 0 0-1.57.31c-.4.11-.83.24-1.23.37l-.41.13-1.17.4-.41.18a4.67 4.67 0 0 0 .88.05ZM406 194.36a3.62 3.62 0 0 0-.49-2.31v-.06a4.25 4.25 0 0 1 .29 2.39ZM412.32 189.61a2.53 2.53 0 0 1 .62.55.3.3 0 0 0 0-.08 2.54 2.54 0 0 0-1.06-.93 2.84 2.84 0 0 1 .44.46ZM443.72 72.41a29.28 29.28 0 0 0-5.06-.14l-.42.14a5 5 0 0 0-.54.19l-.62.23-.32.13-.66.28a16.63 16.63 0 0 0-2 1 4.43 4.43 0 0 0-1.5 1.31 4.5 4.5 0 0 0 0-.53c0-.24.38-.72.38-.72a2.55 2.55 0 0 0-.8 1.17 22.85 22.85 0 0 1-1 4 7.15 7.15 0 0 1-.78 1.58 6.66 6.66 0 0 0-.11-2.18c-.08-.5-.4-1-.41-.91a4.82 4.82 0 0 1-.44 1.39 11 11 0 0 1-1.06 1.41 1.73 1.73 0 0 0-1.22-.33 2 2 0 0 0-.81.4h-.07a4.1 4.1 0 0 1-1-1.3c-.27-.67-.29-1.19-.41-1.15a2.5 2.5 0 0 0-.19 1c-.8-1.32-1.11-2.25-1.39-2.75a2.54 2.54 0 0 0-1.06-.93s.49.37.54.6c0 0 0 .11.05.17a2.46 2.46 0 0 0 .07.24v.1a4.42 4.42 0 0 0-1.77-.9 26.11 26.11 0 0 0-4.93-.76 7.26 7.26 0 0 0-1.57.32c-.4.11-.82.24-1.23.37L413 76l-1.18.4-.48.17h.05a4.19 4.19 0 0 0 1 0 5.54 5.54 0 0 1 3.28 1.7 3.92 3.92 0 0 1 .45 2.64s2.44-.27 3.48 1.18a5.61 5.61 0 0 1 .93 3.25s3.33-1.66 5.53-.68a2.73 2.73 0 0 1 .54.3l.09.26a2.26 2.26 0 0 0 .54.84 2.05 2.05 0 0 1-.55 1.2s2.31.17 2.94 1.53v-.27a1.88 1.88 0 0 1 1.45-1.88 3.09 3.09 0 0 1 .45-.07 1.49 1.49 0 0 1 0-2.67c1.89-1.5 5.53-.71 5.53-.71a5.57 5.57 0 0 1 .09-3.38c.65-1.66 3.08-2 3.08-2a4 4 0 0 1-.22-2.67 5.56 5.56 0 0 1 2.76-2.46 4.06 4.06 0 0 0 1-.29Z" style="fill:#263238"/><path d="M430.59 81.39a7.15 7.15 0 0 0 .78-1.58 22.85 22.85 0 0 0 1-4 1.9 1.9 0 0 1 .22-.5V75c0-.24.38-.72.38-.72a2.55 2.55 0 0 0-.8 1.17 22.85 22.85 0 0 1-1 4 8.38 8.38 0 0 1-.52 1.16 3.27 3.27 0 0 1-.06.78ZM426.47 81.11h.07a1.92 1.92 0 0 1 .8-.39 1.75 1.75 0 0 1 1.23.33 11 11 0 0 0 1.05-1.41 5.32 5.32 0 0 0 .45-1.39c-.1-.22-.2-.36-.21-.29a4.82 4.82 0 0 1-.44 1.39 11 11 0 0 1-1.06 1.41 1.73 1.73 0 0 0-1.22-.33 2 2 0 0 0-.81.4h-.07a5.26 5.26 0 0 1-.66-.73 4.38 4.38 0 0 0 .87 1.01ZM426.7 85.23a2.05 2.05 0 0 0 .33.6 1.51 1.51 0 0 1-.13-.29 2.77 2.77 0 0 0-.1-.26ZM431 86.12a1.86 1.86 0 0 0 .39.51h.16a2.35 2.35 0 0 1-.55-.51ZM424.89 79.72a4 4 0 0 1 .15-1c-.06-.24-.09-.38-.16-.36a2.35 2.35 0 0 0-.19 1ZM432.8 75.25v.07a4.5 4.5 0 0 1 0 .53 4.51 4.51 0 0 1 1.5-1.32 18.4 18.4 0 0 1 2-1l.66-.28.32-.13.62-.24.54-.19.42-.13a20.09 20.09 0 0 1 4.2.07c.32-.09.61-.22.65-.23a29.28 29.28 0 0 0-5.06-.14l-.42.14a5 5 0 0 0-.54.19l-.62.23-.32.13-.66.28a16.63 16.63 0 0 0-2 1 5.24 5.24 0 0 0-1.29 1.02ZM420.75 85.29a5.55 5.55 0 0 0-.91-2.83 5.69 5.69 0 0 1 .71 2.92ZM429.62 88.78ZM427.45 86.41l-.21-.23a2.07 2.07 0 0 1-.54 1.12 3.43 3.43 0 0 1 .4.06 1.86 1.86 0 0 0 .35-.95ZM412.29 76.63c.26-.1.59-.21.93-.32l.41-.13 1.23-.38a7.1 7.1 0 0 1 1.57-.31 26.88 26.88 0 0 1 4.93.75 4.5 4.5 0 0 1 1.77.91v-.1a2.46 2.46 0 0 1-.07-.24v-.17a.76.76 0 0 0-.19-.29.83.83 0 0 0 0 .15 2.46 2.46 0 0 0 .07.24v.1a4.42 4.42 0 0 0-1.77-.9 26.11 26.11 0 0 0-4.93-.76 7.26 7.26 0 0 0-1.57.32c-.4.11-.82.24-1.23.37L413 76l-1.18.4-.48.17h.05a4.79 4.79 0 0 0 .9.06ZM416.38 80.94a3.59 3.59 0 0 0-.49-2.32v-.05a4.21 4.21 0 0 1 .29 2.38ZM422.72 76.19a2.68 2.68 0 0 1 .62.54.25.25 0 0 0 0-.07 2.54 2.54 0 0 0-1.06-.93 2.84 2.84 0 0 1 .44.46ZM362.56 75.63a20.34 20.34 0 0 0-3.69-.1l-.31.09-.39.14-.45.17-.24.1-.48.2a12.68 12.68 0 0 0-1.47.72 3.14 3.14 0 0 0-1.09 1s0-.22 0-.39.27-.52.27-.52a1.88 1.88 0 0 0-.58.85 16.59 16.59 0 0 1-.73 3 5.75 5.75 0 0 1-.57 1.15 5.09 5.09 0 0 0-.08-1.59c-.07-.36-.29-.75-.3-.66a3.47 3.47 0 0 1-.33 1 7.7 7.7 0 0 1-.77 1 1.26 1.26 0 0 0-.89-.24 1.43 1.43 0 0 0-.59.29h-.05a2.89 2.89 0 0 1-.72-.94c-.19-.49-.2-.87-.29-.84s-.11.36-.15.76c-.58-1-.8-1.64-1-2a1.77 1.77 0 0 0-.77-.68s.36.27.4.43a.5.5 0 0 0 0 .13c0 .07 0 .13.05.18v.07a3.13 3.13 0 0 0-1.29-.66 19.24 19.24 0 0 0-3.6-.55 4.58 4.58 0 0 0-1.14.23c-.29.08-.61.17-.9.27l-.3.1-.85.29-.35.12a3.13 3.13 0 0 0 .72 0 4.07 4.07 0 0 1 2.4 1.24 2.93 2.93 0 0 1 .33 1.93s1.78-.2 2.54.86a4.09 4.09 0 0 1 .68 2.37s2.42-1.21 4-.49a2 2 0 0 1 .39.21c0 .07.05.13.07.19a1.61 1.61 0 0 0 .39.62 1.45 1.45 0 0 1-.4.87s1.69.13 2.15 1.12v-.2a1.36 1.36 0 0 1 1.16-1.47 2.72 2.72 0 0 1 .33-.05 1.09 1.09 0 0 1 0-1.95c1.38-1.09 4-.52 4-.52a4.09 4.09 0 0 1 .06-2.47c.48-1.21 2.25-1.46 2.25-1.46a2.88 2.88 0 0 1-.16-2 4 4 0 0 1 2-1.79 3.12 3.12 0 0 0 .72-.22Z" style="fill:#263238"/><path d="M353 82.18a5 5 0 0 0 .57-1.15 16.78 16.78 0 0 0 .74-3 1.17 1.17 0 0 1 .16-.36v-.19c0-.17.27-.52.27-.52a1.88 1.88 0 0 0-.58.85 16.59 16.59 0 0 1-.73 3 7.17 7.17 0 0 1-.39.85 1.79 1.79 0 0 1-.04.52ZM350 82a1.46 1.46 0 0 1 .59-.28 1.22 1.22 0 0 1 .9.24 9.72 9.72 0 0 0 .77-1 3.83 3.83 0 0 0 .32-1c-.07-.16-.15-.26-.15-.21a3.47 3.47 0 0 1-.33 1 7.7 7.7 0 0 1-.77 1 1.26 1.26 0 0 0-.89-.24 1.43 1.43 0 0 0-.59.29h-.05a3.52 3.52 0 0 1-.49-.53 3.71 3.71 0 0 0 .69.73ZM350.14 85a1.55 1.55 0 0 0 .24.44 2 2 0 0 1-.1-.21l-.06-.19ZM353.27 85.63a1.2 1.2 0 0 0 .28.37h.12a1.62 1.62 0 0 1-.4-.37ZM348.82 81a3.1 3.1 0 0 1 .11-.73c0-.17-.07-.28-.11-.26s-.11.34-.15.74ZM354.6 77.7a3.16 3.16 0 0 1 0 .39 3.27 3.27 0 0 1 1.09-1 12.14 12.14 0 0 1 1.48-.72l.48-.21.24-.09.44-.17.4-.14.31-.1a14.53 14.53 0 0 1 3.06 0 4 4 0 0 0 .48-.17 20.34 20.34 0 0 0-3.69-.1l-.31.09-.39.14-.45.17-.24.1-.48.2a12.68 12.68 0 0 0-1.47.72 4 4 0 0 0-.95.89ZM345.8 85a4 4 0 0 0-.66-2.07 4.18 4.18 0 0 1 .52 2.13ZM352.27 87.58ZM350.69 85.85c-.05-.06-.1-.11-.15-.18a1.5 1.5 0 0 1-.4.82h.29a1.27 1.27 0 0 0 .26-.64ZM339.62 78.7l.69-.23.29-.09c.3-.1.61-.2.9-.28a5.82 5.82 0 0 1 1.15-.23 20 20 0 0 1 3.59.55 3.31 3.31 0 0 1 1.3.67v-.08l-.05-.17v-.13a.48.48 0 0 0-.14-.21v.11c0 .07 0 .13.05.18v.07a3.13 3.13 0 0 0-1.29-.66 19.24 19.24 0 0 0-3.6-.55 4.58 4.58 0 0 0-1.14.23c-.29.08-.61.17-.9.27l-.3.1-.85.29-.35.12a3.53 3.53 0 0 0 .65.04ZM342.61 81.85a2.68 2.68 0 0 0-.35-1.69 3.07 3.07 0 0 1 .22 1.74ZM347.24 78.39a1.71 1.71 0 0 1 .45.39 1.77 1.77 0 0 0-.77-.68 1.91 1.91 0 0 1 .32.29Z" style="fill:#263238"/><path d="M396.38 177.77h21.71l7.62-55.26 10.76-1.41-18.76-27.46-24.24 19.73 7.94 3.24-4 18.42-26.41-2.27.1-13.9 9.39.64L335 91.42l-23.14 28.78 12 2.09 4.47 43.45 27.11 1.26 1.36 28.58-22.24-9-29.78 41.3 19.05-.91 2.26 25.9 20.2 3.14-6 10.42-72.7 24.63a11.25 11.25 0 0 1 .26 1.15l141.69 17.46a9 9 0 0 1 8.95-4.62l9.51-74.26v-.16l3.26-25.46-31.44 2Z" style="fill:#2c3345"/><path d="m339.55 138.77-.89-16.23-9.41 1 1.82 15.83 8.48-.6zM341.88 137.96l9.55.45-.73-17.14-9.05.95.23 15.74zM343.38 143.72l.24 16.65 8.75.09-.7-16.38-8.29-.36zM339.47 143.78l-7.83.63 1.82 15.86 7.18.07-1.17-16.56zM412.63 149.97l.68-11.85 6.86.74-1.35 11.56-6.19-.45zM410.93 149.37l-6.96.32.55-12.51 6.61.71-.2 11.48zM409.84 153.57l-.21 12.15-6.38.06.53-11.95 6.06-.26zM412.69 153.62l5.71.47-1.35 11.57-5.24.05.88-12.09zM406.48 246.07l.67-11.85 6.87.74-1.35 11.56-6.19-.45zM404.78 245.47l-6.97.32.56-12.51 6.6.71-.19 11.48zM403.68 249.67l-.2 12.15-6.38.06.53-11.95 6.05-.26zM406.53 249.72l5.71.47-1.35 11.57-5.23.05.87-12.09zM366.79 174l2.61 23.17 9.93.71.34-24.46s-5.31-10.71-12.88.58ZM385.75 230.43a10.49 10.49 0 1 0-11.75 9.08 10.49 10.49 0 0 0 11.75-9.08Z" style="fill:#ff725e"/><path d="m296.4 413.62 3.83-10.94 1.51.19 1 11.56-1.49-.19-.15-2.9-2.29-.29-.91 2.76Zm2.73-3.67 1.87.24-.29-5.19ZM303.84 414.57l1.44-11.25 2.45.32a4.26 4.26 0 0 1 1.93.63 2.2 2.2 0 0 1 .89 1.28 5.08 5.08 0 0 1 .07 1.94l-.53 4.14a5.6 5.6 0 0 1-.57 2 2.49 2.49 0 0 1-1.17 1.12 3.7 3.7 0 0 1-1.94.18Zm1.72-.92.88.11a1.84 1.84 0 0 0 1.27-.18 1.48 1.48 0 0 0 .56-.91 11.32 11.32 0 0 0 .27-1.53l.47-3.66a6.79 6.79 0 0 0 .07-1.43 1.19 1.19 0 0 0-.38-.85 2.19 2.19 0 0 0-1.15-.4l-.85-.11ZM311.13 415.5l1.65-11.22 1.54.2.82 9.38 3.17-8.87 1.52.19-1.22 11.28-1.27-.16.92-8.18-2.95 7.88-.88-.12-.85-8.4-1.17 8.15ZM320.41 416.69l1.44-11.25 1.54.2-1.39 11.25ZM325 417.28l1.29-10.09-1.91-.24.15-1.17 5.32.68-.15 1.17-1.84-.24-1.29 10.09ZM335.55 418.75a3.33 3.33 0 0 1-1.77-.68 2.51 2.51 0 0 1-.81-1.39 5.88 5.88 0 0 1 0-2l.54-4.26a5.57 5.57 0 0 1 .55-1.87 2.39 2.39 0 0 1 1.12-1.1 3.44 3.44 0 0 1 1.87-.19 3.38 3.38 0 0 1 1.75.66 2.4 2.4 0 0 1 .81 1.35 5.58 5.58 0 0 1 .06 1.94l-.55 4.27a5.78 5.78 0 0 1-.54 1.88 2.57 2.57 0 0 1-1.13 1.15 3.21 3.21 0 0 1-1.9.24Zm.15-1.24a1.48 1.48 0 0 0 1-.13 1.27 1.27 0 0 0 .52-.67 4.3 4.3 0 0 0 .25-1.08l.63-4.93a4.08 4.08 0 0 0 0-1.09 1.25 1.25 0 0 0-.34-.75 1.6 1.6 0 0 0-.92-.36 1.65 1.65 0 0 0-1 .12 1.2 1.2 0 0 0-.52.64 4.13 4.13 0 0 0-.25 1.06l-.63 4.93a5.31 5.31 0 0 0 0 1.11 1.27 1.27 0 0 0 .34.78 1.6 1.6 0 0 0 .92.37ZM340.17 419.21l1.44-11.21 1.07.13 2.24 7.88.95-7.47 1.31.17-1.44 11.25-1-.13-2.25-8.1-1 7.68ZM347.5 420.15l1.44-11.25 4.36.56-.15 1.17-2.79-.36-.47 3.72 2.26.29-.14 1.11-2.27-.29-.52 4.13 2.82.36-.15 1.12Z" style="fill:#d6d6d6"/><path d="m294.38 373.71 1.62-12.38c-.08 0-.24.06-.47.11a7.37 7.37 0 0 1-.75.12l-.75.11a4.75 4.75 0 0 0-.48.09l.24-1.94.7-.18.89-.28a6.4 6.4 0 0 0 .89-.37 3.55 3.55 0 0 0 .7-.47l2 .26L297 374ZM303.93 375.16a4 4 0 0 1-2.14-.85 3.51 3.51 0 0 1-1.12-1.73 5.71 5.71 0 0 1-.15-2.36l.86-6.76a6.17 6.17 0 0 1 .73-2.3 3.43 3.43 0 0 1 1.5-1.4 4 4 0 0 1 2.32-.28 4.12 4.12 0 0 1 2.18.85 3.33 3.33 0 0 1 1.1 1.74 6.08 6.08 0 0 1 .13 2.4l-.87 6.77a5.64 5.64 0 0 1-.73 2.24 3.65 3.65 0 0 1-1.52 1.4 4.12 4.12 0 0 1-2.29.28Zm.29-2.24a1.06 1.06 0 0 0 .91-.25 2 2 0 0 0 .49-.82 5.86 5.86 0 0 0 .22-1l.85-6.69a6.16 6.16 0 0 0 .05-1.05 2 2 0 0 0-.25-.93 1.29 1.29 0 0 0-1.78-.22 1.92 1.92 0 0 0-.47.83 5.1 5.1 0 0 0-.22 1l-.86 6.69a4.86 4.86 0 0 0 0 1 2 2 0 0 0 .27.92 1.05 1.05 0 0 0 .79.52ZM311.19 368l.32-2.53 2.45.31-.32 2.53Zm-.81 6.37.32-2.53 2.45.31-.32 2.53ZM318.18 377a4.4 4.4 0 0 1-2.24-.83 3.11 3.11 0 0 1-1.08-1.69 6.28 6.28 0 0 1-.1-2.36l.07-.53 2.58.33v.45a5.91 5.91 0 0 0 0 1.25 1.39 1.39 0 0 0 .32.82 1.29 1.29 0 0 0 .83.38 1.19 1.19 0 0 0 .91-.18 1.52 1.52 0 0 0 .5-.77 6.61 6.61 0 0 0 .27-1.29 3.82 3.82 0 0 0-.13-1.88 1.59 1.59 0 0 0-1.33-.91h-.44l.27-2.09h.4a1.72 1.72 0 0 0 1.5-.37 3 3 0 0 0 .62-1.68 3.37 3.37 0 0 0-.1-1.54 1.16 1.16 0 0 0-1.05-.69 1.09 1.09 0 0 0-1.17.46 4.23 4.23 0 0 0-.49 1.53V365.98l-2.58-.33.09-.74a4.81 4.81 0 0 1 .75-2.15 3.21 3.21 0 0 1 1.42-1.26 4.52 4.52 0 0 1 2.21-.2 4.64 4.64 0 0 1 2.13.75 3.15 3.15 0 0 1 1.17 1.54 4.79 4.79 0 0 1 .18 2.25 4 4 0 0 1-.85 2.15 2.62 2.62 0 0 1-1.59.95 2.53 2.53 0 0 1 1 .78 3.14 3.14 0 0 1 .55 1.3 5.51 5.51 0 0 1 0 1.83 7 7 0 0 1-.7 2.37 3.27 3.27 0 0 1-1.47 1.47 4.15 4.15 0 0 1-2.45.31ZM327.85 378.22a4.12 4.12 0 0 1-2.15-.85 3.56 3.56 0 0 1-1.12-1.74 5.65 5.65 0 0 1-.15-2.35l.87-6.77a6.17 6.17 0 0 1 .72-2.29 3.45 3.45 0 0 1 1.5-1.41 4.14 4.14 0 0 1 2.33-.27 4.08 4.08 0 0 1 2.18.85 3.39 3.39 0 0 1 1.1 1.74 5.9 5.9 0 0 1 .12 2.4l-.86 6.76a5.69 5.69 0 0 1-.74 2.25 3.51 3.51 0 0 1-1.52 1.39 4 4 0 0 1-2.28.29Zm.28-2.25a1 1 0 0 0 .91-.24 1.94 1.94 0 0 0 .49-.82 5 5 0 0 0 .22-1l.86-6.69a7.53 7.53 0 0 0 .05-1.06 1.83 1.83 0 0 0-.26-.92 1.29 1.29 0 0 0-1.77-.23 1.9 1.9 0 0 0-.48.83 7.4 7.4 0 0 0-.22 1l-.85 6.69a5.63 5.63 0 0 0 0 1 2.11 2.11 0 0 0 .28.92 1 1 0 0 0 .77.55ZM338.64 379.36l1.95-15.26 4.48.57a4.33 4.33 0 0 1 2.17.8 3 3 0 0 1 1.07 1.64 6 6 0 0 1 .11 2.39 4.92 4.92 0 0 1-.82 2.34A3 3 0 0 1 346 373a5.29 5.29 0 0 1-2.21.14l-1.51-.19-.86 6.78Zm3.9-8.38 1.06.13a2.65 2.65 0 0 0 1.2-.07 1.15 1.15 0 0 0 .68-.62 4.47 4.47 0 0 0 .32-1.27 6 6 0 0 0 .05-1.36 1.15 1.15 0 0 0-.43-.83 2.49 2.49 0 0 0-1.24-.41l-1.05-.13ZM346.8 380.41l.33-2.59 2.48.32-.33 2.59ZM351.11 381l2.22-15.23 2.88.36.82 10.85 3.61-10.28 2.79.36-1.67 15.3-2.07-.27 1.13-10.64-3.53 10.34-1.67-.22-.85-10.93-1.57 10.63ZM363.65 382.56 364 380l2.48.32-.33 2.58ZM289.54 352.23a4.44 4.44 0 0 1-2.24-.83 3.09 3.09 0 0 1-1.07-1.69 6.27 6.27 0 0 1-.11-2.36l.07-.53 2.58.33v.45a6.75 6.75 0 0 0 0 1.25 1.31 1.31 0 0 0 .33.82 1.27 1.27 0 0 0 .82.38 1.23 1.23 0 0 0 .91-.17 1.61 1.61 0 0 0 .51-.78 8.5 8.5 0 0 0 .27-1.29 3.93 3.93 0 0 0-.14-1.88 1.59 1.59 0 0 0-1.33-.91h-.43l.27-2.09h.39a1.71 1.71 0 0 0 1.5-.37 3 3 0 0 0 .62-1.67 3.27 3.27 0 0 0-.1-1.55 1.16 1.16 0 0 0-1.05-.69 1.07 1.07 0 0 0-1.16.47 3.94 3.94 0 0 0-.49 1.52V341.21l-2.59-.33.1-.74a4.93 4.93 0 0 1 .74-2.15 3.29 3.29 0 0 1 1.53-1.23 4.52 4.52 0 0 1 2.21-.2 4.64 4.64 0 0 1 2.12.75 3.23 3.23 0 0 1 1.18 1.54 4.79 4.79 0 0 1 .18 2.25 4.05 4.05 0 0 1-.85 2.15 2.61 2.61 0 0 1-1.6.95 2.54 2.54 0 0 1 1 .78 3.15 3.15 0 0 1 .56 1.3 5.82 5.82 0 0 1 0 1.83 7.32 7.32 0 0 1-.69 2.38 3.27 3.27 0 0 1-1.48 1.46 4.14 4.14 0 0 1-2.56.28ZM297.05 353l1.59-12.38c-.08 0-.24.06-.47.11s-.48.09-.75.13l-.75.1-.48.09.24-1.94.7-.18.89-.28a6.4 6.4 0 0 0 .89-.37 3.16 3.16 0 0 0 .7-.47l2 .26-2 15.26ZM311.44 355a4.89 4.89 0 0 1-2.5-.93 3.37 3.37 0 0 1-1.15-1.91 7.87 7.87 0 0 1-.08-2.73l.73-5.71a7.6 7.6 0 0 1 .76-2.6 3.28 3.28 0 0 1 1.59-1.51 4.92 4.92 0 0 1 2.65-.25 5 5 0 0 1 2.54.92 3.36 3.36 0 0 1 1.16 1.86 7.43 7.43 0 0 1 .09 2.7l-.74 5.73a7.46 7.46 0 0 1-.76 2.59 3.45 3.45 0 0 1-1.6 1.56 4.81 4.81 0 0 1-2.69.28Zm.27-2.05a1.49 1.49 0 0 0 1.06-.17 1.52 1.52 0 0 0 .55-.78 5.35 5.35 0 0 0 .26-1.13l.9-7a5.2 5.2 0 0 0 0-1.17 1.39 1.39 0 0 0-.34-.85 1.48 1.48 0 0 0-1-.43 1.49 1.49 0 0 0-1 .17 1.43 1.43 0 0 0-.56.74 5.64 5.64 0 0 0-.26 1.14l-.9 7a6.59 6.59 0 0 0 0 1.16 1.48 1.48 0 0 0 .34.88 1.53 1.53 0 0 0 .95.49ZM322 356.36a4.6 4.6 0 0 1-2.55-1 3.53 3.53 0 0 1-1.1-2 8.81 8.81 0 0 1 0-2.68l.7-5.45a8.65 8.65 0 0 1 .72-2.66 3.3 3.3 0 0 1 1.56-1.61 6 6 0 0 1 5.12.57 3 3 0 0 1 1.07 1.7 6.59 6.59 0 0 1 .08 2.37l-.16 1.28-2.68-.34.17-1.32a8.45 8.45 0 0 0 .08-1.18 1.37 1.37 0 0 0-.25-.88 1.3 1.3 0 0 0-1-.44 1.45 1.45 0 0 0-1.09.19 1.59 1.59 0 0 0-.54.83 6.9 6.9 0 0 0-.25 1.25l-.85 6.63A6.11 6.11 0 0 0 321 353a1.46 1.46 0 0 0 .38.87 1.48 1.48 0 0 0 .92.4 1.29 1.29 0 0 0 1-.2 1.69 1.69 0 0 0 .48-.83 9.17 9.17 0 0 0 .23-1.22l.18-1.37 2.67.34-.15 1.22a7.53 7.53 0 0 1-.67 2.36 3.13 3.13 0 0 1-1.46 1.48 4.54 4.54 0 0 1-2.58.31ZM329.64 357.12l1.69-13.21-2.43-.31.26-2.05 7.61 1-.26 2.06-2.39-.31-1.69 13.21ZM340.26 358.69a4.86 4.86 0 0 1-2.5-.93 3.35 3.35 0 0 1-1.16-1.91 7.89 7.89 0 0 1-.07-2.73l.73-5.71a7.6 7.6 0 0 1 .75-2.6 3.28 3.28 0 0 1 1.59-1.51 6.14 6.14 0 0 1 5.2.67 3.36 3.36 0 0 1 1.16 1.86 7.68 7.68 0 0 1 .08 2.7l-.73 5.73a7.81 7.81 0 0 1-.76 2.6 3.43 3.43 0 0 1-1.6 1.55 4.82 4.82 0 0 1-2.69.28Zm.26-2.05a1.52 1.52 0 0 0 1.07-.17 1.55 1.55 0 0 0 .55-.77 5.6 5.6 0 0 0 .26-1.14l.9-7a5.76 5.76 0 0 0 0-1.16 1.48 1.48 0 0 0-.34-.86 1.52 1.52 0 0 0-1-.42 1.47 1.47 0 0 0-1 .16 1.45 1.45 0 0 0-.55.74 5 5 0 0 0-.26 1.14l-.9 7a5.75 5.75 0 0 0 0 1.16 1.44 1.44 0 0 0 .33.89 1.52 1.52 0 0 0 .94.43ZM346.75 359.31l1.95-15.26 3.75.47a8.24 8.24 0 0 1 1.82.43 3.63 3.63 0 0 1 1.33.81 2.86 2.86 0 0 1 .76 1.31 4.9 4.9 0 0 1 .08 1.95 4.42 4.42 0 0 1-.46 1.55 2.46 2.46 0 0 1-.88.95 2.63 2.63 0 0 1-1.29.36 3.25 3.25 0 0 1 1.42.82 2.88 2.88 0 0 1 .72 1.37A5.36 5.36 0 0 1 356 356a6.35 6.35 0 0 1-.52 1.9 3.53 3.53 0 0 1-1 1.29 3.4 3.4 0 0 1-1.45.67 5.71 5.71 0 0 1-1.91 0Zm3.94-8.67.95.12a2.81 2.81 0 0 0 1.31-.08 1.4 1.4 0 0 0 .73-.67 4.24 4.24 0 0 0 .34-1.26 2.46 2.46 0 0 0-.11-1.29 1.45 1.45 0 0 0-.75-.71 5.46 5.46 0 0 0-1.37-.34l-.55-.07Zm-.9 7.07 1.06.13a2 2 0 0 0 1.79-.39 3.19 3.19 0 0 0 .69-1.84 4.45 4.45 0 0 0 0-1.52 1.63 1.63 0 0 0-.61-.95 2.83 2.83 0 0 0-1.29-.46l-1-.12ZM357.25 360.65l1.95-15.26 6.41.82-.25 2-3.62-.47-.56 4.39 2.84.37-.24 1.94-2.85-.36-.65 5 3.66.46-.24 1.93ZM365.32 361.68l1.95-15.26 3.65.46a8.29 8.29 0 0 1 2.57.71 3 3 0 0 1 1.46 1.46 4.58 4.58 0 0 1 .24 2.48 6.82 6.82 0 0 1-.38 1.64 3.19 3.19 0 0 1-.73 1.18 2.6 2.6 0 0 1-1.23.65l1.17 7.8-2.79-.36-1-7.23-1.28-.16-.9 7Zm3.9-8.38.87.11a2.9 2.9 0 0 0 1.32-.08 1.33 1.33 0 0 0 .78-.66 3.52 3.52 0 0 0 .38-1.3 2.94 2.94 0 0 0-.2-1.78 1.92 1.92 0 0 0-1.54-.78l-1-.13Z" style="fill:#263238"/><path d="M297 430.88a2 2 0 0 1-1.09-.45 1.81 1.81 0 0 1-.54-.93 3.16 3.16 0 0 1-.06-1.24l.44-3.47a3.2 3.2 0 0 1 .37-1.2 1.7 1.7 0 0 1 .75-.75 2 2 0 0 1 1.18-.15 2 2 0 0 1 1.09.44 1.73 1.73 0 0 1 .54.91 3.46 3.46 0 0 1 0 1.26l-.44 3.46a3.51 3.51 0 0 1-.37 1.21 1.77 1.77 0 0 1-.76.75 1.89 1.89 0 0 1-1.11.16Zm.11-.87a.74.74 0 0 0 .6-.15 1.21 1.21 0 0 0 .34-.52 3.24 3.24 0 0 0 .16-.7l.45-3.48a3.72 3.72 0 0 0 0-.74 1.09 1.09 0 0 0-.19-.59.75.75 0 0 0-.55-.28.79.79 0 0 0-.61.13 1.13 1.13 0 0 0-.34.52 3.16 3.16 0 0 0-.16.72l-.45 3.48a3.51 3.51 0 0 0 0 .72 1.17 1.17 0 0 0 .21.6.76.76 0 0 0 .52.28ZM305.08 431.92a2 2 0 0 1-1.08-.45 1.91 1.91 0 0 1-.55-.93 3.42 3.42 0 0 1-.06-1.25l.45-3.46a3.51 3.51 0 0 1 .36-1.21 1.8 1.8 0 0 1 .76-.74 1.92 1.92 0 0 1 1.17-.16 2 2 0 0 1 1.09.45 1.66 1.66 0 0 1 .54.91 3.26 3.26 0 0 1 .05 1.26l-.44 3.46a3.32 3.32 0 0 1-.37 1.2 1.85 1.85 0 0 1-.76.76 2 2 0 0 1-1.16.16Zm.12-.88a.67.67 0 0 0 .59-.14 1.16 1.16 0 0 0 .34-.53 3.12 3.12 0 0 0 .17-.7l.44-3.48a3.73 3.73 0 0 0 0-.74 1.14 1.14 0 0 0-.19-.58.76.76 0 0 0-.56-.28.75.75 0 0 0-.61.13 1.1 1.1 0 0 0-.34.52 3.8 3.8 0 0 0-.16.72l-.45 3.48a3.47 3.47 0 0 0 0 .72 1.22 1.22 0 0 0 .2.59.73.73 0 0 0 .57.25ZM313.19 433a2 2 0 0 1-1.09-.45 1.75 1.75 0 0 1-.54-.93 3.16 3.16 0 0 1-.06-1.24l.44-3.46a3.25 3.25 0 0 1 .37-1.21 1.7 1.7 0 0 1 .75-.75 2 2 0 0 1 1.18-.15 2 2 0 0 1 1.09.44 1.87 1.87 0 0 1 .54.91 3.46 3.46 0 0 1 .05 1.26l-.44 3.47a3.52 3.52 0 0 1-.37 1.2 1.83 1.83 0 0 1-.76.75 1.89 1.89 0 0 1-1.16.16Zm.11-.87a.74.74 0 0 0 .6-.15 1.15 1.15 0 0 0 .34-.52 3.24 3.24 0 0 0 .16-.7l.45-3.48a3.72 3.72 0 0 0 0-.74 1.18 1.18 0 0 0-.19-.59.81.81 0 0 0-.55-.28.78.78 0 0 0-.62.14 1 1 0 0 0-.33.51 3.8 3.8 0 0 0-.17.72l-.44 3.48a3.51 3.51 0 0 0 0 .72 1.13 1.13 0 0 0 .21.6.74.74 0 0 0 .54.24ZM321.14 434a2.09 2.09 0 0 1-1.12-.43 1.54 1.54 0 0 1-.51-.88 4.08 4.08 0 0 1 0-1.27l1.06.13a4.26 4.26 0 0 0 0 .71 1.18 1.18 0 0 0 .18.6.79.79 0 0 0 .56.3.74.74 0 0 0 .66-.18 1.38 1.38 0 0 0 .33-.65 9.62 9.62 0 0 0 .17-1 5.5 5.5 0 0 0 .06-.94 1.16 1.16 0 0 0-.17-.61.78.78 0 0 0-.57-.28.77.77 0 0 0-.58.13 1.33 1.33 0 0 0-.4.42l-.9-.12.55-4.3 3.46.44-.14 1.06-2.5-.32-.35 2.22a1.4 1.4 0 0 1 .53-.27 2 2 0 0 1 .69 0 1.52 1.52 0 0 1 1 .44 1.55 1.55 0 0 1 .42.91 4.35 4.35 0 0 1 0 1.25 6.26 6.26 0 0 1-.24 1.13 2.5 2.5 0 0 1-.43.88 1.62 1.62 0 0 1-.68.54 2 2 0 0 1-1.08.09ZM328.13 434.77l.85-6.65h-1.44l.11-.8.4-.06a4.68 4.68 0 0 0 .48-.11 3.19 3.19 0 0 0 .48-.19 1.5 1.5 0 0 0 .4-.3l.81.1-1 8ZM333.74 435.49l.1-.76 2.45-2.92.51-.61a4.28 4.28 0 0 0 .4-.61 2.4 2.4 0 0 0 .22-.77 1.71 1.71 0 0 0-.07-.9.64.64 0 0 0-.58-.39.76.76 0 0 0-.61.13 1.08 1.08 0 0 0-.36.51 3.07 3.07 0 0 0-.17.71v.27l-1.06-.14v-.27a3.59 3.59 0 0 1 .35-1.22 1.61 1.61 0 0 1 .73-.73 2 2 0 0 1 1.18-.14 1.81 1.81 0 0 1 1.38.73 2.31 2.31 0 0 1 .28 1.59 2.69 2.69 0 0 1-.24.88 3.07 3.07 0 0 1-.41.68c-.16.21-.34.43-.53.64l-2.2 2.58 2.54.33-.12.89ZM343.4 436.81a2.19 2.19 0 0 1-1.06-.38 1.63 1.63 0 0 1-.56-.8 2.6 2.6 0 0 1-.08-1.13v-.27l1.05.14v.17a2.43 2.43 0 0 0 0 .66.81.81 0 0 0 .21.49 1 1 0 0 0 1.14.13 1 1 0 0 0 .34-.48 4.66 4.66 0 0 0 .17-.77 2.14 2.14 0 0 0-.1-1.07 1 1 0 0 0-.77-.54h-.14l.13-1.06h.14a1.1 1.1 0 0 0 .85-.2 1.39 1.39 0 0 0 .37-.89 1.84 1.84 0 0 0-.07-.9.8.8 0 0 0-.69-.42.76.76 0 0 0-.77.27 2.31 2.31 0 0 0-.32.91v.16l-1.05-.13v-.27a2.65 2.65 0 0 1 .36-1.07 1.62 1.62 0 0 1 .75-.62 2.28 2.28 0 0 1 1.13-.11 2.3 2.3 0 0 1 1.07.39 1.54 1.54 0 0 1 .56.79 2.49 2.49 0 0 1 .08 1.14 2 2 0 0 1-.46 1.12 1.59 1.59 0 0 1-.91.48 1.51 1.51 0 0 1 .57.46 1.93 1.93 0 0 1 .3.73 2.88 2.88 0 0 1 0 1 3.57 3.57 0 0 1-.36 1.22 1.71 1.71 0 0 1-.74.74 2 2 0 0 1-1.14.11Z" style="fill:#d6d6d6"/><path d="m283.88 231.43 1.48-11.59-1.26-.16-1.48 11.59-8.62-1.1 3.78-29.62 8.62 1.1-1.37 10.74 1.26.16 1.37-10.74 8.65 1.11-3.78 29.62-8.65-1.11z" style="fill:#263238"/><path d="m276.23 228.44 3.28-25.65 4.65.59-1.37 10.74 5.23.67 1.37-10.74 4.69.6-3.28 25.65-4.69-.6 1.48-11.59-5.22-.67-1.48 11.56Z" style="fill:#fff"/><path d="m302.43 233.8-.26-6.05-1.13-.14-1.8 5.78-8.49-1.08 9.71-28.86 8.26 1.05 2.14 30.38-8.43-1.08z" style="fill:#263238"/><path d="m293.43 230.64 8.41-25 5 .64 1.85 26.31-4.34-.56-.25-6.03-4.47-.57-1.8 5.79Zm7.06-8.15 3.48.45-.37-11Z" style="fill:#fff"/><path d="m308.89 234.63 3.79-29.62 8.65 1.11-2.87 22.42 6.21.79-.92 7.2-14.86-1.9z" style="fill:#263238"/><path d="m311.13 232.9 3.28-25.65 4.68.6-2.86 22.42 6.21.79-.42 3.23Z" style="fill:#fff"/><path d="m322.1 236.31 3.78-29.61 8.66 1.1-2.87 22.42 6.21.8-.92 7.19-14.86-1.9z" style="fill:#263238"/><path d="m324.33 234.58 3.28-25.65 4.69.6-2.87 22.47 6.21.8-.41 3.23Z" style="fill:#fff"/><path d="M344 239.47a10.07 10.07 0 0 1-5.23-2 7.6 7.6 0 0 1-2.62-4.31 15.27 15.27 0 0 1-.15-5.28l1.22-9.59a14.57 14.57 0 0 1 1.49-5.05 7.48 7.48 0 0 1 3.62-3.43 10.39 10.39 0 0 1 5.53-.58 10.25 10.25 0 0 1 5.27 2 7.59 7.59 0 0 1 2.63 4.21 14.43 14.43 0 0 1 .19 5.27l-1.23 9.63a14.63 14.63 0 0 1-1.5 5 7.85 7.85 0 0 1-3.59 3.48 10 10 0 0 1-5.63.65Zm.55-7.5a2.19 2.19 0 0 0 .4.08 2.5 2.5 0 0 0 .43 0 1.43 1.43 0 0 0 .14-.28 7.71 7.71 0 0 0 .34-1.5l1.51-11.81a7.3 7.3 0 0 0 .05-1.52.77.77 0 0 0-.06-.26 2.56 2.56 0 0 0-.44-.09 1.12 1.12 0 0 0-.45 0 1.57 1.57 0 0 0-.09.23 6.78 6.78 0 0 0-.33 1.48l-1.51 11.81a8.53 8.53 0 0 0-.06 1.57.73.73 0 0 0 .06.28Z" style="fill:#263238"/><path d="M344.27 237.49a8.28 8.28 0 0 1-4.21-1.57 5.7 5.7 0 0 1-1.94-3.21 13.3 13.3 0 0 1-.12-4.59l1.23-9.59a12.76 12.76 0 0 1 1.26-4.36 5.5 5.5 0 0 1 2.68-2.54 8.34 8.34 0 0 1 4.46-.43 8.44 8.44 0 0 1 4.26 1.54 5.65 5.65 0 0 1 1.95 3.13 12.26 12.26 0 0 1 .14 4.54l-1.23 9.59a12.43 12.43 0 0 1-1.28 4.36 5.81 5.81 0 0 1-2.68 2.62 8.18 8.18 0 0 1-4.52.51Zm.44-3.46a2.52 2.52 0 0 0 1.79-.28 2.61 2.61 0 0 0 .93-1.3 9.41 9.41 0 0 0 .43-1.91l1.51-11.81a9.43 9.43 0 0 0 .06-2 2.59 2.59 0 0 0-.57-1.44 2.63 2.63 0 0 0-1.67-.71 2.54 2.54 0 0 0-1.74.28 2.41 2.41 0 0 0-.93 1.25 9.5 9.5 0 0 0-.44 1.9l-1.51 11.82a10.88 10.88 0 0 0-.07 1.95 2.2 2.2 0 0 0 2.21 2.21Z" style="fill:#fff"/><path d="m365.5 241.86-.27-7.13-2.03 6.84-7.31-.94-.42-30.15 7.96 1.02v4.77l1.34-4.54 6.57.84.17 4.83 1.22-4.72 7.89 1.01-7.92 29.09-7.2-.92z" style="fill:#263238"/><path d="m357.87 238.87-.37-26.12 3.93.51v16.89l4.77-16.22 3.2.41.61 16.91 4.21-16.36 3.87.49-6.86 25.2-3.8-.49-.65-17.56-5 16.84Z" style="fill:#fff"/><path d="m375.42 243.13 3.79-29.62 14.73 1.88-.93 7.26-6.08-.77-.43 3.41 4.78.61-.92 7.23-4.79-.61-.57 4.52 6.14.78-.92 7.2-14.8-1.89z" style="fill:#263238"/><path d="m377.66 241.4 3.28-25.65 10.76 1.37-.42 3.3-6.08-.78-.94 7.38 4.78.61-.41 3.26-4.79-.61-1.08 8.49 6.14.78-.41 3.23Z" style="fill:#fff"/><path d="m388.98 244.86 3.78-29.62 14.74 1.89-.93 7.26-6.08-.78-.44 3.41 4.78.61-.92 7.23-4.78-.61-.58 4.52 6.14.78-.92 7.2-14.79-1.89z" style="fill:#263238"/><path d="m391.21 243.13 3.28-25.65 10.77 1.38-.42 3.29-6.08-.78-.95 7.38 4.79.61-.42 3.26-4.78-.62-1.09 8.49 6.15.78-.42 3.23Z" style="fill:#fff"/><path d="m413.44 247.99-2.03-7.6-.92 7.22-7.96-1.02 3.78-29.62 6.56.84 2.06 7.28.88-6.9 7.84 1-3.79 29.62-6.42-.82z" style="fill:#263238"/><path d="m404.77 244.86 3.23-25.65 3.27.42 4.36 15.43 1.87-14.63 3.87.49-3.28 25.65-3.1-.4-4.31-16.12-2 15.32Z" style="fill:#fff"/><path d="m284 273.61 5.41-42.34 13.25 1.7a12.94 12.94 0 0 1 6.43 2.4 9.58 9.58 0 0 1 3.39 5.17 17.38 17.38 0 0 1 .32 6.81 14.41 14.41 0 0 1-2.42 6.81 9.68 9.68 0 0 1-5 3.61 15.22 15.22 0 0 1-6.4.42l-1.81-.23L295 275Zm15-24.46a4.74 4.74 0 0 0 2.1-.06 1 1 0 0 0 .57-.56 8.91 8.91 0 0 0 .63-2.58 13.11 13.11 0 0 0 .12-3 1 1 0 0 0-.34-.73 4.66 4.66 0 0 0-2.13-.61l-.66-.08-1 7.49Z" style="fill:#263238"/><path d="m286.21 271.87 4.91-38.36 11.27 1.49a11 11 0 0 1 5.45 2 7.72 7.72 0 0 1 2.7 4.12 15.35 15.35 0 0 1 .26 6 12.46 12.46 0 0 1-2.05 5.87 7.59 7.59 0 0 1-4 2.88 13.07 13.07 0 0 1-5.56.35l-3.79-.48-2.18 17Zm9.79-21.08 2.65.34a6.7 6.7 0 0 0 3-.16 3 3 0 0 0 1.7-1.57 10.56 10.56 0 0 0 .81-3.19 15.49 15.49 0 0 0 .13-3.43 3 3 0 0 0-1.08-2.08 6.48 6.48 0 0 0-3.12-1l-2.65-.34Z" style="fill:#fff"/><path d="m321.61 278.41-.38-9.05-3.35-.42-2.69 8.65-10.67-1.36L318.4 235l10.73 1.37 3.06 43.42Zm-.72-17.65-.06-1.73-.49 1.66Z" style="fill:#263238"/><path d="m307.2 274.56 12.57-37.39 7.48 1 2.75 39.3-6.48-.83-.39-9.05-6.68-.85-2.69 8.66Zm10.55-12.18 5.25.62-.54-16.43Z" style="fill:#fff"/><path d="m346.76 281.63-2.24-17-2.11 16.47-11-1.4 5.41-42.33 11.18 1.39a22.56 22.56 0 0 1 7.07 2 9.6 9.6 0 0 1 4.6 4.62 13.44 13.44 0 0 1 .79 7.34 20.54 20.54 0 0 1-1.07 4.55 10 10 0 0 1-2.31 3.69 7.85 7.85 0 0 1-2.26 1.56l3.08 20.57Zm-.84-26.48a5.51 5.51 0 0 0 2.42-.08 1.54 1.54 0 0 0 .87-.76 7.25 7.25 0 0 0 .71-2.55 5.41 5.41 0 0 0-.27-3.24c-.25-.45-1.11-.79-2.37-1l-.58-.07-1 7.64Z" style="fill:#263238"/><path d="m333.67 277.94 4.9-38.37 9.19 1.18a20.45 20.45 0 0 1 6.44 1.76 7.57 7.57 0 0 1 3.67 3.67 11.4 11.4 0 0 1 .63 6.24 19.06 19.06 0 0 1-1 4.12 8 8 0 0 1-1.85 3 6.56 6.56 0 0 1-3.07 1.65l2.93 19.58-7-.89-2.39-18.17-3.22-.41-2.25 17.57Zm9.82-21.08 2.18.28A7.58 7.58 0 0 0 349 257a3.51 3.51 0 0 0 2-1.67 9.33 9.33 0 0 0 1-3.28 7.37 7.37 0 0 0-.52-4.47c-.58-1-1.87-1.7-3.86-2l-2.56-.33Z" style="fill:#fff"/><path d="m361.65 283.53 4.24-33.2-6.1-.78 1.16-9.13 23.1 2.95-1.16 9.13-6.02-.77-4.24 33.2-10.98-1.4z" style="fill:#263238"/><path d="m363.89 281.8 4.24-33.2-6.11-.78.66-5.17 19.14 2.45-.66 5.16-6-.77-4.26 33.21Z" style="fill:#fff"/><path d="m383.53 286.33 2.09-16.31-5.2-27.11 10.73 1.37 1.9 10.74 4.35-9.95 10.6 1.36-11.74 24.95-2.08 16.31-10.65-1.36z" style="fill:#263238"/><path d="m385.77 284.6 1.87-14.6-4.73-24.72 6.53.83 2.79 15.81 6.4-14.63 6.39.82-10.7 22.74-1.87 14.64Z" style="fill:#fff"/></svg>